%TF.GenerationSoftware,KiCad,Pcbnew,8.0.3*%
%TF.CreationDate,2024-07-15T09:38:54-04:00*%
%TF.ProjectId,reJESK,72654a45-534b-42e6-9b69-6361645f7063,1.0*%
%TF.SameCoordinates,Original*%
%TF.FileFunction,Drillmap*%
%TF.FilePolarity,Positive*%
%FSLAX45Y45*%
G04 Gerber Fmt 4.5, Leading zero omitted, Abs format (unit mm)*
G04 Created by KiCad (PCBNEW 8.0.3) date 2024-07-15 09:38:54*
%MOMM*%
%LPD*%
G01*
G04 APERTURE LIST*
%ADD10C,0.100000*%
%ADD11C,0.200000*%
%ADD12C,0.110000*%
%ADD13C,0.152400*%
G04 APERTURE END LIST*
D10*
X36625261Y-14590564D02*
X36378264Y-13189774D01*
X20192773Y-8063962D02*
X19175580Y-6611258D01*
X20192773Y-8063962D02*
X21163880Y-8067099D01*
X17466844Y-19154295D02*
X20554027Y-15468788D01*
X17454337Y-19152090D02*
X13791639Y-16081825D01*
X5910123Y-5123331D02*
X4586924Y-12627565D01*
X32873143Y-15252163D02*
X36625261Y-14590564D01*
X30627855Y-14951689D02*
X30922103Y-15157723D01*
X4731393Y-14587427D02*
X8483510Y-15249026D01*
X27565015Y-16084962D02*
X23902316Y-19155228D01*
X22181074Y-6614395D02*
X21163880Y-8067099D01*
X36769729Y-12630703D02*
X35446530Y-5126468D01*
X20802627Y-15471925D02*
X23889809Y-19157433D01*
X29627291Y-15128115D02*
X27565015Y-16084962D01*
X8483510Y-15249026D02*
X8983732Y-14898767D01*
X34800696Y-4389216D02*
X35389192Y-4801285D01*
X23889809Y-19157433D02*
X23902316Y-19155228D01*
X35446530Y-5126468D02*
X35389192Y-4801285D01*
X8983732Y-14898767D02*
X10434550Y-15154586D01*
X36378264Y-13189774D02*
X36769729Y-12630703D01*
X4978390Y-13186636D02*
X4731393Y-14587427D01*
X32372922Y-14901905D02*
X32873143Y-15252163D01*
X30627855Y-14951689D02*
X29627291Y-15128115D01*
X34800696Y-4389216D02*
X22181074Y-6614395D01*
X17454337Y-19152090D02*
X17466844Y-19154295D01*
X30922103Y-15157723D02*
X32372922Y-14901905D01*
X5967462Y-4798147D02*
X5910123Y-5123331D01*
X5967462Y-4798147D02*
X6555958Y-4386078D01*
X20802627Y-15471925D02*
X20554027Y-15468788D01*
X4586924Y-12627565D02*
X4978390Y-13186636D01*
X19175580Y-6611258D02*
X6555958Y-4386078D01*
X13791639Y-16081825D02*
X11729363Y-15124978D01*
X10434550Y-15154586D02*
X10728798Y-14948551D01*
X11729363Y-15124978D02*
X10728798Y-14948551D01*
D11*
D10*
X6703786Y-7460552D02*
X6743786Y-7500552D01*
X6743786Y-7460552D02*
X6703786Y-7500552D01*
X7881995Y-13303920D02*
X7921995Y-13343920D01*
X7921995Y-13303920D02*
X7881995Y-13343920D01*
X9794574Y-9655610D02*
X9834574Y-9695610D01*
X9834574Y-9655610D02*
X9794574Y-9695610D01*
X11046284Y-12922600D02*
X11086284Y-12962600D01*
X11086284Y-12922600D02*
X11046284Y-12962600D01*
X12751491Y-7283028D02*
X12791491Y-7323028D01*
X12791491Y-7283028D02*
X12751491Y-7323028D01*
X13066807Y-14852783D02*
X13106807Y-14892783D01*
X13106807Y-14852783D02*
X13066807Y-14892783D01*
X16252978Y-14526093D02*
X16292978Y-14566093D01*
X16292978Y-14526093D02*
X16252978Y-14566093D01*
X16358714Y-14646280D02*
X16398714Y-14686280D01*
X16398714Y-14646280D02*
X16358714Y-14686280D01*
X16374396Y-14234638D02*
X16414396Y-14274638D01*
X16414396Y-14234638D02*
X16374396Y-14274638D01*
X16489479Y-8399078D02*
X16529479Y-8439078D01*
X16529479Y-8399078D02*
X16489479Y-8439078D01*
X16581546Y-14355558D02*
X16621546Y-14395558D01*
X16621546Y-14355558D02*
X16581546Y-14395558D01*
X18389195Y-13923583D02*
X18429195Y-13963583D01*
X18429195Y-13923583D02*
X18389195Y-13963583D01*
X18909995Y-12379873D02*
X18949995Y-12419873D01*
X18949995Y-12379873D02*
X18909995Y-12419873D01*
X18981001Y-12697022D02*
X19021001Y-12737022D01*
X19021001Y-12697022D02*
X18981001Y-12737022D01*
X19080909Y-12562324D02*
X19120909Y-12602324D01*
X19120909Y-12562324D02*
X19080909Y-12602324D01*
X19364195Y-10748583D02*
X19404195Y-10788583D01*
X19404195Y-10748583D02*
X19364195Y-10788583D01*
X19367512Y-12526900D02*
X19407512Y-12566900D01*
X19407512Y-12526900D02*
X19367512Y-12566900D01*
X19455000Y-8480000D02*
X19495000Y-8520000D01*
X19495000Y-8480000D02*
X19455000Y-8520000D01*
X19539195Y-11179868D02*
X19579195Y-11219868D01*
X19579195Y-11179868D02*
X19539195Y-11219868D01*
X19739195Y-8505000D02*
X19779195Y-8545000D01*
X19779195Y-8505000D02*
X19739195Y-8545000D01*
X19882012Y-12266400D02*
X19922012Y-12306400D01*
X19922012Y-12266400D02*
X19882012Y-12306400D01*
X19946904Y-12963509D02*
X19986904Y-13003509D01*
X19986904Y-12963509D02*
X19946904Y-13003509D01*
X19980000Y-8442500D02*
X20020000Y-8482500D01*
X20020000Y-8442500D02*
X19980000Y-8482500D01*
X20189195Y-12548583D02*
X20229195Y-12588583D01*
X20229195Y-12548583D02*
X20189195Y-12588583D01*
X20259012Y-12143400D02*
X20299012Y-12183400D01*
X20299012Y-12143400D02*
X20259012Y-12183400D01*
X20289195Y-8530000D02*
X20329195Y-8570000D01*
X20329195Y-8530000D02*
X20289195Y-8570000D01*
X20389195Y-11148583D02*
X20429195Y-11188583D01*
X20429195Y-11148583D02*
X20389195Y-11188583D01*
X20464195Y-8298583D02*
X20504195Y-8338583D01*
X20504195Y-8298583D02*
X20464195Y-8338583D01*
X20589195Y-13223583D02*
X20629195Y-13263583D01*
X20629195Y-13223583D02*
X20589195Y-13263583D01*
X21014194Y-12923583D02*
X21054194Y-12963583D01*
X21054194Y-12923583D02*
X21014194Y-12963583D01*
X21014195Y-8323583D02*
X21054195Y-8363583D01*
X21054195Y-8323583D02*
X21014195Y-8363583D01*
X21039194Y-12298583D02*
X21079194Y-12338583D01*
X21079194Y-12298583D02*
X21039194Y-12338583D01*
X21114195Y-9873583D02*
X21154195Y-9913583D01*
X21154195Y-9873583D02*
X21114195Y-9913583D01*
X21164194Y-10823583D02*
X21204194Y-10863583D01*
X21204194Y-10823583D02*
X21164194Y-10863583D01*
X21214194Y-8498583D02*
X21254194Y-8538583D01*
X21254194Y-8498583D02*
X21214194Y-8538583D01*
X21326694Y-13223583D02*
X21366694Y-13263583D01*
X21366694Y-13223583D02*
X21326694Y-13263583D01*
X21489195Y-13523583D02*
X21529195Y-13563583D01*
X21529195Y-13523583D02*
X21489195Y-13563583D01*
X21780808Y-13746767D02*
X21820808Y-13786767D01*
X21820808Y-13746767D02*
X21780808Y-13786767D01*
X21992280Y-13506393D02*
X22032280Y-13546393D01*
X22032280Y-13506393D02*
X21992280Y-13546393D01*
X22380110Y-13432668D02*
X22420110Y-13472668D01*
X22420110Y-13432668D02*
X22380110Y-13472668D01*
X22715309Y-10840338D02*
X22755309Y-10880338D01*
X22755309Y-10840338D02*
X22715309Y-10880338D01*
X22729819Y-10634694D02*
X22769819Y-10674694D01*
X22769819Y-10634694D02*
X22729819Y-10674694D01*
X23946559Y-8897010D02*
X23986559Y-8937010D01*
X23986559Y-8897010D02*
X23946559Y-8937010D01*
X24155000Y-12605000D02*
X24195000Y-12645000D01*
X24195000Y-12605000D02*
X24155000Y-12645000D01*
X24172001Y-12335094D02*
X24212001Y-12375094D01*
X24212001Y-12335094D02*
X24172001Y-12375094D01*
X25794020Y-12176017D02*
X25834020Y-12216017D01*
X25834020Y-12176017D02*
X25794020Y-12216017D01*
X26497896Y-11848819D02*
X26537896Y-11888819D01*
X26537896Y-11848819D02*
X26497896Y-11888819D01*
X28751357Y-11527630D02*
X28791357Y-11567630D01*
X28791357Y-11527630D02*
X28751357Y-11567630D01*
X30561698Y-14470180D02*
X30601698Y-14510180D01*
X30601698Y-14470180D02*
X30561698Y-14510180D01*
X32435403Y-12985044D02*
X32475403Y-13025044D01*
X32475403Y-12985044D02*
X32435403Y-13025044D01*
X34736618Y-12934677D02*
X34776618Y-12974677D01*
X34776618Y-12934677D02*
X34736618Y-12974677D01*
X36232621Y-12924748D02*
X36272621Y-12964748D01*
X36272621Y-12924748D02*
X36232621Y-12964748D01*
X5556224Y-13500701D02*
G75*
G02*
X5476224Y-13500701I-40000J0D01*
G01*
X5476224Y-13500701D02*
G75*
G02*
X5556224Y-13500701I40000J0D01*
G01*
X5489582Y-13536621D02*
X5528974Y-13543567D01*
X5542866Y-13464782D02*
G75*
G02*
X5528974Y-13543567I-6946J-39392D01*
G01*
X5542866Y-13464782D02*
X5503474Y-13457836D01*
X5503474Y-13457836D02*
G75*
G03*
X5489582Y-13536621I-6946J-39392D01*
G01*
X5636883Y-11580536D02*
G75*
G02*
X5556883Y-11580536I-40000J0D01*
G01*
X5556883Y-11580536D02*
G75*
G02*
X5636883Y-11580536I40000J0D01*
G01*
X5570241Y-11616455D02*
X5609633Y-11623401D01*
X5623525Y-11544617D02*
G75*
G02*
X5609633Y-11623401I-6946J-39392D01*
G01*
X5623525Y-11544617D02*
X5584132Y-11537671D01*
X5584132Y-11537671D02*
G75*
G03*
X5570241Y-11616455I-6946J-39392D01*
G01*
X5967682Y-9704478D02*
G75*
G02*
X5887682Y-9704478I-40000J0D01*
G01*
X5887682Y-9704478D02*
G75*
G02*
X5967682Y-9704478I40000J0D01*
G01*
X5901040Y-9740397D02*
X5940433Y-9747343D01*
X5954324Y-9668558D02*
G75*
G02*
X5940433Y-9747343I-6946J-39392D01*
G01*
X5954324Y-9668558D02*
X5914932Y-9661612D01*
X5914932Y-9661612D02*
G75*
G03*
X5901040Y-9740397I-6946J-39392D01*
G01*
X6225683Y-13360827D02*
G75*
G02*
X6145683Y-13360827I-40000J0D01*
G01*
X6145683Y-13360827D02*
G75*
G02*
X6225683Y-13360827I40000J0D01*
G01*
X6159041Y-13396746D02*
X6198434Y-13403692D01*
X6212326Y-13324907D02*
G75*
G02*
X6198434Y-13403692I-6946J-39392D01*
G01*
X6212326Y-13324907D02*
X6172933Y-13317961D01*
X6172933Y-13317961D02*
G75*
G03*
X6159041Y-13396746I-6946J-39392D01*
G01*
X6298482Y-7828419D02*
G75*
G02*
X6218482Y-7828419I-40000J0D01*
G01*
X6218482Y-7828419D02*
G75*
G02*
X6298482Y-7828419I40000J0D01*
G01*
X6231840Y-7864338D02*
X6271232Y-7871284D01*
X6285124Y-7792500D02*
G75*
G02*
X6271232Y-7871284I-6946J-39392D01*
G01*
X6285124Y-7792500D02*
X6245732Y-7785554D01*
X6245732Y-7785554D02*
G75*
G03*
X6231840Y-7864338I-6946J-39392D01*
G01*
X6306342Y-11440661D02*
G75*
G02*
X6226342Y-11440661I-40000J0D01*
G01*
X6226342Y-11440661D02*
G75*
G02*
X6306342Y-11440661I40000J0D01*
G01*
X6239700Y-11476581D02*
X6279092Y-11483527D01*
X6292984Y-11404742D02*
G75*
G02*
X6279092Y-11483527I-6946J-39392D01*
G01*
X6292984Y-11404742D02*
X6253592Y-11397796D01*
X6253592Y-11397796D02*
G75*
G03*
X6239700Y-11476581I-6946J-39392D01*
G01*
X6629282Y-5952360D02*
G75*
G02*
X6549282Y-5952360I-40000J0D01*
G01*
X6549282Y-5952360D02*
G75*
G02*
X6629282Y-5952360I40000J0D01*
G01*
X6562640Y-5988279D02*
X6602032Y-5995225D01*
X6615924Y-5916441D02*
G75*
G02*
X6602032Y-5995225I-6946J-39392D01*
G01*
X6615924Y-5916441D02*
X6576532Y-5909495D01*
X6576532Y-5909495D02*
G75*
G03*
X6562640Y-5988279I-6946J-39392D01*
G01*
X6637142Y-9564603D02*
G75*
G02*
X6557142Y-9564603I-40000J0D01*
G01*
X6557142Y-9564603D02*
G75*
G02*
X6637142Y-9564603I40000J0D01*
G01*
X6570500Y-9600522D02*
X6609892Y-9607468D01*
X6623784Y-9528684D02*
G75*
G02*
X6609892Y-9607468I-6946J-39392D01*
G01*
X6623784Y-9528684D02*
X6584392Y-9521738D01*
X6584392Y-9521738D02*
G75*
G03*
X6570500Y-9600522I-6946J-39392D01*
G01*
X6967942Y-7688544D02*
G75*
G02*
X6887942Y-7688544I-40000J0D01*
G01*
X6887942Y-7688544D02*
G75*
G02*
X6967942Y-7688544I40000J0D01*
G01*
X6901299Y-7724464D02*
X6940692Y-7731410D01*
X6954584Y-7652625D02*
G75*
G02*
X6940692Y-7731410I-6946J-39392D01*
G01*
X6954584Y-7652625D02*
X6915191Y-7645679D01*
X6915191Y-7645679D02*
G75*
G03*
X6901299Y-7724464I-6946J-39392D01*
G01*
X7298741Y-5812485D02*
G75*
G02*
X7218741Y-5812485I-40000J0D01*
G01*
X7218741Y-5812485D02*
G75*
G02*
X7298741Y-5812485I40000J0D01*
G01*
X7232099Y-5848405D02*
X7271492Y-5855351D01*
X7285384Y-5776566D02*
G75*
G02*
X7271492Y-5855351I-6946J-39392D01*
G01*
X7285384Y-5776566D02*
X7245991Y-5769620D01*
X7245991Y-5769620D02*
G75*
G03*
X7232099Y-5848405I-6946J-39392D01*
G01*
X7432283Y-13831501D02*
G75*
G02*
X7352283Y-13831501I-40000J0D01*
G01*
X7352283Y-13831501D02*
G75*
G02*
X7432283Y-13831501I40000J0D01*
G01*
X7365641Y-13867420D02*
X7405033Y-13874366D01*
X7418925Y-13795582D02*
G75*
G02*
X7405033Y-13874366I-6946J-39392D01*
G01*
X7418925Y-13795582D02*
X7379533Y-13788636D01*
X7379532Y-13788636D02*
G75*
G03*
X7365641Y-13867420I-6946J-39392D01*
G01*
X7763083Y-11955442D02*
G75*
G02*
X7683083Y-11955442I-40000J0D01*
G01*
X7683083Y-11955442D02*
G75*
G02*
X7763083Y-11955442I40000J0D01*
G01*
X7696440Y-11991362D02*
X7735833Y-11998308D01*
X7749725Y-11919523D02*
G75*
G02*
X7735833Y-11998308I-6946J-39392D01*
G01*
X7749725Y-11919523D02*
X7710332Y-11912577D01*
X7710332Y-11912577D02*
G75*
G03*
X7696440Y-11991362I-6946J-39392D01*
G01*
X8093882Y-10079384D02*
G75*
G02*
X8013882Y-10079384I-40000J0D01*
G01*
X8013882Y-10079384D02*
G75*
G02*
X8093882Y-10079384I40000J0D01*
G01*
X8027240Y-10115303D02*
X8066632Y-10122249D01*
X8080524Y-10043465D02*
G75*
G02*
X8066633Y-10122249I-6946J-39392D01*
G01*
X8080524Y-10043465D02*
X8041132Y-10036519D01*
X8041132Y-10036519D02*
G75*
G03*
X8027240Y-10115303I-6946J-39392D01*
G01*
X8101742Y-13691627D02*
G75*
G02*
X8021742Y-13691627I-40000J0D01*
G01*
X8021742Y-13691627D02*
G75*
G02*
X8101742Y-13691627I40000J0D01*
G01*
X8035100Y-13727546D02*
X8074492Y-13734492D01*
X8088384Y-13655707D02*
G75*
G02*
X8074493Y-13734492I-6946J-39392D01*
G01*
X8088384Y-13655707D02*
X8048992Y-13648761D01*
X8048992Y-13648761D02*
G75*
G03*
X8035100Y-13727546I-6946J-39392D01*
G01*
X8424682Y-8203325D02*
G75*
G02*
X8344682Y-8203325I-40000J0D01*
G01*
X8344682Y-8203325D02*
G75*
G02*
X8424682Y-8203325I40000J0D01*
G01*
X8358040Y-8239245D02*
X8397432Y-8246191D01*
X8411324Y-8167406D02*
G75*
G02*
X8397432Y-8246191I-6946J-39392D01*
G01*
X8411324Y-8167406D02*
X8371932Y-8160460D01*
X8371932Y-8160460D02*
G75*
G03*
X8358040Y-8239245I-6946J-39392D01*
G01*
X8432542Y-11815568D02*
G75*
G02*
X8352542Y-11815568I-40000J0D01*
G01*
X8352542Y-11815568D02*
G75*
G02*
X8432542Y-11815568I40000J0D01*
G01*
X8365900Y-11851487D02*
X8405292Y-11858433D01*
X8419184Y-11779648D02*
G75*
G02*
X8405292Y-11858433I-6946J-39392D01*
G01*
X8419184Y-11779648D02*
X8379792Y-11772702D01*
X8379792Y-11772702D02*
G75*
G03*
X8365900Y-11851487I-6946J-39392D01*
G01*
X8755482Y-6327267D02*
G75*
G02*
X8675482Y-6327267I-40000J0D01*
G01*
X8675482Y-6327267D02*
G75*
G02*
X8755482Y-6327267I40000J0D01*
G01*
X8688840Y-6363186D02*
X8728232Y-6370132D01*
X8742124Y-6291347D02*
G75*
G02*
X8728232Y-6370132I-6946J-39392D01*
G01*
X8742124Y-6291347D02*
X8702732Y-6284401D01*
X8702732Y-6284401D02*
G75*
G03*
X8688840Y-6363186I-6946J-39392D01*
G01*
X8763342Y-9939509D02*
G75*
G02*
X8683342Y-9939509I-40000J0D01*
G01*
X8683342Y-9939509D02*
G75*
G02*
X8763342Y-9939509I40000J0D01*
G01*
X8696700Y-9975429D02*
X8736092Y-9982375D01*
X8749984Y-9903590D02*
G75*
G02*
X8736092Y-9982375I-6946J-39392D01*
G01*
X8749984Y-9903590D02*
X8710592Y-9896644D01*
X8710592Y-9896644D02*
G75*
G03*
X8696700Y-9975429I-6946J-39392D01*
G01*
X9094142Y-8063451D02*
G75*
G02*
X9014142Y-8063451I-40000J0D01*
G01*
X9014142Y-8063451D02*
G75*
G02*
X9094142Y-8063451I40000J0D01*
G01*
X9027499Y-8099370D02*
X9066892Y-8106316D01*
X9080784Y-8027531D02*
G75*
G02*
X9066892Y-8106316I-6946J-39392D01*
G01*
X9080784Y-8027531D02*
X9041391Y-8020585D01*
X9041391Y-8020585D02*
G75*
G03*
X9027499Y-8099370I-6946J-39392D01*
G01*
X9385528Y-13724554D02*
G75*
G02*
X9305528Y-13724554I-40000J0D01*
G01*
X9305528Y-13724554D02*
G75*
G02*
X9385528Y-13724554I40000J0D01*
G01*
X9318886Y-13760473D02*
X9358278Y-13767419D01*
X9372170Y-13688634D02*
G75*
G02*
X9358279Y-13767419I-6946J-39392D01*
G01*
X9372170Y-13688634D02*
X9332778Y-13681688D01*
X9332778Y-13681688D02*
G75*
G03*
X9318886Y-13760473I-6946J-39392D01*
G01*
X9424941Y-6187392D02*
G75*
G02*
X9344941Y-6187392I-40000J0D01*
G01*
X9344941Y-6187392D02*
G75*
G02*
X9424941Y-6187392I40000J0D01*
G01*
X9358299Y-6223311D02*
X9397692Y-6230257D01*
X9411583Y-6151473D02*
G75*
G02*
X9397692Y-6230257I-6946J-39392D01*
G01*
X9411583Y-6151473D02*
X9372191Y-6144527D01*
X9372191Y-6144527D02*
G75*
G03*
X9358299Y-6223311I-6946J-39392D01*
G01*
X9716328Y-11848495D02*
G75*
G02*
X9636328Y-11848495I-40000J0D01*
G01*
X9636328Y-11848495D02*
G75*
G02*
X9716328Y-11848495I40000J0D01*
G01*
X9649686Y-11884414D02*
X9689078Y-11891360D01*
X9702970Y-11812576D02*
G75*
G02*
X9689078Y-11891360I-6946J-39392D01*
G01*
X9702970Y-11812576D02*
X9663578Y-11805630D01*
X9663578Y-11805630D02*
G75*
G03*
X9649686Y-11884414I-6946J-39392D01*
G01*
X10047128Y-9972437D02*
G75*
G02*
X9967128Y-9972437I-40000J0D01*
G01*
X9967128Y-9972437D02*
G75*
G02*
X10047128Y-9972437I40000J0D01*
G01*
X9980486Y-10008356D02*
X10019878Y-10015302D01*
X10033770Y-9936517D02*
G75*
G02*
X10019878Y-10015302I-6946J-39392D01*
G01*
X10033770Y-9936517D02*
X9994378Y-9929571D01*
X9994377Y-9929571D02*
G75*
G03*
X9980486Y-10008356I-6946J-39392D01*
G01*
X10054988Y-13584679D02*
G75*
G02*
X9974988Y-13584679I-40000J0D01*
G01*
X9974988Y-13584679D02*
G75*
G02*
X10054988Y-13584679I40000J0D01*
G01*
X9988346Y-13620598D02*
X10027738Y-13627544D01*
X10041630Y-13548760D02*
G75*
G02*
X10027738Y-13627544I-6946J-39392D01*
G01*
X10041630Y-13548760D02*
X10002238Y-13541814D01*
X10002237Y-13541814D02*
G75*
G03*
X9988346Y-13620598I-6946J-39392D01*
G01*
X10377927Y-8096378D02*
G75*
G02*
X10297927Y-8096378I-40000J0D01*
G01*
X10297927Y-8096378D02*
G75*
G02*
X10377927Y-8096378I40000J0D01*
G01*
X10311285Y-8132297D02*
X10350678Y-8139243D01*
X10364569Y-8060459D02*
G75*
G02*
X10350678Y-8139243I-6946J-39392D01*
G01*
X10364569Y-8060459D02*
X10325177Y-8053513D01*
X10325177Y-8053513D02*
G75*
G03*
X10311285Y-8132297I-6946J-39392D01*
G01*
X10385788Y-11708620D02*
G75*
G02*
X10305788Y-11708620I-40000J0D01*
G01*
X10305788Y-11708620D02*
G75*
G02*
X10385788Y-11708620I40000J0D01*
G01*
X10319145Y-11744540D02*
X10358538Y-11751486D01*
X10372430Y-11672701D02*
G75*
G02*
X10358538Y-11751486I-6946J-39392D01*
G01*
X10372430Y-11672701D02*
X10333037Y-11665755D01*
X10333037Y-11665755D02*
G75*
G03*
X10319145Y-11744540I-6946J-39392D01*
G01*
X10708727Y-6220319D02*
G75*
G02*
X10628727Y-6220319I-40000J0D01*
G01*
X10628727Y-6220319D02*
G75*
G02*
X10708727Y-6220319I40000J0D01*
G01*
X10642085Y-6256239D02*
X10681477Y-6263185D01*
X10695369Y-6184400D02*
G75*
G02*
X10681478Y-6263185I-6946J-39392D01*
G01*
X10695369Y-6184400D02*
X10655977Y-6177454D01*
X10655977Y-6177454D02*
G75*
G03*
X10642085Y-6256239I-6946J-39392D01*
G01*
X10716587Y-9832562D02*
G75*
G02*
X10636587Y-9832562I-40000J0D01*
G01*
X10636587Y-9832562D02*
G75*
G02*
X10716587Y-9832562I40000J0D01*
G01*
X10649945Y-9868481D02*
X10689337Y-9875427D01*
X10703229Y-9796643D02*
G75*
G02*
X10689338Y-9875427I-6946J-39392D01*
G01*
X10703229Y-9796643D02*
X10663837Y-9789697D01*
X10663837Y-9789697D02*
G75*
G03*
X10649945Y-9868481I-6946J-39392D01*
G01*
X11047387Y-7956503D02*
G75*
G02*
X10967387Y-7956503I-40000J0D01*
G01*
X10967387Y-7956503D02*
G75*
G02*
X11047387Y-7956503I40000J0D01*
G01*
X10980745Y-7992423D02*
X11020137Y-7999369D01*
X11034029Y-7920584D02*
G75*
G02*
X11020137Y-7999369I-6946J-39392D01*
G01*
X11034029Y-7920584D02*
X10994637Y-7913638D01*
X10994637Y-7913638D02*
G75*
G03*
X10980745Y-7992423I-6946J-39392D01*
G01*
X11305693Y-13805212D02*
G75*
G02*
X11225693Y-13805212I-40000J0D01*
G01*
X11225693Y-13805212D02*
G75*
G02*
X11305693Y-13805212I40000J0D01*
G01*
X11239051Y-13841132D02*
X11278444Y-13848078D01*
X11292336Y-13769293D02*
G75*
G02*
X11278444Y-13848078I-6946J-39392D01*
G01*
X11292336Y-13769293D02*
X11252943Y-13762347D01*
X11252943Y-13762347D02*
G75*
G03*
X11239051Y-13841132I-6946J-39392D01*
G01*
X11378187Y-6080445D02*
G75*
G02*
X11298187Y-6080445I-40000J0D01*
G01*
X11298187Y-6080445D02*
G75*
G02*
X11378187Y-6080445I40000J0D01*
G01*
X11311545Y-6116364D02*
X11350937Y-6123310D01*
X11364829Y-6044525D02*
G75*
G02*
X11350937Y-6123310I-6946J-39392D01*
G01*
X11364829Y-6044525D02*
X11325436Y-6037579D01*
X11325436Y-6037579D02*
G75*
G03*
X11311545Y-6116364I-6946J-39392D01*
G01*
X11636493Y-11929154D02*
G75*
G02*
X11556493Y-11929154I-40000J0D01*
G01*
X11556493Y-11929154D02*
G75*
G02*
X11636493Y-11929154I40000J0D01*
G01*
X11569851Y-11965073D02*
X11609243Y-11972019D01*
X11623135Y-11893235D02*
G75*
G02*
X11609244Y-11972019I-6946J-39392D01*
G01*
X11623135Y-11893235D02*
X11583743Y-11886289D01*
X11583743Y-11886289D02*
G75*
G03*
X11569851Y-11965073I-6946J-39392D01*
G01*
X11967293Y-10053095D02*
G75*
G02*
X11887293Y-10053095I-40000J0D01*
G01*
X11887293Y-10053095D02*
G75*
G02*
X11967293Y-10053095I40000J0D01*
G01*
X11900651Y-10089015D02*
X11940043Y-10095961D01*
X11953935Y-10017176D02*
G75*
G02*
X11940043Y-10095961I-6946J-39392D01*
G01*
X11953935Y-10017176D02*
X11914543Y-10010230D01*
X11914543Y-10010230D02*
G75*
G03*
X11900651Y-10089015I-6946J-39392D01*
G01*
X11975153Y-13665338D02*
G75*
G02*
X11895153Y-13665338I-40000J0D01*
G01*
X11895153Y-13665338D02*
G75*
G02*
X11975153Y-13665338I40000J0D01*
G01*
X11908511Y-13701257D02*
X11947903Y-13708203D01*
X11961795Y-13629418D02*
G75*
G02*
X11947903Y-13708203I-6946J-39392D01*
G01*
X11961795Y-13629418D02*
X11922403Y-13622472D01*
X11922403Y-13622472D02*
G75*
G03*
X11908511Y-13701257I-6946J-39392D01*
G01*
X12298093Y-8177037D02*
G75*
G02*
X12218093Y-8177037I-40000J0D01*
G01*
X12218093Y-8177037D02*
G75*
G02*
X12298093Y-8177037I40000J0D01*
G01*
X12231451Y-8212956D02*
X12270843Y-8219902D01*
X12284735Y-8141117D02*
G75*
G02*
X12270843Y-8219902I-6946J-39392D01*
G01*
X12284735Y-8141117D02*
X12245343Y-8134171D01*
X12245342Y-8134171D02*
G75*
G03*
X12231451Y-8212956I-6946J-39392D01*
G01*
X12305953Y-11789279D02*
G75*
G02*
X12225953Y-11789279I-40000J0D01*
G01*
X12225953Y-11789279D02*
G75*
G02*
X12305953Y-11789279I40000J0D01*
G01*
X12239311Y-11825199D02*
X12278703Y-11832145D01*
X12292595Y-11753360D02*
G75*
G02*
X12278703Y-11832145I-6946J-39392D01*
G01*
X12292595Y-11753360D02*
X12253203Y-11746414D01*
X12253202Y-11746414D02*
G75*
G03*
X12239311Y-11825199I-6946J-39392D01*
G01*
X12628893Y-6300978D02*
G75*
G02*
X12548893Y-6300978I-40000J0D01*
G01*
X12548893Y-6300978D02*
G75*
G02*
X12628893Y-6300978I40000J0D01*
G01*
X12562250Y-6336897D02*
X12601643Y-6343843D01*
X12615535Y-6265058D02*
G75*
G02*
X12601643Y-6343843I-6946J-39392D01*
G01*
X12615535Y-6265058D02*
X12576142Y-6258112D01*
X12576142Y-6258112D02*
G75*
G03*
X12562250Y-6336897I-6946J-39392D01*
G01*
X12636753Y-9913221D02*
G75*
G02*
X12556753Y-9913221I-40000J0D01*
G01*
X12556753Y-9913221D02*
G75*
G02*
X12636753Y-9913221I40000J0D01*
G01*
X12570110Y-9949140D02*
X12609503Y-9956086D01*
X12623395Y-9877301D02*
G75*
G02*
X12609503Y-9956086I-6946J-39392D01*
G01*
X12623395Y-9877301D02*
X12584002Y-9870355D01*
X12584002Y-9870355D02*
G75*
G03*
X12570110Y-9949140I-6946J-39392D01*
G01*
X12967552Y-8037162D02*
G75*
G02*
X12887552Y-8037162I-40000J0D01*
G01*
X12887552Y-8037162D02*
G75*
G02*
X12967552Y-8037162I40000J0D01*
G01*
X12900910Y-8073081D02*
X12940302Y-8080027D01*
X12954194Y-8001243D02*
G75*
G02*
X12940303Y-8080027I-6946J-39392D01*
G01*
X12954194Y-8001243D02*
X12914802Y-7994297D01*
X12914802Y-7994297D02*
G75*
G03*
X12900910Y-8073081I-6946J-39392D01*
G01*
X13298352Y-6161103D02*
G75*
G02*
X13218352Y-6161103I-40000J0D01*
G01*
X13218352Y-6161103D02*
G75*
G02*
X13298352Y-6161103I40000J0D01*
G01*
X13231710Y-6197022D02*
X13271102Y-6203968D01*
X13284994Y-6125184D02*
G75*
G02*
X13271102Y-6203968I-6946J-39392D01*
G01*
X13284994Y-6125184D02*
X13245602Y-6118238D01*
X13245602Y-6118238D02*
G75*
G03*
X13231710Y-6197022I-6946J-39392D01*
G01*
X13468445Y-12510095D02*
G75*
G02*
X13388445Y-12510095I-40000J0D01*
G01*
X13388445Y-12510095D02*
G75*
G02*
X13468445Y-12510095I40000J0D01*
G01*
X13401803Y-12546014D02*
X13441196Y-12552960D01*
X13455087Y-12474175D02*
G75*
G02*
X13441196Y-12552960I-6946J-39392D01*
G01*
X13455087Y-12474175D02*
X13415695Y-12467229D01*
X13415695Y-12467229D02*
G75*
G03*
X13401803Y-12546014I-6946J-39392D01*
G01*
X13799245Y-10634036D02*
G75*
G02*
X13719245Y-10634036I-40000J0D01*
G01*
X13719245Y-10634036D02*
G75*
G02*
X13799245Y-10634036I40000J0D01*
G01*
X13732603Y-10669955D02*
X13771995Y-10676901D01*
X13785887Y-10598117D02*
G75*
G02*
X13771995Y-10676901I-6946J-39392D01*
G01*
X13785887Y-10598117D02*
X13746495Y-10591171D01*
X13746495Y-10591171D02*
G75*
G03*
X13732603Y-10669955I-6946J-39392D01*
G01*
X13801012Y-14734178D02*
G75*
G02*
X13721012Y-14734178I-40000J0D01*
G01*
X13721012Y-14734178D02*
G75*
G02*
X13801012Y-14734178I40000J0D01*
G01*
X13725981Y-14761978D02*
X13762233Y-14778882D01*
X13796043Y-14706378D02*
G75*
G02*
X13762234Y-14778882I-16905J-36252D01*
G01*
X13796043Y-14706378D02*
X13759791Y-14689473D01*
X13759791Y-14689473D02*
G75*
G03*
X13725981Y-14761978I-16905J-36252D01*
G01*
X14130045Y-8757978D02*
G75*
G02*
X14050045Y-8757978I-40000J0D01*
G01*
X14050045Y-8757978D02*
G75*
G02*
X14130045Y-8757978I40000J0D01*
G01*
X14063403Y-8793897D02*
X14102795Y-8800843D01*
X14116687Y-8722058D02*
G75*
G02*
X14102795Y-8800843I-6946J-39392D01*
G01*
X14116687Y-8722058D02*
X14077295Y-8715112D01*
X14077295Y-8715112D02*
G75*
G03*
X14063403Y-8793897I-6946J-39392D01*
G01*
X14137905Y-12370220D02*
G75*
G02*
X14057905Y-12370220I-40000J0D01*
G01*
X14057905Y-12370220D02*
G75*
G02*
X14137905Y-12370220I40000J0D01*
G01*
X14071263Y-12406139D02*
X14110655Y-12413085D01*
X14124547Y-12334301D02*
G75*
G02*
X14110655Y-12413085I-6946J-39392D01*
G01*
X14124547Y-12334301D02*
X14085155Y-12327355D01*
X14085155Y-12327355D02*
G75*
G03*
X14071263Y-12406139I-6946J-39392D01*
G01*
X14460845Y-6881919D02*
G75*
G02*
X14380845Y-6881919I-40000J0D01*
G01*
X14380845Y-6881919D02*
G75*
G02*
X14460845Y-6881919I40000J0D01*
G01*
X14394203Y-6917838D02*
X14433595Y-6924784D01*
X14447487Y-6846000D02*
G75*
G02*
X14433595Y-6924784I-6946J-39392D01*
G01*
X14447487Y-6846000D02*
X14408094Y-6839054D01*
X14408094Y-6839054D02*
G75*
G03*
X14394203Y-6917838I-6946J-39392D01*
G01*
X14468705Y-10494161D02*
G75*
G02*
X14388705Y-10494161I-40000J0D01*
G01*
X14388705Y-10494161D02*
G75*
G02*
X14468705Y-10494161I40000J0D01*
G01*
X14402063Y-10530081D02*
X14441455Y-10537027D01*
X14455347Y-10458242D02*
G75*
G02*
X14441455Y-10537027I-6946J-39392D01*
G01*
X14455347Y-10458242D02*
X14415954Y-10451296D01*
X14415954Y-10451296D02*
G75*
G03*
X14402063Y-10530081I-6946J-39392D01*
G01*
X14483863Y-14772338D02*
G75*
G02*
X14403863Y-14772338I-40000J0D01*
G01*
X14403863Y-14772338D02*
G75*
G02*
X14483863Y-14772338I40000J0D01*
G01*
X14408832Y-14800138D02*
X14445084Y-14817043D01*
X14478893Y-14744538D02*
G75*
G02*
X14445084Y-14817043I-16905J-36252D01*
G01*
X14478893Y-14744538D02*
X14442641Y-14727633D01*
X14442641Y-14727633D02*
G75*
G03*
X14408832Y-14800138I-16905J-36252D01*
G01*
X14799504Y-8618103D02*
G75*
G02*
X14719504Y-8618103I-40000J0D01*
G01*
X14719504Y-8618103D02*
G75*
G02*
X14799504Y-8618103I40000J0D01*
G01*
X14732862Y-8654022D02*
X14772255Y-8660968D01*
X14786146Y-8582184D02*
G75*
G02*
X14772255Y-8660968I-6946J-39392D01*
G01*
X14786146Y-8582184D02*
X14746754Y-8575238D01*
X14746754Y-8575238D02*
G75*
G03*
X14732862Y-8654022I-6946J-39392D01*
G01*
X15130304Y-6742044D02*
G75*
G02*
X15050304Y-6742044I-40000J0D01*
G01*
X15050304Y-6742044D02*
G75*
G02*
X15130304Y-6742044I40000J0D01*
G01*
X15063662Y-6777964D02*
X15103054Y-6784910D01*
X15116946Y-6706125D02*
G75*
G02*
X15103054Y-6784910I-6946J-39392D01*
G01*
X15116946Y-6706125D02*
X15077554Y-6699179D01*
X15077554Y-6699179D02*
G75*
G03*
X15063662Y-6777964I-6946J-39392D01*
G01*
X15311424Y-13028500D02*
G75*
G02*
X15231424Y-13028500I-40000J0D01*
G01*
X15231424Y-13028500D02*
G75*
G02*
X15311424Y-13028500I40000J0D01*
G01*
X15244782Y-13064420D02*
X15284174Y-13071366D01*
X15298066Y-12992581D02*
G75*
G02*
X15284174Y-13071366I-6946J-39392D01*
G01*
X15298066Y-12992581D02*
X15258674Y-12985635D01*
X15258674Y-12985635D02*
G75*
G03*
X15244782Y-13064420I-6946J-39392D01*
G01*
X15642224Y-11152442D02*
G75*
G02*
X15562224Y-11152442I-40000J0D01*
G01*
X15562224Y-11152442D02*
G75*
G02*
X15642224Y-11152442I40000J0D01*
G01*
X15575582Y-11188361D02*
X15614974Y-11195307D01*
X15628866Y-11116523D02*
G75*
G02*
X15614974Y-11195307I-6946J-39392D01*
G01*
X15628866Y-11116523D02*
X15589474Y-11109577D01*
X15589474Y-11109577D02*
G75*
G03*
X15575582Y-11188361I-6946J-39392D01*
G01*
X15973024Y-9276383D02*
G75*
G02*
X15893024Y-9276383I-40000J0D01*
G01*
X15893024Y-9276383D02*
G75*
G02*
X15973024Y-9276383I40000J0D01*
G01*
X15906382Y-9312303D02*
X15945774Y-9319249D01*
X15959666Y-9240464D02*
G75*
G02*
X15945774Y-9319249I-6946J-39392D01*
G01*
X15959666Y-9240464D02*
X15920274Y-9233518D01*
X15920273Y-9233518D02*
G75*
G03*
X15906382Y-9312303I-6946J-39392D01*
G01*
X15980884Y-12888626D02*
G75*
G02*
X15900884Y-12888626I-40000J0D01*
G01*
X15900884Y-12888626D02*
G75*
G02*
X15980884Y-12888626I40000J0D01*
G01*
X15914242Y-12924545D02*
X15953634Y-12931491D01*
X15967526Y-12852706D02*
G75*
G02*
X15953634Y-12931491I-6946J-39392D01*
G01*
X15967526Y-12852706D02*
X15928133Y-12845760D01*
X15928133Y-12845760D02*
G75*
G03*
X15914242Y-12924545I-6946J-39392D01*
G01*
X16303823Y-7400324D02*
G75*
G02*
X16223823Y-7400324I-40000J0D01*
G01*
X16223823Y-7400324D02*
G75*
G02*
X16303823Y-7400324I40000J0D01*
G01*
X16237181Y-7436244D02*
X16276574Y-7443190D01*
X16290466Y-7364405D02*
G75*
G02*
X16276574Y-7443190I-6946J-39392D01*
G01*
X16290466Y-7364405D02*
X16251073Y-7357459D01*
X16251073Y-7357459D02*
G75*
G03*
X16237181Y-7436244I-6946J-39392D01*
G01*
X16311683Y-11012567D02*
G75*
G02*
X16231683Y-11012567I-40000J0D01*
G01*
X16231683Y-11012567D02*
G75*
G02*
X16311683Y-11012567I40000J0D01*
G01*
X16245041Y-11048487D02*
X16284434Y-11055433D01*
X16298325Y-10976648D02*
G75*
G02*
X16284434Y-11055433I-6946J-39392D01*
G01*
X16298325Y-10976648D02*
X16258933Y-10969702D01*
X16258933Y-10969702D02*
G75*
G03*
X16245041Y-11048487I-6946J-39392D01*
G01*
X16457365Y-16742383D02*
G75*
G02*
X16377365Y-16742383I-40000J0D01*
G01*
X16377365Y-16742383D02*
G75*
G02*
X16457365Y-16742383I40000J0D01*
G01*
X16399579Y-16701351D02*
X16373868Y-16731993D01*
X16435151Y-16783416D02*
G75*
G02*
X16373868Y-16731993I-30642J25711D01*
G01*
X16435151Y-16783416D02*
X16460863Y-16752774D01*
X16460863Y-16752774D02*
G75*
G03*
X16399579Y-16701351I-30642J25712D01*
G01*
X16642483Y-9136509D02*
G75*
G02*
X16562483Y-9136509I-40000J0D01*
G01*
X16562483Y-9136509D02*
G75*
G02*
X16642483Y-9136509I40000J0D01*
G01*
X16575841Y-9172428D02*
X16615233Y-9179374D01*
X16629125Y-9100589D02*
G75*
G02*
X16615234Y-9179374I-6946J-39392D01*
G01*
X16629125Y-9100589D02*
X16589733Y-9093643D01*
X16589733Y-9093643D02*
G75*
G03*
X16575841Y-9172428I-6946J-39392D01*
G01*
X16670960Y-16092677D02*
G75*
G02*
X16590960Y-16092677I-40000J0D01*
G01*
X16590960Y-16092677D02*
G75*
G02*
X16670960Y-16092677I40000J0D01*
G01*
X16613174Y-16051645D02*
X16587463Y-16082286D01*
X16648746Y-16133709D02*
G75*
G02*
X16587463Y-16082286I-30642J25712D01*
G01*
X16648746Y-16133709D02*
X16674458Y-16103068D01*
X16674458Y-16103068D02*
G75*
G03*
X16613174Y-16051645I-30642J25712D01*
G01*
X16973283Y-7260450D02*
G75*
G02*
X16893283Y-7260450I-40000J0D01*
G01*
X16893283Y-7260450D02*
G75*
G02*
X16973283Y-7260450I40000J0D01*
G01*
X16906641Y-7296369D02*
X16946033Y-7303315D01*
X16959925Y-7224530D02*
G75*
G02*
X16946033Y-7303315I-6946J-39392D01*
G01*
X16959925Y-7224530D02*
X16920533Y-7217584D01*
X16920533Y-7217584D02*
G75*
G03*
X16906641Y-7296369I-6946J-39392D01*
G01*
X17654938Y-13927637D02*
G75*
G02*
X17574938Y-13927637I-40000J0D01*
G01*
X17574938Y-13927637D02*
G75*
G02*
X17654938Y-13927637I40000J0D01*
G01*
X17573906Y-13945423D02*
X17604548Y-13971134D01*
X17655971Y-13909851D02*
G75*
G02*
X17604548Y-13971134I-25712J-30642D01*
G01*
X17655971Y-13909851D02*
X17625329Y-13884139D01*
X17625329Y-13884139D02*
G75*
G03*
X17573906Y-13945423I-25712J-30642D01*
G01*
X17889412Y-8647100D02*
G75*
G02*
X17809412Y-8647100I-40000J0D01*
G01*
X17809412Y-8647100D02*
G75*
G02*
X17889412Y-8647100I40000J0D01*
G01*
X17885331Y-8673742D02*
X17892277Y-8634350D01*
X17813492Y-8620458D02*
G75*
G02*
X17892277Y-8634350I39392J-6946D01*
G01*
X17813492Y-8620458D02*
X17806546Y-8659850D01*
X17806546Y-8659851D02*
G75*
G03*
X17885331Y-8673742I39392J-6946D01*
G01*
X17917883Y-17967106D02*
G75*
G02*
X17837883Y-17967106I-40000J0D01*
G01*
X17837883Y-17967106D02*
G75*
G02*
X17917883Y-17967106I40000J0D01*
G01*
X17860097Y-17926074D02*
X17834386Y-17956715D01*
X17895669Y-18008138D02*
G75*
G02*
X17834386Y-17956715I-30642J25712D01*
G01*
X17895669Y-18008138D02*
X17921381Y-17977497D01*
X17921381Y-17977497D02*
G75*
G03*
X17860097Y-17926074I-30642J25712D01*
G01*
X18029286Y-9316560D02*
G75*
G02*
X17949286Y-9316560I-40000J0D01*
G01*
X17949286Y-9316560D02*
G75*
G02*
X18029286Y-9316560I40000J0D01*
G01*
X18025206Y-9343202D02*
X18032152Y-9303810D01*
X17953367Y-9289918D02*
G75*
G02*
X18032152Y-9303810I39392J-6946D01*
G01*
X17953367Y-9289918D02*
X17946421Y-9329310D01*
X17946421Y-9329310D02*
G75*
G03*
X18025206Y-9343202I39392J-6946D01*
G01*
X18131478Y-17317400D02*
G75*
G02*
X18051478Y-17317400I-40000J0D01*
G01*
X18051478Y-17317400D02*
G75*
G02*
X18131478Y-17317400I40000J0D01*
G01*
X18073692Y-17276367D02*
X18047981Y-17307009D01*
X18109264Y-17358432D02*
G75*
G02*
X18047980Y-17307009I-30642J25712D01*
G01*
X18109264Y-17358432D02*
X18134976Y-17327790D01*
X18134976Y-17327790D02*
G75*
G03*
X18073692Y-17276367I-30642J25712D01*
G01*
X18242876Y-11030690D02*
G75*
G02*
X18162876Y-11030690I-40000J0D01*
G01*
X18162876Y-11030690D02*
G75*
G02*
X18242876Y-11030690I40000J0D01*
G01*
X18166956Y-11004048D02*
X18160010Y-11043441D01*
X18238795Y-11057333D02*
G75*
G02*
X18160010Y-11043441I-39392J6946D01*
G01*
X18238795Y-11057333D02*
X18245741Y-11017940D01*
X18245741Y-11017940D02*
G75*
G03*
X18166956Y-11004048I-39392J6946D01*
G01*
X18304645Y-14141231D02*
G75*
G02*
X18224645Y-14141231I-40000J0D01*
G01*
X18224645Y-14141231D02*
G75*
G02*
X18304645Y-14141231I40000J0D01*
G01*
X18223612Y-14159017D02*
X18254254Y-14184729D01*
X18305677Y-14123445D02*
G75*
G02*
X18254254Y-14184729I-25712J-30642D01*
G01*
X18305677Y-14123445D02*
X18275035Y-14097734D01*
X18275035Y-14097734D02*
G75*
G03*
X18223612Y-14159017I-25712J-30642D01*
G01*
X18382750Y-11700150D02*
G75*
G02*
X18302750Y-11700150I-40000J0D01*
G01*
X18302750Y-11700150D02*
G75*
G02*
X18382750Y-11700150I40000J0D01*
G01*
X18306831Y-11673508D02*
X18299885Y-11712900D01*
X18378670Y-11726792D02*
G75*
G02*
X18299885Y-11712900I-39392J6946D01*
G01*
X18378670Y-11726792D02*
X18385616Y-11687400D01*
X18385616Y-11687400D02*
G75*
G03*
X18306831Y-11673508I-39392J6946D01*
G01*
X19115456Y-15152359D02*
G75*
G02*
X19035456Y-15152359I-40000J0D01*
G01*
X19035456Y-15152359D02*
G75*
G02*
X19115456Y-15152359I40000J0D01*
G01*
X19034424Y-15170145D02*
X19065065Y-15195856D01*
X19116488Y-15134573D02*
G75*
G02*
X19065065Y-15195857I-25712J-30642D01*
G01*
X19116488Y-15134573D02*
X19085847Y-15108861D01*
X19085847Y-15108861D02*
G75*
G03*
X19034424Y-15170145I-25712J-30642D01*
G01*
X19765162Y-15365954D02*
G75*
G02*
X19685162Y-15365954I-40000J0D01*
G01*
X19685162Y-15365954D02*
G75*
G02*
X19765162Y-15365954I40000J0D01*
G01*
X19684130Y-15383740D02*
X19714772Y-15409451D01*
X19766195Y-15348168D02*
G75*
G02*
X19714772Y-15409451I-25712J-30642D01*
G01*
X19766195Y-15348168D02*
X19735553Y-15322456D01*
X19735553Y-15322456D02*
G75*
G03*
X19684130Y-15383740I-25712J-30642D01*
G01*
X21737472Y-15645301D02*
G75*
G02*
X21657472Y-15645301I-40000J0D01*
G01*
X21657472Y-15645301D02*
G75*
G02*
X21737472Y-15645301I40000J0D01*
G01*
X21707862Y-15688798D02*
X21738504Y-15663087D01*
X21687081Y-15601803D02*
G75*
G02*
X21738504Y-15663087I25712J-30642D01*
G01*
X21687081Y-15601803D02*
X21656439Y-15627515D01*
X21656439Y-15627515D02*
G75*
G03*
X21707862Y-15688798I25712J-30642D01*
G01*
X22060642Y-15042555D02*
G75*
G02*
X21980642Y-15042555I-40000J0D01*
G01*
X21980642Y-15042555D02*
G75*
G02*
X22060642Y-15042555I40000J0D01*
G01*
X22031033Y-15086053D02*
X22061674Y-15060341D01*
X22010251Y-14999058D02*
G75*
G02*
X22061674Y-15060341I25712J-30642D01*
G01*
X22010251Y-14999058D02*
X21979610Y-15024769D01*
X21979610Y-15024769D02*
G75*
G03*
X22031033Y-15086053I25712J-30642D01*
G01*
X22965690Y-11203005D02*
G75*
G02*
X22885690Y-11203005I-40000J0D01*
G01*
X22885690Y-11203005D02*
G75*
G02*
X22965690Y-11203005I40000J0D01*
G01*
X22968556Y-11215755D02*
X22961610Y-11176363D01*
X22882825Y-11190255D02*
G75*
G02*
X22961610Y-11176363I39392J6946D01*
G01*
X22882825Y-11190255D02*
X22889771Y-11229647D01*
X22889771Y-11229647D02*
G75*
G03*
X22968556Y-11215755I39392J6946D01*
G01*
X23192235Y-17581093D02*
G75*
G02*
X23112235Y-17581093I-40000J0D01*
G01*
X23112235Y-17581093D02*
G75*
G02*
X23192235Y-17581093I40000J0D01*
G01*
X23195732Y-17570702D02*
X23170021Y-17540060D01*
X23108737Y-17591483D02*
G75*
G02*
X23170021Y-17540060I30642J25712D01*
G01*
X23108737Y-17591483D02*
X23134449Y-17622125D01*
X23134449Y-17622125D02*
G75*
G03*
X23195732Y-17570702I30642J25712D01*
G01*
X23197990Y-14420578D02*
G75*
G02*
X23117990Y-14420578I-40000J0D01*
G01*
X23117990Y-14420578D02*
G75*
G02*
X23197990Y-14420578I40000J0D01*
G01*
X23168380Y-14464076D02*
X23199022Y-14438364D01*
X23147599Y-14377081D02*
G75*
G02*
X23199022Y-14438364I25712J-30642D01*
G01*
X23147599Y-14377081D02*
X23116957Y-14402792D01*
X23116957Y-14402792D02*
G75*
G03*
X23168380Y-14464076I25712J-30642D01*
G01*
X23275047Y-8569274D02*
G75*
G02*
X23195047Y-8569274I-40000J0D01*
G01*
X23195047Y-8569274D02*
G75*
G02*
X23275047Y-8569274I40000J0D01*
G01*
X23192182Y-8556524D02*
X23199128Y-8595916D01*
X23277913Y-8582024D02*
G75*
G02*
X23199128Y-8595916I-39392J-6946D01*
G01*
X23277913Y-8582024D02*
X23270967Y-8542632D01*
X23270967Y-8542632D02*
G75*
G03*
X23192182Y-8556524I-39392J-6946D01*
G01*
X23326098Y-11784251D02*
G75*
G02*
X23246098Y-11784251I-40000J0D01*
G01*
X23246098Y-11784251D02*
G75*
G02*
X23326098Y-11784251I40000J0D01*
G01*
X23328963Y-11797002D02*
X23322017Y-11757609D01*
X23243233Y-11771501D02*
G75*
G02*
X23322017Y-11757609I39392J6946D01*
G01*
X23243233Y-11771501D02*
X23250179Y-11810894D01*
X23250179Y-11810894D02*
G75*
G03*
X23328963Y-11797002I39392J6946D01*
G01*
X23521160Y-13817833D02*
G75*
G02*
X23441160Y-13817833I-40000J0D01*
G01*
X23441160Y-13817833D02*
G75*
G02*
X23521160Y-13817833I40000J0D01*
G01*
X23491550Y-13861330D02*
X23522192Y-13835619D01*
X23470769Y-13774335D02*
G75*
G02*
X23522192Y-13835619I25712J-30642D01*
G01*
X23470769Y-13774335D02*
X23440127Y-13800047D01*
X23440127Y-13800047D02*
G75*
G03*
X23491550Y-13861330I25712J-30642D01*
G01*
X23635455Y-9150520D02*
G75*
G02*
X23555455Y-9150520I-40000J0D01*
G01*
X23555455Y-9150520D02*
G75*
G02*
X23635455Y-9150520I40000J0D01*
G01*
X23552590Y-9137770D02*
X23559536Y-9177162D01*
X23638320Y-9163270D02*
G75*
G02*
X23559536Y-9177162I-39392J-6946D01*
G01*
X23638320Y-9163270D02*
X23631374Y-9123878D01*
X23631374Y-9123878D02*
G75*
G03*
X23552590Y-9137770I-39392J-6946D01*
G01*
X23794980Y-17904263D02*
G75*
G02*
X23714980Y-17904263I-40000J0D01*
G01*
X23714980Y-17904263D02*
G75*
G02*
X23794980Y-17904263I40000J0D01*
G01*
X23798477Y-17893872D02*
X23772766Y-17863231D01*
X23711482Y-17914654D02*
G75*
G02*
X23772766Y-17863231I30642J25712D01*
G01*
X23711482Y-17914654D02*
X23737194Y-17945295D01*
X23737194Y-17945295D02*
G75*
G03*
X23798478Y-17893872I30642J25712D01*
G01*
X24382407Y-7535782D02*
G75*
G02*
X24302407Y-7535782I-40000J0D01*
G01*
X24302407Y-7535782D02*
G75*
G02*
X24382407Y-7535782I40000J0D01*
G01*
X24329657Y-7578647D02*
X24369049Y-7571701D01*
X24355157Y-7492917D02*
G75*
G02*
X24369049Y-7571701I6946J-39392D01*
G01*
X24355157Y-7492917D02*
X24315765Y-7499863D01*
X24315765Y-7499863D02*
G75*
G03*
X24329656Y-7578647I6946J-39392D01*
G01*
X24652752Y-16356370D02*
G75*
G02*
X24572752Y-16356370I-40000J0D01*
G01*
X24572752Y-16356370D02*
G75*
G02*
X24652752Y-16356370I40000J0D01*
G01*
X24656250Y-16345980D02*
X24630538Y-16315338D01*
X24569255Y-16366761D02*
G75*
G02*
X24630538Y-16315338I30642J25712D01*
G01*
X24569255Y-16366761D02*
X24594966Y-16397403D01*
X24594966Y-16397403D02*
G75*
G03*
X24656250Y-16345980I30642J25712D01*
G01*
X24713206Y-9411841D02*
G75*
G02*
X24633206Y-9411841I-40000J0D01*
G01*
X24633206Y-9411841D02*
G75*
G02*
X24713206Y-9411841I40000J0D01*
G01*
X24660456Y-9454706D02*
X24699849Y-9447760D01*
X24685957Y-9368975D02*
G75*
G02*
X24699849Y-9447760I6946J-39392D01*
G01*
X24685957Y-9368975D02*
X24646564Y-9375921D01*
X24646564Y-9375921D02*
G75*
G03*
X24660456Y-9454706I6946J-39392D01*
G01*
X24963653Y-7175374D02*
G75*
G02*
X24883653Y-7175374I-40000J0D01*
G01*
X24883653Y-7175374D02*
G75*
G02*
X24963653Y-7175374I40000J0D01*
G01*
X24910903Y-7218239D02*
X24950295Y-7211293D01*
X24936403Y-7132509D02*
G75*
G02*
X24950295Y-7211293I6946J-39392D01*
G01*
X24936403Y-7132509D02*
X24897011Y-7139455D01*
X24897011Y-7139455D02*
G75*
G03*
X24910903Y-7218239I6946J-39392D01*
G01*
X25044006Y-11287899D02*
G75*
G02*
X24964006Y-11287899I-40000J0D01*
G01*
X24964006Y-11287899D02*
G75*
G02*
X25044006Y-11287899I40000J0D01*
G01*
X24991256Y-11330764D02*
X25030648Y-11323818D01*
X25016757Y-11245034D02*
G75*
G02*
X25030648Y-11323818I6946J-39392D01*
G01*
X25016757Y-11245034D02*
X24977364Y-11251980D01*
X24977364Y-11251980D02*
G75*
G03*
X24991256Y-11330764I6946J-39392D01*
G01*
X25255498Y-16679540D02*
G75*
G02*
X25175498Y-16679540I-40000J0D01*
G01*
X25175498Y-16679540D02*
G75*
G02*
X25255498Y-16679540I40000J0D01*
G01*
X25258995Y-16669150D02*
X25233284Y-16638508D01*
X25172000Y-16689931D02*
G75*
G02*
X25233284Y-16638508I30642J25712D01*
G01*
X25172000Y-16689931D02*
X25197712Y-16720573D01*
X25197712Y-16720573D02*
G75*
G03*
X25258995Y-16669150I30642J25712D01*
G01*
X25294453Y-9051433D02*
G75*
G02*
X25214453Y-9051433I-40000J0D01*
G01*
X25214453Y-9051433D02*
G75*
G02*
X25294453Y-9051433I40000J0D01*
G01*
X25241703Y-9094298D02*
X25281095Y-9087352D01*
X25267203Y-9008568D02*
G75*
G02*
X25281095Y-9087352I6946J-39392D01*
G01*
X25267203Y-9008568D02*
X25227811Y-9015514D01*
X25227811Y-9015514D02*
G75*
G03*
X25241702Y-9094298I6946J-39392D01*
G01*
X25374806Y-13163958D02*
G75*
G02*
X25294806Y-13163958I-40000J0D01*
G01*
X25294806Y-13163958D02*
G75*
G02*
X25374806Y-13163958I40000J0D01*
G01*
X25322056Y-13206823D02*
X25361448Y-13199877D01*
X25347556Y-13121092D02*
G75*
G02*
X25361448Y-13199877I6946J-39392D01*
G01*
X25347556Y-13121092D02*
X25308164Y-13128038D01*
X25308164Y-13128038D02*
G75*
G03*
X25322056Y-13206823I6946J-39392D01*
G01*
X25625253Y-10927491D02*
G75*
G02*
X25545253Y-10927491I-40000J0D01*
G01*
X25545253Y-10927491D02*
G75*
G02*
X25625253Y-10927491I40000J0D01*
G01*
X25572502Y-10970357D02*
X25611895Y-10963411D01*
X25598003Y-10884626D02*
G75*
G02*
X25611895Y-10963411I6946J-39392D01*
G01*
X25598003Y-10884626D02*
X25558611Y-10891572D01*
X25558611Y-10891572D02*
G75*
G03*
X25572502Y-10970357I6946J-39392D01*
G01*
X25956052Y-12803550D02*
G75*
G02*
X25876052Y-12803550I-40000J0D01*
G01*
X25876052Y-12803550D02*
G75*
G02*
X25956052Y-12803550I40000J0D01*
G01*
X25903302Y-12846415D02*
X25942694Y-12839469D01*
X25928803Y-12760685D02*
G75*
G02*
X25942694Y-12839469I6946J-39392D01*
G01*
X25928803Y-12760685D02*
X25889410Y-12767631D01*
X25889410Y-12767631D02*
G75*
G03*
X25903302Y-12846415I6946J-39392D01*
G01*
X26225385Y-7017376D02*
G75*
G02*
X26145385Y-7017376I-40000J0D01*
G01*
X26145385Y-7017376D02*
G75*
G02*
X26225385Y-7017376I40000J0D01*
G01*
X26172635Y-7060241D02*
X26212028Y-7053295D01*
X26198136Y-6974511D02*
G75*
G02*
X26212028Y-7053295I6946J-39392D01*
G01*
X26198136Y-6974511D02*
X26158743Y-6981457D01*
X26158743Y-6981457D02*
G75*
G03*
X26172635Y-7060241I6946J-39392D01*
G01*
X26556185Y-8893435D02*
G75*
G02*
X26476185Y-8893435I-40000J0D01*
G01*
X26476185Y-8893435D02*
G75*
G02*
X26556185Y-8893435I40000J0D01*
G01*
X26503435Y-8936300D02*
X26542827Y-8929354D01*
X26528936Y-8850570D02*
G75*
G02*
X26542827Y-8929354I6946J-39392D01*
G01*
X26528935Y-8850570D02*
X26489543Y-8857516D01*
X26489543Y-8857516D02*
G75*
G03*
X26503435Y-8936300I6946J-39392D01*
G01*
X26806632Y-6656968D02*
G75*
G02*
X26726632Y-6656968I-40000J0D01*
G01*
X26726632Y-6656968D02*
G75*
G02*
X26806632Y-6656968I40000J0D01*
G01*
X26753882Y-6699834D02*
X26793274Y-6692888D01*
X26779382Y-6614103D02*
G75*
G02*
X26793274Y-6692888I6946J-39392D01*
G01*
X26779382Y-6614103D02*
X26739990Y-6621049D01*
X26739990Y-6621049D02*
G75*
G03*
X26753881Y-6699834I6946J-39392D01*
G01*
X26886985Y-10769494D02*
G75*
G02*
X26806985Y-10769494I-40000J0D01*
G01*
X26806985Y-10769494D02*
G75*
G02*
X26886985Y-10769494I40000J0D01*
G01*
X26834235Y-10812359D02*
X26873627Y-10805413D01*
X26859735Y-10726628D02*
G75*
G02*
X26873627Y-10805413I6946J-39392D01*
G01*
X26859735Y-10726628D02*
X26820343Y-10733574D01*
X26820343Y-10733574D02*
G75*
G03*
X26834235Y-10812359I6946J-39392D01*
G01*
X26945035Y-15059350D02*
G75*
G02*
X26865035Y-15059350I-40000J0D01*
G01*
X26865035Y-15059350D02*
G75*
G02*
X26945035Y-15059350I40000J0D01*
G01*
X26903814Y-15104055D02*
X26940066Y-15087150D01*
X26906257Y-15014645D02*
G75*
G02*
X26940066Y-15087150I16905J-36252D01*
G01*
X26906256Y-15014645D02*
X26870004Y-15031550D01*
X26870004Y-15031550D02*
G75*
G03*
X26903814Y-15104055I16905J-36252D01*
G01*
X27137432Y-8533027D02*
G75*
G02*
X27057432Y-8533027I-40000J0D01*
G01*
X27057432Y-8533027D02*
G75*
G02*
X27137432Y-8533027I40000J0D01*
G01*
X27084681Y-8575893D02*
X27124074Y-8568947D01*
X27110182Y-8490162D02*
G75*
G02*
X27124074Y-8568947I6946J-39392D01*
G01*
X27110182Y-8490162D02*
X27070789Y-8497108D01*
X27070789Y-8497108D02*
G75*
G03*
X27084681Y-8575893I6946J-39392D01*
G01*
X27217785Y-12645552D02*
G75*
G02*
X27137785Y-12645552I-40000J0D01*
G01*
X27137785Y-12645552D02*
G75*
G02*
X27217785Y-12645552I40000J0D01*
G01*
X27165035Y-12688418D02*
X27204427Y-12681472D01*
X27190535Y-12602687D02*
G75*
G02*
X27204427Y-12681472I6946J-39392D01*
G01*
X27190535Y-12602687D02*
X27151143Y-12609633D01*
X27151143Y-12609633D02*
G75*
G03*
X27165035Y-12688418I6946J-39392D01*
G01*
X27413195Y-14560785D02*
G75*
G02*
X27333195Y-14560785I-40000J0D01*
G01*
X27333195Y-14560785D02*
G75*
G02*
X27413195Y-14560785I40000J0D01*
G01*
X27371974Y-14605490D02*
X27408226Y-14588585D01*
X27374417Y-14516081D02*
G75*
G02*
X27408226Y-14588585I16905J-36252D01*
G01*
X27374417Y-14516081D02*
X27338165Y-14532985D01*
X27338165Y-14532985D02*
G75*
G03*
X27371974Y-14605490I16905J-36252D01*
G01*
X27468231Y-10409086D02*
G75*
G02*
X27388231Y-10409086I-40000J0D01*
G01*
X27388231Y-10409086D02*
G75*
G02*
X27468231Y-10409086I40000J0D01*
G01*
X27415481Y-10451951D02*
X27454873Y-10445005D01*
X27440982Y-10366220D02*
G75*
G02*
X27454873Y-10445005I6946J-39392D01*
G01*
X27440982Y-10366220D02*
X27401589Y-10373166D01*
X27401589Y-10373166D02*
G75*
G03*
X27415481Y-10451951I6946J-39392D01*
G01*
X27799031Y-12285144D02*
G75*
G02*
X27719031Y-12285144I-40000J0D01*
G01*
X27719031Y-12285144D02*
G75*
G02*
X27799031Y-12285144I40000J0D01*
G01*
X27746281Y-12328010D02*
X27785673Y-12321064D01*
X27771781Y-12242279D02*
G75*
G02*
X27785673Y-12321064I6946J-39392D01*
G01*
X27771781Y-12242279D02*
X27732389Y-12249225D01*
X27732389Y-12249225D02*
G75*
G03*
X27746281Y-12328010I6946J-39392D01*
G01*
X28057337Y-6436435D02*
G75*
G02*
X27977337Y-6436435I-40000J0D01*
G01*
X27977337Y-6436435D02*
G75*
G02*
X28057337Y-6436435I40000J0D01*
G01*
X28004587Y-6479300D02*
X28043980Y-6472354D01*
X28030088Y-6393570D02*
G75*
G02*
X28043980Y-6472354I6946J-39392D01*
G01*
X28030088Y-6393570D02*
X27990695Y-6400516D01*
X27990695Y-6400516D02*
G75*
G03*
X28004587Y-6479300I6946J-39392D01*
G01*
X28388137Y-8312494D02*
G75*
G02*
X28308137Y-8312494I-40000J0D01*
G01*
X28308137Y-8312494D02*
G75*
G02*
X28388137Y-8312494I40000J0D01*
G01*
X28335387Y-8355359D02*
X28374779Y-8348413D01*
X28360888Y-8269629D02*
G75*
G02*
X28374779Y-8348413I6946J-39392D01*
G01*
X28360887Y-8269629D02*
X28321495Y-8276575D01*
X28321495Y-8276575D02*
G75*
G03*
X28335387Y-8355359I6946J-39392D01*
G01*
X28638584Y-6076027D02*
G75*
G02*
X28558584Y-6076027I-40000J0D01*
G01*
X28558584Y-6076027D02*
G75*
G02*
X28638584Y-6076027I40000J0D01*
G01*
X28585834Y-6118893D02*
X28625226Y-6111947D01*
X28611334Y-6033162D02*
G75*
G02*
X28625226Y-6111947I6946J-39392D01*
G01*
X28611334Y-6033162D02*
X28571942Y-6040108D01*
X28571942Y-6040108D02*
G75*
G03*
X28585833Y-6118893I6946J-39392D01*
G01*
X28718937Y-10188553D02*
G75*
G02*
X28638937Y-10188553I-40000J0D01*
G01*
X28638937Y-10188553D02*
G75*
G02*
X28718937Y-10188553I40000J0D01*
G01*
X28666187Y-10231418D02*
X28705579Y-10224472D01*
X28691687Y-10145687D02*
G75*
G02*
X28705579Y-10224472I6946J-39392D01*
G01*
X28691687Y-10145687D02*
X28652295Y-10152633D01*
X28652295Y-10152633D02*
G75*
G03*
X28666187Y-10231418I6946J-39392D01*
G01*
X28969384Y-7952086D02*
G75*
G02*
X28889384Y-7952086I-40000J0D01*
G01*
X28889384Y-7952086D02*
G75*
G02*
X28969384Y-7952086I40000J0D01*
G01*
X28916633Y-7994951D02*
X28956026Y-7988005D01*
X28942134Y-7909221D02*
G75*
G02*
X28956026Y-7988005I6946J-39392D01*
G01*
X28942134Y-7909221D02*
X28902741Y-7916167D01*
X28902741Y-7916167D02*
G75*
G03*
X28916633Y-7994951I6946J-39392D01*
G01*
X29049737Y-12064611D02*
G75*
G02*
X28969737Y-12064611I-40000J0D01*
G01*
X28969737Y-12064611D02*
G75*
G02*
X29049737Y-12064611I40000J0D01*
G01*
X28996987Y-12107477D02*
X29036379Y-12100531D01*
X29022487Y-12021746D02*
G75*
G02*
X29036379Y-12100531I6946J-39392D01*
G01*
X29022487Y-12021746D02*
X28983095Y-12028692D01*
X28983095Y-12028692D02*
G75*
G03*
X28996987Y-12107477I6946J-39392D01*
G01*
X29300183Y-9828145D02*
G75*
G02*
X29220183Y-9828145I-40000J0D01*
G01*
X29220183Y-9828145D02*
G75*
G02*
X29300183Y-9828145I40000J0D01*
G01*
X29247433Y-9871010D02*
X29286826Y-9864064D01*
X29272934Y-9785280D02*
G75*
G02*
X29286826Y-9864064I6946J-39392D01*
G01*
X29272934Y-9785280D02*
X29233541Y-9792226D01*
X29233541Y-9792226D02*
G75*
G03*
X29247433Y-9871010I6946J-39392D01*
G01*
X29380537Y-13940670D02*
G75*
G02*
X29300537Y-13940670I-40000J0D01*
G01*
X29300537Y-13940670D02*
G75*
G02*
X29380537Y-13940670I40000J0D01*
G01*
X29327786Y-13983535D02*
X29367179Y-13976589D01*
X29353287Y-13897804D02*
G75*
G02*
X29367179Y-13976589I6946J-39392D01*
G01*
X29353287Y-13897804D02*
X29313894Y-13904750D01*
X29313894Y-13904750D02*
G75*
G03*
X29327786Y-13983535I6946J-39392D01*
G01*
X29630983Y-11704203D02*
G75*
G02*
X29550983Y-11704203I-40000J0D01*
G01*
X29550983Y-11704203D02*
G75*
G02*
X29630983Y-11704203I40000J0D01*
G01*
X29578233Y-11747069D02*
X29617625Y-11740123D01*
X29603734Y-11661338D02*
G75*
G02*
X29617625Y-11740123I6946J-39392D01*
G01*
X29603733Y-11661338D02*
X29564341Y-11668284D01*
X29564341Y-11668284D02*
G75*
G03*
X29578233Y-11747069I6946J-39392D01*
G01*
X29961783Y-13580262D02*
G75*
G02*
X29881783Y-13580262I-40000J0D01*
G01*
X29881783Y-13580262D02*
G75*
G02*
X29961783Y-13580262I40000J0D01*
G01*
X29909033Y-13623127D02*
X29948425Y-13616181D01*
X29934533Y-13537397D02*
G75*
G02*
X29948425Y-13616181I6946J-39392D01*
G01*
X29934533Y-13537397D02*
X29895141Y-13544343D01*
X29895141Y-13544343D02*
G75*
G03*
X29909033Y-13623127I6946J-39392D01*
G01*
X29977503Y-6355777D02*
G75*
G02*
X29897503Y-6355777I-40000J0D01*
G01*
X29897503Y-6355777D02*
G75*
G02*
X29977503Y-6355777I40000J0D01*
G01*
X29924753Y-6398642D02*
X29964145Y-6391696D01*
X29950253Y-6312911D02*
G75*
G02*
X29964145Y-6391696I6946J-39392D01*
G01*
X29950253Y-6312911D02*
X29910861Y-6319857D01*
X29910861Y-6319857D02*
G75*
G03*
X29924753Y-6398642I6946J-39392D01*
G01*
X30308303Y-8231835D02*
G75*
G02*
X30228303Y-8231835I-40000J0D01*
G01*
X30228303Y-8231835D02*
G75*
G02*
X30308303Y-8231835I40000J0D01*
G01*
X30255553Y-8274701D02*
X30294945Y-8267755D01*
X30281053Y-8188970D02*
G75*
G02*
X30294945Y-8267755I6946J-39392D01*
G01*
X30281053Y-8188970D02*
X30241661Y-8195916D01*
X30241661Y-8195916D02*
G75*
G03*
X30255552Y-8274701I6946J-39392D01*
G01*
X30558749Y-5995369D02*
G75*
G02*
X30478749Y-5995369I-40000J0D01*
G01*
X30478749Y-5995369D02*
G75*
G02*
X30558749Y-5995369I40000J0D01*
G01*
X30505999Y-6038234D02*
X30545391Y-6031288D01*
X30531499Y-5952504D02*
G75*
G02*
X30545391Y-6031288I6946J-39392D01*
G01*
X30531499Y-5952504D02*
X30492107Y-5959450D01*
X30492107Y-5959450D02*
G75*
G03*
X30505999Y-6038234I6946J-39392D01*
G01*
X30639102Y-10107894D02*
G75*
G02*
X30559102Y-10107894I-40000J0D01*
G01*
X30559102Y-10107894D02*
G75*
G02*
X30639102Y-10107894I40000J0D01*
G01*
X30586352Y-10150759D02*
X30625745Y-10143813D01*
X30611853Y-10065029D02*
G75*
G02*
X30625745Y-10143813I6946J-39392D01*
G01*
X30611853Y-10065029D02*
X30572460Y-10071975D01*
X30572460Y-10071975D02*
G75*
G03*
X30586352Y-10150759I6946J-39392D01*
G01*
X30889549Y-7871428D02*
G75*
G02*
X30809549Y-7871428I-40000J0D01*
G01*
X30809549Y-7871428D02*
G75*
G02*
X30889549Y-7871428I40000J0D01*
G01*
X30836799Y-7914293D02*
X30876191Y-7907347D01*
X30862299Y-7828562D02*
G75*
G02*
X30876191Y-7907347I6946J-39392D01*
G01*
X30862299Y-7828562D02*
X30822907Y-7835508D01*
X30822907Y-7835508D02*
G75*
G03*
X30836799Y-7914293I6946J-39392D01*
G01*
X30969902Y-11983953D02*
G75*
G02*
X30889902Y-11983953I-40000J0D01*
G01*
X30889902Y-11983953D02*
G75*
G02*
X30969902Y-11983953I40000J0D01*
G01*
X30917152Y-12026818D02*
X30956544Y-12019872D01*
X30942653Y-11941087D02*
G75*
G02*
X30956544Y-12019872I6946J-39392D01*
G01*
X30942652Y-11941087D02*
X30903260Y-11948033D01*
X30903260Y-11948033D02*
G75*
G03*
X30917152Y-12026818I6946J-39392D01*
G01*
X31220349Y-9747486D02*
G75*
G02*
X31140349Y-9747486I-40000J0D01*
G01*
X31140349Y-9747486D02*
G75*
G02*
X31220349Y-9747486I40000J0D01*
G01*
X31167599Y-9790352D02*
X31206991Y-9783406D01*
X31193099Y-9704621D02*
G75*
G02*
X31206991Y-9783406I6946J-39392D01*
G01*
X31193099Y-9704621D02*
X31153707Y-9711567D01*
X31153707Y-9711567D02*
G75*
G03*
X31167598Y-9790352I6946J-39392D01*
G01*
X31300702Y-13860011D02*
G75*
G02*
X31220702Y-13860011I-40000J0D01*
G01*
X31220702Y-13860011D02*
G75*
G02*
X31300702Y-13860011I40000J0D01*
G01*
X31247952Y-13902877D02*
X31287344Y-13895931D01*
X31273452Y-13817146D02*
G75*
G02*
X31287344Y-13895931I6946J-39392D01*
G01*
X31273452Y-13817146D02*
X31234060Y-13824092D01*
X31234060Y-13824092D02*
G75*
G03*
X31247952Y-13902877I6946J-39392D01*
G01*
X31551149Y-11623545D02*
G75*
G02*
X31471149Y-11623545I-40000J0D01*
G01*
X31471149Y-11623545D02*
G75*
G02*
X31551149Y-11623545I40000J0D01*
G01*
X31498398Y-11666410D02*
X31537791Y-11659464D01*
X31523899Y-11580680D02*
G75*
G02*
X31537791Y-11659464I6946J-39392D01*
G01*
X31523899Y-11580680D02*
X31484506Y-11587626D01*
X31484506Y-11587626D02*
G75*
G03*
X31498398Y-11666410I6946J-39392D01*
G01*
X31881948Y-13499603D02*
G75*
G02*
X31801948Y-13499603I-40000J0D01*
G01*
X31801948Y-13499603D02*
G75*
G02*
X31881948Y-13499603I40000J0D01*
G01*
X31829198Y-13542469D02*
X31868590Y-13535523D01*
X31854699Y-13456738D02*
G75*
G02*
X31868590Y-13535523I6946J-39392D01*
G01*
X31854698Y-13456738D02*
X31815306Y-13463684D01*
X31815306Y-13463684D02*
G75*
G03*
X31829198Y-13542469I6946J-39392D01*
G01*
X31930748Y-6462724D02*
G75*
G02*
X31850748Y-6462724I-40000J0D01*
G01*
X31850748Y-6462724D02*
G75*
G02*
X31930748Y-6462724I40000J0D01*
G01*
X31877998Y-6505589D02*
X31917390Y-6498643D01*
X31903499Y-6419859D02*
G75*
G02*
X31917390Y-6498643I6946J-39392D01*
G01*
X31903499Y-6419859D02*
X31864106Y-6426805D01*
X31864106Y-6426805D02*
G75*
G03*
X31877998Y-6505589I6946J-39392D01*
G01*
X32261548Y-8338783D02*
G75*
G02*
X32181548Y-8338783I-40000J0D01*
G01*
X32181548Y-8338783D02*
G75*
G02*
X32261548Y-8338783I40000J0D01*
G01*
X32208798Y-8381648D02*
X32248190Y-8374702D01*
X32234298Y-8295917D02*
G75*
G02*
X32248190Y-8374702I6946J-39392D01*
G01*
X32234298Y-8295917D02*
X32194906Y-8302863D01*
X32194906Y-8302863D02*
G75*
G03*
X32208798Y-8381648I6946J-39392D01*
G01*
X32511995Y-6102316D02*
G75*
G02*
X32431995Y-6102316I-40000J0D01*
G01*
X32431995Y-6102316D02*
G75*
G02*
X32511995Y-6102316I40000J0D01*
G01*
X32459244Y-6145181D02*
X32498637Y-6138235D01*
X32484745Y-6059451D02*
G75*
G02*
X32498637Y-6138235I6946J-39392D01*
G01*
X32484745Y-6059451D02*
X32445353Y-6066397D01*
X32445353Y-6066397D02*
G75*
G03*
X32459244Y-6145181I6946J-39392D01*
G01*
X32592348Y-10214841D02*
G75*
G02*
X32512348Y-10214841I-40000J0D01*
G01*
X32512348Y-10214841D02*
G75*
G02*
X32592348Y-10214841I40000J0D01*
G01*
X32539598Y-10257707D02*
X32578990Y-10250761D01*
X32565098Y-10171976D02*
G75*
G02*
X32578990Y-10250761I6946J-39392D01*
G01*
X32565098Y-10171976D02*
X32525706Y-10178922D01*
X32525706Y-10178922D02*
G75*
G03*
X32539598Y-10257707I6946J-39392D01*
G01*
X32842794Y-7978375D02*
G75*
G02*
X32762794Y-7978375I-40000J0D01*
G01*
X32762794Y-7978375D02*
G75*
G02*
X32842794Y-7978375I40000J0D01*
G01*
X32790044Y-8021240D02*
X32829436Y-8014294D01*
X32815545Y-7935510D02*
G75*
G02*
X32829436Y-8014294I6946J-39392D01*
G01*
X32815545Y-7935510D02*
X32776152Y-7942456D01*
X32776152Y-7942456D02*
G75*
G03*
X32790044Y-8021240I6946J-39392D01*
G01*
X32923148Y-12090900D02*
G75*
G02*
X32843148Y-12090900I-40000J0D01*
G01*
X32843148Y-12090900D02*
G75*
G02*
X32923148Y-12090900I40000J0D01*
G01*
X32870397Y-12133765D02*
X32909790Y-12126819D01*
X32895898Y-12048035D02*
G75*
G02*
X32909790Y-12126819I6946J-39392D01*
G01*
X32895898Y-12048035D02*
X32856506Y-12054981D01*
X32856506Y-12054981D02*
G75*
G03*
X32870397Y-12133765I6946J-39392D01*
G01*
X33173594Y-9854434D02*
G75*
G02*
X33093594Y-9854434I-40000J0D01*
G01*
X33093594Y-9854434D02*
G75*
G02*
X33173594Y-9854434I40000J0D01*
G01*
X33120844Y-9897299D02*
X33160236Y-9890353D01*
X33146344Y-9811568D02*
G75*
G02*
X33160236Y-9890353I6946J-39392D01*
G01*
X33146344Y-9811568D02*
X33106952Y-9818514D01*
X33106952Y-9818514D02*
G75*
G03*
X33120844Y-9897299I6946J-39392D01*
G01*
X33253947Y-13966958D02*
G75*
G02*
X33173947Y-13966958I-40000J0D01*
G01*
X33173947Y-13966958D02*
G75*
G02*
X33253947Y-13966958I40000J0D01*
G01*
X33201197Y-14009824D02*
X33240590Y-14002878D01*
X33226698Y-13924093D02*
G75*
G02*
X33240590Y-14002878I6946J-39392D01*
G01*
X33226698Y-13924093D02*
X33187305Y-13931039D01*
X33187305Y-13931039D02*
G75*
G03*
X33201197Y-14009824I6946J-39392D01*
G01*
X33504394Y-11730492D02*
G75*
G02*
X33424394Y-11730492I-40000J0D01*
G01*
X33424394Y-11730492D02*
G75*
G02*
X33504394Y-11730492I40000J0D01*
G01*
X33451644Y-11773357D02*
X33491036Y-11766411D01*
X33477144Y-11687627D02*
G75*
G02*
X33491036Y-11766411I6946J-39392D01*
G01*
X33477144Y-11687627D02*
X33437752Y-11694573D01*
X33437752Y-11694573D02*
G75*
G03*
X33451644Y-11773357I6946J-39392D01*
G01*
X33835194Y-13606551D02*
G75*
G02*
X33755194Y-13606551I-40000J0D01*
G01*
X33755194Y-13606551D02*
G75*
G02*
X33835194Y-13606551I40000J0D01*
G01*
X33782444Y-13649416D02*
X33821836Y-13642470D01*
X33807944Y-13563685D02*
G75*
G02*
X33821836Y-13642470I6946J-39392D01*
G01*
X33807944Y-13563685D02*
X33768552Y-13570631D01*
X33768552Y-13570631D02*
G75*
G03*
X33782444Y-13649416I6946J-39392D01*
G01*
X34056948Y-6087817D02*
G75*
G02*
X33976948Y-6087817I-40000J0D01*
G01*
X33976948Y-6087817D02*
G75*
G02*
X34056948Y-6087817I40000J0D01*
G01*
X34004198Y-6130683D02*
X34043590Y-6123737D01*
X34029699Y-6044952D02*
G75*
G02*
X34043590Y-6123737I6946J-39392D01*
G01*
X34029699Y-6044952D02*
X33990306Y-6051898D01*
X33990306Y-6051898D02*
G75*
G03*
X34004198Y-6130683I6946J-39392D01*
G01*
X34387748Y-7963876D02*
G75*
G02*
X34307748Y-7963876I-40000J0D01*
G01*
X34307748Y-7963876D02*
G75*
G02*
X34387748Y-7963876I40000J0D01*
G01*
X34334998Y-8006742D02*
X34374390Y-7999796D01*
X34360498Y-7921011D02*
G75*
G02*
X34374390Y-7999796I6946J-39392D01*
G01*
X34360498Y-7921011D02*
X34321106Y-7927957D01*
X34321106Y-7927957D02*
G75*
G03*
X34334998Y-8006742I6946J-39392D01*
G01*
X34638195Y-5727410D02*
G75*
G02*
X34558195Y-5727410I-40000J0D01*
G01*
X34558195Y-5727410D02*
G75*
G02*
X34638195Y-5727410I40000J0D01*
G01*
X34585444Y-5770275D02*
X34624837Y-5763329D01*
X34610945Y-5684544D02*
G75*
G02*
X34624837Y-5763329I6946J-39392D01*
G01*
X34610945Y-5684544D02*
X34571553Y-5691490D01*
X34571553Y-5691490D02*
G75*
G03*
X34585444Y-5770275I6946J-39392D01*
G01*
X34718548Y-9839935D02*
G75*
G02*
X34638548Y-9839935I-40000J0D01*
G01*
X34638548Y-9839935D02*
G75*
G02*
X34718548Y-9839935I40000J0D01*
G01*
X34665798Y-9882800D02*
X34705190Y-9875854D01*
X34691298Y-9797070D02*
G75*
G02*
X34705190Y-9875854I6946J-39392D01*
G01*
X34691298Y-9797070D02*
X34651906Y-9804016D01*
X34651906Y-9804016D02*
G75*
G03*
X34665798Y-9882800I6946J-39392D01*
G01*
X34968994Y-7603468D02*
G75*
G02*
X34888994Y-7603468I-40000J0D01*
G01*
X34888994Y-7603468D02*
G75*
G02*
X34968994Y-7603468I40000J0D01*
G01*
X34916244Y-7646334D02*
X34955636Y-7639388D01*
X34941745Y-7560603D02*
G75*
G02*
X34955636Y-7639388I6946J-39392D01*
G01*
X34941745Y-7560603D02*
X34902352Y-7567549D01*
X34902352Y-7567549D02*
G75*
G03*
X34916244Y-7646334I6946J-39392D01*
G01*
X35049348Y-11715993D02*
G75*
G02*
X34969348Y-11715993I-40000J0D01*
G01*
X34969348Y-11715993D02*
G75*
G02*
X35049348Y-11715993I40000J0D01*
G01*
X34996598Y-11758859D02*
X35035990Y-11751913D01*
X35022098Y-11673128D02*
G75*
G02*
X35035990Y-11751913I6946J-39392D01*
G01*
X35022098Y-11673128D02*
X34982706Y-11680074D01*
X34982706Y-11680074D02*
G75*
G03*
X34996597Y-11758859I6946J-39392D01*
G01*
X35130006Y-13636159D02*
G75*
G02*
X35050006Y-13636159I-40000J0D01*
G01*
X35050006Y-13636159D02*
G75*
G02*
X35130006Y-13636159I40000J0D01*
G01*
X35077256Y-13679024D02*
X35116648Y-13672078D01*
X35102757Y-13593293D02*
G75*
G02*
X35116648Y-13672078I6946J-39392D01*
G01*
X35102756Y-13593293D02*
X35063364Y-13600239D01*
X35063364Y-13600239D02*
G75*
G03*
X35077256Y-13679024I6946J-39392D01*
G01*
X35299794Y-9479527D02*
G75*
G02*
X35219794Y-9479527I-40000J0D01*
G01*
X35219794Y-9479527D02*
G75*
G02*
X35299794Y-9479527I40000J0D01*
G01*
X35247044Y-9522393D02*
X35286436Y-9515447D01*
X35272545Y-9436662D02*
G75*
G02*
X35286436Y-9515447I6946J-39392D01*
G01*
X35272544Y-9436662D02*
X35233152Y-9443608D01*
X35233152Y-9443608D02*
G75*
G03*
X35247044Y-9522393I6946J-39392D01*
G01*
X35630594Y-11355586D02*
G75*
G02*
X35550594Y-11355586I-40000J0D01*
G01*
X35550594Y-11355586D02*
G75*
G02*
X35630594Y-11355586I40000J0D01*
G01*
X35577844Y-11398451D02*
X35617236Y-11391505D01*
X35603344Y-11312720D02*
G75*
G02*
X35617236Y-11391505I6946J-39392D01*
G01*
X35603344Y-11312720D02*
X35563952Y-11319666D01*
X35563952Y-11319666D02*
G75*
G03*
X35577844Y-11398451I6946J-39392D01*
G01*
X35711253Y-13275751D02*
G75*
G02*
X35631253Y-13275751I-40000J0D01*
G01*
X35631253Y-13275751D02*
G75*
G02*
X35711253Y-13275751I40000J0D01*
G01*
X35658502Y-13318616D02*
X35697895Y-13311670D01*
X35684003Y-13232885D02*
G75*
G02*
X35697895Y-13311670I6946J-39392D01*
G01*
X35684003Y-13232885D02*
X35644610Y-13239831D01*
X35644610Y-13239831D02*
G75*
G03*
X35658502Y-13318616I6946J-39392D01*
G01*
X19917487Y-8674286D02*
X19917487Y-8755566D01*
X19876847Y-8714926D02*
X19958127Y-8714926D01*
X19918627Y-8928286D02*
X19918627Y-9009566D01*
X19877987Y-8968926D02*
X19959267Y-8968926D01*
X19918627Y-9182286D02*
X19918627Y-9263566D01*
X19877987Y-9222926D02*
X19959267Y-9222926D01*
X19918627Y-9436286D02*
X19918627Y-9517566D01*
X19877987Y-9476926D02*
X19959267Y-9476926D01*
X19918627Y-9690286D02*
X19918627Y-9771566D01*
X19877987Y-9730926D02*
X19959267Y-9730926D01*
X19918627Y-9944286D02*
X19918627Y-10025566D01*
X19877987Y-9984926D02*
X19959267Y-9984926D01*
X19918627Y-10198286D02*
X19918627Y-10279566D01*
X19877987Y-10238926D02*
X19959267Y-10238926D01*
X19918627Y-10452286D02*
X19918627Y-10533566D01*
X19877987Y-10492926D02*
X19959267Y-10492926D01*
X19918627Y-10706286D02*
X19918627Y-10787566D01*
X19877987Y-10746926D02*
X19959267Y-10746926D01*
X19918627Y-10960286D02*
X19918627Y-11041566D01*
X19877987Y-11000926D02*
X19959267Y-11000926D01*
X19918627Y-11214286D02*
X19918627Y-11295566D01*
X19877987Y-11254926D02*
X19959267Y-11254926D01*
X19918627Y-11468286D02*
X19918627Y-11549566D01*
X19877987Y-11508926D02*
X19959267Y-11508926D01*
X19918627Y-11722286D02*
X19918627Y-11803566D01*
X19877987Y-11762926D02*
X19959267Y-11762926D01*
X20171487Y-10299886D02*
X20171487Y-10381166D01*
X20130847Y-10340526D02*
X20212127Y-10340526D01*
X20171487Y-11722286D02*
X20171487Y-11803566D01*
X20130847Y-11762926D02*
X20212127Y-11762926D01*
X20425487Y-10299886D02*
X20425487Y-10381166D01*
X20384847Y-10340526D02*
X20466127Y-10340526D01*
X20425487Y-11722286D02*
X20425487Y-11803566D01*
X20384847Y-11762926D02*
X20466127Y-11762926D01*
X20679487Y-11722286D02*
X20679487Y-11803566D01*
X20638847Y-11762926D02*
X20720127Y-11762926D01*
X20933487Y-11722286D02*
X20933487Y-11803566D01*
X20892847Y-11762926D02*
X20974127Y-11762926D01*
X21187487Y-11468286D02*
X21187487Y-11549566D01*
X21146847Y-11508926D02*
X21228127Y-11508926D01*
X21187487Y-11722286D02*
X21187487Y-11803566D01*
X21146847Y-11762926D02*
X21228127Y-11762926D01*
X21440627Y-8928286D02*
X21440627Y-9009566D01*
X21399987Y-8968926D02*
X21481267Y-8968926D01*
X21440627Y-9182286D02*
X21440627Y-9263566D01*
X21399987Y-9222926D02*
X21481267Y-9222926D01*
X21440627Y-9436286D02*
X21440627Y-9517566D01*
X21399987Y-9476926D02*
X21481267Y-9476926D01*
X21440627Y-9690286D02*
X21440627Y-9771566D01*
X21399987Y-9730926D02*
X21481267Y-9730926D01*
X21440627Y-9944286D02*
X21440627Y-10025566D01*
X21399987Y-9984926D02*
X21481267Y-9984926D01*
X21440627Y-10198286D02*
X21440627Y-10279566D01*
X21399987Y-10238926D02*
X21481267Y-10238926D01*
X21440627Y-10452286D02*
X21440627Y-10533566D01*
X21399987Y-10492926D02*
X21481267Y-10492926D01*
X21440627Y-10706286D02*
X21440627Y-10787566D01*
X21399987Y-10746926D02*
X21481267Y-10746926D01*
X21440627Y-10960286D02*
X21440627Y-11041566D01*
X21399987Y-11000926D02*
X21481267Y-11000926D01*
X21440627Y-11214286D02*
X21440627Y-11295566D01*
X21399987Y-11254926D02*
X21481267Y-11254926D01*
X21440627Y-11468286D02*
X21440627Y-11549566D01*
X21399987Y-11508926D02*
X21481267Y-11508926D01*
X21440627Y-11722286D02*
X21440627Y-11803566D01*
X21399987Y-11762926D02*
X21481267Y-11762926D01*
X21441487Y-8674286D02*
X21441487Y-8755566D01*
X21400847Y-8714926D02*
X21482127Y-8714926D01*
D12*
X8120385Y-5322963D02*
X8120385Y-5245181D01*
X8042603Y-5245181D01*
X8042603Y-5322963D01*
X8120385Y-5322963D01*
X8198527Y-4879800D02*
X8198527Y-4802018D01*
X8120744Y-4802018D01*
X8120744Y-4879800D01*
X8198527Y-4879800D01*
X8760510Y-5435835D02*
X8760510Y-5358052D01*
X8682728Y-5358052D01*
X8682728Y-5435835D01*
X8760510Y-5435835D01*
X8838652Y-4992671D02*
X8838652Y-4914889D01*
X8760869Y-4914889D01*
X8760869Y-4992671D01*
X8838652Y-4992671D01*
D13*
X5685401Y-13348813D02*
X5761601Y-13272613D01*
X5685401Y-13196413D01*
X5609201Y-13272613D01*
X5685401Y-13348813D01*
X5766060Y-11428648D02*
X5842260Y-11352448D01*
X5766060Y-11276248D01*
X5689860Y-11352448D01*
X5766060Y-11428648D01*
X6096860Y-9552590D02*
X6173060Y-9476390D01*
X6096860Y-9400190D01*
X6020660Y-9476390D01*
X6096860Y-9552590D01*
X6266647Y-13709221D02*
X6342847Y-13633021D01*
X6266647Y-13556821D01*
X6190447Y-13633021D01*
X6266647Y-13709221D01*
X6347306Y-11789056D02*
X6423506Y-11712856D01*
X6347306Y-11636656D01*
X6271106Y-11712856D01*
X6347306Y-11789056D01*
X6427659Y-7676531D02*
X6503859Y-7600331D01*
X6427659Y-7524131D01*
X6351459Y-7600331D01*
X6427659Y-7676531D01*
X6678106Y-9912997D02*
X6754306Y-9836797D01*
X6678106Y-9760597D01*
X6601906Y-9836797D01*
X6678106Y-9912997D01*
X6758459Y-5800472D02*
X6834659Y-5724272D01*
X6758459Y-5648072D01*
X6682259Y-5724272D01*
X6758459Y-5800472D01*
X7008906Y-8036939D02*
X7085106Y-7960739D01*
X7008906Y-7884539D01*
X6932706Y-7960739D01*
X7008906Y-8036939D01*
X7339705Y-6160880D02*
X7415905Y-6084680D01*
X7339705Y-6008480D01*
X7263505Y-6084680D01*
X7339705Y-6160880D01*
X7561460Y-13679613D02*
X7637660Y-13603413D01*
X7561460Y-13527213D01*
X7485260Y-13603413D01*
X7561460Y-13679613D01*
X7892260Y-11803554D02*
X7968460Y-11727354D01*
X7892260Y-11651154D01*
X7816060Y-11727354D01*
X7892260Y-11803554D01*
X8142706Y-14040021D02*
X8218906Y-13963821D01*
X8142706Y-13887621D01*
X8066506Y-13963821D01*
X8142706Y-14040021D01*
X8223059Y-9927496D02*
X8299259Y-9851296D01*
X8223059Y-9775096D01*
X8146859Y-9851296D01*
X8223059Y-9927496D01*
X8473506Y-12163962D02*
X8549706Y-12087762D01*
X8473506Y-12011562D01*
X8397306Y-12087762D01*
X8473506Y-12163962D01*
X8553859Y-8051437D02*
X8630059Y-7975237D01*
X8553859Y-7899037D01*
X8477659Y-7975237D01*
X8553859Y-8051437D01*
X8804306Y-10287904D02*
X8880506Y-10211704D01*
X8804306Y-10135504D01*
X8728106Y-10211704D01*
X8804306Y-10287904D01*
X8884659Y-6175379D02*
X8960859Y-6099179D01*
X8884659Y-6022979D01*
X8808459Y-6099179D01*
X8884659Y-6175379D01*
X9135106Y-8411845D02*
X9211306Y-8335645D01*
X9135106Y-8259445D01*
X9058906Y-8335645D01*
X9135106Y-8411845D01*
X9465905Y-6535786D02*
X9542105Y-6459586D01*
X9465905Y-6383386D01*
X9389705Y-6459586D01*
X9465905Y-6535786D01*
X9514705Y-13572666D02*
X9590905Y-13496466D01*
X9514705Y-13420266D01*
X9438505Y-13496466D01*
X9514705Y-13572666D01*
X9845505Y-11696607D02*
X9921705Y-11620407D01*
X9845505Y-11544207D01*
X9769305Y-11620407D01*
X9845505Y-11696607D01*
X10095952Y-13933074D02*
X10172152Y-13856874D01*
X10095952Y-13780674D01*
X10019752Y-13856874D01*
X10095952Y-13933074D01*
X10176305Y-9820549D02*
X10252505Y-9744349D01*
X10176305Y-9668149D01*
X10100105Y-9744349D01*
X10176305Y-9820549D01*
X10426752Y-12057015D02*
X10502952Y-11980815D01*
X10426752Y-11904615D01*
X10350552Y-11980815D01*
X10426752Y-12057015D01*
X10507105Y-7944490D02*
X10583305Y-7868290D01*
X10507105Y-7792090D01*
X10430905Y-7868290D01*
X10507105Y-7944490D01*
X10757551Y-10180957D02*
X10833751Y-10104757D01*
X10757551Y-10028557D01*
X10681351Y-10104757D01*
X10757551Y-10180957D01*
X10837904Y-6068431D02*
X10914104Y-5992231D01*
X10837904Y-5916031D01*
X10761704Y-5992231D01*
X10837904Y-6068431D01*
X11088351Y-8304898D02*
X11164551Y-8228698D01*
X11088351Y-8152498D01*
X11012151Y-8228698D01*
X11088351Y-8304898D01*
X11419151Y-6428839D02*
X11495351Y-6352639D01*
X11419151Y-6276439D01*
X11342951Y-6352639D01*
X11419151Y-6428839D01*
X11434871Y-13653324D02*
X11511071Y-13577124D01*
X11434871Y-13500924D01*
X11358671Y-13577124D01*
X11434871Y-13653324D01*
X11765670Y-11777266D02*
X11841870Y-11701066D01*
X11765670Y-11624866D01*
X11689470Y-11701066D01*
X11765670Y-11777266D01*
X12016117Y-14013732D02*
X12092317Y-13937532D01*
X12016117Y-13861332D01*
X11939917Y-13937532D01*
X12016117Y-14013732D01*
X12096470Y-9901207D02*
X12172670Y-9825007D01*
X12096470Y-9748807D01*
X12020270Y-9825007D01*
X12096470Y-9901207D01*
X12346917Y-12137674D02*
X12423117Y-12061474D01*
X12346917Y-11985274D01*
X12270717Y-12061474D01*
X12346917Y-12137674D01*
X12427270Y-8025149D02*
X12503470Y-7948949D01*
X12427270Y-7872749D01*
X12351070Y-7948949D01*
X12427270Y-8025149D01*
X12677717Y-10261615D02*
X12753917Y-10185415D01*
X12677717Y-10109215D01*
X12601517Y-10185415D01*
X12677717Y-10261615D01*
X12758070Y-6149090D02*
X12834270Y-6072890D01*
X12758070Y-5996690D01*
X12681870Y-6072890D01*
X12758070Y-6149090D01*
X13008516Y-8385557D02*
X13084716Y-8309357D01*
X13008516Y-8233157D01*
X12932316Y-8309357D01*
X13008516Y-8385557D01*
X13339316Y-6509498D02*
X13415516Y-6433298D01*
X13339316Y-6357098D01*
X13263116Y-6433298D01*
X13339316Y-6509498D01*
X13597623Y-12358207D02*
X13673823Y-12282007D01*
X13597623Y-12205807D01*
X13521423Y-12282007D01*
X13597623Y-12358207D01*
X13928422Y-10482148D02*
X14004622Y-10405948D01*
X13928422Y-10329748D01*
X13852222Y-10405948D01*
X13928422Y-10482148D01*
X13983458Y-14633848D02*
X14059658Y-14557648D01*
X13983458Y-14481448D01*
X13907258Y-14557648D01*
X13983458Y-14633848D01*
X14178869Y-12718615D02*
X14255069Y-12642415D01*
X14178869Y-12566215D01*
X14102669Y-12642415D01*
X14178869Y-12718615D01*
X14259222Y-8606090D02*
X14335422Y-8529890D01*
X14259222Y-8453690D01*
X14183022Y-8529890D01*
X14259222Y-8606090D01*
X14451619Y-15132413D02*
X14527819Y-15056213D01*
X14451619Y-14980013D01*
X14375419Y-15056213D01*
X14451619Y-15132413D01*
X14509669Y-10842556D02*
X14585869Y-10766356D01*
X14509669Y-10690156D01*
X14433469Y-10766356D01*
X14509669Y-10842556D01*
X14590022Y-6730031D02*
X14666222Y-6653831D01*
X14590022Y-6577631D01*
X14513822Y-6653831D01*
X14590022Y-6730031D01*
X14840468Y-8966497D02*
X14916668Y-8890297D01*
X14840468Y-8814097D01*
X14764268Y-8890297D01*
X14840468Y-8966497D01*
X15171268Y-7090439D02*
X15247468Y-7014239D01*
X15171268Y-6938039D01*
X15095068Y-7014239D01*
X15171268Y-7090439D01*
X15440601Y-12876612D02*
X15516801Y-12800412D01*
X15440601Y-12724212D01*
X15364401Y-12800412D01*
X15440601Y-12876612D01*
X15771401Y-11000554D02*
X15847601Y-10924354D01*
X15771401Y-10848154D01*
X15695201Y-10924354D01*
X15771401Y-11000554D01*
X16021848Y-13237020D02*
X16098048Y-13160820D01*
X16021848Y-13084620D01*
X15945648Y-13160820D01*
X16021848Y-13237020D01*
X16102201Y-9124495D02*
X16178401Y-9048295D01*
X16102201Y-8972095D01*
X16026001Y-9048295D01*
X16102201Y-9124495D01*
X16141156Y-16752603D02*
X16217356Y-16676403D01*
X16141156Y-16600203D01*
X16064956Y-16676403D01*
X16141156Y-16752603D01*
X16352647Y-11360962D02*
X16428847Y-11284762D01*
X16352647Y-11208562D01*
X16276447Y-11284762D01*
X16352647Y-11360962D01*
X16433001Y-7248436D02*
X16509201Y-7172236D01*
X16433001Y-7096036D01*
X16356801Y-7172236D01*
X16433001Y-7248436D01*
X16683447Y-9484903D02*
X16759647Y-9408703D01*
X16683447Y-9332503D01*
X16607247Y-9408703D01*
X16683447Y-9484903D01*
X16743901Y-16429433D02*
X16820101Y-16353233D01*
X16743901Y-16277033D01*
X16667701Y-16353233D01*
X16743901Y-16429433D01*
X17014247Y-7608844D02*
X17090447Y-7532644D01*
X17014247Y-7456444D01*
X16938047Y-7532644D01*
X17014247Y-7608844D01*
X17601674Y-17977326D02*
X17677874Y-17901126D01*
X17601674Y-17824926D01*
X17525474Y-17901126D01*
X17601674Y-17977326D01*
X17761198Y-9223583D02*
X17837398Y-9147383D01*
X17761198Y-9071183D01*
X17684998Y-9147383D01*
X17761198Y-9223583D01*
X17875494Y-13890895D02*
X17951694Y-13814695D01*
X17875494Y-13738495D01*
X17799294Y-13814695D01*
X17875494Y-13890895D01*
X18070556Y-11857314D02*
X18146756Y-11781114D01*
X18070556Y-11704914D01*
X17994356Y-11781114D01*
X18070556Y-11857314D01*
X18121606Y-8642336D02*
X18197806Y-8566136D01*
X18121606Y-8489936D01*
X18045406Y-8566136D01*
X18121606Y-8642336D01*
X18198664Y-14493641D02*
X18274864Y-14417441D01*
X18198664Y-14341241D01*
X18122464Y-14417441D01*
X18198664Y-14493641D01*
X18204419Y-17654155D02*
X18280619Y-17577955D01*
X18204419Y-17501755D01*
X18128219Y-17577955D01*
X18204419Y-17654155D01*
X18430964Y-11276068D02*
X18507164Y-11199868D01*
X18430964Y-11123668D01*
X18354764Y-11199868D01*
X18430964Y-11276068D01*
X19336012Y-15115618D02*
X19412212Y-15039418D01*
X19336012Y-14963218D01*
X19259812Y-15039418D01*
X19336012Y-15115618D01*
X19659182Y-15718363D02*
X19735382Y-15642163D01*
X19659182Y-15565963D01*
X19582982Y-15642163D01*
X19659182Y-15718363D01*
X21631491Y-15445291D02*
X21707691Y-15369091D01*
X21631491Y-15292891D01*
X21555291Y-15369091D01*
X21631491Y-15445291D01*
X22281198Y-15231697D02*
X22357398Y-15155497D01*
X22281198Y-15079297D01*
X22204998Y-15155497D01*
X22281198Y-15231697D01*
X23013904Y-11779487D02*
X23090104Y-11703287D01*
X23013904Y-11627087D01*
X22937704Y-11703287D01*
X23013904Y-11779487D01*
X23092009Y-14220569D02*
X23168209Y-14144369D01*
X23092009Y-14068169D01*
X23015809Y-14144369D01*
X23092009Y-14220569D01*
X23153778Y-11110028D02*
X23229978Y-11033828D01*
X23153778Y-10957628D01*
X23077578Y-11033828D01*
X23153778Y-11110028D01*
X23265176Y-17396737D02*
X23341376Y-17320537D01*
X23265176Y-17244337D01*
X23188976Y-17320537D01*
X23265176Y-17396737D01*
X23367367Y-9395897D02*
X23443567Y-9319697D01*
X23367367Y-9243497D01*
X23291167Y-9319697D01*
X23367367Y-9395897D01*
X23478771Y-18046443D02*
X23554971Y-17970243D01*
X23478771Y-17894043D01*
X23402571Y-17970243D01*
X23478771Y-18046443D01*
X23507242Y-8726438D02*
X23583442Y-8650238D01*
X23507242Y-8574038D01*
X23431042Y-8650238D01*
X23507242Y-8726438D01*
X23741715Y-14006974D02*
X23817915Y-13930774D01*
X23741715Y-13854574D01*
X23665515Y-13930774D01*
X23741715Y-14006974D01*
X24423371Y-7339787D02*
X24499571Y-7263587D01*
X24423371Y-7187387D01*
X24347171Y-7263587D01*
X24423371Y-7339787D01*
X24725693Y-16172015D02*
X24801893Y-16095815D01*
X24725693Y-16019615D01*
X24649493Y-16095815D01*
X24725693Y-16172015D01*
X24754170Y-9215846D02*
X24830370Y-9139646D01*
X24754170Y-9063446D01*
X24677970Y-9139646D01*
X24754170Y-9215846D01*
X24939288Y-16821721D02*
X25015488Y-16745521D01*
X24939288Y-16669321D01*
X24863088Y-16745521D01*
X24939288Y-16821721D01*
X25084970Y-11091905D02*
X25161170Y-11015705D01*
X25084970Y-10939505D01*
X25008770Y-11015705D01*
X25084970Y-11091905D01*
X25092830Y-7479662D02*
X25169030Y-7403462D01*
X25092830Y-7327262D01*
X25016630Y-7403462D01*
X25092830Y-7479662D01*
X25415770Y-12967963D02*
X25491970Y-12891763D01*
X25415770Y-12815563D01*
X25339570Y-12891763D01*
X25415770Y-12967963D01*
X25423630Y-9355721D02*
X25499830Y-9279521D01*
X25423630Y-9203321D01*
X25347430Y-9279521D01*
X25423630Y-9355721D01*
X25754430Y-11231779D02*
X25830630Y-11155579D01*
X25754430Y-11079379D01*
X25678230Y-11155579D01*
X25754430Y-11231779D01*
X26085230Y-13107838D02*
X26161430Y-13031638D01*
X26085230Y-12955438D01*
X26009030Y-13031638D01*
X26085230Y-13107838D01*
X26266349Y-6821382D02*
X26342549Y-6745182D01*
X26266349Y-6668982D01*
X26190149Y-6745182D01*
X26266349Y-6821382D01*
X26597149Y-8697441D02*
X26673349Y-8621241D01*
X26597149Y-8545041D01*
X26520949Y-8621241D01*
X26597149Y-8697441D01*
X26912791Y-14851675D02*
X26988991Y-14775475D01*
X26912791Y-14699275D01*
X26836591Y-14775475D01*
X26912791Y-14851675D01*
X26927949Y-10573499D02*
X27004149Y-10497299D01*
X26927949Y-10421099D01*
X26851749Y-10497299D01*
X26927949Y-10573499D01*
X26935809Y-6961256D02*
X27012009Y-6885056D01*
X26935809Y-6808856D01*
X26859609Y-6885056D01*
X26935809Y-6961256D01*
X27258749Y-12449558D02*
X27334949Y-12373358D01*
X27258749Y-12297158D01*
X27182549Y-12373358D01*
X27258749Y-12449558D01*
X27266609Y-8837315D02*
X27342809Y-8761115D01*
X27266609Y-8684915D01*
X27190409Y-8761115D01*
X27266609Y-8837315D01*
X27595642Y-14813515D02*
X27671842Y-14737315D01*
X27595642Y-14661115D01*
X27519442Y-14737315D01*
X27595642Y-14813515D01*
X27597409Y-10713374D02*
X27673609Y-10637174D01*
X27597409Y-10560974D01*
X27521209Y-10637174D01*
X27597409Y-10713374D01*
X27928208Y-12589432D02*
X28004408Y-12513232D01*
X27928208Y-12437032D01*
X27852008Y-12513232D01*
X27928208Y-12589432D01*
X28098301Y-6240441D02*
X28174501Y-6164241D01*
X28098301Y-6088041D01*
X28022101Y-6164241D01*
X28098301Y-6240441D01*
X28429101Y-8116499D02*
X28505301Y-8040299D01*
X28429101Y-7964099D01*
X28352901Y-8040299D01*
X28429101Y-8116499D01*
X28759901Y-9992558D02*
X28836101Y-9916358D01*
X28759901Y-9840158D01*
X28683701Y-9916358D01*
X28759901Y-9992558D01*
X28767761Y-6380315D02*
X28843961Y-6304115D01*
X28767761Y-6227915D01*
X28691561Y-6304115D01*
X28767761Y-6380315D01*
X29090701Y-11868617D02*
X29166901Y-11792417D01*
X29090701Y-11716217D01*
X29014501Y-11792417D01*
X29090701Y-11868617D01*
X29098561Y-8256374D02*
X29174761Y-8180174D01*
X29098561Y-8103974D01*
X29022361Y-8180174D01*
X29098561Y-8256374D01*
X29421501Y-13744675D02*
X29497701Y-13668475D01*
X29421501Y-13592275D01*
X29345301Y-13668475D01*
X29421501Y-13744675D01*
X29429361Y-10132433D02*
X29505561Y-10056233D01*
X29429361Y-9980033D01*
X29353161Y-10056233D01*
X29429361Y-10132433D01*
X29760160Y-12008491D02*
X29836360Y-11932291D01*
X29760160Y-11856091D01*
X29683960Y-11932291D01*
X29760160Y-12008491D01*
X30018467Y-6159782D02*
X30094667Y-6083582D01*
X30018467Y-6007382D01*
X29942267Y-6083582D01*
X30018467Y-6159782D01*
X30090960Y-13884550D02*
X30167160Y-13808350D01*
X30090960Y-13732150D01*
X30014760Y-13808350D01*
X30090960Y-13884550D01*
X30349267Y-8035841D02*
X30425467Y-7959641D01*
X30349267Y-7883441D01*
X30273067Y-7959641D01*
X30349267Y-8035841D01*
X30680066Y-9911900D02*
X30756266Y-9835700D01*
X30680066Y-9759500D01*
X30603866Y-9835700D01*
X30680066Y-9911900D01*
X30687926Y-6299657D02*
X30764126Y-6223457D01*
X30687926Y-6147257D01*
X30611726Y-6223457D01*
X30687926Y-6299657D01*
X31010866Y-11787958D02*
X31087066Y-11711758D01*
X31010866Y-11635558D01*
X30934666Y-11711758D01*
X31010866Y-11787958D01*
X31018726Y-8175715D02*
X31094926Y-8099515D01*
X31018726Y-8023315D01*
X30942526Y-8099515D01*
X31018726Y-8175715D01*
X31341666Y-13664017D02*
X31417866Y-13587817D01*
X31341666Y-13511617D01*
X31265466Y-13587817D01*
X31341666Y-13664017D01*
X31349526Y-10051774D02*
X31425726Y-9975574D01*
X31349526Y-9899374D01*
X31273326Y-9975574D01*
X31349526Y-10051774D01*
X31680326Y-11927833D02*
X31756526Y-11851633D01*
X31680326Y-11775433D01*
X31604126Y-11851633D01*
X31680326Y-11927833D01*
X31971712Y-6266729D02*
X32047912Y-6190529D01*
X31971712Y-6114329D01*
X31895512Y-6190529D01*
X31971712Y-6266729D01*
X32011125Y-13803891D02*
X32087325Y-13727691D01*
X32011125Y-13651491D01*
X31934925Y-13727691D01*
X32011125Y-13803891D01*
X32302512Y-8142788D02*
X32378712Y-8066588D01*
X32302512Y-7990388D01*
X32226312Y-8066588D01*
X32302512Y-8142788D01*
X32633312Y-10018847D02*
X32709512Y-9942647D01*
X32633312Y-9866447D01*
X32557112Y-9942647D01*
X32633312Y-10018847D01*
X32641172Y-6406604D02*
X32717372Y-6330404D01*
X32641172Y-6254204D01*
X32564972Y-6330404D01*
X32641172Y-6406604D01*
X32964112Y-11894905D02*
X33040312Y-11818705D01*
X32964112Y-11742505D01*
X32887912Y-11818705D01*
X32964112Y-11894905D01*
X32971972Y-8282663D02*
X33048172Y-8206463D01*
X32971972Y-8130263D01*
X32895772Y-8206463D01*
X32971972Y-8282663D01*
X33294911Y-13770964D02*
X33371111Y-13694764D01*
X33294911Y-13618564D01*
X33218711Y-13694764D01*
X33294911Y-13770964D01*
X33302771Y-10158721D02*
X33378971Y-10082521D01*
X33302771Y-10006321D01*
X33226571Y-10082521D01*
X33302771Y-10158721D01*
X33633571Y-12034780D02*
X33709771Y-11958580D01*
X33633571Y-11882380D01*
X33557371Y-11958580D01*
X33633571Y-12034780D01*
X33964371Y-13910838D02*
X34040571Y-13834638D01*
X33964371Y-13758438D01*
X33888171Y-13834638D01*
X33964371Y-13910838D01*
X34097912Y-5891823D02*
X34174112Y-5815623D01*
X34097912Y-5739423D01*
X34021712Y-5815623D01*
X34097912Y-5891823D01*
X34428712Y-7767882D02*
X34504912Y-7691682D01*
X34428712Y-7615482D01*
X34352512Y-7691682D01*
X34428712Y-7767882D01*
X34759512Y-9643941D02*
X34835712Y-9567741D01*
X34759512Y-9491541D01*
X34683312Y-9567741D01*
X34759512Y-9643941D01*
X34767372Y-6031697D02*
X34843572Y-5955497D01*
X34767372Y-5879297D01*
X34691172Y-5955497D01*
X34767372Y-6031697D01*
X35090312Y-11519999D02*
X35166512Y-11443799D01*
X35090312Y-11367599D01*
X35014112Y-11443799D01*
X35090312Y-11519999D01*
X35098172Y-7907756D02*
X35174372Y-7831556D01*
X35098172Y-7755356D01*
X35021972Y-7831556D01*
X35098172Y-7907756D01*
X35170970Y-13440164D02*
X35247170Y-13363964D01*
X35170970Y-13287764D01*
X35094770Y-13363964D01*
X35170970Y-13440164D01*
X35428971Y-9783815D02*
X35505171Y-9707615D01*
X35428971Y-9631415D01*
X35352771Y-9707615D01*
X35428971Y-9783815D01*
X35759771Y-11659873D02*
X35835971Y-11583673D01*
X35759771Y-11507473D01*
X35683571Y-11583673D01*
X35759771Y-11659873D01*
X35840430Y-13580039D02*
X35916630Y-13503839D01*
X35840430Y-13427639D01*
X35764230Y-13503839D01*
X35840430Y-13580039D01*
D11*
X4842701Y-19473917D02*
X4842701Y-19273917D01*
X4842701Y-19273917D02*
X4890320Y-19273917D01*
X4890320Y-19273917D02*
X4918892Y-19283441D01*
X4918892Y-19283441D02*
X4937939Y-19302488D01*
X4937939Y-19302488D02*
X4947463Y-19321536D01*
X4947463Y-19321536D02*
X4956987Y-19359631D01*
X4956987Y-19359631D02*
X4956987Y-19388202D01*
X4956987Y-19388202D02*
X4947463Y-19426298D01*
X4947463Y-19426298D02*
X4937939Y-19445345D01*
X4937939Y-19445345D02*
X4918892Y-19464393D01*
X4918892Y-19464393D02*
X4890320Y-19473917D01*
X4890320Y-19473917D02*
X4842701Y-19473917D01*
X5042701Y-19473917D02*
X5042701Y-19340583D01*
X5042701Y-19378679D02*
X5052225Y-19359631D01*
X5052225Y-19359631D02*
X5061749Y-19350107D01*
X5061749Y-19350107D02*
X5080796Y-19340583D01*
X5080796Y-19340583D02*
X5099844Y-19340583D01*
X5166511Y-19473917D02*
X5166511Y-19340583D01*
X5166511Y-19273917D02*
X5156987Y-19283441D01*
X5156987Y-19283441D02*
X5166511Y-19292964D01*
X5166511Y-19292964D02*
X5176034Y-19283441D01*
X5176034Y-19283441D02*
X5166511Y-19273917D01*
X5166511Y-19273917D02*
X5166511Y-19292964D01*
X5290320Y-19473917D02*
X5271273Y-19464393D01*
X5271273Y-19464393D02*
X5261749Y-19445345D01*
X5261749Y-19445345D02*
X5261749Y-19273917D01*
X5395082Y-19473917D02*
X5376034Y-19464393D01*
X5376034Y-19464393D02*
X5366511Y-19445345D01*
X5366511Y-19445345D02*
X5366511Y-19273917D01*
X5623653Y-19473917D02*
X5623653Y-19273917D01*
X5623653Y-19273917D02*
X5690320Y-19416774D01*
X5690320Y-19416774D02*
X5756987Y-19273917D01*
X5756987Y-19273917D02*
X5756987Y-19473917D01*
X5937939Y-19473917D02*
X5937939Y-19369155D01*
X5937939Y-19369155D02*
X5928415Y-19350107D01*
X5928415Y-19350107D02*
X5909368Y-19340583D01*
X5909368Y-19340583D02*
X5871272Y-19340583D01*
X5871272Y-19340583D02*
X5852225Y-19350107D01*
X5937939Y-19464393D02*
X5918892Y-19473917D01*
X5918892Y-19473917D02*
X5871272Y-19473917D01*
X5871272Y-19473917D02*
X5852225Y-19464393D01*
X5852225Y-19464393D02*
X5842701Y-19445345D01*
X5842701Y-19445345D02*
X5842701Y-19426298D01*
X5842701Y-19426298D02*
X5852225Y-19407250D01*
X5852225Y-19407250D02*
X5871272Y-19397726D01*
X5871272Y-19397726D02*
X5918892Y-19397726D01*
X5918892Y-19397726D02*
X5937939Y-19388202D01*
X6033177Y-19340583D02*
X6033177Y-19540583D01*
X6033177Y-19350107D02*
X6052225Y-19340583D01*
X6052225Y-19340583D02*
X6090320Y-19340583D01*
X6090320Y-19340583D02*
X6109368Y-19350107D01*
X6109368Y-19350107D02*
X6118892Y-19359631D01*
X6118892Y-19359631D02*
X6128415Y-19378679D01*
X6128415Y-19378679D02*
X6128415Y-19435821D01*
X6128415Y-19435821D02*
X6118892Y-19454869D01*
X6118892Y-19454869D02*
X6109368Y-19464393D01*
X6109368Y-19464393D02*
X6090320Y-19473917D01*
X6090320Y-19473917D02*
X6052225Y-19473917D01*
X6052225Y-19473917D02*
X6033177Y-19464393D01*
X6214130Y-19454869D02*
X6223653Y-19464393D01*
X6223653Y-19464393D02*
X6214130Y-19473917D01*
X6214130Y-19473917D02*
X6204606Y-19464393D01*
X6204606Y-19464393D02*
X6214130Y-19454869D01*
X6214130Y-19454869D02*
X6214130Y-19473917D01*
X6214130Y-19350107D02*
X6223653Y-19359631D01*
X6223653Y-19359631D02*
X6214130Y-19369155D01*
X6214130Y-19369155D02*
X6204606Y-19359631D01*
X6204606Y-19359631D02*
X6214130Y-19350107D01*
X6214130Y-19350107D02*
X6214130Y-19369155D01*
D10*
X4541924Y-19782433D02*
X4581924Y-19822433D01*
X4581924Y-19782433D02*
X4541924Y-19822433D01*
D11*
X4880796Y-19693917D02*
X4899844Y-19693917D01*
X4899844Y-19693917D02*
X4918892Y-19703441D01*
X4918892Y-19703441D02*
X4928415Y-19712964D01*
X4928415Y-19712964D02*
X4937939Y-19732012D01*
X4937939Y-19732012D02*
X4947463Y-19770107D01*
X4947463Y-19770107D02*
X4947463Y-19817726D01*
X4947463Y-19817726D02*
X4937939Y-19855821D01*
X4937939Y-19855821D02*
X4928415Y-19874869D01*
X4928415Y-19874869D02*
X4918892Y-19884393D01*
X4918892Y-19884393D02*
X4899844Y-19893917D01*
X4899844Y-19893917D02*
X4880796Y-19893917D01*
X4880796Y-19893917D02*
X4861749Y-19884393D01*
X4861749Y-19884393D02*
X4852225Y-19874869D01*
X4852225Y-19874869D02*
X4842701Y-19855821D01*
X4842701Y-19855821D02*
X4833177Y-19817726D01*
X4833177Y-19817726D02*
X4833177Y-19770107D01*
X4833177Y-19770107D02*
X4842701Y-19732012D01*
X4842701Y-19732012D02*
X4852225Y-19712964D01*
X4852225Y-19712964D02*
X4861749Y-19703441D01*
X4861749Y-19703441D02*
X4880796Y-19693917D01*
X5033177Y-19874869D02*
X5042701Y-19884393D01*
X5042701Y-19884393D02*
X5033177Y-19893917D01*
X5033177Y-19893917D02*
X5023654Y-19884393D01*
X5023654Y-19884393D02*
X5033177Y-19874869D01*
X5033177Y-19874869D02*
X5033177Y-19893917D01*
X5214130Y-19760583D02*
X5214130Y-19893917D01*
X5166511Y-19684393D02*
X5118892Y-19827250D01*
X5118892Y-19827250D02*
X5242701Y-19827250D01*
X5356987Y-19693917D02*
X5376035Y-19693917D01*
X5376035Y-19693917D02*
X5395082Y-19703441D01*
X5395082Y-19703441D02*
X5404606Y-19712964D01*
X5404606Y-19712964D02*
X5414130Y-19732012D01*
X5414130Y-19732012D02*
X5423654Y-19770107D01*
X5423654Y-19770107D02*
X5423654Y-19817726D01*
X5423654Y-19817726D02*
X5414130Y-19855821D01*
X5414130Y-19855821D02*
X5404606Y-19874869D01*
X5404606Y-19874869D02*
X5395082Y-19884393D01*
X5395082Y-19884393D02*
X5376035Y-19893917D01*
X5376035Y-19893917D02*
X5356987Y-19893917D01*
X5356987Y-19893917D02*
X5337939Y-19884393D01*
X5337939Y-19884393D02*
X5328415Y-19874869D01*
X5328415Y-19874869D02*
X5318892Y-19855821D01*
X5318892Y-19855821D02*
X5309368Y-19817726D01*
X5309368Y-19817726D02*
X5309368Y-19770107D01*
X5309368Y-19770107D02*
X5318892Y-19732012D01*
X5318892Y-19732012D02*
X5328415Y-19712964D01*
X5328415Y-19712964D02*
X5337939Y-19703441D01*
X5337939Y-19703441D02*
X5356987Y-19693917D01*
X5547463Y-19693917D02*
X5566511Y-19693917D01*
X5566511Y-19693917D02*
X5585558Y-19703441D01*
X5585558Y-19703441D02*
X5595082Y-19712964D01*
X5595082Y-19712964D02*
X5604606Y-19732012D01*
X5604606Y-19732012D02*
X5614130Y-19770107D01*
X5614130Y-19770107D02*
X5614130Y-19817726D01*
X5614130Y-19817726D02*
X5604606Y-19855821D01*
X5604606Y-19855821D02*
X5595082Y-19874869D01*
X5595082Y-19874869D02*
X5585558Y-19884393D01*
X5585558Y-19884393D02*
X5566511Y-19893917D01*
X5566511Y-19893917D02*
X5547463Y-19893917D01*
X5547463Y-19893917D02*
X5528415Y-19884393D01*
X5528415Y-19884393D02*
X5518892Y-19874869D01*
X5518892Y-19874869D02*
X5509368Y-19855821D01*
X5509368Y-19855821D02*
X5499844Y-19817726D01*
X5499844Y-19817726D02*
X5499844Y-19770107D01*
X5499844Y-19770107D02*
X5509368Y-19732012D01*
X5509368Y-19732012D02*
X5518892Y-19712964D01*
X5518892Y-19712964D02*
X5528415Y-19703441D01*
X5528415Y-19703441D02*
X5547463Y-19693917D01*
X5699844Y-19893917D02*
X5699844Y-19760583D01*
X5699844Y-19779631D02*
X5709368Y-19770107D01*
X5709368Y-19770107D02*
X5728415Y-19760583D01*
X5728415Y-19760583D02*
X5756987Y-19760583D01*
X5756987Y-19760583D02*
X5776034Y-19770107D01*
X5776034Y-19770107D02*
X5785558Y-19789155D01*
X5785558Y-19789155D02*
X5785558Y-19893917D01*
X5785558Y-19789155D02*
X5795082Y-19770107D01*
X5795082Y-19770107D02*
X5814130Y-19760583D01*
X5814130Y-19760583D02*
X5842701Y-19760583D01*
X5842701Y-19760583D02*
X5861749Y-19770107D01*
X5861749Y-19770107D02*
X5871273Y-19789155D01*
X5871273Y-19789155D02*
X5871273Y-19893917D01*
X5966511Y-19893917D02*
X5966511Y-19760583D01*
X5966511Y-19779631D02*
X5976034Y-19770107D01*
X5976034Y-19770107D02*
X5995082Y-19760583D01*
X5995082Y-19760583D02*
X6023654Y-19760583D01*
X6023654Y-19760583D02*
X6042701Y-19770107D01*
X6042701Y-19770107D02*
X6052225Y-19789155D01*
X6052225Y-19789155D02*
X6052225Y-19893917D01*
X6052225Y-19789155D02*
X6061749Y-19770107D01*
X6061749Y-19770107D02*
X6080796Y-19760583D01*
X6080796Y-19760583D02*
X6109368Y-19760583D01*
X6109368Y-19760583D02*
X6128415Y-19770107D01*
X6128415Y-19770107D02*
X6137939Y-19789155D01*
X6137939Y-19789155D02*
X6137939Y-19893917D01*
X6528415Y-19684393D02*
X6356987Y-19941536D01*
X6785558Y-19693917D02*
X6804606Y-19693917D01*
X6804606Y-19693917D02*
X6823654Y-19703441D01*
X6823654Y-19703441D02*
X6833177Y-19712964D01*
X6833177Y-19712964D02*
X6842701Y-19732012D01*
X6842701Y-19732012D02*
X6852225Y-19770107D01*
X6852225Y-19770107D02*
X6852225Y-19817726D01*
X6852225Y-19817726D02*
X6842701Y-19855821D01*
X6842701Y-19855821D02*
X6833177Y-19874869D01*
X6833177Y-19874869D02*
X6823654Y-19884393D01*
X6823654Y-19884393D02*
X6804606Y-19893917D01*
X6804606Y-19893917D02*
X6785558Y-19893917D01*
X6785558Y-19893917D02*
X6766511Y-19884393D01*
X6766511Y-19884393D02*
X6756987Y-19874869D01*
X6756987Y-19874869D02*
X6747463Y-19855821D01*
X6747463Y-19855821D02*
X6737939Y-19817726D01*
X6737939Y-19817726D02*
X6737939Y-19770107D01*
X6737939Y-19770107D02*
X6747463Y-19732012D01*
X6747463Y-19732012D02*
X6756987Y-19712964D01*
X6756987Y-19712964D02*
X6766511Y-19703441D01*
X6766511Y-19703441D02*
X6785558Y-19693917D01*
X6937939Y-19874869D02*
X6947463Y-19884393D01*
X6947463Y-19884393D02*
X6937939Y-19893917D01*
X6937939Y-19893917D02*
X6928416Y-19884393D01*
X6928416Y-19884393D02*
X6937939Y-19874869D01*
X6937939Y-19874869D02*
X6937939Y-19893917D01*
X7071273Y-19693917D02*
X7090320Y-19693917D01*
X7090320Y-19693917D02*
X7109368Y-19703441D01*
X7109368Y-19703441D02*
X7118892Y-19712964D01*
X7118892Y-19712964D02*
X7128416Y-19732012D01*
X7128416Y-19732012D02*
X7137939Y-19770107D01*
X7137939Y-19770107D02*
X7137939Y-19817726D01*
X7137939Y-19817726D02*
X7128416Y-19855821D01*
X7128416Y-19855821D02*
X7118892Y-19874869D01*
X7118892Y-19874869D02*
X7109368Y-19884393D01*
X7109368Y-19884393D02*
X7090320Y-19893917D01*
X7090320Y-19893917D02*
X7071273Y-19893917D01*
X7071273Y-19893917D02*
X7052225Y-19884393D01*
X7052225Y-19884393D02*
X7042701Y-19874869D01*
X7042701Y-19874869D02*
X7033177Y-19855821D01*
X7033177Y-19855821D02*
X7023654Y-19817726D01*
X7023654Y-19817726D02*
X7023654Y-19770107D01*
X7023654Y-19770107D02*
X7033177Y-19732012D01*
X7033177Y-19732012D02*
X7042701Y-19712964D01*
X7042701Y-19712964D02*
X7052225Y-19703441D01*
X7052225Y-19703441D02*
X7071273Y-19693917D01*
X7328416Y-19893917D02*
X7214130Y-19893917D01*
X7271273Y-19893917D02*
X7271273Y-19693917D01*
X7271273Y-19693917D02*
X7252225Y-19722488D01*
X7252225Y-19722488D02*
X7233177Y-19741536D01*
X7233177Y-19741536D02*
X7214130Y-19751060D01*
X7509368Y-19693917D02*
X7414130Y-19693917D01*
X7414130Y-19693917D02*
X7404606Y-19789155D01*
X7404606Y-19789155D02*
X7414130Y-19779631D01*
X7414130Y-19779631D02*
X7433177Y-19770107D01*
X7433177Y-19770107D02*
X7480797Y-19770107D01*
X7480797Y-19770107D02*
X7499844Y-19779631D01*
X7499844Y-19779631D02*
X7509368Y-19789155D01*
X7509368Y-19789155D02*
X7518892Y-19808202D01*
X7518892Y-19808202D02*
X7518892Y-19855821D01*
X7518892Y-19855821D02*
X7509368Y-19874869D01*
X7509368Y-19874869D02*
X7499844Y-19884393D01*
X7499844Y-19884393D02*
X7480797Y-19893917D01*
X7480797Y-19893917D02*
X7433177Y-19893917D01*
X7433177Y-19893917D02*
X7414130Y-19884393D01*
X7414130Y-19884393D02*
X7404606Y-19874869D01*
X7585558Y-19693917D02*
X7718892Y-19693917D01*
X7718892Y-19693917D02*
X7633177Y-19893917D01*
X7785558Y-19693917D02*
X7785558Y-19732012D01*
X7861749Y-19693917D02*
X7861749Y-19732012D01*
X8156987Y-19970107D02*
X8147463Y-19960583D01*
X8147463Y-19960583D02*
X8128416Y-19932012D01*
X8128416Y-19932012D02*
X8118892Y-19912964D01*
X8118892Y-19912964D02*
X8109368Y-19884393D01*
X8109368Y-19884393D02*
X8099844Y-19836774D01*
X8099844Y-19836774D02*
X8099844Y-19798679D01*
X8099844Y-19798679D02*
X8109368Y-19751060D01*
X8109368Y-19751060D02*
X8118892Y-19722488D01*
X8118892Y-19722488D02*
X8128416Y-19703441D01*
X8128416Y-19703441D02*
X8147463Y-19674869D01*
X8147463Y-19674869D02*
X8156987Y-19665345D01*
X8328416Y-19693917D02*
X8233178Y-19693917D01*
X8233178Y-19693917D02*
X8223654Y-19789155D01*
X8223654Y-19789155D02*
X8233178Y-19779631D01*
X8233178Y-19779631D02*
X8252225Y-19770107D01*
X8252225Y-19770107D02*
X8299844Y-19770107D01*
X8299844Y-19770107D02*
X8318892Y-19779631D01*
X8318892Y-19779631D02*
X8328416Y-19789155D01*
X8328416Y-19789155D02*
X8337939Y-19808202D01*
X8337939Y-19808202D02*
X8337939Y-19855821D01*
X8337939Y-19855821D02*
X8328416Y-19874869D01*
X8328416Y-19874869D02*
X8318892Y-19884393D01*
X8318892Y-19884393D02*
X8299844Y-19893917D01*
X8299844Y-19893917D02*
X8252225Y-19893917D01*
X8252225Y-19893917D02*
X8233178Y-19884393D01*
X8233178Y-19884393D02*
X8223654Y-19874869D01*
X8414130Y-19712964D02*
X8423654Y-19703441D01*
X8423654Y-19703441D02*
X8442701Y-19693917D01*
X8442701Y-19693917D02*
X8490321Y-19693917D01*
X8490321Y-19693917D02*
X8509368Y-19703441D01*
X8509368Y-19703441D02*
X8518892Y-19712964D01*
X8518892Y-19712964D02*
X8528416Y-19732012D01*
X8528416Y-19732012D02*
X8528416Y-19751060D01*
X8528416Y-19751060D02*
X8518892Y-19779631D01*
X8518892Y-19779631D02*
X8404606Y-19893917D01*
X8404606Y-19893917D02*
X8528416Y-19893917D01*
X8766511Y-19893917D02*
X8766511Y-19693917D01*
X8852225Y-19893917D02*
X8852225Y-19789155D01*
X8852225Y-19789155D02*
X8842702Y-19770107D01*
X8842702Y-19770107D02*
X8823654Y-19760583D01*
X8823654Y-19760583D02*
X8795082Y-19760583D01*
X8795082Y-19760583D02*
X8776035Y-19770107D01*
X8776035Y-19770107D02*
X8766511Y-19779631D01*
X8976035Y-19893917D02*
X8956987Y-19884393D01*
X8956987Y-19884393D02*
X8947463Y-19874869D01*
X8947463Y-19874869D02*
X8937940Y-19855821D01*
X8937940Y-19855821D02*
X8937940Y-19798679D01*
X8937940Y-19798679D02*
X8947463Y-19779631D01*
X8947463Y-19779631D02*
X8956987Y-19770107D01*
X8956987Y-19770107D02*
X8976035Y-19760583D01*
X8976035Y-19760583D02*
X9004606Y-19760583D01*
X9004606Y-19760583D02*
X9023654Y-19770107D01*
X9023654Y-19770107D02*
X9033178Y-19779631D01*
X9033178Y-19779631D02*
X9042702Y-19798679D01*
X9042702Y-19798679D02*
X9042702Y-19855821D01*
X9042702Y-19855821D02*
X9033178Y-19874869D01*
X9033178Y-19874869D02*
X9023654Y-19884393D01*
X9023654Y-19884393D02*
X9004606Y-19893917D01*
X9004606Y-19893917D02*
X8976035Y-19893917D01*
X9156987Y-19893917D02*
X9137940Y-19884393D01*
X9137940Y-19884393D02*
X9128416Y-19865345D01*
X9128416Y-19865345D02*
X9128416Y-19693917D01*
X9309368Y-19884393D02*
X9290321Y-19893917D01*
X9290321Y-19893917D02*
X9252225Y-19893917D01*
X9252225Y-19893917D02*
X9233178Y-19884393D01*
X9233178Y-19884393D02*
X9223654Y-19865345D01*
X9223654Y-19865345D02*
X9223654Y-19789155D01*
X9223654Y-19789155D02*
X9233178Y-19770107D01*
X9233178Y-19770107D02*
X9252225Y-19760583D01*
X9252225Y-19760583D02*
X9290321Y-19760583D01*
X9290321Y-19760583D02*
X9309368Y-19770107D01*
X9309368Y-19770107D02*
X9318892Y-19789155D01*
X9318892Y-19789155D02*
X9318892Y-19808202D01*
X9318892Y-19808202D02*
X9223654Y-19827250D01*
X9395083Y-19884393D02*
X9414130Y-19893917D01*
X9414130Y-19893917D02*
X9452225Y-19893917D01*
X9452225Y-19893917D02*
X9471273Y-19884393D01*
X9471273Y-19884393D02*
X9480797Y-19865345D01*
X9480797Y-19865345D02*
X9480797Y-19855821D01*
X9480797Y-19855821D02*
X9471273Y-19836774D01*
X9471273Y-19836774D02*
X9452225Y-19827250D01*
X9452225Y-19827250D02*
X9423654Y-19827250D01*
X9423654Y-19827250D02*
X9404606Y-19817726D01*
X9404606Y-19817726D02*
X9395083Y-19798679D01*
X9395083Y-19798679D02*
X9395083Y-19789155D01*
X9395083Y-19789155D02*
X9404606Y-19770107D01*
X9404606Y-19770107D02*
X9423654Y-19760583D01*
X9423654Y-19760583D02*
X9452225Y-19760583D01*
X9452225Y-19760583D02*
X9471273Y-19770107D01*
X9547464Y-19970107D02*
X9556987Y-19960583D01*
X9556987Y-19960583D02*
X9576035Y-19932012D01*
X9576035Y-19932012D02*
X9585559Y-19912964D01*
X9585559Y-19912964D02*
X9595083Y-19884393D01*
X9595083Y-19884393D02*
X9604606Y-19836774D01*
X9604606Y-19836774D02*
X9604606Y-19798679D01*
X9604606Y-19798679D02*
X9595083Y-19751060D01*
X9595083Y-19751060D02*
X9585559Y-19722488D01*
X9585559Y-19722488D02*
X9576035Y-19703441D01*
X9576035Y-19703441D02*
X9556987Y-19674869D01*
X9556987Y-19674869D02*
X9547464Y-19665345D01*
D10*
X4581924Y-20066433D02*
G75*
G02*
X4501924Y-20066433I-40000J0D01*
G01*
X4501924Y-20066433D02*
G75*
G02*
X4581924Y-20066433I40000J0D01*
G01*
D11*
X4880796Y-19957917D02*
X4899844Y-19957917D01*
X4899844Y-19957917D02*
X4918892Y-19967441D01*
X4918892Y-19967441D02*
X4928415Y-19976964D01*
X4928415Y-19976964D02*
X4937939Y-19996012D01*
X4937939Y-19996012D02*
X4947463Y-20034107D01*
X4947463Y-20034107D02*
X4947463Y-20081726D01*
X4947463Y-20081726D02*
X4937939Y-20119821D01*
X4937939Y-20119821D02*
X4928415Y-20138869D01*
X4928415Y-20138869D02*
X4918892Y-20148393D01*
X4918892Y-20148393D02*
X4899844Y-20157917D01*
X4899844Y-20157917D02*
X4880796Y-20157917D01*
X4880796Y-20157917D02*
X4861749Y-20148393D01*
X4861749Y-20148393D02*
X4852225Y-20138869D01*
X4852225Y-20138869D02*
X4842701Y-20119821D01*
X4842701Y-20119821D02*
X4833177Y-20081726D01*
X4833177Y-20081726D02*
X4833177Y-20034107D01*
X4833177Y-20034107D02*
X4842701Y-19996012D01*
X4842701Y-19996012D02*
X4852225Y-19976964D01*
X4852225Y-19976964D02*
X4861749Y-19967441D01*
X4861749Y-19967441D02*
X4880796Y-19957917D01*
X5033177Y-20138869D02*
X5042701Y-20148393D01*
X5042701Y-20148393D02*
X5033177Y-20157917D01*
X5033177Y-20157917D02*
X5023654Y-20148393D01*
X5023654Y-20148393D02*
X5033177Y-20138869D01*
X5033177Y-20138869D02*
X5033177Y-20157917D01*
X5156987Y-20043631D02*
X5137939Y-20034107D01*
X5137939Y-20034107D02*
X5128415Y-20024583D01*
X5128415Y-20024583D02*
X5118892Y-20005536D01*
X5118892Y-20005536D02*
X5118892Y-19996012D01*
X5118892Y-19996012D02*
X5128415Y-19976964D01*
X5128415Y-19976964D02*
X5137939Y-19967441D01*
X5137939Y-19967441D02*
X5156987Y-19957917D01*
X5156987Y-19957917D02*
X5195082Y-19957917D01*
X5195082Y-19957917D02*
X5214130Y-19967441D01*
X5214130Y-19967441D02*
X5223654Y-19976964D01*
X5223654Y-19976964D02*
X5233177Y-19996012D01*
X5233177Y-19996012D02*
X5233177Y-20005536D01*
X5233177Y-20005536D02*
X5223654Y-20024583D01*
X5223654Y-20024583D02*
X5214130Y-20034107D01*
X5214130Y-20034107D02*
X5195082Y-20043631D01*
X5195082Y-20043631D02*
X5156987Y-20043631D01*
X5156987Y-20043631D02*
X5137939Y-20053155D01*
X5137939Y-20053155D02*
X5128415Y-20062679D01*
X5128415Y-20062679D02*
X5118892Y-20081726D01*
X5118892Y-20081726D02*
X5118892Y-20119821D01*
X5118892Y-20119821D02*
X5128415Y-20138869D01*
X5128415Y-20138869D02*
X5137939Y-20148393D01*
X5137939Y-20148393D02*
X5156987Y-20157917D01*
X5156987Y-20157917D02*
X5195082Y-20157917D01*
X5195082Y-20157917D02*
X5214130Y-20148393D01*
X5214130Y-20148393D02*
X5223654Y-20138869D01*
X5223654Y-20138869D02*
X5233177Y-20119821D01*
X5233177Y-20119821D02*
X5233177Y-20081726D01*
X5233177Y-20081726D02*
X5223654Y-20062679D01*
X5223654Y-20062679D02*
X5214130Y-20053155D01*
X5214130Y-20053155D02*
X5195082Y-20043631D01*
X5356987Y-19957917D02*
X5376035Y-19957917D01*
X5376035Y-19957917D02*
X5395082Y-19967441D01*
X5395082Y-19967441D02*
X5404606Y-19976964D01*
X5404606Y-19976964D02*
X5414130Y-19996012D01*
X5414130Y-19996012D02*
X5423654Y-20034107D01*
X5423654Y-20034107D02*
X5423654Y-20081726D01*
X5423654Y-20081726D02*
X5414130Y-20119821D01*
X5414130Y-20119821D02*
X5404606Y-20138869D01*
X5404606Y-20138869D02*
X5395082Y-20148393D01*
X5395082Y-20148393D02*
X5376035Y-20157917D01*
X5376035Y-20157917D02*
X5356987Y-20157917D01*
X5356987Y-20157917D02*
X5337939Y-20148393D01*
X5337939Y-20148393D02*
X5328415Y-20138869D01*
X5328415Y-20138869D02*
X5318892Y-20119821D01*
X5318892Y-20119821D02*
X5309368Y-20081726D01*
X5309368Y-20081726D02*
X5309368Y-20034107D01*
X5309368Y-20034107D02*
X5318892Y-19996012D01*
X5318892Y-19996012D02*
X5328415Y-19976964D01*
X5328415Y-19976964D02*
X5337939Y-19967441D01*
X5337939Y-19967441D02*
X5356987Y-19957917D01*
X5547463Y-19957917D02*
X5566511Y-19957917D01*
X5566511Y-19957917D02*
X5585558Y-19967441D01*
X5585558Y-19967441D02*
X5595082Y-19976964D01*
X5595082Y-19976964D02*
X5604606Y-19996012D01*
X5604606Y-19996012D02*
X5614130Y-20034107D01*
X5614130Y-20034107D02*
X5614130Y-20081726D01*
X5614130Y-20081726D02*
X5604606Y-20119821D01*
X5604606Y-20119821D02*
X5595082Y-20138869D01*
X5595082Y-20138869D02*
X5585558Y-20148393D01*
X5585558Y-20148393D02*
X5566511Y-20157917D01*
X5566511Y-20157917D02*
X5547463Y-20157917D01*
X5547463Y-20157917D02*
X5528415Y-20148393D01*
X5528415Y-20148393D02*
X5518892Y-20138869D01*
X5518892Y-20138869D02*
X5509368Y-20119821D01*
X5509368Y-20119821D02*
X5499844Y-20081726D01*
X5499844Y-20081726D02*
X5499844Y-20034107D01*
X5499844Y-20034107D02*
X5509368Y-19996012D01*
X5509368Y-19996012D02*
X5518892Y-19976964D01*
X5518892Y-19976964D02*
X5528415Y-19967441D01*
X5528415Y-19967441D02*
X5547463Y-19957917D01*
X5699844Y-20157917D02*
X5699844Y-20024583D01*
X5699844Y-20043631D02*
X5709368Y-20034107D01*
X5709368Y-20034107D02*
X5728415Y-20024583D01*
X5728415Y-20024583D02*
X5756987Y-20024583D01*
X5756987Y-20024583D02*
X5776034Y-20034107D01*
X5776034Y-20034107D02*
X5785558Y-20053155D01*
X5785558Y-20053155D02*
X5785558Y-20157917D01*
X5785558Y-20053155D02*
X5795082Y-20034107D01*
X5795082Y-20034107D02*
X5814130Y-20024583D01*
X5814130Y-20024583D02*
X5842701Y-20024583D01*
X5842701Y-20024583D02*
X5861749Y-20034107D01*
X5861749Y-20034107D02*
X5871273Y-20053155D01*
X5871273Y-20053155D02*
X5871273Y-20157917D01*
X5966511Y-20157917D02*
X5966511Y-20024583D01*
X5966511Y-20043631D02*
X5976034Y-20034107D01*
X5976034Y-20034107D02*
X5995082Y-20024583D01*
X5995082Y-20024583D02*
X6023654Y-20024583D01*
X6023654Y-20024583D02*
X6042701Y-20034107D01*
X6042701Y-20034107D02*
X6052225Y-20053155D01*
X6052225Y-20053155D02*
X6052225Y-20157917D01*
X6052225Y-20053155D02*
X6061749Y-20034107D01*
X6061749Y-20034107D02*
X6080796Y-20024583D01*
X6080796Y-20024583D02*
X6109368Y-20024583D01*
X6109368Y-20024583D02*
X6128415Y-20034107D01*
X6128415Y-20034107D02*
X6137939Y-20053155D01*
X6137939Y-20053155D02*
X6137939Y-20157917D01*
X6528415Y-19948393D02*
X6356987Y-20205536D01*
X6785558Y-19957917D02*
X6804606Y-19957917D01*
X6804606Y-19957917D02*
X6823654Y-19967441D01*
X6823654Y-19967441D02*
X6833177Y-19976964D01*
X6833177Y-19976964D02*
X6842701Y-19996012D01*
X6842701Y-19996012D02*
X6852225Y-20034107D01*
X6852225Y-20034107D02*
X6852225Y-20081726D01*
X6852225Y-20081726D02*
X6842701Y-20119821D01*
X6842701Y-20119821D02*
X6833177Y-20138869D01*
X6833177Y-20138869D02*
X6823654Y-20148393D01*
X6823654Y-20148393D02*
X6804606Y-20157917D01*
X6804606Y-20157917D02*
X6785558Y-20157917D01*
X6785558Y-20157917D02*
X6766511Y-20148393D01*
X6766511Y-20148393D02*
X6756987Y-20138869D01*
X6756987Y-20138869D02*
X6747463Y-20119821D01*
X6747463Y-20119821D02*
X6737939Y-20081726D01*
X6737939Y-20081726D02*
X6737939Y-20034107D01*
X6737939Y-20034107D02*
X6747463Y-19996012D01*
X6747463Y-19996012D02*
X6756987Y-19976964D01*
X6756987Y-19976964D02*
X6766511Y-19967441D01*
X6766511Y-19967441D02*
X6785558Y-19957917D01*
X6937939Y-20138869D02*
X6947463Y-20148393D01*
X6947463Y-20148393D02*
X6937939Y-20157917D01*
X6937939Y-20157917D02*
X6928416Y-20148393D01*
X6928416Y-20148393D02*
X6937939Y-20138869D01*
X6937939Y-20138869D02*
X6937939Y-20157917D01*
X7071273Y-19957917D02*
X7090320Y-19957917D01*
X7090320Y-19957917D02*
X7109368Y-19967441D01*
X7109368Y-19967441D02*
X7118892Y-19976964D01*
X7118892Y-19976964D02*
X7128416Y-19996012D01*
X7128416Y-19996012D02*
X7137939Y-20034107D01*
X7137939Y-20034107D02*
X7137939Y-20081726D01*
X7137939Y-20081726D02*
X7128416Y-20119821D01*
X7128416Y-20119821D02*
X7118892Y-20138869D01*
X7118892Y-20138869D02*
X7109368Y-20148393D01*
X7109368Y-20148393D02*
X7090320Y-20157917D01*
X7090320Y-20157917D02*
X7071273Y-20157917D01*
X7071273Y-20157917D02*
X7052225Y-20148393D01*
X7052225Y-20148393D02*
X7042701Y-20138869D01*
X7042701Y-20138869D02*
X7033177Y-20119821D01*
X7033177Y-20119821D02*
X7023654Y-20081726D01*
X7023654Y-20081726D02*
X7023654Y-20034107D01*
X7023654Y-20034107D02*
X7033177Y-19996012D01*
X7033177Y-19996012D02*
X7042701Y-19976964D01*
X7042701Y-19976964D02*
X7052225Y-19967441D01*
X7052225Y-19967441D02*
X7071273Y-19957917D01*
X7204606Y-19957917D02*
X7328416Y-19957917D01*
X7328416Y-19957917D02*
X7261749Y-20034107D01*
X7261749Y-20034107D02*
X7290320Y-20034107D01*
X7290320Y-20034107D02*
X7309368Y-20043631D01*
X7309368Y-20043631D02*
X7318892Y-20053155D01*
X7318892Y-20053155D02*
X7328416Y-20072202D01*
X7328416Y-20072202D02*
X7328416Y-20119821D01*
X7328416Y-20119821D02*
X7318892Y-20138869D01*
X7318892Y-20138869D02*
X7309368Y-20148393D01*
X7309368Y-20148393D02*
X7290320Y-20157917D01*
X7290320Y-20157917D02*
X7233177Y-20157917D01*
X7233177Y-20157917D02*
X7214130Y-20148393D01*
X7214130Y-20148393D02*
X7204606Y-20138869D01*
X7518892Y-20157917D02*
X7404606Y-20157917D01*
X7461749Y-20157917D02*
X7461749Y-19957917D01*
X7461749Y-19957917D02*
X7442701Y-19986488D01*
X7442701Y-19986488D02*
X7423654Y-20005536D01*
X7423654Y-20005536D02*
X7404606Y-20015060D01*
X7699844Y-19957917D02*
X7604606Y-19957917D01*
X7604606Y-19957917D02*
X7595082Y-20053155D01*
X7595082Y-20053155D02*
X7604606Y-20043631D01*
X7604606Y-20043631D02*
X7623654Y-20034107D01*
X7623654Y-20034107D02*
X7671273Y-20034107D01*
X7671273Y-20034107D02*
X7690320Y-20043631D01*
X7690320Y-20043631D02*
X7699844Y-20053155D01*
X7699844Y-20053155D02*
X7709368Y-20072202D01*
X7709368Y-20072202D02*
X7709368Y-20119821D01*
X7709368Y-20119821D02*
X7699844Y-20138869D01*
X7699844Y-20138869D02*
X7690320Y-20148393D01*
X7690320Y-20148393D02*
X7671273Y-20157917D01*
X7671273Y-20157917D02*
X7623654Y-20157917D01*
X7623654Y-20157917D02*
X7604606Y-20148393D01*
X7604606Y-20148393D02*
X7595082Y-20138869D01*
X7785558Y-19957917D02*
X7785558Y-19996012D01*
X7861749Y-19957917D02*
X7861749Y-19996012D01*
X8156987Y-20234107D02*
X8147463Y-20224583D01*
X8147463Y-20224583D02*
X8128416Y-20196012D01*
X8128416Y-20196012D02*
X8118892Y-20176964D01*
X8118892Y-20176964D02*
X8109368Y-20148393D01*
X8109368Y-20148393D02*
X8099844Y-20100774D01*
X8099844Y-20100774D02*
X8099844Y-20062679D01*
X8099844Y-20062679D02*
X8109368Y-20015060D01*
X8109368Y-20015060D02*
X8118892Y-19986488D01*
X8118892Y-19986488D02*
X8128416Y-19967441D01*
X8128416Y-19967441D02*
X8147463Y-19938869D01*
X8147463Y-19938869D02*
X8156987Y-19929345D01*
X8271273Y-19957917D02*
X8290320Y-19957917D01*
X8290320Y-19957917D02*
X8309368Y-19967441D01*
X8309368Y-19967441D02*
X8318892Y-19976964D01*
X8318892Y-19976964D02*
X8328416Y-19996012D01*
X8328416Y-19996012D02*
X8337939Y-20034107D01*
X8337939Y-20034107D02*
X8337939Y-20081726D01*
X8337939Y-20081726D02*
X8328416Y-20119821D01*
X8328416Y-20119821D02*
X8318892Y-20138869D01*
X8318892Y-20138869D02*
X8309368Y-20148393D01*
X8309368Y-20148393D02*
X8290320Y-20157917D01*
X8290320Y-20157917D02*
X8271273Y-20157917D01*
X8271273Y-20157917D02*
X8252225Y-20148393D01*
X8252225Y-20148393D02*
X8242701Y-20138869D01*
X8242701Y-20138869D02*
X8233178Y-20119821D01*
X8233178Y-20119821D02*
X8223654Y-20081726D01*
X8223654Y-20081726D02*
X8223654Y-20034107D01*
X8223654Y-20034107D02*
X8233178Y-19996012D01*
X8233178Y-19996012D02*
X8242701Y-19976964D01*
X8242701Y-19976964D02*
X8252225Y-19967441D01*
X8252225Y-19967441D02*
X8271273Y-19957917D01*
X8576035Y-20157917D02*
X8576035Y-19957917D01*
X8661749Y-20157917D02*
X8661749Y-20053155D01*
X8661749Y-20053155D02*
X8652225Y-20034107D01*
X8652225Y-20034107D02*
X8633178Y-20024583D01*
X8633178Y-20024583D02*
X8604606Y-20024583D01*
X8604606Y-20024583D02*
X8585559Y-20034107D01*
X8585559Y-20034107D02*
X8576035Y-20043631D01*
X8785559Y-20157917D02*
X8766511Y-20148393D01*
X8766511Y-20148393D02*
X8756987Y-20138869D01*
X8756987Y-20138869D02*
X8747463Y-20119821D01*
X8747463Y-20119821D02*
X8747463Y-20062679D01*
X8747463Y-20062679D02*
X8756987Y-20043631D01*
X8756987Y-20043631D02*
X8766511Y-20034107D01*
X8766511Y-20034107D02*
X8785559Y-20024583D01*
X8785559Y-20024583D02*
X8814130Y-20024583D01*
X8814130Y-20024583D02*
X8833178Y-20034107D01*
X8833178Y-20034107D02*
X8842702Y-20043631D01*
X8842702Y-20043631D02*
X8852225Y-20062679D01*
X8852225Y-20062679D02*
X8852225Y-20119821D01*
X8852225Y-20119821D02*
X8842702Y-20138869D01*
X8842702Y-20138869D02*
X8833178Y-20148393D01*
X8833178Y-20148393D02*
X8814130Y-20157917D01*
X8814130Y-20157917D02*
X8785559Y-20157917D01*
X8966511Y-20157917D02*
X8947463Y-20148393D01*
X8947463Y-20148393D02*
X8937940Y-20129345D01*
X8937940Y-20129345D02*
X8937940Y-19957917D01*
X9118892Y-20148393D02*
X9099844Y-20157917D01*
X9099844Y-20157917D02*
X9061749Y-20157917D01*
X9061749Y-20157917D02*
X9042702Y-20148393D01*
X9042702Y-20148393D02*
X9033178Y-20129345D01*
X9033178Y-20129345D02*
X9033178Y-20053155D01*
X9033178Y-20053155D02*
X9042702Y-20034107D01*
X9042702Y-20034107D02*
X9061749Y-20024583D01*
X9061749Y-20024583D02*
X9099844Y-20024583D01*
X9099844Y-20024583D02*
X9118892Y-20034107D01*
X9118892Y-20034107D02*
X9128416Y-20053155D01*
X9128416Y-20053155D02*
X9128416Y-20072202D01*
X9128416Y-20072202D02*
X9033178Y-20091250D01*
X9204606Y-20148393D02*
X9223654Y-20157917D01*
X9223654Y-20157917D02*
X9261749Y-20157917D01*
X9261749Y-20157917D02*
X9280797Y-20148393D01*
X9280797Y-20148393D02*
X9290321Y-20129345D01*
X9290321Y-20129345D02*
X9290321Y-20119821D01*
X9290321Y-20119821D02*
X9280797Y-20100774D01*
X9280797Y-20100774D02*
X9261749Y-20091250D01*
X9261749Y-20091250D02*
X9233178Y-20091250D01*
X9233178Y-20091250D02*
X9214130Y-20081726D01*
X9214130Y-20081726D02*
X9204606Y-20062679D01*
X9204606Y-20062679D02*
X9204606Y-20053155D01*
X9204606Y-20053155D02*
X9214130Y-20034107D01*
X9214130Y-20034107D02*
X9233178Y-20024583D01*
X9233178Y-20024583D02*
X9261749Y-20024583D01*
X9261749Y-20024583D02*
X9280797Y-20034107D01*
X9528416Y-20081726D02*
X9680797Y-20081726D01*
X9604606Y-20157917D02*
X9604606Y-20005536D01*
X10033178Y-20157917D02*
X9918892Y-20157917D01*
X9976035Y-20157917D02*
X9976035Y-19957917D01*
X9976035Y-19957917D02*
X9956987Y-19986488D01*
X9956987Y-19986488D02*
X9937940Y-20005536D01*
X9937940Y-20005536D02*
X9918892Y-20015060D01*
X10204606Y-20024583D02*
X10204606Y-20157917D01*
X10156987Y-19948393D02*
X10109368Y-20091250D01*
X10109368Y-20091250D02*
X10233178Y-20091250D01*
X10347464Y-19957917D02*
X10366511Y-19957917D01*
X10366511Y-19957917D02*
X10385559Y-19967441D01*
X10385559Y-19967441D02*
X10395083Y-19976964D01*
X10395083Y-19976964D02*
X10404606Y-19996012D01*
X10404606Y-19996012D02*
X10414130Y-20034107D01*
X10414130Y-20034107D02*
X10414130Y-20081726D01*
X10414130Y-20081726D02*
X10404606Y-20119821D01*
X10404606Y-20119821D02*
X10395083Y-20138869D01*
X10395083Y-20138869D02*
X10385559Y-20148393D01*
X10385559Y-20148393D02*
X10366511Y-20157917D01*
X10366511Y-20157917D02*
X10347464Y-20157917D01*
X10347464Y-20157917D02*
X10328416Y-20148393D01*
X10328416Y-20148393D02*
X10318892Y-20138869D01*
X10318892Y-20138869D02*
X10309368Y-20119821D01*
X10309368Y-20119821D02*
X10299845Y-20081726D01*
X10299845Y-20081726D02*
X10299845Y-20034107D01*
X10299845Y-20034107D02*
X10309368Y-19996012D01*
X10309368Y-19996012D02*
X10318892Y-19976964D01*
X10318892Y-19976964D02*
X10328416Y-19967441D01*
X10328416Y-19967441D02*
X10347464Y-19957917D01*
X10642702Y-20148393D02*
X10661749Y-20157917D01*
X10661749Y-20157917D02*
X10699845Y-20157917D01*
X10699845Y-20157917D02*
X10718892Y-20148393D01*
X10718892Y-20148393D02*
X10728416Y-20129345D01*
X10728416Y-20129345D02*
X10728416Y-20119821D01*
X10728416Y-20119821D02*
X10718892Y-20100774D01*
X10718892Y-20100774D02*
X10699845Y-20091250D01*
X10699845Y-20091250D02*
X10671273Y-20091250D01*
X10671273Y-20091250D02*
X10652226Y-20081726D01*
X10652226Y-20081726D02*
X10642702Y-20062679D01*
X10642702Y-20062679D02*
X10642702Y-20053155D01*
X10642702Y-20053155D02*
X10652226Y-20034107D01*
X10652226Y-20034107D02*
X10671273Y-20024583D01*
X10671273Y-20024583D02*
X10699845Y-20024583D01*
X10699845Y-20024583D02*
X10718892Y-20034107D01*
X10842702Y-20157917D02*
X10823654Y-20148393D01*
X10823654Y-20148393D02*
X10814130Y-20129345D01*
X10814130Y-20129345D02*
X10814130Y-19957917D01*
X10947464Y-20157917D02*
X10928416Y-20148393D01*
X10928416Y-20148393D02*
X10918892Y-20138869D01*
X10918892Y-20138869D02*
X10909368Y-20119821D01*
X10909368Y-20119821D02*
X10909368Y-20062679D01*
X10909368Y-20062679D02*
X10918892Y-20043631D01*
X10918892Y-20043631D02*
X10928416Y-20034107D01*
X10928416Y-20034107D02*
X10947464Y-20024583D01*
X10947464Y-20024583D02*
X10976035Y-20024583D01*
X10976035Y-20024583D02*
X10995083Y-20034107D01*
X10995083Y-20034107D02*
X11004607Y-20043631D01*
X11004607Y-20043631D02*
X11014130Y-20062679D01*
X11014130Y-20062679D02*
X11014130Y-20119821D01*
X11014130Y-20119821D02*
X11004607Y-20138869D01*
X11004607Y-20138869D02*
X10995083Y-20148393D01*
X10995083Y-20148393D02*
X10976035Y-20157917D01*
X10976035Y-20157917D02*
X10947464Y-20157917D01*
X11071273Y-20024583D02*
X11147464Y-20024583D01*
X11099845Y-19957917D02*
X11099845Y-20129345D01*
X11099845Y-20129345D02*
X11109368Y-20148393D01*
X11109368Y-20148393D02*
X11128416Y-20157917D01*
X11128416Y-20157917D02*
X11147464Y-20157917D01*
X11204606Y-20148393D02*
X11223654Y-20157917D01*
X11223654Y-20157917D02*
X11261749Y-20157917D01*
X11261749Y-20157917D02*
X11280797Y-20148393D01*
X11280797Y-20148393D02*
X11290321Y-20129345D01*
X11290321Y-20129345D02*
X11290321Y-20119821D01*
X11290321Y-20119821D02*
X11280797Y-20100774D01*
X11280797Y-20100774D02*
X11261749Y-20091250D01*
X11261749Y-20091250D02*
X11233178Y-20091250D01*
X11233178Y-20091250D02*
X11214130Y-20081726D01*
X11214130Y-20081726D02*
X11204606Y-20062679D01*
X11204606Y-20062679D02*
X11204606Y-20053155D01*
X11204606Y-20053155D02*
X11214130Y-20034107D01*
X11214130Y-20034107D02*
X11233178Y-20024583D01*
X11233178Y-20024583D02*
X11261749Y-20024583D01*
X11261749Y-20024583D02*
X11280797Y-20034107D01*
X11356987Y-20234107D02*
X11366511Y-20224583D01*
X11366511Y-20224583D02*
X11385559Y-20196012D01*
X11385559Y-20196012D02*
X11395083Y-20176964D01*
X11395083Y-20176964D02*
X11404606Y-20148393D01*
X11404606Y-20148393D02*
X11414130Y-20100774D01*
X11414130Y-20100774D02*
X11414130Y-20062679D01*
X11414130Y-20062679D02*
X11404606Y-20015060D01*
X11404606Y-20015060D02*
X11395083Y-19986488D01*
X11395083Y-19986488D02*
X11385559Y-19967441D01*
X11385559Y-19967441D02*
X11366511Y-19938869D01*
X11366511Y-19938869D02*
X11356987Y-19929345D01*
D10*
X4541284Y-20289793D02*
X4541284Y-20371073D01*
X4500644Y-20330433D02*
X4581924Y-20330433D01*
D11*
X4880796Y-20221917D02*
X4899844Y-20221917D01*
X4899844Y-20221917D02*
X4918892Y-20231441D01*
X4918892Y-20231441D02*
X4928415Y-20240964D01*
X4928415Y-20240964D02*
X4937939Y-20260012D01*
X4937939Y-20260012D02*
X4947463Y-20298107D01*
X4947463Y-20298107D02*
X4947463Y-20345726D01*
X4947463Y-20345726D02*
X4937939Y-20383821D01*
X4937939Y-20383821D02*
X4928415Y-20402869D01*
X4928415Y-20402869D02*
X4918892Y-20412393D01*
X4918892Y-20412393D02*
X4899844Y-20421917D01*
X4899844Y-20421917D02*
X4880796Y-20421917D01*
X4880796Y-20421917D02*
X4861749Y-20412393D01*
X4861749Y-20412393D02*
X4852225Y-20402869D01*
X4852225Y-20402869D02*
X4842701Y-20383821D01*
X4842701Y-20383821D02*
X4833177Y-20345726D01*
X4833177Y-20345726D02*
X4833177Y-20298107D01*
X4833177Y-20298107D02*
X4842701Y-20260012D01*
X4842701Y-20260012D02*
X4852225Y-20240964D01*
X4852225Y-20240964D02*
X4861749Y-20231441D01*
X4861749Y-20231441D02*
X4880796Y-20221917D01*
X5033177Y-20402869D02*
X5042701Y-20412393D01*
X5042701Y-20412393D02*
X5033177Y-20421917D01*
X5033177Y-20421917D02*
X5023654Y-20412393D01*
X5023654Y-20412393D02*
X5033177Y-20402869D01*
X5033177Y-20402869D02*
X5033177Y-20421917D01*
X5156987Y-20307631D02*
X5137939Y-20298107D01*
X5137939Y-20298107D02*
X5128415Y-20288583D01*
X5128415Y-20288583D02*
X5118892Y-20269536D01*
X5118892Y-20269536D02*
X5118892Y-20260012D01*
X5118892Y-20260012D02*
X5128415Y-20240964D01*
X5128415Y-20240964D02*
X5137939Y-20231441D01*
X5137939Y-20231441D02*
X5156987Y-20221917D01*
X5156987Y-20221917D02*
X5195082Y-20221917D01*
X5195082Y-20221917D02*
X5214130Y-20231441D01*
X5214130Y-20231441D02*
X5223654Y-20240964D01*
X5223654Y-20240964D02*
X5233177Y-20260012D01*
X5233177Y-20260012D02*
X5233177Y-20269536D01*
X5233177Y-20269536D02*
X5223654Y-20288583D01*
X5223654Y-20288583D02*
X5214130Y-20298107D01*
X5214130Y-20298107D02*
X5195082Y-20307631D01*
X5195082Y-20307631D02*
X5156987Y-20307631D01*
X5156987Y-20307631D02*
X5137939Y-20317155D01*
X5137939Y-20317155D02*
X5128415Y-20326679D01*
X5128415Y-20326679D02*
X5118892Y-20345726D01*
X5118892Y-20345726D02*
X5118892Y-20383821D01*
X5118892Y-20383821D02*
X5128415Y-20402869D01*
X5128415Y-20402869D02*
X5137939Y-20412393D01*
X5137939Y-20412393D02*
X5156987Y-20421917D01*
X5156987Y-20421917D02*
X5195082Y-20421917D01*
X5195082Y-20421917D02*
X5214130Y-20412393D01*
X5214130Y-20412393D02*
X5223654Y-20402869D01*
X5223654Y-20402869D02*
X5233177Y-20383821D01*
X5233177Y-20383821D02*
X5233177Y-20345726D01*
X5233177Y-20345726D02*
X5223654Y-20326679D01*
X5223654Y-20326679D02*
X5214130Y-20317155D01*
X5214130Y-20317155D02*
X5195082Y-20307631D01*
X5423654Y-20421917D02*
X5309368Y-20421917D01*
X5366511Y-20421917D02*
X5366511Y-20221917D01*
X5366511Y-20221917D02*
X5347463Y-20250488D01*
X5347463Y-20250488D02*
X5328415Y-20269536D01*
X5328415Y-20269536D02*
X5309368Y-20279060D01*
X5490320Y-20221917D02*
X5614130Y-20221917D01*
X5614130Y-20221917D02*
X5547463Y-20298107D01*
X5547463Y-20298107D02*
X5576035Y-20298107D01*
X5576035Y-20298107D02*
X5595082Y-20307631D01*
X5595082Y-20307631D02*
X5604606Y-20317155D01*
X5604606Y-20317155D02*
X5614130Y-20336202D01*
X5614130Y-20336202D02*
X5614130Y-20383821D01*
X5614130Y-20383821D02*
X5604606Y-20402869D01*
X5604606Y-20402869D02*
X5595082Y-20412393D01*
X5595082Y-20412393D02*
X5576035Y-20421917D01*
X5576035Y-20421917D02*
X5518892Y-20421917D01*
X5518892Y-20421917D02*
X5499844Y-20412393D01*
X5499844Y-20412393D02*
X5490320Y-20402869D01*
X5699844Y-20421917D02*
X5699844Y-20288583D01*
X5699844Y-20307631D02*
X5709368Y-20298107D01*
X5709368Y-20298107D02*
X5728415Y-20288583D01*
X5728415Y-20288583D02*
X5756987Y-20288583D01*
X5756987Y-20288583D02*
X5776034Y-20298107D01*
X5776034Y-20298107D02*
X5785558Y-20317155D01*
X5785558Y-20317155D02*
X5785558Y-20421917D01*
X5785558Y-20317155D02*
X5795082Y-20298107D01*
X5795082Y-20298107D02*
X5814130Y-20288583D01*
X5814130Y-20288583D02*
X5842701Y-20288583D01*
X5842701Y-20288583D02*
X5861749Y-20298107D01*
X5861749Y-20298107D02*
X5871273Y-20317155D01*
X5871273Y-20317155D02*
X5871273Y-20421917D01*
X5966511Y-20421917D02*
X5966511Y-20288583D01*
X5966511Y-20307631D02*
X5976034Y-20298107D01*
X5976034Y-20298107D02*
X5995082Y-20288583D01*
X5995082Y-20288583D02*
X6023654Y-20288583D01*
X6023654Y-20288583D02*
X6042701Y-20298107D01*
X6042701Y-20298107D02*
X6052225Y-20317155D01*
X6052225Y-20317155D02*
X6052225Y-20421917D01*
X6052225Y-20317155D02*
X6061749Y-20298107D01*
X6061749Y-20298107D02*
X6080796Y-20288583D01*
X6080796Y-20288583D02*
X6109368Y-20288583D01*
X6109368Y-20288583D02*
X6128415Y-20298107D01*
X6128415Y-20298107D02*
X6137939Y-20317155D01*
X6137939Y-20317155D02*
X6137939Y-20421917D01*
X6528415Y-20212393D02*
X6356987Y-20469536D01*
X6785558Y-20221917D02*
X6804606Y-20221917D01*
X6804606Y-20221917D02*
X6823654Y-20231441D01*
X6823654Y-20231441D02*
X6833177Y-20240964D01*
X6833177Y-20240964D02*
X6842701Y-20260012D01*
X6842701Y-20260012D02*
X6852225Y-20298107D01*
X6852225Y-20298107D02*
X6852225Y-20345726D01*
X6852225Y-20345726D02*
X6842701Y-20383821D01*
X6842701Y-20383821D02*
X6833177Y-20402869D01*
X6833177Y-20402869D02*
X6823654Y-20412393D01*
X6823654Y-20412393D02*
X6804606Y-20421917D01*
X6804606Y-20421917D02*
X6785558Y-20421917D01*
X6785558Y-20421917D02*
X6766511Y-20412393D01*
X6766511Y-20412393D02*
X6756987Y-20402869D01*
X6756987Y-20402869D02*
X6747463Y-20383821D01*
X6747463Y-20383821D02*
X6737939Y-20345726D01*
X6737939Y-20345726D02*
X6737939Y-20298107D01*
X6737939Y-20298107D02*
X6747463Y-20260012D01*
X6747463Y-20260012D02*
X6756987Y-20240964D01*
X6756987Y-20240964D02*
X6766511Y-20231441D01*
X6766511Y-20231441D02*
X6785558Y-20221917D01*
X6937939Y-20402869D02*
X6947463Y-20412393D01*
X6947463Y-20412393D02*
X6937939Y-20421917D01*
X6937939Y-20421917D02*
X6928416Y-20412393D01*
X6928416Y-20412393D02*
X6937939Y-20402869D01*
X6937939Y-20402869D02*
X6937939Y-20421917D01*
X7071273Y-20221917D02*
X7090320Y-20221917D01*
X7090320Y-20221917D02*
X7109368Y-20231441D01*
X7109368Y-20231441D02*
X7118892Y-20240964D01*
X7118892Y-20240964D02*
X7128416Y-20260012D01*
X7128416Y-20260012D02*
X7137939Y-20298107D01*
X7137939Y-20298107D02*
X7137939Y-20345726D01*
X7137939Y-20345726D02*
X7128416Y-20383821D01*
X7128416Y-20383821D02*
X7118892Y-20402869D01*
X7118892Y-20402869D02*
X7109368Y-20412393D01*
X7109368Y-20412393D02*
X7090320Y-20421917D01*
X7090320Y-20421917D02*
X7071273Y-20421917D01*
X7071273Y-20421917D02*
X7052225Y-20412393D01*
X7052225Y-20412393D02*
X7042701Y-20402869D01*
X7042701Y-20402869D02*
X7033177Y-20383821D01*
X7033177Y-20383821D02*
X7023654Y-20345726D01*
X7023654Y-20345726D02*
X7023654Y-20298107D01*
X7023654Y-20298107D02*
X7033177Y-20260012D01*
X7033177Y-20260012D02*
X7042701Y-20240964D01*
X7042701Y-20240964D02*
X7052225Y-20231441D01*
X7052225Y-20231441D02*
X7071273Y-20221917D01*
X7204606Y-20221917D02*
X7328416Y-20221917D01*
X7328416Y-20221917D02*
X7261749Y-20298107D01*
X7261749Y-20298107D02*
X7290320Y-20298107D01*
X7290320Y-20298107D02*
X7309368Y-20307631D01*
X7309368Y-20307631D02*
X7318892Y-20317155D01*
X7318892Y-20317155D02*
X7328416Y-20336202D01*
X7328416Y-20336202D02*
X7328416Y-20383821D01*
X7328416Y-20383821D02*
X7318892Y-20402869D01*
X7318892Y-20402869D02*
X7309368Y-20412393D01*
X7309368Y-20412393D02*
X7290320Y-20421917D01*
X7290320Y-20421917D02*
X7233177Y-20421917D01*
X7233177Y-20421917D02*
X7214130Y-20412393D01*
X7214130Y-20412393D02*
X7204606Y-20402869D01*
X7404606Y-20240964D02*
X7414130Y-20231441D01*
X7414130Y-20231441D02*
X7433177Y-20221917D01*
X7433177Y-20221917D02*
X7480797Y-20221917D01*
X7480797Y-20221917D02*
X7499844Y-20231441D01*
X7499844Y-20231441D02*
X7509368Y-20240964D01*
X7509368Y-20240964D02*
X7518892Y-20260012D01*
X7518892Y-20260012D02*
X7518892Y-20279060D01*
X7518892Y-20279060D02*
X7509368Y-20307631D01*
X7509368Y-20307631D02*
X7395082Y-20421917D01*
X7395082Y-20421917D02*
X7518892Y-20421917D01*
X7642701Y-20221917D02*
X7661749Y-20221917D01*
X7661749Y-20221917D02*
X7680797Y-20231441D01*
X7680797Y-20231441D02*
X7690320Y-20240964D01*
X7690320Y-20240964D02*
X7699844Y-20260012D01*
X7699844Y-20260012D02*
X7709368Y-20298107D01*
X7709368Y-20298107D02*
X7709368Y-20345726D01*
X7709368Y-20345726D02*
X7699844Y-20383821D01*
X7699844Y-20383821D02*
X7690320Y-20402869D01*
X7690320Y-20402869D02*
X7680797Y-20412393D01*
X7680797Y-20412393D02*
X7661749Y-20421917D01*
X7661749Y-20421917D02*
X7642701Y-20421917D01*
X7642701Y-20421917D02*
X7623654Y-20412393D01*
X7623654Y-20412393D02*
X7614130Y-20402869D01*
X7614130Y-20402869D02*
X7604606Y-20383821D01*
X7604606Y-20383821D02*
X7595082Y-20345726D01*
X7595082Y-20345726D02*
X7595082Y-20298107D01*
X7595082Y-20298107D02*
X7604606Y-20260012D01*
X7604606Y-20260012D02*
X7614130Y-20240964D01*
X7614130Y-20240964D02*
X7623654Y-20231441D01*
X7623654Y-20231441D02*
X7642701Y-20221917D01*
X7785558Y-20221917D02*
X7785558Y-20260012D01*
X7861749Y-20221917D02*
X7861749Y-20260012D01*
X8156987Y-20498107D02*
X8147463Y-20488583D01*
X8147463Y-20488583D02*
X8128416Y-20460012D01*
X8128416Y-20460012D02*
X8118892Y-20440964D01*
X8118892Y-20440964D02*
X8109368Y-20412393D01*
X8109368Y-20412393D02*
X8099844Y-20364774D01*
X8099844Y-20364774D02*
X8099844Y-20326679D01*
X8099844Y-20326679D02*
X8109368Y-20279060D01*
X8109368Y-20279060D02*
X8118892Y-20250488D01*
X8118892Y-20250488D02*
X8128416Y-20231441D01*
X8128416Y-20231441D02*
X8147463Y-20202869D01*
X8147463Y-20202869D02*
X8156987Y-20193345D01*
X8214130Y-20221917D02*
X8337939Y-20221917D01*
X8337939Y-20221917D02*
X8271273Y-20298107D01*
X8271273Y-20298107D02*
X8299844Y-20298107D01*
X8299844Y-20298107D02*
X8318892Y-20307631D01*
X8318892Y-20307631D02*
X8328416Y-20317155D01*
X8328416Y-20317155D02*
X8337939Y-20336202D01*
X8337939Y-20336202D02*
X8337939Y-20383821D01*
X8337939Y-20383821D02*
X8328416Y-20402869D01*
X8328416Y-20402869D02*
X8318892Y-20412393D01*
X8318892Y-20412393D02*
X8299844Y-20421917D01*
X8299844Y-20421917D02*
X8242701Y-20421917D01*
X8242701Y-20421917D02*
X8223654Y-20412393D01*
X8223654Y-20412393D02*
X8214130Y-20402869D01*
X8509368Y-20288583D02*
X8509368Y-20421917D01*
X8461749Y-20212393D02*
X8414130Y-20355250D01*
X8414130Y-20355250D02*
X8537940Y-20355250D01*
X8766511Y-20421917D02*
X8766511Y-20221917D01*
X8852225Y-20421917D02*
X8852225Y-20317155D01*
X8852225Y-20317155D02*
X8842702Y-20298107D01*
X8842702Y-20298107D02*
X8823654Y-20288583D01*
X8823654Y-20288583D02*
X8795082Y-20288583D01*
X8795082Y-20288583D02*
X8776035Y-20298107D01*
X8776035Y-20298107D02*
X8766511Y-20307631D01*
X8976035Y-20421917D02*
X8956987Y-20412393D01*
X8956987Y-20412393D02*
X8947463Y-20402869D01*
X8947463Y-20402869D02*
X8937940Y-20383821D01*
X8937940Y-20383821D02*
X8937940Y-20326679D01*
X8937940Y-20326679D02*
X8947463Y-20307631D01*
X8947463Y-20307631D02*
X8956987Y-20298107D01*
X8956987Y-20298107D02*
X8976035Y-20288583D01*
X8976035Y-20288583D02*
X9004606Y-20288583D01*
X9004606Y-20288583D02*
X9023654Y-20298107D01*
X9023654Y-20298107D02*
X9033178Y-20307631D01*
X9033178Y-20307631D02*
X9042702Y-20326679D01*
X9042702Y-20326679D02*
X9042702Y-20383821D01*
X9042702Y-20383821D02*
X9033178Y-20402869D01*
X9033178Y-20402869D02*
X9023654Y-20412393D01*
X9023654Y-20412393D02*
X9004606Y-20421917D01*
X9004606Y-20421917D02*
X8976035Y-20421917D01*
X9156987Y-20421917D02*
X9137940Y-20412393D01*
X9137940Y-20412393D02*
X9128416Y-20393345D01*
X9128416Y-20393345D02*
X9128416Y-20221917D01*
X9309368Y-20412393D02*
X9290321Y-20421917D01*
X9290321Y-20421917D02*
X9252225Y-20421917D01*
X9252225Y-20421917D02*
X9233178Y-20412393D01*
X9233178Y-20412393D02*
X9223654Y-20393345D01*
X9223654Y-20393345D02*
X9223654Y-20317155D01*
X9223654Y-20317155D02*
X9233178Y-20298107D01*
X9233178Y-20298107D02*
X9252225Y-20288583D01*
X9252225Y-20288583D02*
X9290321Y-20288583D01*
X9290321Y-20288583D02*
X9309368Y-20298107D01*
X9309368Y-20298107D02*
X9318892Y-20317155D01*
X9318892Y-20317155D02*
X9318892Y-20336202D01*
X9318892Y-20336202D02*
X9223654Y-20355250D01*
X9395083Y-20412393D02*
X9414130Y-20421917D01*
X9414130Y-20421917D02*
X9452225Y-20421917D01*
X9452225Y-20421917D02*
X9471273Y-20412393D01*
X9471273Y-20412393D02*
X9480797Y-20393345D01*
X9480797Y-20393345D02*
X9480797Y-20383821D01*
X9480797Y-20383821D02*
X9471273Y-20364774D01*
X9471273Y-20364774D02*
X9452225Y-20355250D01*
X9452225Y-20355250D02*
X9423654Y-20355250D01*
X9423654Y-20355250D02*
X9404606Y-20345726D01*
X9404606Y-20345726D02*
X9395083Y-20326679D01*
X9395083Y-20326679D02*
X9395083Y-20317155D01*
X9395083Y-20317155D02*
X9404606Y-20298107D01*
X9404606Y-20298107D02*
X9423654Y-20288583D01*
X9423654Y-20288583D02*
X9452225Y-20288583D01*
X9452225Y-20288583D02*
X9471273Y-20298107D01*
X9547464Y-20498107D02*
X9556987Y-20488583D01*
X9556987Y-20488583D02*
X9576035Y-20460012D01*
X9576035Y-20460012D02*
X9585559Y-20440964D01*
X9585559Y-20440964D02*
X9595083Y-20412393D01*
X9595083Y-20412393D02*
X9604606Y-20364774D01*
X9604606Y-20364774D02*
X9604606Y-20326679D01*
X9604606Y-20326679D02*
X9595083Y-20279060D01*
X9595083Y-20279060D02*
X9585559Y-20250488D01*
X9585559Y-20250488D02*
X9576035Y-20231441D01*
X9576035Y-20231441D02*
X9556987Y-20202869D01*
X9556987Y-20202869D02*
X9547464Y-20193345D01*
D12*
X4565816Y-20633324D02*
X4565816Y-20555542D01*
X4488033Y-20555542D01*
X4488033Y-20633324D01*
X4565816Y-20633324D01*
D11*
X4947463Y-20685917D02*
X4833177Y-20685917D01*
X4890320Y-20685917D02*
X4890320Y-20485917D01*
X4890320Y-20485917D02*
X4871273Y-20514488D01*
X4871273Y-20514488D02*
X4852225Y-20533536D01*
X4852225Y-20533536D02*
X4833177Y-20543060D01*
X5033177Y-20666869D02*
X5042701Y-20676393D01*
X5042701Y-20676393D02*
X5033177Y-20685917D01*
X5033177Y-20685917D02*
X5023654Y-20676393D01*
X5023654Y-20676393D02*
X5033177Y-20666869D01*
X5033177Y-20666869D02*
X5033177Y-20685917D01*
X5233177Y-20685917D02*
X5118892Y-20685917D01*
X5176034Y-20685917D02*
X5176034Y-20485917D01*
X5176034Y-20485917D02*
X5156987Y-20514488D01*
X5156987Y-20514488D02*
X5137939Y-20533536D01*
X5137939Y-20533536D02*
X5118892Y-20543060D01*
X5356987Y-20485917D02*
X5376035Y-20485917D01*
X5376035Y-20485917D02*
X5395082Y-20495441D01*
X5395082Y-20495441D02*
X5404606Y-20504964D01*
X5404606Y-20504964D02*
X5414130Y-20524012D01*
X5414130Y-20524012D02*
X5423654Y-20562107D01*
X5423654Y-20562107D02*
X5423654Y-20609726D01*
X5423654Y-20609726D02*
X5414130Y-20647821D01*
X5414130Y-20647821D02*
X5404606Y-20666869D01*
X5404606Y-20666869D02*
X5395082Y-20676393D01*
X5395082Y-20676393D02*
X5376035Y-20685917D01*
X5376035Y-20685917D02*
X5356987Y-20685917D01*
X5356987Y-20685917D02*
X5337939Y-20676393D01*
X5337939Y-20676393D02*
X5328415Y-20666869D01*
X5328415Y-20666869D02*
X5318892Y-20647821D01*
X5318892Y-20647821D02*
X5309368Y-20609726D01*
X5309368Y-20609726D02*
X5309368Y-20562107D01*
X5309368Y-20562107D02*
X5318892Y-20524012D01*
X5318892Y-20524012D02*
X5328415Y-20504964D01*
X5328415Y-20504964D02*
X5337939Y-20495441D01*
X5337939Y-20495441D02*
X5356987Y-20485917D01*
X5547463Y-20485917D02*
X5566511Y-20485917D01*
X5566511Y-20485917D02*
X5585558Y-20495441D01*
X5585558Y-20495441D02*
X5595082Y-20504964D01*
X5595082Y-20504964D02*
X5604606Y-20524012D01*
X5604606Y-20524012D02*
X5614130Y-20562107D01*
X5614130Y-20562107D02*
X5614130Y-20609726D01*
X5614130Y-20609726D02*
X5604606Y-20647821D01*
X5604606Y-20647821D02*
X5595082Y-20666869D01*
X5595082Y-20666869D02*
X5585558Y-20676393D01*
X5585558Y-20676393D02*
X5566511Y-20685917D01*
X5566511Y-20685917D02*
X5547463Y-20685917D01*
X5547463Y-20685917D02*
X5528415Y-20676393D01*
X5528415Y-20676393D02*
X5518892Y-20666869D01*
X5518892Y-20666869D02*
X5509368Y-20647821D01*
X5509368Y-20647821D02*
X5499844Y-20609726D01*
X5499844Y-20609726D02*
X5499844Y-20562107D01*
X5499844Y-20562107D02*
X5509368Y-20524012D01*
X5509368Y-20524012D02*
X5518892Y-20504964D01*
X5518892Y-20504964D02*
X5528415Y-20495441D01*
X5528415Y-20495441D02*
X5547463Y-20485917D01*
X5699844Y-20685917D02*
X5699844Y-20552583D01*
X5699844Y-20571631D02*
X5709368Y-20562107D01*
X5709368Y-20562107D02*
X5728415Y-20552583D01*
X5728415Y-20552583D02*
X5756987Y-20552583D01*
X5756987Y-20552583D02*
X5776034Y-20562107D01*
X5776034Y-20562107D02*
X5785558Y-20581155D01*
X5785558Y-20581155D02*
X5785558Y-20685917D01*
X5785558Y-20581155D02*
X5795082Y-20562107D01*
X5795082Y-20562107D02*
X5814130Y-20552583D01*
X5814130Y-20552583D02*
X5842701Y-20552583D01*
X5842701Y-20552583D02*
X5861749Y-20562107D01*
X5861749Y-20562107D02*
X5871273Y-20581155D01*
X5871273Y-20581155D02*
X5871273Y-20685917D01*
X5966511Y-20685917D02*
X5966511Y-20552583D01*
X5966511Y-20571631D02*
X5976034Y-20562107D01*
X5976034Y-20562107D02*
X5995082Y-20552583D01*
X5995082Y-20552583D02*
X6023654Y-20552583D01*
X6023654Y-20552583D02*
X6042701Y-20562107D01*
X6042701Y-20562107D02*
X6052225Y-20581155D01*
X6052225Y-20581155D02*
X6052225Y-20685917D01*
X6052225Y-20581155D02*
X6061749Y-20562107D01*
X6061749Y-20562107D02*
X6080796Y-20552583D01*
X6080796Y-20552583D02*
X6109368Y-20552583D01*
X6109368Y-20552583D02*
X6128415Y-20562107D01*
X6128415Y-20562107D02*
X6137939Y-20581155D01*
X6137939Y-20581155D02*
X6137939Y-20685917D01*
X6528415Y-20476393D02*
X6356987Y-20733536D01*
X6785558Y-20485917D02*
X6804606Y-20485917D01*
X6804606Y-20485917D02*
X6823654Y-20495441D01*
X6823654Y-20495441D02*
X6833177Y-20504964D01*
X6833177Y-20504964D02*
X6842701Y-20524012D01*
X6842701Y-20524012D02*
X6852225Y-20562107D01*
X6852225Y-20562107D02*
X6852225Y-20609726D01*
X6852225Y-20609726D02*
X6842701Y-20647821D01*
X6842701Y-20647821D02*
X6833177Y-20666869D01*
X6833177Y-20666869D02*
X6823654Y-20676393D01*
X6823654Y-20676393D02*
X6804606Y-20685917D01*
X6804606Y-20685917D02*
X6785558Y-20685917D01*
X6785558Y-20685917D02*
X6766511Y-20676393D01*
X6766511Y-20676393D02*
X6756987Y-20666869D01*
X6756987Y-20666869D02*
X6747463Y-20647821D01*
X6747463Y-20647821D02*
X6737939Y-20609726D01*
X6737939Y-20609726D02*
X6737939Y-20562107D01*
X6737939Y-20562107D02*
X6747463Y-20524012D01*
X6747463Y-20524012D02*
X6756987Y-20504964D01*
X6756987Y-20504964D02*
X6766511Y-20495441D01*
X6766511Y-20495441D02*
X6785558Y-20485917D01*
X6937939Y-20666869D02*
X6947463Y-20676393D01*
X6947463Y-20676393D02*
X6937939Y-20685917D01*
X6937939Y-20685917D02*
X6928416Y-20676393D01*
X6928416Y-20676393D02*
X6937939Y-20666869D01*
X6937939Y-20666869D02*
X6937939Y-20685917D01*
X7071273Y-20485917D02*
X7090320Y-20485917D01*
X7090320Y-20485917D02*
X7109368Y-20495441D01*
X7109368Y-20495441D02*
X7118892Y-20504964D01*
X7118892Y-20504964D02*
X7128416Y-20524012D01*
X7128416Y-20524012D02*
X7137939Y-20562107D01*
X7137939Y-20562107D02*
X7137939Y-20609726D01*
X7137939Y-20609726D02*
X7128416Y-20647821D01*
X7128416Y-20647821D02*
X7118892Y-20666869D01*
X7118892Y-20666869D02*
X7109368Y-20676393D01*
X7109368Y-20676393D02*
X7090320Y-20685917D01*
X7090320Y-20685917D02*
X7071273Y-20685917D01*
X7071273Y-20685917D02*
X7052225Y-20676393D01*
X7052225Y-20676393D02*
X7042701Y-20666869D01*
X7042701Y-20666869D02*
X7033177Y-20647821D01*
X7033177Y-20647821D02*
X7023654Y-20609726D01*
X7023654Y-20609726D02*
X7023654Y-20562107D01*
X7023654Y-20562107D02*
X7033177Y-20524012D01*
X7033177Y-20524012D02*
X7042701Y-20504964D01*
X7042701Y-20504964D02*
X7052225Y-20495441D01*
X7052225Y-20495441D02*
X7071273Y-20485917D01*
X7309368Y-20552583D02*
X7309368Y-20685917D01*
X7261749Y-20476393D02*
X7214130Y-20619250D01*
X7214130Y-20619250D02*
X7337939Y-20619250D01*
X7395082Y-20485917D02*
X7518892Y-20485917D01*
X7518892Y-20485917D02*
X7452225Y-20562107D01*
X7452225Y-20562107D02*
X7480797Y-20562107D01*
X7480797Y-20562107D02*
X7499844Y-20571631D01*
X7499844Y-20571631D02*
X7509368Y-20581155D01*
X7509368Y-20581155D02*
X7518892Y-20600202D01*
X7518892Y-20600202D02*
X7518892Y-20647821D01*
X7518892Y-20647821D02*
X7509368Y-20666869D01*
X7509368Y-20666869D02*
X7499844Y-20676393D01*
X7499844Y-20676393D02*
X7480797Y-20685917D01*
X7480797Y-20685917D02*
X7423654Y-20685917D01*
X7423654Y-20685917D02*
X7404606Y-20676393D01*
X7404606Y-20676393D02*
X7395082Y-20666869D01*
X7585558Y-20485917D02*
X7709368Y-20485917D01*
X7709368Y-20485917D02*
X7642701Y-20562107D01*
X7642701Y-20562107D02*
X7671273Y-20562107D01*
X7671273Y-20562107D02*
X7690320Y-20571631D01*
X7690320Y-20571631D02*
X7699844Y-20581155D01*
X7699844Y-20581155D02*
X7709368Y-20600202D01*
X7709368Y-20600202D02*
X7709368Y-20647821D01*
X7709368Y-20647821D02*
X7699844Y-20666869D01*
X7699844Y-20666869D02*
X7690320Y-20676393D01*
X7690320Y-20676393D02*
X7671273Y-20685917D01*
X7671273Y-20685917D02*
X7614130Y-20685917D01*
X7614130Y-20685917D02*
X7595082Y-20676393D01*
X7595082Y-20676393D02*
X7585558Y-20666869D01*
X7785558Y-20485917D02*
X7785558Y-20524012D01*
X7861749Y-20485917D02*
X7861749Y-20524012D01*
X8156987Y-20762107D02*
X8147463Y-20752583D01*
X8147463Y-20752583D02*
X8128416Y-20724012D01*
X8128416Y-20724012D02*
X8118892Y-20704964D01*
X8118892Y-20704964D02*
X8109368Y-20676393D01*
X8109368Y-20676393D02*
X8099844Y-20628774D01*
X8099844Y-20628774D02*
X8099844Y-20590679D01*
X8099844Y-20590679D02*
X8109368Y-20543060D01*
X8109368Y-20543060D02*
X8118892Y-20514488D01*
X8118892Y-20514488D02*
X8128416Y-20495441D01*
X8128416Y-20495441D02*
X8147463Y-20466869D01*
X8147463Y-20466869D02*
X8156987Y-20457345D01*
X8318892Y-20552583D02*
X8318892Y-20685917D01*
X8271273Y-20476393D02*
X8223654Y-20619250D01*
X8223654Y-20619250D02*
X8347463Y-20619250D01*
X8576035Y-20685917D02*
X8576035Y-20485917D01*
X8661749Y-20685917D02*
X8661749Y-20581155D01*
X8661749Y-20581155D02*
X8652225Y-20562107D01*
X8652225Y-20562107D02*
X8633178Y-20552583D01*
X8633178Y-20552583D02*
X8604606Y-20552583D01*
X8604606Y-20552583D02*
X8585559Y-20562107D01*
X8585559Y-20562107D02*
X8576035Y-20571631D01*
X8785559Y-20685917D02*
X8766511Y-20676393D01*
X8766511Y-20676393D02*
X8756987Y-20666869D01*
X8756987Y-20666869D02*
X8747463Y-20647821D01*
X8747463Y-20647821D02*
X8747463Y-20590679D01*
X8747463Y-20590679D02*
X8756987Y-20571631D01*
X8756987Y-20571631D02*
X8766511Y-20562107D01*
X8766511Y-20562107D02*
X8785559Y-20552583D01*
X8785559Y-20552583D02*
X8814130Y-20552583D01*
X8814130Y-20552583D02*
X8833178Y-20562107D01*
X8833178Y-20562107D02*
X8842702Y-20571631D01*
X8842702Y-20571631D02*
X8852225Y-20590679D01*
X8852225Y-20590679D02*
X8852225Y-20647821D01*
X8852225Y-20647821D02*
X8842702Y-20666869D01*
X8842702Y-20666869D02*
X8833178Y-20676393D01*
X8833178Y-20676393D02*
X8814130Y-20685917D01*
X8814130Y-20685917D02*
X8785559Y-20685917D01*
X8966511Y-20685917D02*
X8947463Y-20676393D01*
X8947463Y-20676393D02*
X8937940Y-20657345D01*
X8937940Y-20657345D02*
X8937940Y-20485917D01*
X9118892Y-20676393D02*
X9099844Y-20685917D01*
X9099844Y-20685917D02*
X9061749Y-20685917D01*
X9061749Y-20685917D02*
X9042702Y-20676393D01*
X9042702Y-20676393D02*
X9033178Y-20657345D01*
X9033178Y-20657345D02*
X9033178Y-20581155D01*
X9033178Y-20581155D02*
X9042702Y-20562107D01*
X9042702Y-20562107D02*
X9061749Y-20552583D01*
X9061749Y-20552583D02*
X9099844Y-20552583D01*
X9099844Y-20552583D02*
X9118892Y-20562107D01*
X9118892Y-20562107D02*
X9128416Y-20581155D01*
X9128416Y-20581155D02*
X9128416Y-20600202D01*
X9128416Y-20600202D02*
X9033178Y-20619250D01*
X9204606Y-20676393D02*
X9223654Y-20685917D01*
X9223654Y-20685917D02*
X9261749Y-20685917D01*
X9261749Y-20685917D02*
X9280797Y-20676393D01*
X9280797Y-20676393D02*
X9290321Y-20657345D01*
X9290321Y-20657345D02*
X9290321Y-20647821D01*
X9290321Y-20647821D02*
X9280797Y-20628774D01*
X9280797Y-20628774D02*
X9261749Y-20619250D01*
X9261749Y-20619250D02*
X9233178Y-20619250D01*
X9233178Y-20619250D02*
X9214130Y-20609726D01*
X9214130Y-20609726D02*
X9204606Y-20590679D01*
X9204606Y-20590679D02*
X9204606Y-20581155D01*
X9204606Y-20581155D02*
X9214130Y-20562107D01*
X9214130Y-20562107D02*
X9233178Y-20552583D01*
X9233178Y-20552583D02*
X9261749Y-20552583D01*
X9261749Y-20552583D02*
X9280797Y-20562107D01*
X9356987Y-20762107D02*
X9366511Y-20752583D01*
X9366511Y-20752583D02*
X9385559Y-20724012D01*
X9385559Y-20724012D02*
X9395083Y-20704964D01*
X9395083Y-20704964D02*
X9404606Y-20676393D01*
X9404606Y-20676393D02*
X9414130Y-20628774D01*
X9414130Y-20628774D02*
X9414130Y-20590679D01*
X9414130Y-20590679D02*
X9404606Y-20543060D01*
X9404606Y-20543060D02*
X9395083Y-20514488D01*
X9395083Y-20514488D02*
X9385559Y-20495441D01*
X9385559Y-20495441D02*
X9366511Y-20466869D01*
X9366511Y-20466869D02*
X9356987Y-20457345D01*
D13*
X4505724Y-20934633D02*
X4581924Y-20858433D01*
X4505724Y-20782233D01*
X4429524Y-20858433D01*
X4505724Y-20934633D01*
D11*
X4947463Y-20949917D02*
X4833177Y-20949917D01*
X4890320Y-20949917D02*
X4890320Y-20749917D01*
X4890320Y-20749917D02*
X4871273Y-20778488D01*
X4871273Y-20778488D02*
X4852225Y-20797536D01*
X4852225Y-20797536D02*
X4833177Y-20807060D01*
X5033177Y-20930869D02*
X5042701Y-20940393D01*
X5042701Y-20940393D02*
X5033177Y-20949917D01*
X5033177Y-20949917D02*
X5023654Y-20940393D01*
X5023654Y-20940393D02*
X5033177Y-20930869D01*
X5033177Y-20930869D02*
X5033177Y-20949917D01*
X5223654Y-20749917D02*
X5128415Y-20749917D01*
X5128415Y-20749917D02*
X5118892Y-20845155D01*
X5118892Y-20845155D02*
X5128415Y-20835631D01*
X5128415Y-20835631D02*
X5147463Y-20826107D01*
X5147463Y-20826107D02*
X5195082Y-20826107D01*
X5195082Y-20826107D02*
X5214130Y-20835631D01*
X5214130Y-20835631D02*
X5223654Y-20845155D01*
X5223654Y-20845155D02*
X5233177Y-20864202D01*
X5233177Y-20864202D02*
X5233177Y-20911821D01*
X5233177Y-20911821D02*
X5223654Y-20930869D01*
X5223654Y-20930869D02*
X5214130Y-20940393D01*
X5214130Y-20940393D02*
X5195082Y-20949917D01*
X5195082Y-20949917D02*
X5147463Y-20949917D01*
X5147463Y-20949917D02*
X5128415Y-20940393D01*
X5128415Y-20940393D02*
X5118892Y-20930869D01*
X5309368Y-20768964D02*
X5318892Y-20759441D01*
X5318892Y-20759441D02*
X5337939Y-20749917D01*
X5337939Y-20749917D02*
X5385558Y-20749917D01*
X5385558Y-20749917D02*
X5404606Y-20759441D01*
X5404606Y-20759441D02*
X5414130Y-20768964D01*
X5414130Y-20768964D02*
X5423654Y-20788012D01*
X5423654Y-20788012D02*
X5423654Y-20807060D01*
X5423654Y-20807060D02*
X5414130Y-20835631D01*
X5414130Y-20835631D02*
X5299844Y-20949917D01*
X5299844Y-20949917D02*
X5423654Y-20949917D01*
X5595082Y-20816583D02*
X5595082Y-20949917D01*
X5547463Y-20740393D02*
X5499844Y-20883250D01*
X5499844Y-20883250D02*
X5623653Y-20883250D01*
X5699844Y-20949917D02*
X5699844Y-20816583D01*
X5699844Y-20835631D02*
X5709368Y-20826107D01*
X5709368Y-20826107D02*
X5728415Y-20816583D01*
X5728415Y-20816583D02*
X5756987Y-20816583D01*
X5756987Y-20816583D02*
X5776034Y-20826107D01*
X5776034Y-20826107D02*
X5785558Y-20845155D01*
X5785558Y-20845155D02*
X5785558Y-20949917D01*
X5785558Y-20845155D02*
X5795082Y-20826107D01*
X5795082Y-20826107D02*
X5814130Y-20816583D01*
X5814130Y-20816583D02*
X5842701Y-20816583D01*
X5842701Y-20816583D02*
X5861749Y-20826107D01*
X5861749Y-20826107D02*
X5871273Y-20845155D01*
X5871273Y-20845155D02*
X5871273Y-20949917D01*
X5966511Y-20949917D02*
X5966511Y-20816583D01*
X5966511Y-20835631D02*
X5976034Y-20826107D01*
X5976034Y-20826107D02*
X5995082Y-20816583D01*
X5995082Y-20816583D02*
X6023654Y-20816583D01*
X6023654Y-20816583D02*
X6042701Y-20826107D01*
X6042701Y-20826107D02*
X6052225Y-20845155D01*
X6052225Y-20845155D02*
X6052225Y-20949917D01*
X6052225Y-20845155D02*
X6061749Y-20826107D01*
X6061749Y-20826107D02*
X6080796Y-20816583D01*
X6080796Y-20816583D02*
X6109368Y-20816583D01*
X6109368Y-20816583D02*
X6128415Y-20826107D01*
X6128415Y-20826107D02*
X6137939Y-20845155D01*
X6137939Y-20845155D02*
X6137939Y-20949917D01*
X6528415Y-20740393D02*
X6356987Y-20997536D01*
X6785558Y-20749917D02*
X6804606Y-20749917D01*
X6804606Y-20749917D02*
X6823654Y-20759441D01*
X6823654Y-20759441D02*
X6833177Y-20768964D01*
X6833177Y-20768964D02*
X6842701Y-20788012D01*
X6842701Y-20788012D02*
X6852225Y-20826107D01*
X6852225Y-20826107D02*
X6852225Y-20873726D01*
X6852225Y-20873726D02*
X6842701Y-20911821D01*
X6842701Y-20911821D02*
X6833177Y-20930869D01*
X6833177Y-20930869D02*
X6823654Y-20940393D01*
X6823654Y-20940393D02*
X6804606Y-20949917D01*
X6804606Y-20949917D02*
X6785558Y-20949917D01*
X6785558Y-20949917D02*
X6766511Y-20940393D01*
X6766511Y-20940393D02*
X6756987Y-20930869D01*
X6756987Y-20930869D02*
X6747463Y-20911821D01*
X6747463Y-20911821D02*
X6737939Y-20873726D01*
X6737939Y-20873726D02*
X6737939Y-20826107D01*
X6737939Y-20826107D02*
X6747463Y-20788012D01*
X6747463Y-20788012D02*
X6756987Y-20768964D01*
X6756987Y-20768964D02*
X6766511Y-20759441D01*
X6766511Y-20759441D02*
X6785558Y-20749917D01*
X6937939Y-20930869D02*
X6947463Y-20940393D01*
X6947463Y-20940393D02*
X6937939Y-20949917D01*
X6937939Y-20949917D02*
X6928416Y-20940393D01*
X6928416Y-20940393D02*
X6937939Y-20930869D01*
X6937939Y-20930869D02*
X6937939Y-20949917D01*
X7071273Y-20749917D02*
X7090320Y-20749917D01*
X7090320Y-20749917D02*
X7109368Y-20759441D01*
X7109368Y-20759441D02*
X7118892Y-20768964D01*
X7118892Y-20768964D02*
X7128416Y-20788012D01*
X7128416Y-20788012D02*
X7137939Y-20826107D01*
X7137939Y-20826107D02*
X7137939Y-20873726D01*
X7137939Y-20873726D02*
X7128416Y-20911821D01*
X7128416Y-20911821D02*
X7118892Y-20930869D01*
X7118892Y-20930869D02*
X7109368Y-20940393D01*
X7109368Y-20940393D02*
X7090320Y-20949917D01*
X7090320Y-20949917D02*
X7071273Y-20949917D01*
X7071273Y-20949917D02*
X7052225Y-20940393D01*
X7052225Y-20940393D02*
X7042701Y-20930869D01*
X7042701Y-20930869D02*
X7033177Y-20911821D01*
X7033177Y-20911821D02*
X7023654Y-20873726D01*
X7023654Y-20873726D02*
X7023654Y-20826107D01*
X7023654Y-20826107D02*
X7033177Y-20788012D01*
X7033177Y-20788012D02*
X7042701Y-20768964D01*
X7042701Y-20768964D02*
X7052225Y-20759441D01*
X7052225Y-20759441D02*
X7071273Y-20749917D01*
X7309368Y-20749917D02*
X7271273Y-20749917D01*
X7271273Y-20749917D02*
X7252225Y-20759441D01*
X7252225Y-20759441D02*
X7242701Y-20768964D01*
X7242701Y-20768964D02*
X7223654Y-20797536D01*
X7223654Y-20797536D02*
X7214130Y-20835631D01*
X7214130Y-20835631D02*
X7214130Y-20911821D01*
X7214130Y-20911821D02*
X7223654Y-20930869D01*
X7223654Y-20930869D02*
X7233177Y-20940393D01*
X7233177Y-20940393D02*
X7252225Y-20949917D01*
X7252225Y-20949917D02*
X7290320Y-20949917D01*
X7290320Y-20949917D02*
X7309368Y-20940393D01*
X7309368Y-20940393D02*
X7318892Y-20930869D01*
X7318892Y-20930869D02*
X7328416Y-20911821D01*
X7328416Y-20911821D02*
X7328416Y-20864202D01*
X7328416Y-20864202D02*
X7318892Y-20845155D01*
X7318892Y-20845155D02*
X7309368Y-20835631D01*
X7309368Y-20835631D02*
X7290320Y-20826107D01*
X7290320Y-20826107D02*
X7252225Y-20826107D01*
X7252225Y-20826107D02*
X7233177Y-20835631D01*
X7233177Y-20835631D02*
X7223654Y-20845155D01*
X7223654Y-20845155D02*
X7214130Y-20864202D01*
X7452225Y-20749917D02*
X7471273Y-20749917D01*
X7471273Y-20749917D02*
X7490320Y-20759441D01*
X7490320Y-20759441D02*
X7499844Y-20768964D01*
X7499844Y-20768964D02*
X7509368Y-20788012D01*
X7509368Y-20788012D02*
X7518892Y-20826107D01*
X7518892Y-20826107D02*
X7518892Y-20873726D01*
X7518892Y-20873726D02*
X7509368Y-20911821D01*
X7509368Y-20911821D02*
X7499844Y-20930869D01*
X7499844Y-20930869D02*
X7490320Y-20940393D01*
X7490320Y-20940393D02*
X7471273Y-20949917D01*
X7471273Y-20949917D02*
X7452225Y-20949917D01*
X7452225Y-20949917D02*
X7433177Y-20940393D01*
X7433177Y-20940393D02*
X7423654Y-20930869D01*
X7423654Y-20930869D02*
X7414130Y-20911821D01*
X7414130Y-20911821D02*
X7404606Y-20873726D01*
X7404606Y-20873726D02*
X7404606Y-20826107D01*
X7404606Y-20826107D02*
X7414130Y-20788012D01*
X7414130Y-20788012D02*
X7423654Y-20768964D01*
X7423654Y-20768964D02*
X7433177Y-20759441D01*
X7433177Y-20759441D02*
X7452225Y-20749917D01*
X7642701Y-20749917D02*
X7661749Y-20749917D01*
X7661749Y-20749917D02*
X7680797Y-20759441D01*
X7680797Y-20759441D02*
X7690320Y-20768964D01*
X7690320Y-20768964D02*
X7699844Y-20788012D01*
X7699844Y-20788012D02*
X7709368Y-20826107D01*
X7709368Y-20826107D02*
X7709368Y-20873726D01*
X7709368Y-20873726D02*
X7699844Y-20911821D01*
X7699844Y-20911821D02*
X7690320Y-20930869D01*
X7690320Y-20930869D02*
X7680797Y-20940393D01*
X7680797Y-20940393D02*
X7661749Y-20949917D01*
X7661749Y-20949917D02*
X7642701Y-20949917D01*
X7642701Y-20949917D02*
X7623654Y-20940393D01*
X7623654Y-20940393D02*
X7614130Y-20930869D01*
X7614130Y-20930869D02*
X7604606Y-20911821D01*
X7604606Y-20911821D02*
X7595082Y-20873726D01*
X7595082Y-20873726D02*
X7595082Y-20826107D01*
X7595082Y-20826107D02*
X7604606Y-20788012D01*
X7604606Y-20788012D02*
X7614130Y-20768964D01*
X7614130Y-20768964D02*
X7623654Y-20759441D01*
X7623654Y-20759441D02*
X7642701Y-20749917D01*
X7785558Y-20749917D02*
X7785558Y-20788012D01*
X7861749Y-20749917D02*
X7861749Y-20788012D01*
X8156987Y-21026107D02*
X8147463Y-21016583D01*
X8147463Y-21016583D02*
X8128416Y-20988012D01*
X8128416Y-20988012D02*
X8118892Y-20968964D01*
X8118892Y-20968964D02*
X8109368Y-20940393D01*
X8109368Y-20940393D02*
X8099844Y-20892774D01*
X8099844Y-20892774D02*
X8099844Y-20854679D01*
X8099844Y-20854679D02*
X8109368Y-20807060D01*
X8109368Y-20807060D02*
X8118892Y-20778488D01*
X8118892Y-20778488D02*
X8128416Y-20759441D01*
X8128416Y-20759441D02*
X8147463Y-20730869D01*
X8147463Y-20730869D02*
X8156987Y-20721345D01*
X8337939Y-20949917D02*
X8223654Y-20949917D01*
X8280797Y-20949917D02*
X8280797Y-20749917D01*
X8280797Y-20749917D02*
X8261749Y-20778488D01*
X8261749Y-20778488D02*
X8242701Y-20797536D01*
X8242701Y-20797536D02*
X8223654Y-20807060D01*
X8509368Y-20816583D02*
X8509368Y-20949917D01*
X8461749Y-20740393D02*
X8414130Y-20883250D01*
X8414130Y-20883250D02*
X8537940Y-20883250D01*
X8652225Y-20749917D02*
X8671273Y-20749917D01*
X8671273Y-20749917D02*
X8690321Y-20759441D01*
X8690321Y-20759441D02*
X8699844Y-20768964D01*
X8699844Y-20768964D02*
X8709368Y-20788012D01*
X8709368Y-20788012D02*
X8718892Y-20826107D01*
X8718892Y-20826107D02*
X8718892Y-20873726D01*
X8718892Y-20873726D02*
X8709368Y-20911821D01*
X8709368Y-20911821D02*
X8699844Y-20930869D01*
X8699844Y-20930869D02*
X8690321Y-20940393D01*
X8690321Y-20940393D02*
X8671273Y-20949917D01*
X8671273Y-20949917D02*
X8652225Y-20949917D01*
X8652225Y-20949917D02*
X8633178Y-20940393D01*
X8633178Y-20940393D02*
X8623654Y-20930869D01*
X8623654Y-20930869D02*
X8614130Y-20911821D01*
X8614130Y-20911821D02*
X8604606Y-20873726D01*
X8604606Y-20873726D02*
X8604606Y-20826107D01*
X8604606Y-20826107D02*
X8614130Y-20788012D01*
X8614130Y-20788012D02*
X8623654Y-20768964D01*
X8623654Y-20768964D02*
X8633178Y-20759441D01*
X8633178Y-20759441D02*
X8652225Y-20749917D01*
X8956987Y-20949917D02*
X8956987Y-20749917D01*
X9042702Y-20949917D02*
X9042702Y-20845155D01*
X9042702Y-20845155D02*
X9033178Y-20826107D01*
X9033178Y-20826107D02*
X9014130Y-20816583D01*
X9014130Y-20816583D02*
X8985559Y-20816583D01*
X8985559Y-20816583D02*
X8966511Y-20826107D01*
X8966511Y-20826107D02*
X8956987Y-20835631D01*
X9166511Y-20949917D02*
X9147463Y-20940393D01*
X9147463Y-20940393D02*
X9137940Y-20930869D01*
X9137940Y-20930869D02*
X9128416Y-20911821D01*
X9128416Y-20911821D02*
X9128416Y-20854679D01*
X9128416Y-20854679D02*
X9137940Y-20835631D01*
X9137940Y-20835631D02*
X9147463Y-20826107D01*
X9147463Y-20826107D02*
X9166511Y-20816583D01*
X9166511Y-20816583D02*
X9195083Y-20816583D01*
X9195083Y-20816583D02*
X9214130Y-20826107D01*
X9214130Y-20826107D02*
X9223654Y-20835631D01*
X9223654Y-20835631D02*
X9233178Y-20854679D01*
X9233178Y-20854679D02*
X9233178Y-20911821D01*
X9233178Y-20911821D02*
X9223654Y-20930869D01*
X9223654Y-20930869D02*
X9214130Y-20940393D01*
X9214130Y-20940393D02*
X9195083Y-20949917D01*
X9195083Y-20949917D02*
X9166511Y-20949917D01*
X9347463Y-20949917D02*
X9328416Y-20940393D01*
X9328416Y-20940393D02*
X9318892Y-20921345D01*
X9318892Y-20921345D02*
X9318892Y-20749917D01*
X9499844Y-20940393D02*
X9480797Y-20949917D01*
X9480797Y-20949917D02*
X9442702Y-20949917D01*
X9442702Y-20949917D02*
X9423654Y-20940393D01*
X9423654Y-20940393D02*
X9414130Y-20921345D01*
X9414130Y-20921345D02*
X9414130Y-20845155D01*
X9414130Y-20845155D02*
X9423654Y-20826107D01*
X9423654Y-20826107D02*
X9442702Y-20816583D01*
X9442702Y-20816583D02*
X9480797Y-20816583D01*
X9480797Y-20816583D02*
X9499844Y-20826107D01*
X9499844Y-20826107D02*
X9509368Y-20845155D01*
X9509368Y-20845155D02*
X9509368Y-20864202D01*
X9509368Y-20864202D02*
X9414130Y-20883250D01*
X9585559Y-20940393D02*
X9604606Y-20949917D01*
X9604606Y-20949917D02*
X9642702Y-20949917D01*
X9642702Y-20949917D02*
X9661749Y-20940393D01*
X9661749Y-20940393D02*
X9671273Y-20921345D01*
X9671273Y-20921345D02*
X9671273Y-20911821D01*
X9671273Y-20911821D02*
X9661749Y-20892774D01*
X9661749Y-20892774D02*
X9642702Y-20883250D01*
X9642702Y-20883250D02*
X9614130Y-20883250D01*
X9614130Y-20883250D02*
X9595083Y-20873726D01*
X9595083Y-20873726D02*
X9585559Y-20854679D01*
X9585559Y-20854679D02*
X9585559Y-20845155D01*
X9585559Y-20845155D02*
X9595083Y-20826107D01*
X9595083Y-20826107D02*
X9614130Y-20816583D01*
X9614130Y-20816583D02*
X9642702Y-20816583D01*
X9642702Y-20816583D02*
X9661749Y-20826107D01*
X9737940Y-21026107D02*
X9747464Y-21016583D01*
X9747464Y-21016583D02*
X9766511Y-20988012D01*
X9766511Y-20988012D02*
X9776035Y-20968964D01*
X9776035Y-20968964D02*
X9785559Y-20940393D01*
X9785559Y-20940393D02*
X9795083Y-20892774D01*
X9795083Y-20892774D02*
X9795083Y-20854679D01*
X9795083Y-20854679D02*
X9785559Y-20807060D01*
X9785559Y-20807060D02*
X9776035Y-20778488D01*
X9776035Y-20778488D02*
X9766511Y-20759441D01*
X9766511Y-20759441D02*
X9747464Y-20730869D01*
X9747464Y-20730869D02*
X9737940Y-20721345D01*
M02*
