M48
; DRILL file {KiCad 8.0.3} date 2024-07-15T09:38:52-0400
; FORMAT={-:-/ absolute / inch / decimal}
; #@! TF.CreationDate,2024-07-15T09:38:52-04:00
; #@! TF.GenerationSoftware,Kicad,Pcbnew,8.0.3
; #@! TF.FileFunction,Plated,1,2,PTH
FMAT,2
INCH
; #@! TA.AperFunction,Plated,PTH,ViaDrill
T1C0.0157
; #@! TA.AperFunction,Plated,PTH,ComponentDrill
T2C0.0315
; #@! TA.AperFunction,Plated,PTH,ComponentDrill
T3C0.0320
; #@! TA.AperFunction,Plated,PTH,ComponentDrill
T4C0.0433
; #@! TA.AperFunction,Plated,PTH,ComponentDrill
T5C0.0600
%
G90
G05
T1
X2.6472Y-2.9451
X3.111Y-5.2456
X3.864Y-3.8093
X4.3568Y-5.0955
X5.0281Y-2.8752
X5.1523Y-5.8554
X6.4067Y-5.7268
X6.4483Y-5.7741
X6.4545Y-5.6121
X6.4998Y-3.3146
X6.536Y-5.6597
X7.2477Y-5.4896
X7.4528Y-4.8818
X7.4807Y-5.0067
X7.52Y-4.9537
X7.6316Y-4.2396
X7.6329Y-4.9397
X7.6673Y-3.3465
X7.7005Y-4.4094
X7.7792Y-3.3563
X7.8354Y-4.8372
X7.861Y-5.1116
X7.874Y-3.3317
X7.9564Y-4.9483
X7.9839Y-4.7887
X7.9957Y-3.3661
X8.0351Y-4.3971
X8.0646Y-3.275
X8.1139Y-5.214
X8.2812Y-5.0959
X8.2812Y-3.2849
X8.291Y-4.8498
X8.3205Y-3.8951
X8.3402Y-4.2691
X8.3599Y-3.3538
X8.4042Y-5.214
X8.4682Y-5.3321
X8.583Y-5.42
X8.6663Y-5.3254
X8.8189Y-5.2963
X8.9509Y-4.2757
X8.9566Y-4.1948
X9.4357Y-3.5106
X9.5177Y-4.9705
X9.5244Y-4.8642
X10.163Y-4.8016
X10.4401Y-4.6728
X11.3273Y-4.5463
X12.04Y-5.7048
X12.7777Y-5.1201
X13.6837Y-5.1003
X14.2727Y-5.0964
T3
X7.8415Y-3.4311
X7.842Y-3.5311
X7.842Y-3.6311
X7.842Y-3.7311
X7.842Y-3.8311
X7.842Y-3.9311
X7.842Y-4.0311
X7.842Y-4.1311
X7.842Y-4.2311
X7.842Y-4.3311
X7.842Y-4.4311
X7.842Y-4.5311
X7.842Y-4.6311
X7.9415Y-4.0711
X7.9415Y-4.6311
X8.0415Y-4.0711
X8.0415Y-4.6311
X8.1415Y-4.6311
X8.2415Y-4.6311
X8.3415Y-4.5311
X8.3415Y-4.6311
X8.4412Y-3.5311
X8.4412Y-3.6311
X8.4412Y-3.7311
X8.4412Y-3.8311
X8.4412Y-3.9311
X8.4412Y-4.0311
X8.4412Y-4.1311
X8.4412Y-4.2311
X8.4412Y-4.3311
X8.4412Y-4.4311
X8.4412Y-4.5311
X8.4412Y-4.6311
X8.4415Y-3.4311
T4
X3.1817Y-2.0803
X3.2125Y-1.9059
X3.4337Y-2.1248
X3.4645Y-1.9503
T5
X2.2383Y-5.2254
X2.2701Y-4.4695
X2.4003Y-3.7309
X2.4672Y-5.3673
X2.4989Y-4.6114
X2.5306Y-2.9923
X2.6292Y-3.8728
X2.6608Y-2.2537
X2.7594Y-3.1341
X2.8896Y-2.3955
X2.977Y-5.3557
X3.1072Y-4.6171
X3.2058Y-5.4976
X3.2374Y-3.8785
X3.336Y-4.759
X3.3677Y-3.1399
X3.4663Y-4.0204
X3.4979Y-2.4013
X3.5965Y-3.2818
X3.7267Y-2.5431
X3.7459Y-5.3136
X3.8762Y-4.575
X3.9748Y-5.4555
X4.0064Y-3.8364
X4.105Y-4.7169
X4.1367Y-3.0978
X4.2353Y-3.9783
X4.2669Y-2.3591
X4.3655Y-3.2396
X4.4957Y-2.501
X4.5019Y-5.3453
X4.6322Y-4.6067
X4.7308Y-5.4872
X4.7624Y-3.8681
X4.861Y-4.7486
X4.8926Y-3.1295
X4.9912Y-4.01
X5.0229Y-2.3909
X5.1215Y-3.2714
X5.2517Y-2.5328
X5.3534Y-4.8354
X5.4836Y-4.0968
X5.5053Y-5.7314
X5.5822Y-4.9773
X5.6139Y-3.3582
X5.6896Y-5.9276
X5.7125Y-4.2387
X5.7441Y-2.6196
X5.8427Y-3.5001
X5.9729Y-2.7615
X6.079Y-5.0395
X6.2092Y-4.3009
X6.3078Y-5.1814
X6.3394Y-3.5623
X6.3548Y-6.5655
X6.4381Y-4.4428
X6.4697Y-2.8237
X6.5683Y-3.7042
X6.5921Y-6.4383
X6.6985Y-2.9656
X6.9298Y-7.0477
X6.9926Y-3.6013
X7.0376Y-5.4389
X7.1144Y-4.6382
X7.1345Y-3.3725
X7.1648Y-5.6762
X7.1671Y-6.9205
X7.2563Y-4.4094
X7.6126Y-5.921
X7.7398Y-6.1583
X8.5163Y-6.0508
X8.7721Y-5.9667
X9.0606Y-4.6076
X9.0913Y-5.5686
X9.1157Y-4.344
X9.1595Y-6.8191
X9.1998Y-3.6692
X9.2436Y-7.0749
X9.2548Y-3.4056
X9.3471Y-5.4846
X9.6155Y-2.8597
X9.7345Y-6.3369
X9.7457Y-3.5983
X9.8186Y-6.5927
X9.876Y-4.3369
X9.8791Y-2.9147
X10.0062Y-5.0755
X10.0093Y-3.6534
X10.1395Y-4.392
X10.2698Y-5.1306
X10.3411Y-2.6556
X10.4713Y-3.3942
X10.5956Y-5.8171
X10.6016Y-4.1328
X10.6046Y-2.7107
X10.7318Y-4.8714
X10.7349Y-3.4493
X10.8644Y-5.8021
X10.8651Y-4.1879
X10.9954Y-4.9265
X11.0623Y-2.4269
X11.1926Y-3.1655
X11.3228Y-3.9041
X11.3259Y-2.4819
X11.453Y-4.6427
X11.4561Y-3.2205
X11.5833Y-5.3813
X11.5864Y-3.9591
X11.7166Y-4.6978
X11.8183Y-2.3951
X11.8468Y-5.4364
X11.9485Y-3.1337
X12.0788Y-3.8723
X12.0819Y-2.4502
X12.209Y-4.6109
X12.2121Y-3.1888
X12.3392Y-5.3495
X12.3423Y-3.9274
X12.4726Y-4.666
X12.5873Y-2.4372
X12.6028Y-5.4046
X12.7175Y-3.1758
X12.8478Y-3.9144
X12.8509Y-2.4923
X12.978Y-4.653
X12.9811Y-3.2309
X13.1082Y-5.3916
X13.1113Y-3.9695
X13.2416Y-4.7081
X13.3718Y-5.4467
X13.4244Y-2.2896
X13.5546Y-3.0282
X13.6848Y-3.7668
X13.6879Y-2.3447
X13.8151Y-4.5054
X13.8182Y-3.0833
X13.8468Y-5.2614
X13.9484Y-3.8219
X14.0787Y-4.5605
X14.1104Y-5.3165
T2
G00X2.164Y-5.3139
M15
G01X2.1795Y-5.3166
M16
G05
G00X2.1957Y-4.5579
M15
G01X2.2113Y-4.5606
M16
G05
G00X2.326Y-3.8193
M15
G01X2.3415Y-3.822
M16
G05
G00X2.4276Y-5.2588
M15
G01X2.4431Y-5.2615
M16
G05
G00X2.4562Y-3.0807
M15
G01X2.4717Y-3.0834
M16
G05
G00X2.4593Y-4.5028
M15
G01X2.4748Y-4.5056
M16
G05
G00X2.5865Y-2.3421
M15
G01X2.602Y-2.3448
M16
G05
G00X2.5895Y-3.7642
M15
G01X2.6051Y-3.767
M16
G05
G00X2.7198Y-3.0256
M15
G01X2.7353Y-3.0284
M16
G05
G00X2.85Y-2.287
M15
G01X2.8655Y-2.2897
M16
G05
G00X2.9026Y-5.4441
M15
G01X2.9181Y-5.4468
M16
G05
G00X3.0328Y-4.7055
M15
G01X3.0483Y-4.7082
M16
G05
G00X3.1631Y-3.9669
M15
G01X3.1786Y-3.9696
M16
G05
G00X3.1662Y-5.389
M15
G01X3.1817Y-5.3918
M16
G05
G00X3.2933Y-3.2283
M15
G01X3.3088Y-3.231
M16
G05
G00X3.2964Y-4.6504
M15
G01X3.3119Y-4.6532
M16
G05
G00X3.4235Y-2.4897
M15
G01X3.439Y-2.4924
M16
G05
G00X3.4266Y-3.9118
M15
G01X3.4421Y-3.9146
M16
G05
G00X3.5569Y-3.1732
M15
G01X3.5724Y-3.176
M16
G05
G00X3.6716Y-5.402
M15
G01X3.6871Y-5.4047
M16
G05
G00X3.6871Y-2.4346
M15
G01X3.7026Y-2.4373
M16
G05
G00X3.8018Y-4.6634
M15
G01X3.8173Y-4.6661
M16
G05
G00X3.9321Y-3.9248
M15
G01X3.9476Y-3.9275
M16
G05
G00X3.9352Y-5.3469
M15
G01X3.9507Y-5.3497
M16
G05
G00X4.0623Y-3.1862
M15
G01X4.0778Y-3.1889
M16
G05
G00X4.0654Y-4.6083
M15
G01X4.0809Y-4.6111
M16
G05
G00X4.1925Y-2.4476
M15
G01X4.208Y-2.4503
M16
G05
G00X4.1956Y-3.8697
M15
G01X4.2111Y-3.8725
M16
G05
G00X4.3259Y-3.1311
M15
G01X4.3414Y-3.1338
M16
G05
G00X4.4276Y-5.4338
M15
G01X4.4431Y-5.4365
M16
G05
G00X4.4561Y-2.3925
M15
G01X4.4716Y-2.3952
M16
G05
G00X4.5578Y-4.6951
M15
G01X4.5733Y-4.6979
M16
G05
G00X4.688Y-3.9565
M15
G01X4.7035Y-3.9593
M16
G05
G00X4.6911Y-5.3787
M15
G01X4.7066Y-5.3814
M16
G05
G00X4.8183Y-3.2179
M15
G01X4.8338Y-3.2207
M16
G05
G00X4.8214Y-4.6401
M15
G01X4.8369Y-4.6428
M16
G05
G00X4.9485Y-2.4793
M15
G01X4.964Y-2.4821
M16
G05
G00X4.9516Y-3.9015
M15
G01X4.9671Y-3.9042
M16
G05
G00X5.0818Y-3.1629
M15
G01X5.0973Y-3.1656
M16
G05
G00X5.2121Y-2.4243
M15
G01X5.2276Y-2.427
M16
G05
G00X5.279Y-4.9239
M15
G01X5.2945Y-4.9266
M16
G05
G00X5.4093Y-4.1853
M15
G01X5.4248Y-4.188
M16
G05
G00X5.4106Y-5.7975
M15
G01X5.4249Y-5.8042
M16
G05
G00X5.5395Y-3.4467
M15
G01X5.555Y-3.4494
M16
G05
G00X5.5426Y-4.8688
M15
G01X5.5581Y-4.8715
M16
G05
G00X5.6697Y-2.708
M15
G01X5.6853Y-2.7108
M16
G05
G00X5.6728Y-4.1302
M15
G01X5.6883Y-4.1329
M16
G05
G00X5.6794Y-5.8126
M15
G01X5.6937Y-5.8192
M16
G05
G00X5.8031Y-3.3916
M15
G01X5.8186Y-3.3943
M16
G05
G00X5.9333Y-2.653
M15
G01X5.9488Y-2.6557
M16
G05
G00X6.0046Y-5.128
M15
G01X6.0201Y-5.1307
M16
G05
G00X6.1349Y-4.3894
M15
G01X6.1504Y-4.3921
M16
G05
G00X6.2651Y-3.6508
M15
G01X6.2806Y-3.6535
M16
G05
G00X6.2682Y-5.0729
M15
G01X6.2837Y-5.0756
M16
G05
G00X6.3953Y-2.9121
M15
G01X6.4108Y-2.9149
M16
G05
G00X6.3984Y-4.3343
M15
G01X6.4139Y-4.337
M16
G05
G00X6.4686Y-6.5855
M15
G01X6.4585Y-6.5975
M16
G05
G00X6.5287Y-3.5957
M15
G01X6.5442Y-3.5984
M16
G05
G00X6.5527Y-6.3297
M15
G01X6.5426Y-6.3417
M16
G05
G00X6.6589Y-2.8571
M15
G01X6.6744Y-2.8598
M16
G05
G00X6.929Y-5.4783
M15
G01X6.941Y-5.4884
M16
G05
G00X7.026Y-3.4121
M15
G01X7.0287Y-3.3966
M16
G05
G00X7.0436Y-7.0676
M15
G01X7.0335Y-7.0797
M16
G05
G00X7.081Y-3.6757
M15
G01X7.0838Y-3.6602
M16
G05
G00X7.1277Y-6.8118
M15
G01X7.1176Y-6.8239
M16
G05
G00X7.1679Y-4.335
M15
G01X7.1651Y-4.3505
M16
G05
G00X7.1848Y-5.5624
M15
G01X7.1968Y-5.5725
M16
G05
G00X7.2229Y-4.5986
M15
G01X7.2202Y-4.6141
M16
G05
G00X7.504Y-5.9604
M15
G01X7.5161Y-5.9706
M16
G05
G00X7.7598Y-6.0445
M15
G01X7.7718Y-6.0546
M16
G05
G00X8.5363Y-6.1646
M15
G01X8.5483Y-6.1545
M16
G05
G00X8.6635Y-5.9273
M15
G01X8.6756Y-5.9172
M16
G05
G00X9.0272Y-4.4184
M15
G01X9.0245Y-4.4029
M16
G05
G00X9.1201Y-6.9277
M15
G01X9.11Y-6.9157
M16
G05
G00X9.1113Y-5.6825
M15
G01X9.1234Y-5.6723
M16
G05
G00X9.1463Y-3.366
M15
G01X9.149Y-3.3815
M16
G05
G00X9.1691Y-4.6472
M15
G01X9.1664Y-4.6317
M16
G05
G00X9.2385Y-5.4452
M15
G01X9.2506Y-5.435
M16
G05
G00X9.2882Y-3.5948
M15
G01X9.2909Y-3.6103
M16
G05
G00X9.3574Y-7.055
M15
G01X9.3473Y-7.0429
M16
G05
G00X9.5759Y-2.9682
M15
G01X9.5914Y-2.9655
M16
G05
G00X9.6951Y-6.4455
M15
G01X9.685Y-6.4335
M16
G05
G00X9.7061Y-3.7068
M15
G01X9.7216Y-3.7041
M16
G05
G00X9.8047Y-2.8263
M15
G01X9.8202Y-2.8236
M16
G05
G00X9.8363Y-4.4454
M15
G01X9.8519Y-4.4427
M16
G05
G00X9.9324Y-6.5728
M15
G01X9.9223Y-6.5607
M16
G05
G00X9.9349Y-3.5649
M15
G01X9.9505Y-3.5622
M16
G05
G00X9.9666Y-5.184
M15
G01X9.9821Y-5.1813
M16
G05
G00X10.0652Y-4.3035
M15
G01X10.0807Y-4.3008
M16
G05
G00X10.1954Y-5.0421
M15
G01X10.2109Y-5.0394
M16
G05
G00X10.3015Y-2.7641
M15
G01X10.317Y-2.7614
M16
G05
G00X10.4317Y-3.5027
M15
G01X10.4472Y-3.5
M16
G05
G00X10.5303Y-2.6222
M15
G01X10.5458Y-2.6195
M16
G05
G00X10.5619Y-4.2413
M15
G01X10.5774Y-4.2386
M16
G05
G00X10.5854Y-5.9322
M15
G01X10.5997Y-5.9256
M16
G05
G00X10.6605Y-3.3608
M15
G01X10.676Y-3.3581
M16
G05
G00X10.6922Y-4.9799
M15
G01X10.7077Y-4.9772
M16
G05
G00X10.7697Y-5.7359
M15
G01X10.784Y-5.7293
M16
G05
G00X10.7908Y-4.0994
M15
G01X10.8063Y-4.0967
M16
G05
G00X10.921Y-4.838
M15
G01X10.9365Y-4.8353
M16
G05
G00X11.0227Y-2.5354
M15
G01X11.0382Y-2.5327
M16
G05
G00X11.1529Y-3.274
M15
G01X11.1684Y-3.2713
M16
G05
G00X11.2515Y-2.3935
M15
G01X11.267Y-2.3908
M16
G05
G00X11.2832Y-4.0126
M15
G01X11.2987Y-4.0099
M16
G05
G00X11.3818Y-3.1321
M15
G01X11.3973Y-3.1294
M16
G05
G00X11.4134Y-4.7512
M15
G01X11.4289Y-4.7485
M16
G05
G00X11.512Y-3.8707
M15
G01X11.5275Y-3.868
M16
G05
G00X11.5436Y-5.4898
M15
G01X11.5591Y-5.4871
M16
G05
G00X11.6422Y-4.6093
M15
G01X11.6577Y-4.6066
M16
G05
G00X11.7725Y-5.3479
M15
G01X11.788Y-5.3452
M16
G05
G00X11.7787Y-2.5036
M15
G01X11.7942Y-2.5009
M16
G05
G00X11.9089Y-3.2422
M15
G01X11.9244Y-3.2395
M16
G05
G00X12.0075Y-2.3617
M15
G01X12.023Y-2.359
M16
G05
G00X12.0391Y-3.9809
M15
G01X12.0546Y-3.9781
M16
G05
G00X12.1377Y-3.1004
M15
G01X12.1532Y-3.0976
M16
G05
G00X12.1694Y-4.7195
M15
G01X12.1849Y-4.7167
M16
G05
G00X12.268Y-3.839
M15
G01X12.2835Y-3.8362
M16
G05
G00X12.2996Y-5.4581
M15
G01X12.3151Y-5.4553
M16
G05
G00X12.3982Y-4.5776
M15
G01X12.4137Y-4.5748
M16
G05
G00X12.5284Y-5.3162
M15
G01X12.544Y-5.3134
M16
G05
G00X12.5477Y-2.5457
M15
G01X12.5632Y-2.543
M16
G05
G00X12.6779Y-3.2844
M15
G01X12.6934Y-3.2816
M16
G05
G00X12.7765Y-2.4039
M15
G01X12.792Y-2.4011
M16
G05
G00X12.8081Y-4.023
M15
G01X12.8236Y-4.0202
M16
G05
G00X12.9067Y-3.1425
M15
G01X12.9222Y-3.1397
M16
G05
G00X12.9384Y-4.7616
M15
G01X12.9539Y-4.7588
M16
G05
G00X13.037Y-3.8811
M15
G01X13.0525Y-3.8783
M16
G05
G00X13.0686Y-5.5002
M15
G01X13.0841Y-5.4974
M16
G05
G00X13.1672Y-4.6197
M15
G01X13.1827Y-4.6169
M16
G05
G00X13.2974Y-5.3583
M15
G01X13.3129Y-5.3555
M16
G05
G00X13.3847Y-2.3981
M15
G01X13.4003Y-2.3954
M16
G05
G00X13.515Y-3.1368
M15
G01X13.5305Y-3.134
M16
G05
G00X13.6136Y-2.2563
M15
G01X13.6291Y-2.2535
M16
G05
G00X13.6452Y-3.8754
M15
G01X13.6607Y-3.8726
M16
G05
G00X13.7438Y-2.9949
M15
G01X13.7593Y-2.9921
M16
G05
G00X13.7755Y-4.614
M15
G01X13.791Y-4.6112
M16
G05
G00X13.8072Y-5.3699
M15
G01X13.8227Y-5.3672
M16
G05
G00X13.8741Y-3.7335
M15
G01X13.8896Y-3.7307
M16
G05
G00X14.0043Y-4.4721
M15
G01X14.0198Y-4.4693
M16
G05
G00X14.036Y-5.228
M15
G01X14.0516Y-5.2253
M16
G05
M30
