G04 #@! TF.GenerationSoftware,KiCad,Pcbnew,8.0.3*
G04 #@! TF.CreationDate,2024-07-15T09:39:08-04:00*
G04 #@! TF.ProjectId,reJESK,72654a45-534b-42e6-9b69-6361645f7063,1.0*
G04 #@! TF.SameCoordinates,Original*
G04 #@! TF.FileFunction,Paste,Bot*
G04 #@! TF.FilePolarity,Positive*
%FSLAX46Y46*%
G04 Gerber Fmt 4.6, Leading zero omitted, Abs format (unit mm)*
G04 Created by KiCad (PCBNEW 8.0.3) date 2024-07-15 09:39:08*
%MOMM*%
%LPD*%
G01*
G04 APERTURE LIST*
G04 Aperture macros list*
%AMRotRect*
0 Rectangle, with rotation*
0 The origin of the aperture is its center*
0 $1 length*
0 $2 width*
0 $3 Rotation angle, in degrees counterclockwise*
0 Add horizontal line*
21,1,$1,$2,0,0,$3*%
G04 Aperture macros list end*
%ADD10RotRect,2.550000X2.500000X350.000000*%
%ADD11RotRect,2.550000X2.500000X10.000000*%
%ADD12RotRect,2.550000X2.500000X335.000000*%
%ADD13RotRect,2.550000X2.500000X260.000000*%
%ADD14RotRect,2.550000X2.500000X320.000000*%
%ADD15RotRect,2.550000X2.500000X230.000000*%
%ADD16RotRect,2.550000X2.500000X280.000000*%
%ADD17RotRect,2.550000X2.500000X25.000000*%
%ADD18RotRect,2.550000X2.500000X130.000000*%
%ADD19RotRect,2.550000X2.500000X40.000000*%
%ADD20RotRect,2.550000X2.500000X100.000000*%
%ADD21RotRect,2.550000X2.500000X80.000000*%
G04 APERTURE END LIST*
D10*
X75736412Y-66422820D03*
X62564736Y-66679482D03*
X72428413Y-85183408D03*
X59256737Y-85440070D03*
X69120416Y-103943994D03*
X55948740Y-104200656D03*
X65812418Y-122704580D03*
X52640742Y-122961242D03*
D11*
X351779106Y-63994613D03*
X339489563Y-68740774D03*
X355087103Y-82755202D03*
X342797560Y-87501363D03*
X361703100Y-120276373D03*
X349413557Y-125022534D03*
X358395102Y-101515789D03*
X346105559Y-106261950D03*
D12*
X145332651Y-156553621D03*
X132543360Y-153392457D03*
D10*
X96998410Y-70171885D03*
X83826734Y-70428547D03*
X116530864Y-69102412D03*
X103359188Y-69359074D03*
X135732518Y-69908997D03*
X122560842Y-70165659D03*
X154052039Y-75718408D03*
X140880363Y-75975070D03*
X172481827Y-80902463D03*
X159310151Y-81159125D03*
X93690412Y-88932472D03*
X80518736Y-89189134D03*
X113222865Y-87863000D03*
X100051189Y-88119662D03*
X132424520Y-88669586D03*
X119252844Y-88926248D03*
X150744041Y-94478994D03*
X137572365Y-94735656D03*
X169173830Y-99663052D03*
X156002154Y-99919714D03*
D13*
X175129537Y-120150496D03*
X174872875Y-106978820D03*
D10*
X90382415Y-107693058D03*
X77210739Y-107949720D03*
X109914869Y-106623586D03*
X96743193Y-106880248D03*
X129116523Y-107430171D03*
X115944847Y-107686833D03*
X147436044Y-113239579D03*
X134264368Y-113496241D03*
X165865831Y-118423637D03*
X152694155Y-118680299D03*
D14*
X181224575Y-150173062D03*
X169689237Y-143809499D03*
D10*
X87074418Y-126453643D03*
X73902742Y-126710305D03*
X106606872Y-125384170D03*
X93435196Y-125640832D03*
X125808525Y-126190758D03*
X112636849Y-126447420D03*
X144128046Y-132000167D03*
X130956370Y-132256829D03*
X162557834Y-137184222D03*
X149386158Y-137440884D03*
D14*
X195829752Y-162420286D03*
X184294414Y-156056723D03*
D10*
X65005832Y-141906233D03*
X51834156Y-142162895D03*
X83766420Y-145214231D03*
X70594744Y-145470893D03*
X103298874Y-144144757D03*
X90127198Y-144401419D03*
X122500527Y-144951343D03*
X109328851Y-145208005D03*
D15*
X155412906Y-166001963D03*
X161776469Y-154466625D03*
X170018084Y-178249188D03*
X176381647Y-166713850D03*
D11*
X283387472Y-129571962D03*
X271097929Y-134318123D03*
X314292651Y-85434793D03*
X302003108Y-90180954D03*
X340441100Y-124025438D03*
X328151557Y-128771599D03*
X273463478Y-73290200D03*
X261173935Y-78036361D03*
X310984652Y-66674207D03*
X298695109Y-71420368D03*
D16*
X229234035Y-97302361D03*
X224487874Y-85012818D03*
D11*
X298398995Y-105001966D03*
X286109452Y-109748127D03*
D17*
X281070980Y-150598959D03*
X270428589Y-158364167D03*
D11*
X291782998Y-67480791D03*
X279493455Y-72226952D03*
D18*
X234443903Y-167430181D03*
X244698972Y-175700157D03*
D11*
X264957684Y-134756016D03*
X252668141Y-139502177D03*
X258341688Y-97234845D03*
X246052145Y-101981006D03*
X320908646Y-122955967D03*
X308619103Y-127702128D03*
X301706993Y-123762552D03*
X289417450Y-128508713D03*
X337133102Y-105264852D03*
X324843559Y-110011013D03*
X333825104Y-86504267D03*
X321535561Y-91250428D03*
D19*
X243192344Y-141099885D03*
X234922368Y-151354954D03*
D11*
X280079474Y-110811374D03*
X267789931Y-115557535D03*
X276771476Y-92050789D03*
X264481933Y-96796950D03*
X330517107Y-67743678D03*
X318227564Y-72489839D03*
D18*
X249049079Y-155182957D03*
X259304148Y-163452933D03*
D11*
X261649687Y-115995430D03*
X249360144Y-120741591D03*
X343749098Y-142786023D03*
X331459555Y-147532184D03*
X305014989Y-142523137D03*
X292725446Y-147269298D03*
D20*
X235977420Y-106232892D03*
X240723581Y-118522435D03*
D11*
X295090996Y-86241379D03*
X282801453Y-90987540D03*
D19*
X228587166Y-153347111D03*
X220317190Y-163602180D03*
D11*
X324216643Y-141716552D03*
X311927100Y-146462713D03*
X255033691Y-78474259D03*
X242744148Y-83220420D03*
X317600648Y-104195379D03*
X305311105Y-108941540D03*
X362509685Y-139478025D03*
X350220142Y-144224186D03*
D21*
X186792082Y-83322006D03*
X187048744Y-96493682D03*
M02*
