G04 #@! TF.GenerationSoftware,KiCad,Pcbnew,8.0.3*
G04 #@! TF.CreationDate,2024-07-15T09:39:08-04:00*
G04 #@! TF.ProjectId,reJESK,72654a45-534b-42e6-9b69-6361645f7063,1.0*
G04 #@! TF.SameCoordinates,Original*
G04 #@! TF.FileFunction,Soldermask,Top*
G04 #@! TF.FilePolarity,Negative*
%FSLAX46Y46*%
G04 Gerber Fmt 4.6, Leading zero omitted, Abs format (unit mm)*
G04 Created by KiCad (PCBNEW 8.0.3) date 2024-07-15 09:39:08*
%MOMM*%
%LPD*%
G01*
G04 APERTURE LIST*
%ADD10C,1.900000*%
%ADD11C,3.000000*%
%ADD12C,4.000000*%
%ADD13C,2.300000*%
%ADD14C,1.524000*%
%ADD15C,2.000000*%
G04 APERTURE END LIST*
D10*
X64201048Y-61804479D03*
D11*
X65816571Y-67252868D03*
D12*
X69203871Y-62686612D03*
D11*
X72511167Y-65854122D03*
D10*
X74206694Y-63568745D03*
D13*
X73397055Y-60846800D03*
X67584592Y-57242722D03*
D10*
X60893049Y-80565067D03*
D11*
X62508572Y-86013456D03*
D12*
X65895872Y-81447200D03*
D11*
X69203168Y-84614710D03*
D10*
X70898695Y-82329333D03*
D13*
X70089056Y-79607388D03*
X64276593Y-76003310D03*
D10*
X57585052Y-99325653D03*
D11*
X59200575Y-104774042D03*
D12*
X62587875Y-100207786D03*
D11*
X65895171Y-103375296D03*
D10*
X67590698Y-101089919D03*
D13*
X66781059Y-98367974D03*
X60968596Y-94763896D03*
D10*
X54277054Y-118086239D03*
D11*
X55892577Y-123534628D03*
D12*
X59279877Y-118968372D03*
D11*
X62587173Y-122135882D03*
D10*
X64282700Y-119850505D03*
D13*
X63473061Y-117128560D03*
X57660598Y-113524482D03*
D10*
X339359844Y-63600119D03*
D11*
X342741398Y-68167388D03*
D12*
X344362667Y-62717986D03*
D11*
X348553861Y-64563309D03*
D10*
X349365490Y-61835853D03*
D13*
X347673718Y-59554975D03*
X340979123Y-58156229D03*
D10*
X342667841Y-82360708D03*
D11*
X346049395Y-86927977D03*
D12*
X347670664Y-81478575D03*
D11*
X351861858Y-83323898D03*
D10*
X352673487Y-80596442D03*
D13*
X350981715Y-78315564D03*
X344287120Y-76916818D03*
D10*
X349283838Y-119881879D03*
D11*
X352665392Y-124449148D03*
D12*
X354286661Y-118999746D03*
D11*
X358477855Y-120845069D03*
D10*
X359289484Y-118117613D03*
D13*
X357597712Y-115836735D03*
X350903117Y-114437989D03*
D10*
X345975840Y-101121295D03*
D11*
X349357394Y-105688564D03*
D12*
X350978663Y-100239162D03*
D11*
X355169857Y-102084485D03*
D10*
X355981486Y-99357029D03*
D13*
X354289714Y-97076151D03*
X347595119Y-95677405D03*
D10*
X135385659Y-149107074D03*
D11*
X135535989Y-154787942D03*
D12*
X139989703Y-151253975D03*
D11*
X142364494Y-155169545D03*
D10*
X144593747Y-153400876D03*
D13*
X144516186Y-150562129D03*
X139834582Y-145576481D03*
D10*
X85463046Y-65553544D03*
D11*
X87078569Y-71001933D03*
D12*
X90465869Y-66435677D03*
D11*
X93773165Y-69603187D03*
D10*
X95468692Y-67317810D03*
D13*
X94659053Y-64595865D03*
X88846590Y-60991787D03*
D10*
X104995500Y-64484071D03*
D11*
X106611023Y-69932460D03*
D12*
X109998323Y-65366204D03*
D11*
X113305619Y-68533714D03*
D10*
X115001146Y-66248337D03*
D13*
X114191507Y-63526392D03*
X108379044Y-59922314D03*
D10*
X124197154Y-65290656D03*
D11*
X125812677Y-70739045D03*
D12*
X129199977Y-66172789D03*
D11*
X132507273Y-69340299D03*
D10*
X134202800Y-67054922D03*
D13*
X133393161Y-64332977D03*
X127580698Y-60728899D03*
D10*
X142516675Y-71100067D03*
D11*
X144132198Y-76548456D03*
D12*
X147519498Y-71982200D03*
D11*
X150826794Y-75149710D03*
D10*
X152522321Y-72864333D03*
D13*
X151712682Y-70142388D03*
X145900219Y-66538310D03*
D10*
X160946463Y-76284122D03*
D11*
X162561986Y-81732511D03*
D12*
X165949286Y-77166255D03*
D11*
X169256582Y-80333765D03*
D10*
X170952109Y-78048388D03*
D13*
X170142470Y-75326443D03*
X164330007Y-71722365D03*
D10*
X82155048Y-84314131D03*
D11*
X83770571Y-89762520D03*
D12*
X87157871Y-85196264D03*
D11*
X90465167Y-88363774D03*
D10*
X92160694Y-86078397D03*
D13*
X91351055Y-83356452D03*
X85538592Y-79752374D03*
D10*
X101687501Y-83244659D03*
D11*
X103303024Y-88693048D03*
D12*
X106690324Y-84126792D03*
D11*
X109997620Y-87294302D03*
D10*
X111693147Y-85008925D03*
D13*
X110883508Y-82286980D03*
X105071045Y-78682902D03*
D10*
X120889156Y-84051245D03*
D11*
X122504679Y-89499634D03*
D12*
X125891979Y-84933378D03*
D11*
X129199275Y-88100888D03*
D10*
X130894802Y-85815511D03*
D13*
X130085163Y-83093566D03*
X124272700Y-79489488D03*
D10*
X139208677Y-89860653D03*
D11*
X140824200Y-95309042D03*
D12*
X144211500Y-90742786D03*
D11*
X147518796Y-93910296D03*
D10*
X149214323Y-91624919D03*
D13*
X148404684Y-88902974D03*
X142592221Y-85298896D03*
D10*
X157638466Y-95044711D03*
D11*
X159253989Y-100493100D03*
D12*
X162641289Y-95926844D03*
D11*
X165948585Y-99094354D03*
D10*
X167644112Y-96808977D03*
D13*
X166834473Y-94087032D03*
X161022010Y-90482954D03*
D10*
X179747878Y-108615132D03*
D11*
X174299489Y-110230655D03*
D12*
X178865745Y-113617955D03*
D11*
X175698235Y-116925251D03*
D10*
X177983612Y-118620778D03*
D13*
X180705557Y-117811139D03*
X184309635Y-111998676D03*
D10*
X78847051Y-103074717D03*
D11*
X80462574Y-108523106D03*
D12*
X83849874Y-103956850D03*
D11*
X87157170Y-107124360D03*
D10*
X88852697Y-104838983D03*
D13*
X88043058Y-102117038D03*
X82230595Y-98512960D03*
D10*
X98379505Y-102005245D03*
D11*
X99995028Y-107453634D03*
D12*
X103382328Y-102887378D03*
D11*
X106689624Y-106054888D03*
D10*
X108385151Y-103769511D03*
D13*
X107575512Y-101047566D03*
X101763049Y-97443488D03*
D10*
X117581159Y-102811830D03*
D11*
X119196682Y-108260219D03*
D12*
X122583982Y-103693963D03*
D11*
X125891278Y-106861473D03*
D10*
X127586805Y-104576096D03*
D13*
X126777166Y-101854151D03*
X120964703Y-98250073D03*
D10*
X135900680Y-108621238D03*
D11*
X137516203Y-114069627D03*
D12*
X140903503Y-109503371D03*
D11*
X144210799Y-112670881D03*
D10*
X145906326Y-110385504D03*
D13*
X145096687Y-107663559D03*
X139284224Y-104059481D03*
D10*
X154330467Y-113805296D03*
D11*
X155945990Y-119253685D03*
D12*
X159333290Y-114687429D03*
D11*
X162640586Y-117854939D03*
D10*
X164336113Y-115569562D03*
D13*
X163526474Y-112847617D03*
X157714011Y-109243539D03*
D10*
X173543826Y-140405779D03*
D11*
X172218716Y-145931984D03*
D12*
X177435332Y-143671140D03*
D11*
X178715780Y-148067932D03*
D10*
X181326838Y-146936501D03*
D13*
X181986642Y-144174408D03*
X178754940Y-138146954D03*
D10*
X75539054Y-121835302D03*
D11*
X77154577Y-127283691D03*
D12*
X80541877Y-122717435D03*
D11*
X83849173Y-125884945D03*
D10*
X85544700Y-123599568D03*
D13*
X84735061Y-120877623D03*
X78922598Y-117273545D03*
D10*
X95071508Y-120765829D03*
D11*
X96687031Y-126214218D03*
D12*
X100074331Y-121647962D03*
D11*
X103381627Y-124815472D03*
D10*
X105077154Y-122530095D03*
D13*
X104267515Y-119808150D03*
X98455052Y-116204072D03*
D10*
X114273161Y-121572417D03*
D11*
X115888684Y-127020806D03*
D12*
X119275984Y-122454550D03*
D11*
X122583280Y-125622060D03*
D10*
X124278807Y-123336683D03*
D13*
X123469168Y-120614738D03*
X117656705Y-117010660D03*
D10*
X132592682Y-127381826D03*
D11*
X134208205Y-132830215D03*
D12*
X137595505Y-128263959D03*
D11*
X140902801Y-131431469D03*
D10*
X142598328Y-129146092D03*
D13*
X141788689Y-126424147D03*
X135976226Y-122820069D03*
D10*
X151022470Y-132565881D03*
D11*
X152637993Y-138014270D03*
D12*
X156025293Y-133448014D03*
D11*
X159332589Y-136615524D03*
D10*
X161028116Y-134330147D03*
D13*
X160218477Y-131608202D03*
X154406014Y-128004124D03*
D10*
X188149003Y-152653003D03*
D11*
X186823893Y-158179208D03*
D12*
X192040509Y-155918364D03*
D11*
X193320957Y-160315156D03*
D10*
X195932015Y-159183725D03*
D13*
X196591819Y-156421632D03*
X193360117Y-150394178D03*
D10*
X53470468Y-137287892D03*
D11*
X55085991Y-142736281D03*
D12*
X58473291Y-138170025D03*
D11*
X61780587Y-141337535D03*
D10*
X63476114Y-139052158D03*
D13*
X62666475Y-136330213D03*
X56854012Y-132726135D03*
D10*
X72231056Y-140595890D03*
D11*
X73846579Y-146044279D03*
D12*
X77233879Y-141478023D03*
D11*
X80541175Y-144645533D03*
D10*
X82236702Y-142360156D03*
D13*
X81427063Y-139638211D03*
X75614600Y-136034133D03*
D10*
X91763510Y-139526416D03*
D11*
X93379033Y-144974805D03*
D12*
X96766333Y-140408549D03*
D11*
X100073629Y-143576059D03*
D10*
X101769156Y-141290682D03*
D13*
X100959517Y-138568737D03*
X95147054Y-134964659D03*
D10*
X110965163Y-140333002D03*
D11*
X112580686Y-145781391D03*
D12*
X115967986Y-141215135D03*
D11*
X119275282Y-144382645D03*
D10*
X120970809Y-142097268D03*
D13*
X120161170Y-139375323D03*
X114348707Y-135771245D03*
D10*
X165180189Y-158321214D03*
D11*
X159653984Y-156996104D03*
D12*
X161914828Y-162212720D03*
D11*
X157518036Y-163493168D03*
D10*
X158649467Y-166104226D03*
D13*
X161411560Y-166764030D03*
X167439014Y-163532328D03*
D10*
X179785367Y-170568439D03*
D11*
X174259162Y-169243329D03*
D12*
X176520006Y-174459945D03*
D11*
X172123214Y-175740393D03*
D10*
X173254645Y-178351451D03*
D13*
X176016738Y-179011255D03*
X182044192Y-175779553D03*
D10*
X270968210Y-129177468D03*
D11*
X274349764Y-133744737D03*
D12*
X275971033Y-128295335D03*
D11*
X280162227Y-130140658D03*
D10*
X280973856Y-127413202D03*
D13*
X279282084Y-125132324D03*
X272587489Y-123733578D03*
D10*
X301873389Y-85040299D03*
D11*
X305254943Y-89607568D03*
D12*
X306876212Y-84158166D03*
D11*
X311067406Y-86003489D03*
D10*
X311879035Y-83276033D03*
D13*
X310187263Y-80995155D03*
X303492668Y-79596409D03*
D10*
X328021838Y-123630944D03*
D11*
X331403392Y-128198213D03*
D12*
X333024661Y-122748811D03*
D11*
X337215855Y-124594134D03*
D10*
X338027484Y-121866678D03*
D13*
X336335712Y-119585800D03*
X329641117Y-118187054D03*
D10*
X261044216Y-72895706D03*
D11*
X264425770Y-77462975D03*
D12*
X266047039Y-72013573D03*
D11*
X270238233Y-73858896D03*
D10*
X271049862Y-71131440D03*
D13*
X269358090Y-68850562D03*
X262663495Y-67451816D03*
D10*
X298565390Y-66279713D03*
D11*
X301946944Y-70846982D03*
D12*
X303568213Y-65397580D03*
D11*
X307759407Y-67242903D03*
D10*
X308571036Y-64515447D03*
D13*
X306879264Y-62234569D03*
X300184669Y-60835823D03*
D10*
X229628529Y-84883099D03*
D11*
X225061260Y-88264653D03*
D12*
X230510662Y-89885922D03*
D11*
X228665339Y-94077116D03*
D10*
X231392795Y-94888745D03*
D13*
X233673673Y-93196973D03*
X235072419Y-86502378D03*
D10*
X285979733Y-104607472D03*
D11*
X289361287Y-109174741D03*
D12*
X290982556Y-103725339D03*
D11*
X295173750Y-105570662D03*
D10*
X295985379Y-102843206D03*
D13*
X294293607Y-100562328D03*
X287599012Y-99163582D03*
D10*
X268972790Y-153432249D03*
D11*
X273421217Y-156968681D03*
D12*
X273576834Y-151285348D03*
D11*
X278102821Y-151983033D03*
D10*
X278180878Y-149138447D03*
D13*
X275956416Y-147373151D03*
X269127911Y-147754755D03*
D10*
X279363736Y-67086297D03*
D11*
X282745290Y-71653566D03*
D12*
X284366559Y-66204164D03*
D11*
X288557753Y-68049487D03*
D10*
X289369382Y-65322031D03*
D13*
X287677610Y-63041153D03*
X280983015Y-61642407D03*
D10*
X240311893Y-178382825D03*
D11*
X242576487Y-173170678D03*
D12*
X237046532Y-174491319D03*
D11*
X236549032Y-169938977D03*
D10*
X233781171Y-170599813D03*
D13*
X232651758Y-173205370D03*
X234787707Y-179702433D03*
D10*
X252538422Y-134361522D03*
D11*
X255919976Y-138928791D03*
D12*
X257541245Y-133479389D03*
D11*
X261732439Y-135324712D03*
D10*
X262544068Y-132597256D03*
D13*
X260852296Y-130316378D03*
X254157701Y-128917632D03*
D10*
X245922426Y-96840351D03*
D11*
X249303980Y-101407620D03*
D12*
X250925249Y-95958218D03*
D11*
X255116443Y-97803541D03*
D10*
X255928072Y-95076085D03*
D13*
X254236300Y-92795207D03*
X247541705Y-91396461D03*
D10*
X308489384Y-122561473D03*
D11*
X311870938Y-127128742D03*
D12*
X313492207Y-121679340D03*
D11*
X317683401Y-123524663D03*
D10*
X318495030Y-120797207D03*
D13*
X316803258Y-118516329D03*
X310108663Y-117117583D03*
D10*
X289287731Y-123368058D03*
D11*
X292669285Y-127935327D03*
D12*
X294290554Y-122485925D03*
D11*
X298481748Y-124331248D03*
D10*
X299293377Y-121603792D03*
D13*
X297601605Y-119322914D03*
X290907010Y-117924168D03*
D10*
X324713840Y-104870358D03*
D11*
X328095394Y-109437627D03*
D12*
X329716663Y-103988225D03*
D11*
X333907857Y-105833548D03*
D10*
X334719486Y-103106092D03*
D13*
X333027714Y-100825214D03*
X326333119Y-99426468D03*
D10*
X321405842Y-86109773D03*
D11*
X324787396Y-90677042D03*
D12*
X326408665Y-85227640D03*
D11*
X330599859Y-87072963D03*
D10*
X331411488Y-84345507D03*
D13*
X329719716Y-82064629D03*
X323025121Y-80665883D03*
D10*
X232239700Y-146967875D03*
D11*
X237451847Y-149232469D03*
D12*
X236131206Y-143702514D03*
D11*
X240683548Y-143205014D03*
D10*
X240022712Y-140437153D03*
D13*
X237417155Y-139307740D03*
X230920092Y-141443689D03*
D10*
X267660212Y-110416880D03*
D11*
X271041766Y-114984149D03*
D12*
X272663035Y-109534747D03*
D11*
X276854229Y-111380070D03*
D10*
X277665858Y-108652614D03*
D13*
X275974086Y-106371736D03*
X269279491Y-104972990D03*
D10*
X264352214Y-91656295D03*
D11*
X267733768Y-96223564D03*
D12*
X269355037Y-90774162D03*
D11*
X273546231Y-92619485D03*
D10*
X274357860Y-89892029D03*
D13*
X272666088Y-87611151D03*
X265971493Y-86212405D03*
D10*
X318097845Y-67349184D03*
D11*
X321479399Y-71916453D03*
D12*
X323100668Y-66467051D03*
D11*
X327291862Y-68312374D03*
D10*
X328103491Y-65584918D03*
D13*
X326411719Y-63304040D03*
X319717124Y-61905294D03*
D10*
X254917069Y-166135601D03*
D11*
X257181663Y-160923454D03*
D12*
X251651708Y-162244095D03*
D11*
X251154208Y-157691753D03*
D10*
X248386347Y-158352589D03*
D13*
X247256934Y-160958146D03*
X249392883Y-167455209D03*
D10*
X249230425Y-115600936D03*
D11*
X252611979Y-120168205D03*
D12*
X254233248Y-114718803D03*
D11*
X258424442Y-116564126D03*
D10*
X259236071Y-113836670D03*
D13*
X257544299Y-111555792D03*
X250849704Y-110157046D03*
D10*
X331329836Y-142391529D03*
D11*
X334711390Y-146958798D03*
D12*
X336332659Y-141509396D03*
D11*
X340523853Y-143354719D03*
D10*
X341335482Y-140627263D03*
D13*
X339643710Y-138346385D03*
X332949115Y-136947639D03*
D10*
X292595727Y-142128643D03*
D11*
X295977281Y-146695912D03*
D12*
X297598550Y-141246510D03*
D11*
X301789744Y-143091833D03*
D10*
X302601373Y-140364377D03*
D13*
X300909601Y-138083499D03*
X294215006Y-136684753D03*
D10*
X235582926Y-118652154D03*
D11*
X240150195Y-115270600D03*
D12*
X234700793Y-113649331D03*
D11*
X236546116Y-109458137D03*
D10*
X233818660Y-108646508D03*
D13*
X231537782Y-110338280D03*
X230139036Y-117032875D03*
D10*
X282671734Y-85846885D03*
D11*
X286053288Y-90414154D03*
D12*
X287674557Y-84964752D03*
D11*
X291865751Y-86810075D03*
D10*
X292677380Y-84082619D03*
D13*
X290985608Y-81801741D03*
X284291013Y-80402995D03*
D10*
X217634522Y-159215101D03*
D11*
X222846669Y-161479695D03*
D12*
X221526028Y-155949740D03*
D11*
X226078370Y-155452240D03*
D10*
X225417534Y-152684379D03*
D13*
X222811977Y-151554966D03*
X216314914Y-153690915D03*
D10*
X311797381Y-141322058D03*
D11*
X315178935Y-145889327D03*
D12*
X316800204Y-140439925D03*
D11*
X320991398Y-142285248D03*
D10*
X321803027Y-139557792D03*
D13*
X320111255Y-137276914D03*
X313416660Y-135878168D03*
D10*
X242614429Y-78079765D03*
D11*
X245995983Y-82647034D03*
D12*
X247617252Y-77197632D03*
D11*
X251808446Y-79042955D03*
D10*
X252620075Y-76315499D03*
D13*
X250928303Y-74034621D03*
X244233708Y-72635875D03*
D10*
X305181386Y-103800885D03*
D11*
X308562940Y-108368154D03*
D12*
X310184209Y-102918752D03*
D11*
X314375403Y-104764075D03*
D10*
X315187032Y-102036619D03*
D13*
X313495260Y-99755741D03*
X306800665Y-98356995D03*
D10*
X350090423Y-139083531D03*
D11*
X353471977Y-143650800D03*
D12*
X355093246Y-138201398D03*
D11*
X359284440Y-140046721D03*
D10*
X360096069Y-137319265D03*
D13*
X358404297Y-135038387D03*
X351709702Y-133639641D03*
D14*
X214406268Y-89689260D03*
X214406268Y-92229260D03*
X214406268Y-94769260D03*
X214406268Y-97309260D03*
X214406268Y-99849260D03*
X214406268Y-102389260D03*
X214406268Y-104929260D03*
X214406268Y-107469260D03*
X214406268Y-110009260D03*
X214406268Y-112549260D03*
X214406268Y-115089260D03*
X214406268Y-117629260D03*
X199186268Y-117629260D03*
X199186268Y-115089260D03*
X199186268Y-112549260D03*
X199186268Y-110009260D03*
X199186268Y-107469260D03*
X199186268Y-104929260D03*
X199186268Y-102389260D03*
X199186268Y-99849260D03*
X199186268Y-97309260D03*
X199186268Y-94769260D03*
X199186268Y-92229260D03*
X199186268Y-89689260D03*
X211874868Y-117629260D03*
X209334868Y-117629260D03*
X206794868Y-117629260D03*
X204254868Y-117629260D03*
X201714868Y-117629260D03*
X211874868Y-115089260D03*
X201714868Y-103405260D03*
X204254868Y-103405260D03*
X214414868Y-87149260D03*
X199174868Y-87149260D03*
D10*
X182173741Y-94857370D03*
D11*
X187622130Y-93241847D03*
D12*
X183055874Y-89854547D03*
D11*
X186223384Y-86547251D03*
D10*
X183938007Y-84851724D03*
D13*
X181216062Y-85661363D03*
X177611984Y-91473826D03*
D15*
X81596355Y-48409087D03*
X87997605Y-49537800D03*
X80814938Y-52840722D03*
X87216189Y-53969435D03*
M02*
