%TF.GenerationSoftware,KiCad,Pcbnew,8.0.3*%
%TF.CreationDate,2024-07-15T09:38:54-04:00*%
%TF.ProjectId,reJESK,72654a45-534b-42e6-9b69-6361645f7063,1.0*%
%TF.SameCoordinates,Original*%
%TF.FileFunction,Drillmap*%
%TF.FilePolarity,Positive*%
%FSLAX45Y45*%
G04 Gerber Fmt 4.5, Leading zero omitted, Abs format (unit mm)*
G04 Created by KiCad (PCBNEW 8.0.3) date 2024-07-15 09:38:54*
%MOMM*%
%LPD*%
G01*
G04 APERTURE LIST*
%ADD10C,0.100000*%
%ADD11C,0.200000*%
%ADD12C,0.190000*%
%ADD13C,0.300000*%
%ADD14C,0.400000*%
G04 APERTURE END LIST*
D10*
X36625261Y-14590564D02*
X36378264Y-13189774D01*
X20192773Y-8063962D02*
X19175580Y-6611258D01*
X20192773Y-8063962D02*
X21163880Y-8067099D01*
X17466844Y-19154295D02*
X20554027Y-15468788D01*
X17454337Y-19152090D02*
X13791639Y-16081825D01*
X5910123Y-5123331D02*
X4586924Y-12627565D01*
X32873143Y-15252163D02*
X36625261Y-14590564D01*
X30627855Y-14951689D02*
X30922103Y-15157723D01*
X4731393Y-14587427D02*
X8483510Y-15249026D01*
X27565015Y-16084962D02*
X23902316Y-19155228D01*
X22181074Y-6614395D02*
X21163880Y-8067099D01*
X36769729Y-12630703D02*
X35446530Y-5126468D01*
X20802627Y-15471925D02*
X23889809Y-19157433D01*
X29627291Y-15128115D02*
X27565015Y-16084962D01*
X8483510Y-15249026D02*
X8983732Y-14898767D01*
X34800696Y-4389216D02*
X35389192Y-4801285D01*
X23889809Y-19157433D02*
X23902316Y-19155228D01*
X35446530Y-5126468D02*
X35389192Y-4801285D01*
X8983732Y-14898767D02*
X10434550Y-15154586D01*
X36378264Y-13189774D02*
X36769729Y-12630703D01*
X4978390Y-13186636D02*
X4731393Y-14587427D01*
X32372922Y-14901905D02*
X32873143Y-15252163D01*
X30627855Y-14951689D02*
X29627291Y-15128115D01*
X34800696Y-4389216D02*
X22181074Y-6614395D01*
X17454337Y-19152090D02*
X17466844Y-19154295D01*
X30922103Y-15157723D02*
X32372922Y-14901905D01*
X5967462Y-4798147D02*
X5910123Y-5123331D01*
X5967462Y-4798147D02*
X6555958Y-4386078D01*
X20802627Y-15471925D02*
X20554027Y-15468788D01*
X4586924Y-12627565D02*
X4978390Y-13186636D01*
X19175580Y-6611258D02*
X6555958Y-4386078D01*
X13791639Y-16081825D02*
X11729363Y-15124978D01*
X10434550Y-15154586D02*
X10728798Y-14948551D01*
X11729363Y-15124978D02*
X10728798Y-14948551D01*
D11*
D12*
X5252047Y-13633789D02*
X5442047Y-13823789D01*
X5442047Y-13633789D02*
X5252047Y-13823789D01*
X5332705Y-11713624D02*
X5522705Y-11903624D01*
X5522705Y-11713624D02*
X5332705Y-11903624D01*
X5663505Y-9837565D02*
X5853505Y-10027565D01*
X5853505Y-9837565D02*
X5663505Y-10027565D01*
X5994305Y-7961507D02*
X6184305Y-8151507D01*
X6184305Y-7961507D02*
X5994305Y-8151507D01*
X6252611Y-13810216D02*
X6442611Y-14000216D01*
X6442611Y-13810216D02*
X6252611Y-14000216D01*
X6325105Y-6085448D02*
X6515105Y-6275448D01*
X6515105Y-6085448D02*
X6325105Y-6275448D01*
X6333270Y-11890050D02*
X6523270Y-12080050D01*
X6523270Y-11890050D02*
X6333270Y-12080050D01*
X6664070Y-10013992D02*
X6854070Y-10203992D01*
X6854070Y-10013992D02*
X6664070Y-10203992D01*
X6994869Y-8137933D02*
X7184869Y-8327933D01*
X7184869Y-8137933D02*
X6994869Y-8327933D01*
X7128106Y-13964589D02*
X7318106Y-14154589D01*
X7318106Y-13964589D02*
X7128106Y-14154589D01*
X7325669Y-6261874D02*
X7515669Y-6451874D01*
X7515669Y-6261874D02*
X7325669Y-6451874D01*
X7458905Y-12088530D02*
X7648905Y-12278530D01*
X7648905Y-12088530D02*
X7458905Y-12278530D01*
X7789705Y-10212472D02*
X7979705Y-10402472D01*
X7979705Y-10212472D02*
X7789705Y-10402472D01*
X8120505Y-8336413D02*
X8310505Y-8526413D01*
X8310505Y-8336413D02*
X8120505Y-8526413D01*
X8128670Y-14141016D02*
X8318670Y-14331016D01*
X8318670Y-14141016D02*
X8128670Y-14331016D01*
X8451305Y-6460354D02*
X8641305Y-6650354D01*
X8641305Y-6460354D02*
X8451305Y-6650354D01*
X8459470Y-12264957D02*
X8649470Y-12454957D01*
X8649470Y-12264957D02*
X8459470Y-12454957D01*
X8790270Y-10388898D02*
X8980270Y-10578898D01*
X8980270Y-10388898D02*
X8790270Y-10578898D01*
X9081351Y-13857642D02*
X9271351Y-14047642D01*
X9271351Y-13857642D02*
X9081351Y-14047642D01*
X9121069Y-8512840D02*
X9311069Y-8702840D01*
X9311069Y-8512840D02*
X9121069Y-8702840D01*
X9412151Y-11981583D02*
X9602151Y-12171583D01*
X9602151Y-11981583D02*
X9412151Y-12171583D01*
X9451869Y-6636781D02*
X9641869Y-6826781D01*
X9641869Y-6636781D02*
X9451869Y-6826781D01*
X9742951Y-10105525D02*
X9932951Y-10295525D01*
X9932951Y-10105525D02*
X9742951Y-10295525D01*
X10073750Y-8229466D02*
X10263750Y-8419466D01*
X10263750Y-8229466D02*
X10073750Y-8419466D01*
X10081916Y-14034068D02*
X10271916Y-14224068D01*
X10271916Y-14034068D02*
X10081916Y-14224068D01*
X10404550Y-6353407D02*
X10594550Y-6543407D01*
X10594550Y-6353407D02*
X10404550Y-6543407D01*
X10412715Y-12158009D02*
X10602715Y-12348009D01*
X10602715Y-12158009D02*
X10412715Y-12348009D01*
X10743515Y-10281951D02*
X10933515Y-10471951D01*
X10933515Y-10281951D02*
X10743515Y-10471951D01*
X11001516Y-13938300D02*
X11191516Y-14128300D01*
X11191516Y-13938300D02*
X11001516Y-14128300D01*
X11074315Y-8405893D02*
X11264315Y-8595893D01*
X11264315Y-8405893D02*
X11074315Y-8595893D01*
X11332316Y-12062242D02*
X11522316Y-12252242D01*
X11522316Y-12062242D02*
X11332316Y-12252242D01*
X11405115Y-6529834D02*
X11595115Y-6719834D01*
X11595115Y-6529834D02*
X11405115Y-6719834D01*
X11663116Y-10186183D02*
X11853116Y-10376183D01*
X11853116Y-10186183D02*
X11663116Y-10376183D01*
X11993916Y-8310124D02*
X12183916Y-8500125D01*
X12183916Y-8310124D02*
X11993916Y-8500125D01*
X12002081Y-14114727D02*
X12192081Y-14304727D01*
X12192081Y-14114727D02*
X12002081Y-14304727D01*
X12324715Y-6434066D02*
X12514715Y-6624066D01*
X12514715Y-6434066D02*
X12324715Y-6624066D01*
X12332881Y-12238668D02*
X12522881Y-12428668D01*
X12522881Y-12238668D02*
X12332881Y-12428668D01*
X12663680Y-10362610D02*
X12853680Y-10552610D01*
X12853680Y-10362610D02*
X12663680Y-10552610D01*
X12994480Y-8486551D02*
X13184480Y-8676551D01*
X13184480Y-8486551D02*
X12994480Y-8676551D01*
X13164268Y-12643183D02*
X13354268Y-12833183D01*
X13354268Y-12643183D02*
X13164268Y-12833183D01*
X13325280Y-6610492D02*
X13515280Y-6800492D01*
X13515280Y-6610492D02*
X13325280Y-6800492D01*
X13443566Y-14815707D02*
X13633566Y-15005707D01*
X13633566Y-14815707D02*
X13443566Y-15005707D01*
X13495068Y-10767124D02*
X13685068Y-10957124D01*
X13685068Y-10767124D02*
X13495068Y-10957124D01*
X13825868Y-8891065D02*
X14015868Y-9081065D01*
X14015868Y-8891065D02*
X13825868Y-9081065D01*
X14156667Y-7015007D02*
X14346667Y-7205007D01*
X14346667Y-7015007D02*
X14156667Y-7205007D01*
X14164833Y-12819609D02*
X14354833Y-13009609D01*
X14354833Y-12819609D02*
X14164833Y-13009609D01*
X14364375Y-15245088D02*
X14554375Y-15435088D01*
X14554375Y-15245088D02*
X14364375Y-15435088D01*
X14495633Y-10943550D02*
X14685633Y-11133550D01*
X14685633Y-10943550D02*
X14495633Y-11133550D01*
X14826432Y-9067492D02*
X15016432Y-9257492D01*
X15016432Y-9067492D02*
X14826432Y-9257492D01*
X15007247Y-13161588D02*
X15197247Y-13351588D01*
X15197247Y-13161588D02*
X15007247Y-13351588D01*
X15157232Y-7191433D02*
X15347232Y-7381433D01*
X15347232Y-7191433D02*
X15157232Y-7381433D01*
X15338047Y-11285530D02*
X15528047Y-11475530D01*
X15528047Y-11285530D02*
X15338047Y-11475530D01*
X15668847Y-9409471D02*
X15858847Y-9599471D01*
X15858847Y-9409471D02*
X15668847Y-9599471D01*
X15769947Y-16515423D02*
X15959947Y-16705423D01*
X15959947Y-16515423D02*
X15769947Y-16705423D01*
X15999646Y-7533412D02*
X16189646Y-7723412D01*
X16189646Y-7533412D02*
X15999646Y-7723412D01*
X16007812Y-13338015D02*
X16197812Y-13528015D01*
X16197812Y-13338015D02*
X16007812Y-13528015D01*
X16338611Y-11461956D02*
X16528611Y-11651956D01*
X16528611Y-11461956D02*
X16338611Y-11651956D01*
X16423019Y-15737121D02*
X16613019Y-15927121D01*
X16613019Y-15737121D02*
X16423019Y-15927121D01*
X16669411Y-9585898D02*
X16859411Y-9775898D01*
X16859411Y-9585898D02*
X16669411Y-9775898D01*
X17000211Y-7709839D02*
X17190211Y-7899839D01*
X17190211Y-7709839D02*
X17000211Y-7899839D01*
X17230465Y-17740145D02*
X17420465Y-17930145D01*
X17420465Y-17740145D02*
X17230465Y-17930145D01*
X17259383Y-13945578D02*
X17449383Y-14135578D01*
X17449383Y-13945578D02*
X17259383Y-14135578D01*
X17703361Y-11767078D02*
X17893361Y-11957078D01*
X17893361Y-11767078D02*
X17703361Y-11957078D01*
X17879788Y-10766513D02*
X18069788Y-10956513D01*
X18069788Y-10766513D02*
X17879788Y-10956513D01*
X17883537Y-16961844D02*
X18073537Y-17151844D01*
X18073537Y-16961844D02*
X17883537Y-17151844D01*
X18037684Y-14598650D02*
X18227684Y-14788650D01*
X18227684Y-14598650D02*
X18037684Y-14788650D01*
X18122374Y-9390737D02*
X18312374Y-9580737D01*
X18312374Y-9390737D02*
X18122374Y-9580737D01*
X18298801Y-8390172D02*
X18488801Y-8580172D01*
X18488801Y-8390172D02*
X18298801Y-8580172D01*
X18719900Y-15170300D02*
X18909900Y-15360300D01*
X18909900Y-15170300D02*
X18719900Y-15360300D01*
X19498202Y-15823372D02*
X19688202Y-16013372D01*
X19688202Y-15823372D02*
X19498202Y-16013372D01*
X21668452Y-15826510D02*
X21858452Y-16016510D01*
X21858452Y-15826510D02*
X21668452Y-16016510D01*
X22446753Y-15173438D02*
X22636753Y-15363438D01*
X22636753Y-15173438D02*
X22446753Y-15363438D01*
X22867853Y-8393310D02*
X23057853Y-8583310D01*
X23057853Y-8393310D02*
X22867853Y-8583310D01*
X23044279Y-9393875D02*
X23234279Y-9583875D01*
X23234279Y-9393875D02*
X23044279Y-9583875D01*
X23128970Y-14601787D02*
X23318970Y-14791787D01*
X23318970Y-14601787D02*
X23128970Y-14791787D01*
X23283117Y-16964981D02*
X23473117Y-17154981D01*
X23473117Y-16964981D02*
X23283117Y-17154981D01*
X23286866Y-10769651D02*
X23476866Y-10959651D01*
X23476866Y-10769651D02*
X23286866Y-10959651D01*
X23463293Y-11770215D02*
X23653293Y-11960215D01*
X23653293Y-11770215D02*
X23463293Y-11960215D01*
X23907271Y-13948715D02*
X24097271Y-14138715D01*
X24097271Y-13948715D02*
X23907271Y-14138715D01*
X23936189Y-17743283D02*
X24126189Y-17933283D01*
X24126189Y-17743283D02*
X23936189Y-17933283D01*
X24166443Y-7712976D02*
X24356443Y-7902976D01*
X24356443Y-7712976D02*
X24166443Y-7902976D01*
X24497243Y-9589035D02*
X24687243Y-9779035D01*
X24687243Y-9589035D02*
X24497243Y-9779035D01*
X24743635Y-15740259D02*
X24933635Y-15930259D01*
X24933635Y-15740259D02*
X24743635Y-15930259D01*
X24828042Y-11465094D02*
X25018042Y-11655094D01*
X25018042Y-11465094D02*
X24828042Y-11655094D01*
X25158842Y-13341152D02*
X25348842Y-13531152D01*
X25348842Y-13341152D02*
X25158842Y-13531152D01*
X25167007Y-7536550D02*
X25357007Y-7726550D01*
X25357007Y-7536550D02*
X25167007Y-7726550D01*
X25396707Y-16518560D02*
X25586707Y-16708560D01*
X25586707Y-16518560D02*
X25396707Y-16708560D01*
X25497807Y-9412609D02*
X25687807Y-9602609D01*
X25687807Y-9412609D02*
X25497807Y-9602609D01*
X25828607Y-11288667D02*
X26018607Y-11478667D01*
X26018607Y-11288667D02*
X25828607Y-11478667D01*
X26009422Y-7194571D02*
X26199422Y-7384571D01*
X26199422Y-7194571D02*
X26009422Y-7384571D01*
X26159407Y-13164726D02*
X26349407Y-13354726D01*
X26349407Y-13164726D02*
X26159407Y-13354726D01*
X26340221Y-9070630D02*
X26530221Y-9260630D01*
X26530221Y-9070630D02*
X26340221Y-9260630D01*
X26671021Y-10946688D02*
X26861021Y-11136688D01*
X26861021Y-10946688D02*
X26671021Y-11136688D01*
X26802279Y-15248225D02*
X26992279Y-15438225D01*
X26992279Y-15248225D02*
X26802279Y-15438225D01*
X27001821Y-12822747D02*
X27191821Y-13012747D01*
X27191821Y-12822747D02*
X27001821Y-13012747D01*
X27009986Y-7018144D02*
X27199986Y-7208144D01*
X27199986Y-7018144D02*
X27009986Y-7208144D01*
X27340786Y-8894203D02*
X27530786Y-9084203D01*
X27530786Y-8894203D02*
X27340786Y-9084203D01*
X27671586Y-10770261D02*
X27861586Y-10960261D01*
X27861586Y-10770261D02*
X27671586Y-10960261D01*
X27723088Y-14818845D02*
X27913088Y-15008845D01*
X27913088Y-14818845D02*
X27723088Y-15008845D01*
X27841374Y-6613630D02*
X28031374Y-6803630D01*
X28031374Y-6613630D02*
X27841374Y-6803630D01*
X28002386Y-12646320D02*
X28192386Y-12836320D01*
X28192386Y-12646320D02*
X28002386Y-12836320D01*
X28172173Y-8489689D02*
X28362173Y-8679689D01*
X28362173Y-8489689D02*
X28172173Y-8679689D01*
X28502973Y-10365747D02*
X28692973Y-10555747D01*
X28692973Y-10365747D02*
X28502973Y-10555747D01*
X28833773Y-12241806D02*
X29023773Y-12431806D01*
X29023773Y-12241806D02*
X28833773Y-12431806D01*
X28841938Y-6437203D02*
X29031938Y-6627203D01*
X29031938Y-6437203D02*
X28841938Y-6627203D01*
X29164573Y-14117864D02*
X29354573Y-14307864D01*
X29354573Y-14117864D02*
X29164573Y-14307864D01*
X29172738Y-8313262D02*
X29362738Y-8503262D01*
X29362738Y-8313262D02*
X29172738Y-8503262D01*
X29503538Y-10189321D02*
X29693538Y-10379321D01*
X29693538Y-10189321D02*
X29503538Y-10379321D01*
X29761539Y-6532971D02*
X29951539Y-6722971D01*
X29951539Y-6532971D02*
X29761539Y-6722971D01*
X29834338Y-12065379D02*
X30024338Y-12255379D01*
X30024338Y-12065379D02*
X29834338Y-12255379D01*
X30092339Y-8409030D02*
X30282339Y-8599030D01*
X30282339Y-8409030D02*
X30092339Y-8599030D01*
X30165137Y-13941438D02*
X30355137Y-14131438D01*
X30355137Y-13941438D02*
X30165137Y-14131438D01*
X30423139Y-10285089D02*
X30613139Y-10475089D01*
X30613139Y-10285089D02*
X30423139Y-10475089D01*
X30753938Y-12161147D02*
X30943938Y-12351147D01*
X30943938Y-12161147D02*
X30753938Y-12351147D01*
X30762104Y-6356545D02*
X30952104Y-6546545D01*
X30952104Y-6356545D02*
X30762104Y-6546545D01*
X31084738Y-14037206D02*
X31274738Y-14227206D01*
X31274738Y-14037206D02*
X31084738Y-14227206D01*
X31092903Y-8232603D02*
X31282903Y-8422603D01*
X31282903Y-8232603D02*
X31092903Y-8422603D01*
X31423703Y-10108662D02*
X31613703Y-10298662D01*
X31613703Y-10108662D02*
X31423703Y-10298662D01*
X31714784Y-6639918D02*
X31904784Y-6829918D01*
X31904784Y-6639918D02*
X31714784Y-6829918D01*
X31754503Y-11984721D02*
X31944503Y-12174721D01*
X31944503Y-11984721D02*
X31754503Y-12174721D01*
X32045584Y-8515977D02*
X32235584Y-8705977D01*
X32235584Y-8515977D02*
X32045584Y-8705977D01*
X32085303Y-13860779D02*
X32275303Y-14050779D01*
X32275303Y-13860779D02*
X32085303Y-14050779D01*
X32376384Y-10392036D02*
X32566384Y-10582036D01*
X32566384Y-10392036D02*
X32376384Y-10582036D01*
X32707184Y-12268094D02*
X32897184Y-12458094D01*
X32897184Y-12268094D02*
X32707184Y-12458094D01*
X32715349Y-6463492D02*
X32905349Y-6653492D01*
X32905349Y-6463492D02*
X32715349Y-6653492D01*
X33037984Y-14144153D02*
X33227984Y-14334153D01*
X33227984Y-14144153D02*
X33037984Y-14334153D01*
X33046149Y-8339551D02*
X33236149Y-8529551D01*
X33236149Y-8339551D02*
X33046149Y-8529551D01*
X33376949Y-10215609D02*
X33566949Y-10405609D01*
X33566949Y-10215609D02*
X33376949Y-10405609D01*
X33707748Y-12091668D02*
X33897748Y-12281668D01*
X33897748Y-12091668D02*
X33707748Y-12281668D01*
X33840984Y-6265012D02*
X34030984Y-6455012D01*
X34030984Y-6265012D02*
X33840984Y-6455012D01*
X34038548Y-13967726D02*
X34228548Y-14157726D01*
X34228548Y-13967726D02*
X34038548Y-14157726D01*
X34171784Y-8141071D02*
X34361784Y-8331071D01*
X34361784Y-8141071D02*
X34171784Y-8331071D01*
X34502584Y-10017130D02*
X34692584Y-10207130D01*
X34692584Y-10017130D02*
X34502584Y-10207130D01*
X34833384Y-11893188D02*
X35023384Y-12083188D01*
X35023384Y-11893188D02*
X34833384Y-12083188D01*
X34841549Y-6088585D02*
X35031549Y-6278585D01*
X35031549Y-6088585D02*
X34841549Y-6278585D01*
X34914042Y-13813353D02*
X35104042Y-14003353D01*
X35104042Y-13813353D02*
X34914042Y-14003353D01*
X35172349Y-7964644D02*
X35362349Y-8154644D01*
X35362349Y-7964644D02*
X35172349Y-8154644D01*
X35503149Y-9840703D02*
X35693149Y-10030703D01*
X35693149Y-9840703D02*
X35503149Y-10030703D01*
X35833948Y-11716761D02*
X36023948Y-11906761D01*
X36023948Y-11716761D02*
X35833948Y-11906761D01*
X35914607Y-13636926D02*
X36104607Y-13826926D01*
X36104607Y-13636926D02*
X35914607Y-13826926D01*
D13*
X5658599Y-14273628D02*
G75*
G02*
X5358599Y-14273628I-150000J0D01*
G01*
X5358599Y-14273628D02*
G75*
G02*
X5658599Y-14273628I150000J0D01*
G01*
X5739258Y-12353463D02*
G75*
G02*
X5439258Y-12353463I-150000J0D01*
G01*
X5439258Y-12353463D02*
G75*
G02*
X5739258Y-12353463I150000J0D01*
G01*
X6070057Y-10477404D02*
G75*
G02*
X5770057Y-10477404I-150000J0D01*
G01*
X5770057Y-10477404D02*
G75*
G02*
X6070057Y-10477404I150000J0D01*
G01*
X6328059Y-14133753D02*
G75*
G02*
X6028059Y-14133753I-150000J0D01*
G01*
X6028059Y-14133753D02*
G75*
G02*
X6328059Y-14133753I150000J0D01*
G01*
X6400857Y-8601346D02*
G75*
G02*
X6100857Y-8601346I-150000J0D01*
G01*
X6100857Y-8601346D02*
G75*
G02*
X6400857Y-8601346I150000J0D01*
G01*
X6408717Y-12213588D02*
G75*
G02*
X6108717Y-12213588I-150000J0D01*
G01*
X6108717Y-12213588D02*
G75*
G02*
X6408717Y-12213588I150000J0D01*
G01*
X6731657Y-6725287D02*
G75*
G02*
X6431657Y-6725287I-150000J0D01*
G01*
X6431657Y-6725287D02*
G75*
G02*
X6731657Y-6725287I150000J0D01*
G01*
X6739517Y-10337530D02*
G75*
G02*
X6439517Y-10337530I-150000J0D01*
G01*
X6439517Y-10337530D02*
G75*
G02*
X6739517Y-10337530I150000J0D01*
G01*
X7070317Y-8461471D02*
G75*
G02*
X6770317Y-8461471I-150000J0D01*
G01*
X6770317Y-8461471D02*
G75*
G02*
X7070317Y-8461471I150000J0D01*
G01*
X7401117Y-6585412D02*
G75*
G02*
X7101117Y-6585412I-150000J0D01*
G01*
X7101117Y-6585412D02*
G75*
G02*
X7401117Y-6585412I150000J0D01*
G01*
X7534658Y-14604428D02*
G75*
G02*
X7234658Y-14604428I-150000J0D01*
G01*
X7234658Y-14604428D02*
G75*
G02*
X7534658Y-14604428I150000J0D01*
G01*
X7865458Y-12728369D02*
G75*
G02*
X7565458Y-12728369I-150000J0D01*
G01*
X7565458Y-12728369D02*
G75*
G02*
X7865458Y-12728369I150000J0D01*
G01*
X8196257Y-10852311D02*
G75*
G02*
X7896257Y-10852311I-150000J0D01*
G01*
X7896257Y-10852311D02*
G75*
G02*
X8196257Y-10852311I150000J0D01*
G01*
X8204117Y-14464553D02*
G75*
G02*
X7904117Y-14464553I-150000J0D01*
G01*
X7904117Y-14464553D02*
G75*
G02*
X8204117Y-14464553I150000J0D01*
G01*
X8527057Y-8976252D02*
G75*
G02*
X8227057Y-8976252I-150000J0D01*
G01*
X8227057Y-8976252D02*
G75*
G02*
X8527057Y-8976252I150000J0D01*
G01*
X8534917Y-12588494D02*
G75*
G02*
X8234917Y-12588494I-150000J0D01*
G01*
X8234917Y-12588494D02*
G75*
G02*
X8534917Y-12588494I150000J0D01*
G01*
X8857857Y-7100193D02*
G75*
G02*
X8557857Y-7100193I-150000J0D01*
G01*
X8557857Y-7100193D02*
G75*
G02*
X8857857Y-7100193I150000J0D01*
G01*
X8865717Y-10712436D02*
G75*
G02*
X8565717Y-10712436I-150000J0D01*
G01*
X8565717Y-10712436D02*
G75*
G02*
X8865717Y-10712436I150000J0D01*
G01*
X9196517Y-8836377D02*
G75*
G02*
X8896517Y-8836377I-150000J0D01*
G01*
X8896517Y-8836377D02*
G75*
G02*
X9196517Y-8836377I150000J0D01*
G01*
X9487903Y-14497480D02*
G75*
G02*
X9187903Y-14497480I-150000J0D01*
G01*
X9187903Y-14497480D02*
G75*
G02*
X9487903Y-14497480I150000J0D01*
G01*
X9527317Y-6960319D02*
G75*
G02*
X9227317Y-6960319I-150000J0D01*
G01*
X9227317Y-6960319D02*
G75*
G02*
X9527317Y-6960319I150000J0D01*
G01*
X9818703Y-12621422D02*
G75*
G02*
X9518703Y-12621422I-150000J0D01*
G01*
X9518703Y-12621422D02*
G75*
G02*
X9818703Y-12621422I150000J0D01*
G01*
X10149503Y-10745363D02*
G75*
G02*
X9849503Y-10745363I-150000J0D01*
G01*
X9849503Y-10745363D02*
G75*
G02*
X10149503Y-10745363I150000J0D01*
G01*
X10157363Y-14357606D02*
G75*
G02*
X9857363Y-14357606I-150000J0D01*
G01*
X9857363Y-14357606D02*
G75*
G02*
X10157363Y-14357606I150000J0D01*
G01*
X10480302Y-8869305D02*
G75*
G02*
X10180302Y-8869305I-150000J0D01*
G01*
X10180302Y-8869305D02*
G75*
G02*
X10480302Y-8869305I150000J0D01*
G01*
X10488163Y-12481547D02*
G75*
G02*
X10188163Y-12481547I-150000J0D01*
G01*
X10188163Y-12481547D02*
G75*
G02*
X10488163Y-12481547I150000J0D01*
G01*
X10811102Y-6993246D02*
G75*
G02*
X10511102Y-6993246I-150000J0D01*
G01*
X10511102Y-6993246D02*
G75*
G02*
X10811102Y-6993246I150000J0D01*
G01*
X10818962Y-10605489D02*
G75*
G02*
X10518962Y-10605489I-150000J0D01*
G01*
X10518962Y-10605489D02*
G75*
G02*
X10818962Y-10605489I150000J0D01*
G01*
X11149762Y-8729430D02*
G75*
G02*
X10849762Y-8729430I-150000J0D01*
G01*
X10849762Y-8729430D02*
G75*
G02*
X11149762Y-8729430I150000J0D01*
G01*
X11408069Y-14578139D02*
G75*
G02*
X11108069Y-14578139I-150000J0D01*
G01*
X11108069Y-14578139D02*
G75*
G02*
X11408069Y-14578139I150000J0D01*
G01*
X11480562Y-6853371D02*
G75*
G02*
X11180562Y-6853371I-150000J0D01*
G01*
X11180562Y-6853371D02*
G75*
G02*
X11480562Y-6853371I150000J0D01*
G01*
X11738868Y-12702081D02*
G75*
G02*
X11438868Y-12702081I-150000J0D01*
G01*
X11438868Y-12702081D02*
G75*
G02*
X11738868Y-12702081I150000J0D01*
G01*
X12069668Y-10826022D02*
G75*
G02*
X11769668Y-10826022I-150000J0D01*
G01*
X11769668Y-10826022D02*
G75*
G02*
X12069668Y-10826022I150000J0D01*
G01*
X12077528Y-14438264D02*
G75*
G02*
X11777528Y-14438264I-150000J0D01*
G01*
X11777528Y-14438264D02*
G75*
G02*
X12077528Y-14438264I150000J0D01*
G01*
X12400468Y-8949963D02*
G75*
G02*
X12100468Y-8949963I-150000J0D01*
G01*
X12100468Y-8949963D02*
G75*
G02*
X12400468Y-8949963I150000J0D01*
G01*
X12408328Y-12562206D02*
G75*
G02*
X12108328Y-12562206I-150000J0D01*
G01*
X12108328Y-12562206D02*
G75*
G02*
X12408328Y-12562206I150000J0D01*
G01*
X12731268Y-7073904D02*
G75*
G02*
X12431268Y-7073904I-150000J0D01*
G01*
X12431268Y-7073904D02*
G75*
G02*
X12731268Y-7073904I150000J0D01*
G01*
X12739128Y-10686147D02*
G75*
G02*
X12439128Y-10686147I-150000J0D01*
G01*
X12439128Y-10686147D02*
G75*
G02*
X12739128Y-10686147I150000J0D01*
G01*
X13069927Y-8810089D02*
G75*
G02*
X12769927Y-8810089I-150000J0D01*
G01*
X12769927Y-8810089D02*
G75*
G02*
X13069927Y-8810089I150000J0D01*
G01*
X13400727Y-6934030D02*
G75*
G02*
X13100727Y-6934030I-150000J0D01*
G01*
X13100727Y-6934030D02*
G75*
G02*
X13400727Y-6934030I150000J0D01*
G01*
X13570820Y-13283021D02*
G75*
G02*
X13270820Y-13283021I-150000J0D01*
G01*
X13270820Y-13283021D02*
G75*
G02*
X13570820Y-13283021I150000J0D01*
G01*
X13703599Y-15478794D02*
G75*
G02*
X13403599Y-15478794I-150000J0D01*
G01*
X13403599Y-15478794D02*
G75*
G02*
X13703599Y-15478794I150000J0D01*
G01*
X13901620Y-11406963D02*
G75*
G02*
X13601620Y-11406963I-150000J0D01*
G01*
X13601620Y-11406963D02*
G75*
G02*
X13901620Y-11406963I150000J0D01*
G01*
X14232420Y-9530904D02*
G75*
G02*
X13932420Y-9530904I-150000J0D01*
G01*
X13932420Y-9530904D02*
G75*
G02*
X14232420Y-9530904I150000J0D01*
G01*
X14240280Y-13143147D02*
G75*
G02*
X13940280Y-13143147I-150000J0D01*
G01*
X13940280Y-13143147D02*
G75*
G02*
X14240280Y-13143147I150000J0D01*
G01*
X14386449Y-15516954D02*
G75*
G02*
X14086449Y-15516954I-150000J0D01*
G01*
X14086449Y-15516954D02*
G75*
G02*
X14386449Y-15516954I150000J0D01*
G01*
X14563220Y-7654846D02*
G75*
G02*
X14263220Y-7654846I-150000J0D01*
G01*
X14263220Y-7654846D02*
G75*
G02*
X14563220Y-7654846I150000J0D01*
G01*
X14571080Y-11267088D02*
G75*
G02*
X14271080Y-11267088I-150000J0D01*
G01*
X14271080Y-11267088D02*
G75*
G02*
X14571080Y-11267088I150000J0D01*
G01*
X14901880Y-9391030D02*
G75*
G02*
X14601880Y-9391030I-150000J0D01*
G01*
X14601880Y-9391030D02*
G75*
G02*
X14901880Y-9391030I150000J0D01*
G01*
X15232679Y-7514971D02*
G75*
G02*
X14932679Y-7514971I-150000J0D01*
G01*
X14932679Y-7514971D02*
G75*
G02*
X15232679Y-7514971I150000J0D01*
G01*
X15413799Y-13801427D02*
G75*
G02*
X15113799Y-13801427I-150000J0D01*
G01*
X15113799Y-13801427D02*
G75*
G02*
X15413799Y-13801427I150000J0D01*
G01*
X15744599Y-11925368D02*
G75*
G02*
X15444599Y-11925368I-150000J0D01*
G01*
X15444599Y-11925368D02*
G75*
G02*
X15744599Y-11925368I150000J0D01*
G01*
X15901804Y-16349317D02*
G75*
G02*
X15601804Y-16349317I-150000J0D01*
G01*
X15601804Y-16349317D02*
G75*
G02*
X15901804Y-16349317I150000J0D01*
G01*
X16075399Y-10049310D02*
G75*
G02*
X15775399Y-10049310I-150000J0D01*
G01*
X15775399Y-10049310D02*
G75*
G02*
X16075399Y-10049310I150000J0D01*
G01*
X16083259Y-13661552D02*
G75*
G02*
X15783259Y-13661552I-150000J0D01*
G01*
X15783259Y-13661552D02*
G75*
G02*
X16083259Y-13661552I150000J0D01*
G01*
X16115398Y-15699610D02*
G75*
G02*
X15815398Y-15699610I-150000J0D01*
G01*
X15815398Y-15699610D02*
G75*
G02*
X16115398Y-15699610I150000J0D01*
G01*
X16406199Y-8173251D02*
G75*
G02*
X16106199Y-8173251I-150000J0D01*
G01*
X16106199Y-8173251D02*
G75*
G02*
X16406199Y-8173251I150000J0D01*
G01*
X16414059Y-11785494D02*
G75*
G02*
X16114059Y-11785494I-150000J0D01*
G01*
X16114059Y-11785494D02*
G75*
G02*
X16414059Y-11785494I150000J0D01*
G01*
X16744858Y-9909435D02*
G75*
G02*
X16444858Y-9909435I-150000J0D01*
G01*
X16444858Y-9909435D02*
G75*
G02*
X16744858Y-9909435I150000J0D01*
G01*
X17075658Y-8033376D02*
G75*
G02*
X16775658Y-8033376I-150000J0D01*
G01*
X16775658Y-8033376D02*
G75*
G02*
X17075658Y-8033376I150000J0D01*
G01*
X17362321Y-17574039D02*
G75*
G02*
X17062321Y-17574039I-150000J0D01*
G01*
X17062321Y-17574039D02*
G75*
G02*
X17362321Y-17574039I150000J0D01*
G01*
X17371872Y-14593198D02*
G75*
G02*
X17071872Y-14593198I-150000J0D01*
G01*
X17071872Y-14593198D02*
G75*
G02*
X17371872Y-14593198I150000J0D01*
G01*
X17575916Y-16924333D02*
G75*
G02*
X17275916Y-16924333I-150000J0D01*
G01*
X17275916Y-16924333D02*
G75*
G02*
X17575916Y-16924333I150000J0D01*
G01*
X17579949Y-11023066D02*
G75*
G02*
X17279949Y-11023066I-150000J0D01*
G01*
X17279949Y-11023066D02*
G75*
G02*
X17579949Y-11023066I150000J0D01*
G01*
X17719824Y-11692525D02*
G75*
G02*
X17419824Y-11692525I-150000J0D01*
G01*
X17419824Y-11692525D02*
G75*
G02*
X17719824Y-11692525I150000J0D01*
G01*
X18021578Y-14806793D02*
G75*
G02*
X17721578Y-14806793I-150000J0D01*
G01*
X17721578Y-14806793D02*
G75*
G02*
X18021578Y-14806793I150000J0D01*
G01*
X18772338Y-8654725D02*
G75*
G02*
X18472338Y-8654725I-150000J0D01*
G01*
X18472338Y-8654725D02*
G75*
G02*
X18772338Y-8654725I150000J0D01*
G01*
X18832389Y-15817921D02*
G75*
G02*
X18532389Y-15817921I-150000J0D01*
G01*
X18532389Y-15817921D02*
G75*
G02*
X18832389Y-15817921I150000J0D01*
G01*
X18912213Y-9324185D02*
G75*
G02*
X18612213Y-9324185I-150000J0D01*
G01*
X18612213Y-9324185D02*
G75*
G02*
X18912213Y-9324185I150000J0D01*
G01*
X19482096Y-16031516D02*
G75*
G02*
X19182096Y-16031516I-150000J0D01*
G01*
X19182096Y-16031516D02*
G75*
G02*
X19482096Y-16031516I150000J0D01*
G01*
X22434667Y-16147969D02*
G75*
G02*
X22134667Y-16147969I-150000J0D01*
G01*
X22134667Y-16147969D02*
G75*
G02*
X22434667Y-16147969I150000J0D01*
G01*
X22656126Y-8826465D02*
G75*
G02*
X22356126Y-8826465I-150000J0D01*
G01*
X22356126Y-8826465D02*
G75*
G02*
X22656126Y-8826465I150000J0D01*
G01*
X22757837Y-15545224D02*
G75*
G02*
X22457837Y-15545224I-150000J0D01*
G01*
X22457837Y-15545224D02*
G75*
G02*
X22757837Y-15545224I150000J0D01*
G01*
X23016534Y-9407712D02*
G75*
G02*
X22716534Y-9407712I-150000J0D01*
G01*
X22716534Y-9407712D02*
G75*
G02*
X23016534Y-9407712I150000J0D01*
G01*
X23804612Y-10945814D02*
G75*
G02*
X23504612Y-10945814I-150000J0D01*
G01*
X23504612Y-10945814D02*
G75*
G02*
X23804612Y-10945814I150000J0D01*
G01*
X23804903Y-16993898D02*
G75*
G02*
X23504903Y-16993898I-150000J0D01*
G01*
X23504903Y-16993898D02*
G75*
G02*
X23804903Y-16993898I150000J0D01*
G01*
X23895185Y-14923247D02*
G75*
G02*
X23595185Y-14923247I-150000J0D01*
G01*
X23595185Y-14923247D02*
G75*
G02*
X23895185Y-14923247I150000J0D01*
G01*
X24165019Y-11527060D02*
G75*
G02*
X23865019Y-11527060I-150000J0D01*
G01*
X23865019Y-11527060D02*
G75*
G02*
X24165019Y-11527060I150000J0D01*
G01*
X24218355Y-14320501D02*
G75*
G02*
X23918355Y-14320501I-150000J0D01*
G01*
X23918355Y-14320501D02*
G75*
G02*
X24218355Y-14320501I150000J0D01*
G01*
X24407649Y-17317068D02*
G75*
G02*
X24107649Y-17317068I-150000J0D01*
G01*
X24107649Y-17317068D02*
G75*
G02*
X24407649Y-17317068I150000J0D01*
G01*
X24749598Y-8264703D02*
G75*
G02*
X24449598Y-8264703I-150000J0D01*
G01*
X24449598Y-8264703D02*
G75*
G02*
X24749598Y-8264703I150000J0D01*
G01*
X25080398Y-10140762D02*
G75*
G02*
X24780398Y-10140762I-150000J0D01*
G01*
X24780398Y-10140762D02*
G75*
G02*
X25080398Y-10140762I150000J0D01*
G01*
X25265421Y-15769175D02*
G75*
G02*
X24965421Y-15769175I-150000J0D01*
G01*
X24965421Y-15769175D02*
G75*
G02*
X25265421Y-15769175I150000J0D01*
G01*
X25330845Y-7904295D02*
G75*
G02*
X25030845Y-7904295I-150000J0D01*
G01*
X25030845Y-7904295D02*
G75*
G02*
X25330845Y-7904295I150000J0D01*
G01*
X25411198Y-12016820D02*
G75*
G02*
X25111198Y-12016820I-150000J0D01*
G01*
X25111198Y-12016820D02*
G75*
G02*
X25411198Y-12016820I150000J0D01*
G01*
X25661644Y-9780354D02*
G75*
G02*
X25361644Y-9780354I-150000J0D01*
G01*
X25361644Y-9780354D02*
G75*
G02*
X25661644Y-9780354I150000J0D01*
G01*
X25741998Y-13892879D02*
G75*
G02*
X25441998Y-13892879I-150000J0D01*
G01*
X25441998Y-13892879D02*
G75*
G02*
X25741998Y-13892879I150000J0D01*
G01*
X25868166Y-16092345D02*
G75*
G02*
X25568166Y-16092345I-150000J0D01*
G01*
X25568166Y-16092345D02*
G75*
G02*
X25868166Y-16092345I150000J0D01*
G01*
X25992444Y-11656413D02*
G75*
G02*
X25692444Y-11656413I-150000J0D01*
G01*
X25692444Y-11656413D02*
G75*
G02*
X25992444Y-11656413I150000J0D01*
G01*
X26323244Y-13532471D02*
G75*
G02*
X26023244Y-13532471I-150000J0D01*
G01*
X26023244Y-13532471D02*
G75*
G02*
X26323244Y-13532471I150000J0D01*
G01*
X26592577Y-7746297D02*
G75*
G02*
X26292577Y-7746297I-150000J0D01*
G01*
X26292577Y-7746297D02*
G75*
G02*
X26592577Y-7746297I150000J0D01*
G01*
X26923377Y-9622356D02*
G75*
G02*
X26623377Y-9622356I-150000J0D01*
G01*
X26623377Y-9622356D02*
G75*
G02*
X26923377Y-9622356I150000J0D01*
G01*
X27173823Y-7385890D02*
G75*
G02*
X26873823Y-7385890I-150000J0D01*
G01*
X26873823Y-7385890D02*
G75*
G02*
X27173823Y-7385890I150000J0D01*
G01*
X27254177Y-11498415D02*
G75*
G02*
X26954177Y-11498415I-150000J0D01*
G01*
X26954177Y-11498415D02*
G75*
G02*
X27254177Y-11498415I150000J0D01*
G01*
X27492122Y-15696868D02*
G75*
G02*
X27192122Y-15696868I-150000J0D01*
G01*
X27192122Y-15696868D02*
G75*
G02*
X27492122Y-15696868I150000J0D01*
G01*
X27504623Y-9261949D02*
G75*
G02*
X27204623Y-9261949I-150000J0D01*
G01*
X27204623Y-9261949D02*
G75*
G02*
X27504623Y-9261949I150000J0D01*
G01*
X27584976Y-13374474D02*
G75*
G02*
X27284976Y-13374474I-150000J0D01*
G01*
X27284976Y-13374474D02*
G75*
G02*
X27584976Y-13374474I150000J0D01*
G01*
X27835423Y-11138007D02*
G75*
G02*
X27535423Y-11138007I-150000J0D01*
G01*
X27535423Y-11138007D02*
G75*
G02*
X27835423Y-11138007I150000J0D01*
G01*
X27960282Y-15198303D02*
G75*
G02*
X27660282Y-15198303I-150000J0D01*
G01*
X27660282Y-15198303D02*
G75*
G02*
X27960282Y-15198303I150000J0D01*
G01*
X28166223Y-13014066D02*
G75*
G02*
X27866223Y-13014066I-150000J0D01*
G01*
X27866223Y-13014066D02*
G75*
G02*
X28166223Y-13014066I150000J0D01*
G01*
X28424529Y-7165357D02*
G75*
G02*
X28124529Y-7165357I-150000J0D01*
G01*
X28124529Y-7165357D02*
G75*
G02*
X28424529Y-7165357I150000J0D01*
G01*
X28755329Y-9041415D02*
G75*
G02*
X28455329Y-9041415I-150000J0D01*
G01*
X28455329Y-9041415D02*
G75*
G02*
X28755329Y-9041415I150000J0D01*
G01*
X29005775Y-6804949D02*
G75*
G02*
X28705775Y-6804949I-150000J0D01*
G01*
X28705775Y-6804949D02*
G75*
G02*
X29005775Y-6804949I150000J0D01*
G01*
X29086129Y-10917474D02*
G75*
G02*
X28786129Y-10917474I-150000J0D01*
G01*
X28786129Y-10917474D02*
G75*
G02*
X29086129Y-10917474I150000J0D01*
G01*
X29336575Y-8681008D02*
G75*
G02*
X29036575Y-8681008I-150000J0D01*
G01*
X29036575Y-8681008D02*
G75*
G02*
X29336575Y-8681008I150000J0D01*
G01*
X29416928Y-12793533D02*
G75*
G02*
X29116928Y-12793533I-150000J0D01*
G01*
X29116928Y-12793533D02*
G75*
G02*
X29416928Y-12793533I150000J0D01*
G01*
X29667375Y-10557066D02*
G75*
G02*
X29367375Y-10557066I-150000J0D01*
G01*
X29367375Y-10557066D02*
G75*
G02*
X29667375Y-10557066I150000J0D01*
G01*
X29747728Y-14669591D02*
G75*
G02*
X29447728Y-14669591I-150000J0D01*
G01*
X29447728Y-14669591D02*
G75*
G02*
X29747728Y-14669591I150000J0D01*
G01*
X29998175Y-12433125D02*
G75*
G02*
X29698175Y-12433125I-150000J0D01*
G01*
X29698175Y-12433125D02*
G75*
G02*
X29998175Y-12433125I150000J0D01*
G01*
X30328974Y-14309183D02*
G75*
G02*
X30028974Y-14309183I-150000J0D01*
G01*
X30028974Y-14309183D02*
G75*
G02*
X30328974Y-14309183I150000J0D01*
G01*
X30344694Y-7084698D02*
G75*
G02*
X30044694Y-7084698I-150000J0D01*
G01*
X30044694Y-7084698D02*
G75*
G02*
X30344694Y-7084698I150000J0D01*
G01*
X30675494Y-8960757D02*
G75*
G02*
X30375494Y-8960757I-150000J0D01*
G01*
X30375494Y-8960757D02*
G75*
G02*
X30675494Y-8960757I150000J0D01*
G01*
X30925941Y-6724290D02*
G75*
G02*
X30625941Y-6724290I-150000J0D01*
G01*
X30625941Y-6724290D02*
G75*
G02*
X30925941Y-6724290I150000J0D01*
G01*
X31006294Y-10836815D02*
G75*
G02*
X30706294Y-10836815I-150000J0D01*
G01*
X30706294Y-10836815D02*
G75*
G02*
X31006294Y-10836815I150000J0D01*
G01*
X31256741Y-8600349D02*
G75*
G02*
X30956741Y-8600349I-150000J0D01*
G01*
X30956741Y-8600349D02*
G75*
G02*
X31256741Y-8600349I150000J0D01*
G01*
X31337094Y-12712874D02*
G75*
G02*
X31037094Y-12712874I-150000J0D01*
G01*
X31037094Y-12712874D02*
G75*
G02*
X31337094Y-12712874I150000J0D01*
G01*
X31587540Y-10476408D02*
G75*
G02*
X31287540Y-10476408I-150000J0D01*
G01*
X31287540Y-10476408D02*
G75*
G02*
X31587540Y-10476408I150000J0D01*
G01*
X31667893Y-14588933D02*
G75*
G02*
X31367893Y-14588933I-150000J0D01*
G01*
X31367893Y-14588933D02*
G75*
G02*
X31667893Y-14588933I150000J0D01*
G01*
X31918340Y-12352466D02*
G75*
G02*
X31618340Y-12352466I-150000J0D01*
G01*
X31618340Y-12352466D02*
G75*
G02*
X31918340Y-12352466I150000J0D01*
G01*
X32249140Y-14228525D02*
G75*
G02*
X31949140Y-14228525I-150000J0D01*
G01*
X31949140Y-14228525D02*
G75*
G02*
X32249140Y-14228525I150000J0D01*
G01*
X32297940Y-7191645D02*
G75*
G02*
X31997940Y-7191645I-150000J0D01*
G01*
X31997940Y-7191645D02*
G75*
G02*
X32297940Y-7191645I150000J0D01*
G01*
X32628740Y-9067704D02*
G75*
G02*
X32328740Y-9067704I-150000J0D01*
G01*
X32328740Y-9067704D02*
G75*
G02*
X32628740Y-9067704I150000J0D01*
G01*
X32879186Y-6831237D02*
G75*
G02*
X32579186Y-6831237I-150000J0D01*
G01*
X32579186Y-6831237D02*
G75*
G02*
X32879186Y-6831237I150000J0D01*
G01*
X32959539Y-10943763D02*
G75*
G02*
X32659539Y-10943763I-150000J0D01*
G01*
X32659539Y-10943763D02*
G75*
G02*
X32959539Y-10943763I150000J0D01*
G01*
X33209986Y-8707296D02*
G75*
G02*
X32909986Y-8707296I-150000J0D01*
G01*
X32909986Y-8707296D02*
G75*
G02*
X33209986Y-8707296I150000J0D01*
G01*
X33290339Y-12819821D02*
G75*
G02*
X32990339Y-12819821I-150000J0D01*
G01*
X32990339Y-12819821D02*
G75*
G02*
X33290339Y-12819821I150000J0D01*
G01*
X33540786Y-10583355D02*
G75*
G02*
X33240786Y-10583355I-150000J0D01*
G01*
X33240786Y-10583355D02*
G75*
G02*
X33540786Y-10583355I150000J0D01*
G01*
X33621139Y-14695880D02*
G75*
G02*
X33321139Y-14695880I-150000J0D01*
G01*
X33321139Y-14695880D02*
G75*
G02*
X33621139Y-14695880I150000J0D01*
G01*
X33871586Y-12459413D02*
G75*
G02*
X33571586Y-12459413I-150000J0D01*
G01*
X33571586Y-12459413D02*
G75*
G02*
X33871586Y-12459413I150000J0D01*
G01*
X34202385Y-14335472D02*
G75*
G02*
X33902385Y-14335472I-150000J0D01*
G01*
X33902385Y-14335472D02*
G75*
G02*
X34202385Y-14335472I150000J0D01*
G01*
X34424140Y-6816739D02*
G75*
G02*
X34124140Y-6816739I-150000J0D01*
G01*
X34124140Y-6816739D02*
G75*
G02*
X34424140Y-6816739I150000J0D01*
G01*
X34754940Y-8692798D02*
G75*
G02*
X34454940Y-8692798I-150000J0D01*
G01*
X34454940Y-8692798D02*
G75*
G02*
X34754940Y-8692798I150000J0D01*
G01*
X35005386Y-6456331D02*
G75*
G02*
X34705386Y-6456331I-150000J0D01*
G01*
X34705386Y-6456331D02*
G75*
G02*
X35005386Y-6456331I150000J0D01*
G01*
X35085739Y-10568856D02*
G75*
G02*
X34785739Y-10568856I-150000J0D01*
G01*
X34785739Y-10568856D02*
G75*
G02*
X35085739Y-10568856I150000J0D01*
G01*
X35336186Y-8332390D02*
G75*
G02*
X35036186Y-8332390I-150000J0D01*
G01*
X35036186Y-8332390D02*
G75*
G02*
X35336186Y-8332390I150000J0D01*
G01*
X35416539Y-12444915D02*
G75*
G02*
X35116539Y-12444915I-150000J0D01*
G01*
X35116539Y-12444915D02*
G75*
G02*
X35416539Y-12444915I150000J0D01*
G01*
X35497198Y-14365080D02*
G75*
G02*
X35197198Y-14365080I-150000J0D01*
G01*
X35197198Y-14365080D02*
G75*
G02*
X35497198Y-14365080I150000J0D01*
G01*
X35666986Y-10208449D02*
G75*
G02*
X35366986Y-10208449I-150000J0D01*
G01*
X35366986Y-10208449D02*
G75*
G02*
X35666986Y-10208449I150000J0D01*
G01*
X35997786Y-12084507D02*
G75*
G02*
X35697786Y-12084507I-150000J0D01*
G01*
X35697786Y-12084507D02*
G75*
G02*
X35997786Y-12084507I150000J0D01*
G01*
X36078444Y-14004672D02*
G75*
G02*
X35778444Y-14004672I-150000J0D01*
G01*
X35778444Y-14004672D02*
G75*
G02*
X36078444Y-14004672I150000J0D01*
G01*
D14*
X5847329Y-13617002D02*
X5847329Y-14017002D01*
X5647329Y-13817002D02*
X6047329Y-13817002D01*
X5927988Y-11696837D02*
X5927988Y-12096837D01*
X5727988Y-11896837D02*
X6127988Y-11896837D01*
X6258787Y-9820779D02*
X6258787Y-10220779D01*
X6058787Y-10020779D02*
X6458787Y-10020779D01*
X6589587Y-7944720D02*
X6589587Y-8344720D01*
X6389587Y-8144720D02*
X6789587Y-8144720D01*
X6920387Y-6068661D02*
X6920387Y-6468661D01*
X6720387Y-6268661D02*
X7120387Y-6268661D01*
X7723388Y-13947802D02*
X7723388Y-14347802D01*
X7523388Y-14147802D02*
X7923388Y-14147802D01*
X8054188Y-12071743D02*
X8054188Y-12471743D01*
X7854188Y-12271743D02*
X8254188Y-12271743D01*
X8384987Y-10195685D02*
X8384987Y-10595685D01*
X8184987Y-10395685D02*
X8584987Y-10395685D01*
X8715787Y-8319626D02*
X8715787Y-8719626D01*
X8515787Y-8519626D02*
X8915787Y-8519626D01*
X9046587Y-6443568D02*
X9046587Y-6843568D01*
X8846587Y-6643568D02*
X9246587Y-6643568D01*
X9676633Y-13840855D02*
X9676633Y-14240855D01*
X9476633Y-14040855D02*
X9876633Y-14040855D01*
X10007433Y-11964796D02*
X10007433Y-12364796D01*
X9807433Y-12164796D02*
X10207433Y-12164796D01*
X10338233Y-10088738D02*
X10338233Y-10488738D01*
X10138233Y-10288738D02*
X10538233Y-10288738D01*
X10669032Y-8212679D02*
X10669032Y-8612679D01*
X10469032Y-8412679D02*
X10869032Y-8412679D01*
X10999832Y-6336620D02*
X10999832Y-6736620D01*
X10799832Y-6536620D02*
X11199832Y-6536620D01*
X11596799Y-13921513D02*
X11596799Y-14321513D01*
X11396799Y-14121513D02*
X11796799Y-14121513D01*
X11927598Y-12045455D02*
X11927598Y-12445455D01*
X11727598Y-12245455D02*
X12127598Y-12245455D01*
X12258398Y-10169396D02*
X12258398Y-10569396D01*
X12058398Y-10369396D02*
X12458398Y-10369396D01*
X12589198Y-8293338D02*
X12589198Y-8693338D01*
X12389198Y-8493338D02*
X12789198Y-8493338D01*
X12919998Y-6417279D02*
X12919998Y-6817279D01*
X12719998Y-6617279D02*
X13119998Y-6617279D01*
X13759550Y-12626396D02*
X13759550Y-13026396D01*
X13559550Y-12826396D02*
X13959550Y-12826396D01*
X13998970Y-14925397D02*
X13998970Y-15325397D01*
X13798970Y-15125397D02*
X14198970Y-15125397D01*
X14090350Y-10750337D02*
X14090350Y-11150337D01*
X13890350Y-10950337D02*
X14290350Y-10950337D01*
X14421150Y-8874279D02*
X14421150Y-9274279D01*
X14221150Y-9074279D02*
X14621150Y-9074279D01*
X14751950Y-6998220D02*
X14751950Y-7398220D01*
X14551950Y-7198220D02*
X14951950Y-7198220D01*
X15602529Y-13144801D02*
X15602529Y-13544801D01*
X15402529Y-13344801D02*
X15802529Y-13344801D01*
X15933329Y-11268743D02*
X15933329Y-11668743D01*
X15733329Y-11468743D02*
X16133329Y-11468743D01*
X16191483Y-16021272D02*
X16191483Y-16421272D01*
X15991483Y-16221272D02*
X16391483Y-16221272D01*
X16264129Y-9392684D02*
X16264129Y-9792684D01*
X16064129Y-9592684D02*
X16464129Y-9592684D01*
X16594929Y-7516625D02*
X16594929Y-7916625D01*
X16394929Y-7716625D02*
X16794929Y-7716625D01*
X17652001Y-17245995D02*
X17652001Y-17645995D01*
X17452001Y-17445995D02*
X17852001Y-17445995D01*
X17743533Y-14167114D02*
X17743533Y-14567114D01*
X17543533Y-14367114D02*
X17943533Y-14367114D01*
X17886575Y-11161796D02*
X17886575Y-11561795D01*
X17686575Y-11361795D02*
X18086575Y-11361795D01*
X18305587Y-8785455D02*
X18305587Y-9185455D01*
X18105587Y-8985455D02*
X18505587Y-8985455D01*
X19204051Y-15391836D02*
X19204051Y-15791836D01*
X19004051Y-15591836D02*
X19404051Y-15591836D01*
X22152603Y-15394974D02*
X22152603Y-15794974D01*
X21952603Y-15594974D02*
X22352603Y-15594974D01*
X23051066Y-8788592D02*
X23051066Y-9188592D01*
X22851066Y-8988592D02*
X23251066Y-8988592D01*
X23470079Y-11164933D02*
X23470079Y-11564933D01*
X23270079Y-11364933D02*
X23670079Y-11364933D01*
X23613121Y-14170251D02*
X23613121Y-14570251D01*
X23413121Y-14370251D02*
X23813121Y-14370251D01*
X23704653Y-17249132D02*
X23704653Y-17649132D01*
X23504653Y-17449132D02*
X23904653Y-17449132D01*
X24761725Y-7519763D02*
X24761725Y-7919763D01*
X24561725Y-7719763D02*
X24961725Y-7719763D01*
X25092525Y-9395822D02*
X25092525Y-9795822D01*
X24892525Y-9595822D02*
X25292525Y-9595822D01*
X25165171Y-16024409D02*
X25165171Y-16424409D01*
X24965171Y-16224409D02*
X25365171Y-16224409D01*
X25423325Y-11271880D02*
X25423325Y-11671880D01*
X25223325Y-11471880D02*
X25623325Y-11471880D01*
X25754124Y-13147939D02*
X25754124Y-13547939D01*
X25554124Y-13347939D02*
X25954124Y-13347939D01*
X26604704Y-7001357D02*
X26604704Y-7401357D01*
X26404704Y-7201357D02*
X26804704Y-7201357D01*
X26935504Y-8877416D02*
X26935504Y-9277416D01*
X26735504Y-9077416D02*
X27135504Y-9077416D01*
X27266303Y-10753475D02*
X27266303Y-11153475D01*
X27066303Y-10953475D02*
X27466303Y-10953475D01*
X27357683Y-14928535D02*
X27357683Y-15328535D01*
X27157683Y-15128535D02*
X27557683Y-15128535D01*
X27597103Y-12629533D02*
X27597103Y-13029533D01*
X27397103Y-12829533D02*
X27797103Y-12829533D01*
X28436656Y-6420416D02*
X28436656Y-6820416D01*
X28236656Y-6620416D02*
X28636656Y-6620416D01*
X28767456Y-8296475D02*
X28767456Y-8696475D01*
X28567456Y-8496475D02*
X28967456Y-8496475D01*
X29098256Y-10172534D02*
X29098256Y-10572534D01*
X28898256Y-10372534D02*
X29298256Y-10372534D01*
X29429055Y-12048592D02*
X29429055Y-12448592D01*
X29229055Y-12248592D02*
X29629055Y-12248592D01*
X29759855Y-13924651D02*
X29759855Y-14324651D01*
X29559855Y-14124651D02*
X29959855Y-14124651D01*
X30356821Y-6339758D02*
X30356821Y-6739758D01*
X30156821Y-6539758D02*
X30556821Y-6539758D01*
X30687621Y-8215817D02*
X30687621Y-8615817D01*
X30487621Y-8415817D02*
X30887621Y-8415817D01*
X31018421Y-10091875D02*
X31018421Y-10491875D01*
X30818421Y-10291875D02*
X31218421Y-10291875D01*
X31349221Y-11967934D02*
X31349221Y-12367934D01*
X31149221Y-12167934D02*
X31549221Y-12167934D01*
X31680020Y-13843992D02*
X31680020Y-14243992D01*
X31480020Y-14043992D02*
X31880020Y-14043992D01*
X32310067Y-6446705D02*
X32310067Y-6846705D01*
X32110067Y-6646705D02*
X32510067Y-6646705D01*
X32640866Y-8322764D02*
X32640866Y-8722764D01*
X32440866Y-8522764D02*
X32840866Y-8522764D01*
X32971666Y-10198823D02*
X32971666Y-10598823D01*
X32771666Y-10398823D02*
X33171666Y-10398823D01*
X33302466Y-12074881D02*
X33302466Y-12474881D01*
X33102466Y-12274881D02*
X33502466Y-12274881D01*
X33633266Y-13950940D02*
X33633266Y-14350940D01*
X33433266Y-14150940D02*
X33833266Y-14150940D01*
X34436267Y-6071799D02*
X34436267Y-6471799D01*
X34236267Y-6271799D02*
X34636267Y-6271799D01*
X34767066Y-7947857D02*
X34767066Y-8347857D01*
X34567066Y-8147857D02*
X34967066Y-8147857D01*
X35097866Y-9823916D02*
X35097866Y-10223916D01*
X34897866Y-10023916D02*
X35297866Y-10023916D01*
X35428666Y-11699975D02*
X35428666Y-12099975D01*
X35228666Y-11899975D02*
X35628666Y-11899975D01*
X35509325Y-13620140D02*
X35509325Y-14020140D01*
X35309325Y-13820140D02*
X35709325Y-13820140D01*
D11*
X4842701Y-19473917D02*
X4842701Y-19273917D01*
X4842701Y-19273917D02*
X4890320Y-19273917D01*
X4890320Y-19273917D02*
X4918892Y-19283441D01*
X4918892Y-19283441D02*
X4937939Y-19302488D01*
X4937939Y-19302488D02*
X4947463Y-19321536D01*
X4947463Y-19321536D02*
X4956987Y-19359631D01*
X4956987Y-19359631D02*
X4956987Y-19388202D01*
X4956987Y-19388202D02*
X4947463Y-19426298D01*
X4947463Y-19426298D02*
X4937939Y-19445345D01*
X4937939Y-19445345D02*
X4918892Y-19464393D01*
X4918892Y-19464393D02*
X4890320Y-19473917D01*
X4890320Y-19473917D02*
X4842701Y-19473917D01*
X5042701Y-19473917D02*
X5042701Y-19340583D01*
X5042701Y-19378679D02*
X5052225Y-19359631D01*
X5052225Y-19359631D02*
X5061749Y-19350107D01*
X5061749Y-19350107D02*
X5080796Y-19340583D01*
X5080796Y-19340583D02*
X5099844Y-19340583D01*
X5166511Y-19473917D02*
X5166511Y-19340583D01*
X5166511Y-19273917D02*
X5156987Y-19283441D01*
X5156987Y-19283441D02*
X5166511Y-19292964D01*
X5166511Y-19292964D02*
X5176034Y-19283441D01*
X5176034Y-19283441D02*
X5166511Y-19273917D01*
X5166511Y-19273917D02*
X5166511Y-19292964D01*
X5290320Y-19473917D02*
X5271273Y-19464393D01*
X5271273Y-19464393D02*
X5261749Y-19445345D01*
X5261749Y-19445345D02*
X5261749Y-19273917D01*
X5395082Y-19473917D02*
X5376034Y-19464393D01*
X5376034Y-19464393D02*
X5366511Y-19445345D01*
X5366511Y-19445345D02*
X5366511Y-19273917D01*
X5623653Y-19473917D02*
X5623653Y-19273917D01*
X5623653Y-19273917D02*
X5690320Y-19416774D01*
X5690320Y-19416774D02*
X5756987Y-19273917D01*
X5756987Y-19273917D02*
X5756987Y-19473917D01*
X5937939Y-19473917D02*
X5937939Y-19369155D01*
X5937939Y-19369155D02*
X5928415Y-19350107D01*
X5928415Y-19350107D02*
X5909368Y-19340583D01*
X5909368Y-19340583D02*
X5871272Y-19340583D01*
X5871272Y-19340583D02*
X5852225Y-19350107D01*
X5937939Y-19464393D02*
X5918892Y-19473917D01*
X5918892Y-19473917D02*
X5871272Y-19473917D01*
X5871272Y-19473917D02*
X5852225Y-19464393D01*
X5852225Y-19464393D02*
X5842701Y-19445345D01*
X5842701Y-19445345D02*
X5842701Y-19426298D01*
X5842701Y-19426298D02*
X5852225Y-19407250D01*
X5852225Y-19407250D02*
X5871272Y-19397726D01*
X5871272Y-19397726D02*
X5918892Y-19397726D01*
X5918892Y-19397726D02*
X5937939Y-19388202D01*
X6033177Y-19340583D02*
X6033177Y-19540583D01*
X6033177Y-19350107D02*
X6052225Y-19340583D01*
X6052225Y-19340583D02*
X6090320Y-19340583D01*
X6090320Y-19340583D02*
X6109368Y-19350107D01*
X6109368Y-19350107D02*
X6118892Y-19359631D01*
X6118892Y-19359631D02*
X6128415Y-19378679D01*
X6128415Y-19378679D02*
X6128415Y-19435821D01*
X6128415Y-19435821D02*
X6118892Y-19454869D01*
X6118892Y-19454869D02*
X6109368Y-19464393D01*
X6109368Y-19464393D02*
X6090320Y-19473917D01*
X6090320Y-19473917D02*
X6052225Y-19473917D01*
X6052225Y-19473917D02*
X6033177Y-19464393D01*
X6214130Y-19454869D02*
X6223653Y-19464393D01*
X6223653Y-19464393D02*
X6214130Y-19473917D01*
X6214130Y-19473917D02*
X6204606Y-19464393D01*
X6204606Y-19464393D02*
X6214130Y-19454869D01*
X6214130Y-19454869D02*
X6214130Y-19473917D01*
X6214130Y-19350107D02*
X6223653Y-19359631D01*
X6223653Y-19359631D02*
X6214130Y-19369155D01*
X6214130Y-19369155D02*
X6204606Y-19359631D01*
X6204606Y-19359631D02*
X6214130Y-19350107D01*
X6214130Y-19350107D02*
X6214130Y-19369155D01*
D12*
X4391924Y-19707433D02*
X4581924Y-19897433D01*
X4581924Y-19707433D02*
X4391924Y-19897433D01*
D11*
X4947463Y-19893917D02*
X4833177Y-19893917D01*
X4890320Y-19893917D02*
X4890320Y-19693917D01*
X4890320Y-19693917D02*
X4871273Y-19722488D01*
X4871273Y-19722488D02*
X4852225Y-19741536D01*
X4852225Y-19741536D02*
X4833177Y-19751060D01*
X5033177Y-19874869D02*
X5042701Y-19884393D01*
X5042701Y-19884393D02*
X5033177Y-19893917D01*
X5033177Y-19893917D02*
X5023654Y-19884393D01*
X5023654Y-19884393D02*
X5033177Y-19874869D01*
X5033177Y-19874869D02*
X5033177Y-19893917D01*
X5137939Y-19893917D02*
X5176034Y-19893917D01*
X5176034Y-19893917D02*
X5195082Y-19884393D01*
X5195082Y-19884393D02*
X5204606Y-19874869D01*
X5204606Y-19874869D02*
X5223654Y-19846298D01*
X5223654Y-19846298D02*
X5233177Y-19808202D01*
X5233177Y-19808202D02*
X5233177Y-19732012D01*
X5233177Y-19732012D02*
X5223654Y-19712964D01*
X5223654Y-19712964D02*
X5214130Y-19703441D01*
X5214130Y-19703441D02*
X5195082Y-19693917D01*
X5195082Y-19693917D02*
X5156987Y-19693917D01*
X5156987Y-19693917D02*
X5137939Y-19703441D01*
X5137939Y-19703441D02*
X5128415Y-19712964D01*
X5128415Y-19712964D02*
X5118892Y-19732012D01*
X5118892Y-19732012D02*
X5118892Y-19779631D01*
X5118892Y-19779631D02*
X5128415Y-19798679D01*
X5128415Y-19798679D02*
X5137939Y-19808202D01*
X5137939Y-19808202D02*
X5156987Y-19817726D01*
X5156987Y-19817726D02*
X5195082Y-19817726D01*
X5195082Y-19817726D02*
X5214130Y-19808202D01*
X5214130Y-19808202D02*
X5223654Y-19798679D01*
X5223654Y-19798679D02*
X5233177Y-19779631D01*
X5356987Y-19693917D02*
X5376035Y-19693917D01*
X5376035Y-19693917D02*
X5395082Y-19703441D01*
X5395082Y-19703441D02*
X5404606Y-19712964D01*
X5404606Y-19712964D02*
X5414130Y-19732012D01*
X5414130Y-19732012D02*
X5423654Y-19770107D01*
X5423654Y-19770107D02*
X5423654Y-19817726D01*
X5423654Y-19817726D02*
X5414130Y-19855821D01*
X5414130Y-19855821D02*
X5404606Y-19874869D01*
X5404606Y-19874869D02*
X5395082Y-19884393D01*
X5395082Y-19884393D02*
X5376035Y-19893917D01*
X5376035Y-19893917D02*
X5356987Y-19893917D01*
X5356987Y-19893917D02*
X5337939Y-19884393D01*
X5337939Y-19884393D02*
X5328415Y-19874869D01*
X5328415Y-19874869D02*
X5318892Y-19855821D01*
X5318892Y-19855821D02*
X5309368Y-19817726D01*
X5309368Y-19817726D02*
X5309368Y-19770107D01*
X5309368Y-19770107D02*
X5318892Y-19732012D01*
X5318892Y-19732012D02*
X5328415Y-19712964D01*
X5328415Y-19712964D02*
X5337939Y-19703441D01*
X5337939Y-19703441D02*
X5356987Y-19693917D01*
X5547463Y-19693917D02*
X5566511Y-19693917D01*
X5566511Y-19693917D02*
X5585558Y-19703441D01*
X5585558Y-19703441D02*
X5595082Y-19712964D01*
X5595082Y-19712964D02*
X5604606Y-19732012D01*
X5604606Y-19732012D02*
X5614130Y-19770107D01*
X5614130Y-19770107D02*
X5614130Y-19817726D01*
X5614130Y-19817726D02*
X5604606Y-19855821D01*
X5604606Y-19855821D02*
X5595082Y-19874869D01*
X5595082Y-19874869D02*
X5585558Y-19884393D01*
X5585558Y-19884393D02*
X5566511Y-19893917D01*
X5566511Y-19893917D02*
X5547463Y-19893917D01*
X5547463Y-19893917D02*
X5528415Y-19884393D01*
X5528415Y-19884393D02*
X5518892Y-19874869D01*
X5518892Y-19874869D02*
X5509368Y-19855821D01*
X5509368Y-19855821D02*
X5499844Y-19817726D01*
X5499844Y-19817726D02*
X5499844Y-19770107D01*
X5499844Y-19770107D02*
X5509368Y-19732012D01*
X5509368Y-19732012D02*
X5518892Y-19712964D01*
X5518892Y-19712964D02*
X5528415Y-19703441D01*
X5528415Y-19703441D02*
X5547463Y-19693917D01*
X5699844Y-19893917D02*
X5699844Y-19760583D01*
X5699844Y-19779631D02*
X5709368Y-19770107D01*
X5709368Y-19770107D02*
X5728415Y-19760583D01*
X5728415Y-19760583D02*
X5756987Y-19760583D01*
X5756987Y-19760583D02*
X5776034Y-19770107D01*
X5776034Y-19770107D02*
X5785558Y-19789155D01*
X5785558Y-19789155D02*
X5785558Y-19893917D01*
X5785558Y-19789155D02*
X5795082Y-19770107D01*
X5795082Y-19770107D02*
X5814130Y-19760583D01*
X5814130Y-19760583D02*
X5842701Y-19760583D01*
X5842701Y-19760583D02*
X5861749Y-19770107D01*
X5861749Y-19770107D02*
X5871273Y-19789155D01*
X5871273Y-19789155D02*
X5871273Y-19893917D01*
X5966511Y-19893917D02*
X5966511Y-19760583D01*
X5966511Y-19779631D02*
X5976034Y-19770107D01*
X5976034Y-19770107D02*
X5995082Y-19760583D01*
X5995082Y-19760583D02*
X6023654Y-19760583D01*
X6023654Y-19760583D02*
X6042701Y-19770107D01*
X6042701Y-19770107D02*
X6052225Y-19789155D01*
X6052225Y-19789155D02*
X6052225Y-19893917D01*
X6052225Y-19789155D02*
X6061749Y-19770107D01*
X6061749Y-19770107D02*
X6080796Y-19760583D01*
X6080796Y-19760583D02*
X6109368Y-19760583D01*
X6109368Y-19760583D02*
X6128415Y-19770107D01*
X6128415Y-19770107D02*
X6137939Y-19789155D01*
X6137939Y-19789155D02*
X6137939Y-19893917D01*
X6528415Y-19684393D02*
X6356987Y-19941536D01*
X6785558Y-19693917D02*
X6804606Y-19693917D01*
X6804606Y-19693917D02*
X6823654Y-19703441D01*
X6823654Y-19703441D02*
X6833177Y-19712964D01*
X6833177Y-19712964D02*
X6842701Y-19732012D01*
X6842701Y-19732012D02*
X6852225Y-19770107D01*
X6852225Y-19770107D02*
X6852225Y-19817726D01*
X6852225Y-19817726D02*
X6842701Y-19855821D01*
X6842701Y-19855821D02*
X6833177Y-19874869D01*
X6833177Y-19874869D02*
X6823654Y-19884393D01*
X6823654Y-19884393D02*
X6804606Y-19893917D01*
X6804606Y-19893917D02*
X6785558Y-19893917D01*
X6785558Y-19893917D02*
X6766511Y-19884393D01*
X6766511Y-19884393D02*
X6756987Y-19874869D01*
X6756987Y-19874869D02*
X6747463Y-19855821D01*
X6747463Y-19855821D02*
X6737939Y-19817726D01*
X6737939Y-19817726D02*
X6737939Y-19770107D01*
X6737939Y-19770107D02*
X6747463Y-19732012D01*
X6747463Y-19732012D02*
X6756987Y-19712964D01*
X6756987Y-19712964D02*
X6766511Y-19703441D01*
X6766511Y-19703441D02*
X6785558Y-19693917D01*
X6937939Y-19874869D02*
X6947463Y-19884393D01*
X6947463Y-19884393D02*
X6937939Y-19893917D01*
X6937939Y-19893917D02*
X6928416Y-19884393D01*
X6928416Y-19884393D02*
X6937939Y-19874869D01*
X6937939Y-19874869D02*
X6937939Y-19893917D01*
X7071273Y-19693917D02*
X7090320Y-19693917D01*
X7090320Y-19693917D02*
X7109368Y-19703441D01*
X7109368Y-19703441D02*
X7118892Y-19712964D01*
X7118892Y-19712964D02*
X7128416Y-19732012D01*
X7128416Y-19732012D02*
X7137939Y-19770107D01*
X7137939Y-19770107D02*
X7137939Y-19817726D01*
X7137939Y-19817726D02*
X7128416Y-19855821D01*
X7128416Y-19855821D02*
X7118892Y-19874869D01*
X7118892Y-19874869D02*
X7109368Y-19884393D01*
X7109368Y-19884393D02*
X7090320Y-19893917D01*
X7090320Y-19893917D02*
X7071273Y-19893917D01*
X7071273Y-19893917D02*
X7052225Y-19884393D01*
X7052225Y-19884393D02*
X7042701Y-19874869D01*
X7042701Y-19874869D02*
X7033177Y-19855821D01*
X7033177Y-19855821D02*
X7023654Y-19817726D01*
X7023654Y-19817726D02*
X7023654Y-19770107D01*
X7023654Y-19770107D02*
X7033177Y-19732012D01*
X7033177Y-19732012D02*
X7042701Y-19712964D01*
X7042701Y-19712964D02*
X7052225Y-19703441D01*
X7052225Y-19703441D02*
X7071273Y-19693917D01*
X7204606Y-19693917D02*
X7337939Y-19693917D01*
X7337939Y-19693917D02*
X7252225Y-19893917D01*
X7499844Y-19760583D02*
X7499844Y-19893917D01*
X7452225Y-19684393D02*
X7404606Y-19827250D01*
X7404606Y-19827250D02*
X7528416Y-19827250D01*
X7633177Y-19779631D02*
X7614130Y-19770107D01*
X7614130Y-19770107D02*
X7604606Y-19760583D01*
X7604606Y-19760583D02*
X7595082Y-19741536D01*
X7595082Y-19741536D02*
X7595082Y-19732012D01*
X7595082Y-19732012D02*
X7604606Y-19712964D01*
X7604606Y-19712964D02*
X7614130Y-19703441D01*
X7614130Y-19703441D02*
X7633177Y-19693917D01*
X7633177Y-19693917D02*
X7671273Y-19693917D01*
X7671273Y-19693917D02*
X7690320Y-19703441D01*
X7690320Y-19703441D02*
X7699844Y-19712964D01*
X7699844Y-19712964D02*
X7709368Y-19732012D01*
X7709368Y-19732012D02*
X7709368Y-19741536D01*
X7709368Y-19741536D02*
X7699844Y-19760583D01*
X7699844Y-19760583D02*
X7690320Y-19770107D01*
X7690320Y-19770107D02*
X7671273Y-19779631D01*
X7671273Y-19779631D02*
X7633177Y-19779631D01*
X7633177Y-19779631D02*
X7614130Y-19789155D01*
X7614130Y-19789155D02*
X7604606Y-19798679D01*
X7604606Y-19798679D02*
X7595082Y-19817726D01*
X7595082Y-19817726D02*
X7595082Y-19855821D01*
X7595082Y-19855821D02*
X7604606Y-19874869D01*
X7604606Y-19874869D02*
X7614130Y-19884393D01*
X7614130Y-19884393D02*
X7633177Y-19893917D01*
X7633177Y-19893917D02*
X7671273Y-19893917D01*
X7671273Y-19893917D02*
X7690320Y-19884393D01*
X7690320Y-19884393D02*
X7699844Y-19874869D01*
X7699844Y-19874869D02*
X7709368Y-19855821D01*
X7709368Y-19855821D02*
X7709368Y-19817726D01*
X7709368Y-19817726D02*
X7699844Y-19798679D01*
X7699844Y-19798679D02*
X7690320Y-19789155D01*
X7690320Y-19789155D02*
X7671273Y-19779631D01*
X7785558Y-19693917D02*
X7785558Y-19732012D01*
X7861749Y-19693917D02*
X7861749Y-19732012D01*
X8156987Y-19970107D02*
X8147463Y-19960583D01*
X8147463Y-19960583D02*
X8128416Y-19932012D01*
X8128416Y-19932012D02*
X8118892Y-19912964D01*
X8118892Y-19912964D02*
X8109368Y-19884393D01*
X8109368Y-19884393D02*
X8099844Y-19836774D01*
X8099844Y-19836774D02*
X8099844Y-19798679D01*
X8099844Y-19798679D02*
X8109368Y-19751060D01*
X8109368Y-19751060D02*
X8118892Y-19722488D01*
X8118892Y-19722488D02*
X8128416Y-19703441D01*
X8128416Y-19703441D02*
X8147463Y-19674869D01*
X8147463Y-19674869D02*
X8156987Y-19665345D01*
X8337939Y-19893917D02*
X8223654Y-19893917D01*
X8280797Y-19893917D02*
X8280797Y-19693917D01*
X8280797Y-19693917D02*
X8261749Y-19722488D01*
X8261749Y-19722488D02*
X8242701Y-19741536D01*
X8242701Y-19741536D02*
X8223654Y-19751060D01*
X8509368Y-19760583D02*
X8509368Y-19893917D01*
X8461749Y-19684393D02*
X8414130Y-19827250D01*
X8414130Y-19827250D02*
X8537940Y-19827250D01*
X8652225Y-19693917D02*
X8671273Y-19693917D01*
X8671273Y-19693917D02*
X8690321Y-19703441D01*
X8690321Y-19703441D02*
X8699844Y-19712964D01*
X8699844Y-19712964D02*
X8709368Y-19732012D01*
X8709368Y-19732012D02*
X8718892Y-19770107D01*
X8718892Y-19770107D02*
X8718892Y-19817726D01*
X8718892Y-19817726D02*
X8709368Y-19855821D01*
X8709368Y-19855821D02*
X8699844Y-19874869D01*
X8699844Y-19874869D02*
X8690321Y-19884393D01*
X8690321Y-19884393D02*
X8671273Y-19893917D01*
X8671273Y-19893917D02*
X8652225Y-19893917D01*
X8652225Y-19893917D02*
X8633178Y-19884393D01*
X8633178Y-19884393D02*
X8623654Y-19874869D01*
X8623654Y-19874869D02*
X8614130Y-19855821D01*
X8614130Y-19855821D02*
X8604606Y-19817726D01*
X8604606Y-19817726D02*
X8604606Y-19770107D01*
X8604606Y-19770107D02*
X8614130Y-19732012D01*
X8614130Y-19732012D02*
X8623654Y-19712964D01*
X8623654Y-19712964D02*
X8633178Y-19703441D01*
X8633178Y-19703441D02*
X8652225Y-19693917D01*
X8956987Y-19893917D02*
X8956987Y-19693917D01*
X9042702Y-19893917D02*
X9042702Y-19789155D01*
X9042702Y-19789155D02*
X9033178Y-19770107D01*
X9033178Y-19770107D02*
X9014130Y-19760583D01*
X9014130Y-19760583D02*
X8985559Y-19760583D01*
X8985559Y-19760583D02*
X8966511Y-19770107D01*
X8966511Y-19770107D02*
X8956987Y-19779631D01*
X9166511Y-19893917D02*
X9147463Y-19884393D01*
X9147463Y-19884393D02*
X9137940Y-19874869D01*
X9137940Y-19874869D02*
X9128416Y-19855821D01*
X9128416Y-19855821D02*
X9128416Y-19798679D01*
X9128416Y-19798679D02*
X9137940Y-19779631D01*
X9137940Y-19779631D02*
X9147463Y-19770107D01*
X9147463Y-19770107D02*
X9166511Y-19760583D01*
X9166511Y-19760583D02*
X9195083Y-19760583D01*
X9195083Y-19760583D02*
X9214130Y-19770107D01*
X9214130Y-19770107D02*
X9223654Y-19779631D01*
X9223654Y-19779631D02*
X9233178Y-19798679D01*
X9233178Y-19798679D02*
X9233178Y-19855821D01*
X9233178Y-19855821D02*
X9223654Y-19874869D01*
X9223654Y-19874869D02*
X9214130Y-19884393D01*
X9214130Y-19884393D02*
X9195083Y-19893917D01*
X9195083Y-19893917D02*
X9166511Y-19893917D01*
X9347463Y-19893917D02*
X9328416Y-19884393D01*
X9328416Y-19884393D02*
X9318892Y-19865345D01*
X9318892Y-19865345D02*
X9318892Y-19693917D01*
X9499844Y-19884393D02*
X9480797Y-19893917D01*
X9480797Y-19893917D02*
X9442702Y-19893917D01*
X9442702Y-19893917D02*
X9423654Y-19884393D01*
X9423654Y-19884393D02*
X9414130Y-19865345D01*
X9414130Y-19865345D02*
X9414130Y-19789155D01*
X9414130Y-19789155D02*
X9423654Y-19770107D01*
X9423654Y-19770107D02*
X9442702Y-19760583D01*
X9442702Y-19760583D02*
X9480797Y-19760583D01*
X9480797Y-19760583D02*
X9499844Y-19770107D01*
X9499844Y-19770107D02*
X9509368Y-19789155D01*
X9509368Y-19789155D02*
X9509368Y-19808202D01*
X9509368Y-19808202D02*
X9414130Y-19827250D01*
X9585559Y-19884393D02*
X9604606Y-19893917D01*
X9604606Y-19893917D02*
X9642702Y-19893917D01*
X9642702Y-19893917D02*
X9661749Y-19884393D01*
X9661749Y-19884393D02*
X9671273Y-19865345D01*
X9671273Y-19865345D02*
X9671273Y-19855821D01*
X9671273Y-19855821D02*
X9661749Y-19836774D01*
X9661749Y-19836774D02*
X9642702Y-19827250D01*
X9642702Y-19827250D02*
X9614130Y-19827250D01*
X9614130Y-19827250D02*
X9595083Y-19817726D01*
X9595083Y-19817726D02*
X9585559Y-19798679D01*
X9585559Y-19798679D02*
X9585559Y-19789155D01*
X9585559Y-19789155D02*
X9595083Y-19770107D01*
X9595083Y-19770107D02*
X9614130Y-19760583D01*
X9614130Y-19760583D02*
X9642702Y-19760583D01*
X9642702Y-19760583D02*
X9661749Y-19770107D01*
X9737940Y-19970107D02*
X9747464Y-19960583D01*
X9747464Y-19960583D02*
X9766511Y-19932012D01*
X9766511Y-19932012D02*
X9776035Y-19912964D01*
X9776035Y-19912964D02*
X9785559Y-19884393D01*
X9785559Y-19884393D02*
X9795083Y-19836774D01*
X9795083Y-19836774D02*
X9795083Y-19798679D01*
X9795083Y-19798679D02*
X9785559Y-19751060D01*
X9785559Y-19751060D02*
X9776035Y-19722488D01*
X9776035Y-19722488D02*
X9766511Y-19703441D01*
X9766511Y-19703441D02*
X9747464Y-19674869D01*
X9747464Y-19674869D02*
X9737940Y-19665345D01*
X10099845Y-19970107D02*
X10090321Y-19960583D01*
X10090321Y-19960583D02*
X10071273Y-19932012D01*
X10071273Y-19932012D02*
X10061749Y-19912964D01*
X10061749Y-19912964D02*
X10052225Y-19884393D01*
X10052225Y-19884393D02*
X10042702Y-19836774D01*
X10042702Y-19836774D02*
X10042702Y-19798679D01*
X10042702Y-19798679D02*
X10052225Y-19751060D01*
X10052225Y-19751060D02*
X10061749Y-19722488D01*
X10061749Y-19722488D02*
X10071273Y-19703441D01*
X10071273Y-19703441D02*
X10090321Y-19674869D01*
X10090321Y-19674869D02*
X10099845Y-19665345D01*
X10176035Y-19760583D02*
X10176035Y-19893917D01*
X10176035Y-19779631D02*
X10185559Y-19770107D01*
X10185559Y-19770107D02*
X10204606Y-19760583D01*
X10204606Y-19760583D02*
X10233178Y-19760583D01*
X10233178Y-19760583D02*
X10252225Y-19770107D01*
X10252225Y-19770107D02*
X10261749Y-19789155D01*
X10261749Y-19789155D02*
X10261749Y-19893917D01*
X10385559Y-19893917D02*
X10366511Y-19884393D01*
X10366511Y-19884393D02*
X10356987Y-19874869D01*
X10356987Y-19874869D02*
X10347464Y-19855821D01*
X10347464Y-19855821D02*
X10347464Y-19798679D01*
X10347464Y-19798679D02*
X10356987Y-19779631D01*
X10356987Y-19779631D02*
X10366511Y-19770107D01*
X10366511Y-19770107D02*
X10385559Y-19760583D01*
X10385559Y-19760583D02*
X10414130Y-19760583D01*
X10414130Y-19760583D02*
X10433178Y-19770107D01*
X10433178Y-19770107D02*
X10442702Y-19779631D01*
X10442702Y-19779631D02*
X10452225Y-19798679D01*
X10452225Y-19798679D02*
X10452225Y-19855821D01*
X10452225Y-19855821D02*
X10442702Y-19874869D01*
X10442702Y-19874869D02*
X10433178Y-19884393D01*
X10433178Y-19884393D02*
X10414130Y-19893917D01*
X10414130Y-19893917D02*
X10385559Y-19893917D01*
X10509368Y-19760583D02*
X10585559Y-19760583D01*
X10537940Y-19693917D02*
X10537940Y-19865345D01*
X10537940Y-19865345D02*
X10547464Y-19884393D01*
X10547464Y-19884393D02*
X10566511Y-19893917D01*
X10566511Y-19893917D02*
X10585559Y-19893917D01*
X10804606Y-19760583D02*
X10804606Y-19960583D01*
X10804606Y-19770107D02*
X10823654Y-19760583D01*
X10823654Y-19760583D02*
X10861749Y-19760583D01*
X10861749Y-19760583D02*
X10880797Y-19770107D01*
X10880797Y-19770107D02*
X10890321Y-19779631D01*
X10890321Y-19779631D02*
X10899845Y-19798679D01*
X10899845Y-19798679D02*
X10899845Y-19855821D01*
X10899845Y-19855821D02*
X10890321Y-19874869D01*
X10890321Y-19874869D02*
X10880797Y-19884393D01*
X10880797Y-19884393D02*
X10861749Y-19893917D01*
X10861749Y-19893917D02*
X10823654Y-19893917D01*
X10823654Y-19893917D02*
X10804606Y-19884393D01*
X11014130Y-19893917D02*
X10995083Y-19884393D01*
X10995083Y-19884393D02*
X10985559Y-19865345D01*
X10985559Y-19865345D02*
X10985559Y-19693917D01*
X11176035Y-19893917D02*
X11176035Y-19789155D01*
X11176035Y-19789155D02*
X11166511Y-19770107D01*
X11166511Y-19770107D02*
X11147464Y-19760583D01*
X11147464Y-19760583D02*
X11109368Y-19760583D01*
X11109368Y-19760583D02*
X11090321Y-19770107D01*
X11176035Y-19884393D02*
X11156987Y-19893917D01*
X11156987Y-19893917D02*
X11109368Y-19893917D01*
X11109368Y-19893917D02*
X11090321Y-19884393D01*
X11090321Y-19884393D02*
X11080797Y-19865345D01*
X11080797Y-19865345D02*
X11080797Y-19846298D01*
X11080797Y-19846298D02*
X11090321Y-19827250D01*
X11090321Y-19827250D02*
X11109368Y-19817726D01*
X11109368Y-19817726D02*
X11156987Y-19817726D01*
X11156987Y-19817726D02*
X11176035Y-19808202D01*
X11242702Y-19760583D02*
X11318892Y-19760583D01*
X11271273Y-19693917D02*
X11271273Y-19865345D01*
X11271273Y-19865345D02*
X11280797Y-19884393D01*
X11280797Y-19884393D02*
X11299844Y-19893917D01*
X11299844Y-19893917D02*
X11318892Y-19893917D01*
X11461749Y-19884393D02*
X11442702Y-19893917D01*
X11442702Y-19893917D02*
X11404606Y-19893917D01*
X11404606Y-19893917D02*
X11385559Y-19884393D01*
X11385559Y-19884393D02*
X11376035Y-19865345D01*
X11376035Y-19865345D02*
X11376035Y-19789155D01*
X11376035Y-19789155D02*
X11385559Y-19770107D01*
X11385559Y-19770107D02*
X11404606Y-19760583D01*
X11404606Y-19760583D02*
X11442702Y-19760583D01*
X11442702Y-19760583D02*
X11461749Y-19770107D01*
X11461749Y-19770107D02*
X11471273Y-19789155D01*
X11471273Y-19789155D02*
X11471273Y-19808202D01*
X11471273Y-19808202D02*
X11376035Y-19827250D01*
X11642702Y-19893917D02*
X11642702Y-19693917D01*
X11642702Y-19884393D02*
X11623654Y-19893917D01*
X11623654Y-19893917D02*
X11585559Y-19893917D01*
X11585559Y-19893917D02*
X11566511Y-19884393D01*
X11566511Y-19884393D02*
X11556987Y-19874869D01*
X11556987Y-19874869D02*
X11547464Y-19855821D01*
X11547464Y-19855821D02*
X11547464Y-19798679D01*
X11547464Y-19798679D02*
X11556987Y-19779631D01*
X11556987Y-19779631D02*
X11566511Y-19770107D01*
X11566511Y-19770107D02*
X11585559Y-19760583D01*
X11585559Y-19760583D02*
X11623654Y-19760583D01*
X11623654Y-19760583D02*
X11642702Y-19770107D01*
X11718892Y-19970107D02*
X11728416Y-19960583D01*
X11728416Y-19960583D02*
X11747464Y-19932012D01*
X11747464Y-19932012D02*
X11756987Y-19912964D01*
X11756987Y-19912964D02*
X11766511Y-19884393D01*
X11766511Y-19884393D02*
X11776035Y-19836774D01*
X11776035Y-19836774D02*
X11776035Y-19798679D01*
X11776035Y-19798679D02*
X11766511Y-19751060D01*
X11766511Y-19751060D02*
X11756987Y-19722488D01*
X11756987Y-19722488D02*
X11747464Y-19703441D01*
X11747464Y-19703441D02*
X11728416Y-19674869D01*
X11728416Y-19674869D02*
X11718892Y-19665345D01*
X4581924Y-20112433D02*
G75*
G02*
X4381924Y-20112433I-100000J0D01*
G01*
X4381924Y-20112433D02*
G75*
G02*
X4581924Y-20112433I100000J0D01*
G01*
X4823654Y-20003917D02*
X4947463Y-20003917D01*
X4947463Y-20003917D02*
X4880796Y-20080107D01*
X4880796Y-20080107D02*
X4909368Y-20080107D01*
X4909368Y-20080107D02*
X4928415Y-20089631D01*
X4928415Y-20089631D02*
X4937939Y-20099155D01*
X4937939Y-20099155D02*
X4947463Y-20118202D01*
X4947463Y-20118202D02*
X4947463Y-20165821D01*
X4947463Y-20165821D02*
X4937939Y-20184869D01*
X4937939Y-20184869D02*
X4928415Y-20194393D01*
X4928415Y-20194393D02*
X4909368Y-20203917D01*
X4909368Y-20203917D02*
X4852225Y-20203917D01*
X4852225Y-20203917D02*
X4833177Y-20194393D01*
X4833177Y-20194393D02*
X4823654Y-20184869D01*
X5033177Y-20184869D02*
X5042701Y-20194393D01*
X5042701Y-20194393D02*
X5033177Y-20203917D01*
X5033177Y-20203917D02*
X5023654Y-20194393D01*
X5023654Y-20194393D02*
X5033177Y-20184869D01*
X5033177Y-20184869D02*
X5033177Y-20203917D01*
X5166511Y-20003917D02*
X5185558Y-20003917D01*
X5185558Y-20003917D02*
X5204606Y-20013441D01*
X5204606Y-20013441D02*
X5214130Y-20022964D01*
X5214130Y-20022964D02*
X5223654Y-20042012D01*
X5223654Y-20042012D02*
X5233177Y-20080107D01*
X5233177Y-20080107D02*
X5233177Y-20127726D01*
X5233177Y-20127726D02*
X5223654Y-20165821D01*
X5223654Y-20165821D02*
X5214130Y-20184869D01*
X5214130Y-20184869D02*
X5204606Y-20194393D01*
X5204606Y-20194393D02*
X5185558Y-20203917D01*
X5185558Y-20203917D02*
X5166511Y-20203917D01*
X5166511Y-20203917D02*
X5147463Y-20194393D01*
X5147463Y-20194393D02*
X5137939Y-20184869D01*
X5137939Y-20184869D02*
X5128415Y-20165821D01*
X5128415Y-20165821D02*
X5118892Y-20127726D01*
X5118892Y-20127726D02*
X5118892Y-20080107D01*
X5118892Y-20080107D02*
X5128415Y-20042012D01*
X5128415Y-20042012D02*
X5137939Y-20022964D01*
X5137939Y-20022964D02*
X5147463Y-20013441D01*
X5147463Y-20013441D02*
X5166511Y-20003917D01*
X5356987Y-20003917D02*
X5376035Y-20003917D01*
X5376035Y-20003917D02*
X5395082Y-20013441D01*
X5395082Y-20013441D02*
X5404606Y-20022964D01*
X5404606Y-20022964D02*
X5414130Y-20042012D01*
X5414130Y-20042012D02*
X5423654Y-20080107D01*
X5423654Y-20080107D02*
X5423654Y-20127726D01*
X5423654Y-20127726D02*
X5414130Y-20165821D01*
X5414130Y-20165821D02*
X5404606Y-20184869D01*
X5404606Y-20184869D02*
X5395082Y-20194393D01*
X5395082Y-20194393D02*
X5376035Y-20203917D01*
X5376035Y-20203917D02*
X5356987Y-20203917D01*
X5356987Y-20203917D02*
X5337939Y-20194393D01*
X5337939Y-20194393D02*
X5328415Y-20184869D01*
X5328415Y-20184869D02*
X5318892Y-20165821D01*
X5318892Y-20165821D02*
X5309368Y-20127726D01*
X5309368Y-20127726D02*
X5309368Y-20080107D01*
X5309368Y-20080107D02*
X5318892Y-20042012D01*
X5318892Y-20042012D02*
X5328415Y-20022964D01*
X5328415Y-20022964D02*
X5337939Y-20013441D01*
X5337939Y-20013441D02*
X5356987Y-20003917D01*
X5547463Y-20003917D02*
X5566511Y-20003917D01*
X5566511Y-20003917D02*
X5585558Y-20013441D01*
X5585558Y-20013441D02*
X5595082Y-20022964D01*
X5595082Y-20022964D02*
X5604606Y-20042012D01*
X5604606Y-20042012D02*
X5614130Y-20080107D01*
X5614130Y-20080107D02*
X5614130Y-20127726D01*
X5614130Y-20127726D02*
X5604606Y-20165821D01*
X5604606Y-20165821D02*
X5595082Y-20184869D01*
X5595082Y-20184869D02*
X5585558Y-20194393D01*
X5585558Y-20194393D02*
X5566511Y-20203917D01*
X5566511Y-20203917D02*
X5547463Y-20203917D01*
X5547463Y-20203917D02*
X5528415Y-20194393D01*
X5528415Y-20194393D02*
X5518892Y-20184869D01*
X5518892Y-20184869D02*
X5509368Y-20165821D01*
X5509368Y-20165821D02*
X5499844Y-20127726D01*
X5499844Y-20127726D02*
X5499844Y-20080107D01*
X5499844Y-20080107D02*
X5509368Y-20042012D01*
X5509368Y-20042012D02*
X5518892Y-20022964D01*
X5518892Y-20022964D02*
X5528415Y-20013441D01*
X5528415Y-20013441D02*
X5547463Y-20003917D01*
X5699844Y-20203917D02*
X5699844Y-20070583D01*
X5699844Y-20089631D02*
X5709368Y-20080107D01*
X5709368Y-20080107D02*
X5728415Y-20070583D01*
X5728415Y-20070583D02*
X5756987Y-20070583D01*
X5756987Y-20070583D02*
X5776034Y-20080107D01*
X5776034Y-20080107D02*
X5785558Y-20099155D01*
X5785558Y-20099155D02*
X5785558Y-20203917D01*
X5785558Y-20099155D02*
X5795082Y-20080107D01*
X5795082Y-20080107D02*
X5814130Y-20070583D01*
X5814130Y-20070583D02*
X5842701Y-20070583D01*
X5842701Y-20070583D02*
X5861749Y-20080107D01*
X5861749Y-20080107D02*
X5871273Y-20099155D01*
X5871273Y-20099155D02*
X5871273Y-20203917D01*
X5966511Y-20203917D02*
X5966511Y-20070583D01*
X5966511Y-20089631D02*
X5976034Y-20080107D01*
X5976034Y-20080107D02*
X5995082Y-20070583D01*
X5995082Y-20070583D02*
X6023654Y-20070583D01*
X6023654Y-20070583D02*
X6042701Y-20080107D01*
X6042701Y-20080107D02*
X6052225Y-20099155D01*
X6052225Y-20099155D02*
X6052225Y-20203917D01*
X6052225Y-20099155D02*
X6061749Y-20080107D01*
X6061749Y-20080107D02*
X6080796Y-20070583D01*
X6080796Y-20070583D02*
X6109368Y-20070583D01*
X6109368Y-20070583D02*
X6128415Y-20080107D01*
X6128415Y-20080107D02*
X6137939Y-20099155D01*
X6137939Y-20099155D02*
X6137939Y-20203917D01*
X6528415Y-19994393D02*
X6356987Y-20251536D01*
X6785558Y-20003917D02*
X6804606Y-20003917D01*
X6804606Y-20003917D02*
X6823654Y-20013441D01*
X6823654Y-20013441D02*
X6833177Y-20022964D01*
X6833177Y-20022964D02*
X6842701Y-20042012D01*
X6842701Y-20042012D02*
X6852225Y-20080107D01*
X6852225Y-20080107D02*
X6852225Y-20127726D01*
X6852225Y-20127726D02*
X6842701Y-20165821D01*
X6842701Y-20165821D02*
X6833177Y-20184869D01*
X6833177Y-20184869D02*
X6823654Y-20194393D01*
X6823654Y-20194393D02*
X6804606Y-20203917D01*
X6804606Y-20203917D02*
X6785558Y-20203917D01*
X6785558Y-20203917D02*
X6766511Y-20194393D01*
X6766511Y-20194393D02*
X6756987Y-20184869D01*
X6756987Y-20184869D02*
X6747463Y-20165821D01*
X6747463Y-20165821D02*
X6737939Y-20127726D01*
X6737939Y-20127726D02*
X6737939Y-20080107D01*
X6737939Y-20080107D02*
X6747463Y-20042012D01*
X6747463Y-20042012D02*
X6756987Y-20022964D01*
X6756987Y-20022964D02*
X6766511Y-20013441D01*
X6766511Y-20013441D02*
X6785558Y-20003917D01*
X6937939Y-20184869D02*
X6947463Y-20194393D01*
X6947463Y-20194393D02*
X6937939Y-20203917D01*
X6937939Y-20203917D02*
X6928416Y-20194393D01*
X6928416Y-20194393D02*
X6937939Y-20184869D01*
X6937939Y-20184869D02*
X6937939Y-20203917D01*
X7137939Y-20203917D02*
X7023654Y-20203917D01*
X7080796Y-20203917D02*
X7080796Y-20003917D01*
X7080796Y-20003917D02*
X7061749Y-20032488D01*
X7061749Y-20032488D02*
X7042701Y-20051536D01*
X7042701Y-20051536D02*
X7023654Y-20061060D01*
X7328416Y-20203917D02*
X7214130Y-20203917D01*
X7271273Y-20203917D02*
X7271273Y-20003917D01*
X7271273Y-20003917D02*
X7252225Y-20032488D01*
X7252225Y-20032488D02*
X7233177Y-20051536D01*
X7233177Y-20051536D02*
X7214130Y-20061060D01*
X7442701Y-20089631D02*
X7423654Y-20080107D01*
X7423654Y-20080107D02*
X7414130Y-20070583D01*
X7414130Y-20070583D02*
X7404606Y-20051536D01*
X7404606Y-20051536D02*
X7404606Y-20042012D01*
X7404606Y-20042012D02*
X7414130Y-20022964D01*
X7414130Y-20022964D02*
X7423654Y-20013441D01*
X7423654Y-20013441D02*
X7442701Y-20003917D01*
X7442701Y-20003917D02*
X7480797Y-20003917D01*
X7480797Y-20003917D02*
X7499844Y-20013441D01*
X7499844Y-20013441D02*
X7509368Y-20022964D01*
X7509368Y-20022964D02*
X7518892Y-20042012D01*
X7518892Y-20042012D02*
X7518892Y-20051536D01*
X7518892Y-20051536D02*
X7509368Y-20070583D01*
X7509368Y-20070583D02*
X7499844Y-20080107D01*
X7499844Y-20080107D02*
X7480797Y-20089631D01*
X7480797Y-20089631D02*
X7442701Y-20089631D01*
X7442701Y-20089631D02*
X7423654Y-20099155D01*
X7423654Y-20099155D02*
X7414130Y-20108679D01*
X7414130Y-20108679D02*
X7404606Y-20127726D01*
X7404606Y-20127726D02*
X7404606Y-20165821D01*
X7404606Y-20165821D02*
X7414130Y-20184869D01*
X7414130Y-20184869D02*
X7423654Y-20194393D01*
X7423654Y-20194393D02*
X7442701Y-20203917D01*
X7442701Y-20203917D02*
X7480797Y-20203917D01*
X7480797Y-20203917D02*
X7499844Y-20194393D01*
X7499844Y-20194393D02*
X7509368Y-20184869D01*
X7509368Y-20184869D02*
X7518892Y-20165821D01*
X7518892Y-20165821D02*
X7518892Y-20127726D01*
X7518892Y-20127726D02*
X7509368Y-20108679D01*
X7509368Y-20108679D02*
X7499844Y-20099155D01*
X7499844Y-20099155D02*
X7480797Y-20089631D01*
X7709368Y-20203917D02*
X7595082Y-20203917D01*
X7652225Y-20203917D02*
X7652225Y-20003917D01*
X7652225Y-20003917D02*
X7633177Y-20032488D01*
X7633177Y-20032488D02*
X7614130Y-20051536D01*
X7614130Y-20051536D02*
X7595082Y-20061060D01*
X7785558Y-20003917D02*
X7785558Y-20042012D01*
X7861749Y-20003917D02*
X7861749Y-20042012D01*
X8156987Y-20280107D02*
X8147463Y-20270583D01*
X8147463Y-20270583D02*
X8128416Y-20242012D01*
X8128416Y-20242012D02*
X8118892Y-20222964D01*
X8118892Y-20222964D02*
X8109368Y-20194393D01*
X8109368Y-20194393D02*
X8099844Y-20146774D01*
X8099844Y-20146774D02*
X8099844Y-20108679D01*
X8099844Y-20108679D02*
X8109368Y-20061060D01*
X8109368Y-20061060D02*
X8118892Y-20032488D01*
X8118892Y-20032488D02*
X8128416Y-20013441D01*
X8128416Y-20013441D02*
X8147463Y-19984869D01*
X8147463Y-19984869D02*
X8156987Y-19975345D01*
X8337939Y-20203917D02*
X8223654Y-20203917D01*
X8280797Y-20203917D02*
X8280797Y-20003917D01*
X8280797Y-20003917D02*
X8261749Y-20032488D01*
X8261749Y-20032488D02*
X8242701Y-20051536D01*
X8242701Y-20051536D02*
X8223654Y-20061060D01*
X8509368Y-20070583D02*
X8509368Y-20203917D01*
X8461749Y-19994393D02*
X8414130Y-20137250D01*
X8414130Y-20137250D02*
X8537940Y-20137250D01*
X8652225Y-20003917D02*
X8671273Y-20003917D01*
X8671273Y-20003917D02*
X8690321Y-20013441D01*
X8690321Y-20013441D02*
X8699844Y-20022964D01*
X8699844Y-20022964D02*
X8709368Y-20042012D01*
X8709368Y-20042012D02*
X8718892Y-20080107D01*
X8718892Y-20080107D02*
X8718892Y-20127726D01*
X8718892Y-20127726D02*
X8709368Y-20165821D01*
X8709368Y-20165821D02*
X8699844Y-20184869D01*
X8699844Y-20184869D02*
X8690321Y-20194393D01*
X8690321Y-20194393D02*
X8671273Y-20203917D01*
X8671273Y-20203917D02*
X8652225Y-20203917D01*
X8652225Y-20203917D02*
X8633178Y-20194393D01*
X8633178Y-20194393D02*
X8623654Y-20184869D01*
X8623654Y-20184869D02*
X8614130Y-20165821D01*
X8614130Y-20165821D02*
X8604606Y-20127726D01*
X8604606Y-20127726D02*
X8604606Y-20080107D01*
X8604606Y-20080107D02*
X8614130Y-20042012D01*
X8614130Y-20042012D02*
X8623654Y-20022964D01*
X8623654Y-20022964D02*
X8633178Y-20013441D01*
X8633178Y-20013441D02*
X8652225Y-20003917D01*
X8956987Y-20203917D02*
X8956987Y-20003917D01*
X9042702Y-20203917D02*
X9042702Y-20099155D01*
X9042702Y-20099155D02*
X9033178Y-20080107D01*
X9033178Y-20080107D02*
X9014130Y-20070583D01*
X9014130Y-20070583D02*
X8985559Y-20070583D01*
X8985559Y-20070583D02*
X8966511Y-20080107D01*
X8966511Y-20080107D02*
X8956987Y-20089631D01*
X9166511Y-20203917D02*
X9147463Y-20194393D01*
X9147463Y-20194393D02*
X9137940Y-20184869D01*
X9137940Y-20184869D02*
X9128416Y-20165821D01*
X9128416Y-20165821D02*
X9128416Y-20108679D01*
X9128416Y-20108679D02*
X9137940Y-20089631D01*
X9137940Y-20089631D02*
X9147463Y-20080107D01*
X9147463Y-20080107D02*
X9166511Y-20070583D01*
X9166511Y-20070583D02*
X9195083Y-20070583D01*
X9195083Y-20070583D02*
X9214130Y-20080107D01*
X9214130Y-20080107D02*
X9223654Y-20089631D01*
X9223654Y-20089631D02*
X9233178Y-20108679D01*
X9233178Y-20108679D02*
X9233178Y-20165821D01*
X9233178Y-20165821D02*
X9223654Y-20184869D01*
X9223654Y-20184869D02*
X9214130Y-20194393D01*
X9214130Y-20194393D02*
X9195083Y-20203917D01*
X9195083Y-20203917D02*
X9166511Y-20203917D01*
X9347463Y-20203917D02*
X9328416Y-20194393D01*
X9328416Y-20194393D02*
X9318892Y-20175345D01*
X9318892Y-20175345D02*
X9318892Y-20003917D01*
X9499844Y-20194393D02*
X9480797Y-20203917D01*
X9480797Y-20203917D02*
X9442702Y-20203917D01*
X9442702Y-20203917D02*
X9423654Y-20194393D01*
X9423654Y-20194393D02*
X9414130Y-20175345D01*
X9414130Y-20175345D02*
X9414130Y-20099155D01*
X9414130Y-20099155D02*
X9423654Y-20080107D01*
X9423654Y-20080107D02*
X9442702Y-20070583D01*
X9442702Y-20070583D02*
X9480797Y-20070583D01*
X9480797Y-20070583D02*
X9499844Y-20080107D01*
X9499844Y-20080107D02*
X9509368Y-20099155D01*
X9509368Y-20099155D02*
X9509368Y-20118202D01*
X9509368Y-20118202D02*
X9414130Y-20137250D01*
X9585559Y-20194393D02*
X9604606Y-20203917D01*
X9604606Y-20203917D02*
X9642702Y-20203917D01*
X9642702Y-20203917D02*
X9661749Y-20194393D01*
X9661749Y-20194393D02*
X9671273Y-20175345D01*
X9671273Y-20175345D02*
X9671273Y-20165821D01*
X9671273Y-20165821D02*
X9661749Y-20146774D01*
X9661749Y-20146774D02*
X9642702Y-20137250D01*
X9642702Y-20137250D02*
X9614130Y-20137250D01*
X9614130Y-20137250D02*
X9595083Y-20127726D01*
X9595083Y-20127726D02*
X9585559Y-20108679D01*
X9585559Y-20108679D02*
X9585559Y-20099155D01*
X9585559Y-20099155D02*
X9595083Y-20080107D01*
X9595083Y-20080107D02*
X9614130Y-20070583D01*
X9614130Y-20070583D02*
X9642702Y-20070583D01*
X9642702Y-20070583D02*
X9661749Y-20080107D01*
X9737940Y-20280107D02*
X9747464Y-20270583D01*
X9747464Y-20270583D02*
X9766511Y-20242012D01*
X9766511Y-20242012D02*
X9776035Y-20222964D01*
X9776035Y-20222964D02*
X9785559Y-20194393D01*
X9785559Y-20194393D02*
X9795083Y-20146774D01*
X9795083Y-20146774D02*
X9795083Y-20108679D01*
X9795083Y-20108679D02*
X9785559Y-20061060D01*
X9785559Y-20061060D02*
X9776035Y-20032488D01*
X9776035Y-20032488D02*
X9766511Y-20013441D01*
X9766511Y-20013441D02*
X9747464Y-19984869D01*
X9747464Y-19984869D02*
X9737940Y-19975345D01*
X10099845Y-20280107D02*
X10090321Y-20270583D01*
X10090321Y-20270583D02*
X10071273Y-20242012D01*
X10071273Y-20242012D02*
X10061749Y-20222964D01*
X10061749Y-20222964D02*
X10052225Y-20194393D01*
X10052225Y-20194393D02*
X10042702Y-20146774D01*
X10042702Y-20146774D02*
X10042702Y-20108679D01*
X10042702Y-20108679D02*
X10052225Y-20061060D01*
X10052225Y-20061060D02*
X10061749Y-20032488D01*
X10061749Y-20032488D02*
X10071273Y-20013441D01*
X10071273Y-20013441D02*
X10090321Y-19984869D01*
X10090321Y-19984869D02*
X10099845Y-19975345D01*
X10176035Y-20070583D02*
X10176035Y-20203917D01*
X10176035Y-20089631D02*
X10185559Y-20080107D01*
X10185559Y-20080107D02*
X10204606Y-20070583D01*
X10204606Y-20070583D02*
X10233178Y-20070583D01*
X10233178Y-20070583D02*
X10252225Y-20080107D01*
X10252225Y-20080107D02*
X10261749Y-20099155D01*
X10261749Y-20099155D02*
X10261749Y-20203917D01*
X10385559Y-20203917D02*
X10366511Y-20194393D01*
X10366511Y-20194393D02*
X10356987Y-20184869D01*
X10356987Y-20184869D02*
X10347464Y-20165821D01*
X10347464Y-20165821D02*
X10347464Y-20108679D01*
X10347464Y-20108679D02*
X10356987Y-20089631D01*
X10356987Y-20089631D02*
X10366511Y-20080107D01*
X10366511Y-20080107D02*
X10385559Y-20070583D01*
X10385559Y-20070583D02*
X10414130Y-20070583D01*
X10414130Y-20070583D02*
X10433178Y-20080107D01*
X10433178Y-20080107D02*
X10442702Y-20089631D01*
X10442702Y-20089631D02*
X10452225Y-20108679D01*
X10452225Y-20108679D02*
X10452225Y-20165821D01*
X10452225Y-20165821D02*
X10442702Y-20184869D01*
X10442702Y-20184869D02*
X10433178Y-20194393D01*
X10433178Y-20194393D02*
X10414130Y-20203917D01*
X10414130Y-20203917D02*
X10385559Y-20203917D01*
X10509368Y-20070583D02*
X10585559Y-20070583D01*
X10537940Y-20003917D02*
X10537940Y-20175345D01*
X10537940Y-20175345D02*
X10547464Y-20194393D01*
X10547464Y-20194393D02*
X10566511Y-20203917D01*
X10566511Y-20203917D02*
X10585559Y-20203917D01*
X10804606Y-20070583D02*
X10804606Y-20270583D01*
X10804606Y-20080107D02*
X10823654Y-20070583D01*
X10823654Y-20070583D02*
X10861749Y-20070583D01*
X10861749Y-20070583D02*
X10880797Y-20080107D01*
X10880797Y-20080107D02*
X10890321Y-20089631D01*
X10890321Y-20089631D02*
X10899845Y-20108679D01*
X10899845Y-20108679D02*
X10899845Y-20165821D01*
X10899845Y-20165821D02*
X10890321Y-20184869D01*
X10890321Y-20184869D02*
X10880797Y-20194393D01*
X10880797Y-20194393D02*
X10861749Y-20203917D01*
X10861749Y-20203917D02*
X10823654Y-20203917D01*
X10823654Y-20203917D02*
X10804606Y-20194393D01*
X11014130Y-20203917D02*
X10995083Y-20194393D01*
X10995083Y-20194393D02*
X10985559Y-20175345D01*
X10985559Y-20175345D02*
X10985559Y-20003917D01*
X11176035Y-20203917D02*
X11176035Y-20099155D01*
X11176035Y-20099155D02*
X11166511Y-20080107D01*
X11166511Y-20080107D02*
X11147464Y-20070583D01*
X11147464Y-20070583D02*
X11109368Y-20070583D01*
X11109368Y-20070583D02*
X11090321Y-20080107D01*
X11176035Y-20194393D02*
X11156987Y-20203917D01*
X11156987Y-20203917D02*
X11109368Y-20203917D01*
X11109368Y-20203917D02*
X11090321Y-20194393D01*
X11090321Y-20194393D02*
X11080797Y-20175345D01*
X11080797Y-20175345D02*
X11080797Y-20156298D01*
X11080797Y-20156298D02*
X11090321Y-20137250D01*
X11090321Y-20137250D02*
X11109368Y-20127726D01*
X11109368Y-20127726D02*
X11156987Y-20127726D01*
X11156987Y-20127726D02*
X11176035Y-20118202D01*
X11242702Y-20070583D02*
X11318892Y-20070583D01*
X11271273Y-20003917D02*
X11271273Y-20175345D01*
X11271273Y-20175345D02*
X11280797Y-20194393D01*
X11280797Y-20194393D02*
X11299844Y-20203917D01*
X11299844Y-20203917D02*
X11318892Y-20203917D01*
X11461749Y-20194393D02*
X11442702Y-20203917D01*
X11442702Y-20203917D02*
X11404606Y-20203917D01*
X11404606Y-20203917D02*
X11385559Y-20194393D01*
X11385559Y-20194393D02*
X11376035Y-20175345D01*
X11376035Y-20175345D02*
X11376035Y-20099155D01*
X11376035Y-20099155D02*
X11385559Y-20080107D01*
X11385559Y-20080107D02*
X11404606Y-20070583D01*
X11404606Y-20070583D02*
X11442702Y-20070583D01*
X11442702Y-20070583D02*
X11461749Y-20080107D01*
X11461749Y-20080107D02*
X11471273Y-20099155D01*
X11471273Y-20099155D02*
X11471273Y-20118202D01*
X11471273Y-20118202D02*
X11376035Y-20137250D01*
X11642702Y-20203917D02*
X11642702Y-20003917D01*
X11642702Y-20194393D02*
X11623654Y-20203917D01*
X11623654Y-20203917D02*
X11585559Y-20203917D01*
X11585559Y-20203917D02*
X11566511Y-20194393D01*
X11566511Y-20194393D02*
X11556987Y-20184869D01*
X11556987Y-20184869D02*
X11547464Y-20165821D01*
X11547464Y-20165821D02*
X11547464Y-20108679D01*
X11547464Y-20108679D02*
X11556987Y-20089631D01*
X11556987Y-20089631D02*
X11566511Y-20080107D01*
X11566511Y-20080107D02*
X11585559Y-20070583D01*
X11585559Y-20070583D02*
X11623654Y-20070583D01*
X11623654Y-20070583D02*
X11642702Y-20080107D01*
X11718892Y-20280107D02*
X11728416Y-20270583D01*
X11728416Y-20270583D02*
X11747464Y-20242012D01*
X11747464Y-20242012D02*
X11756987Y-20222964D01*
X11756987Y-20222964D02*
X11766511Y-20194393D01*
X11766511Y-20194393D02*
X11776035Y-20146774D01*
X11776035Y-20146774D02*
X11776035Y-20108679D01*
X11776035Y-20108679D02*
X11766511Y-20061060D01*
X11766511Y-20061060D02*
X11756987Y-20032488D01*
X11756987Y-20032488D02*
X11747464Y-20013441D01*
X11747464Y-20013441D02*
X11728416Y-19984869D01*
X11728416Y-19984869D02*
X11718892Y-19975345D01*
X4481924Y-20332433D02*
X4481924Y-20532433D01*
X4381924Y-20432433D02*
X4581924Y-20432433D01*
X4928415Y-20390583D02*
X4928415Y-20523917D01*
X4880796Y-20314393D02*
X4833177Y-20457250D01*
X4833177Y-20457250D02*
X4956987Y-20457250D01*
X5033177Y-20504869D02*
X5042701Y-20514393D01*
X5042701Y-20514393D02*
X5033177Y-20523917D01*
X5033177Y-20523917D02*
X5023654Y-20514393D01*
X5023654Y-20514393D02*
X5033177Y-20504869D01*
X5033177Y-20504869D02*
X5033177Y-20523917D01*
X5166511Y-20323917D02*
X5185558Y-20323917D01*
X5185558Y-20323917D02*
X5204606Y-20333441D01*
X5204606Y-20333441D02*
X5214130Y-20342964D01*
X5214130Y-20342964D02*
X5223654Y-20362012D01*
X5223654Y-20362012D02*
X5233177Y-20400107D01*
X5233177Y-20400107D02*
X5233177Y-20447726D01*
X5233177Y-20447726D02*
X5223654Y-20485821D01*
X5223654Y-20485821D02*
X5214130Y-20504869D01*
X5214130Y-20504869D02*
X5204606Y-20514393D01*
X5204606Y-20514393D02*
X5185558Y-20523917D01*
X5185558Y-20523917D02*
X5166511Y-20523917D01*
X5166511Y-20523917D02*
X5147463Y-20514393D01*
X5147463Y-20514393D02*
X5137939Y-20504869D01*
X5137939Y-20504869D02*
X5128415Y-20485821D01*
X5128415Y-20485821D02*
X5118892Y-20447726D01*
X5118892Y-20447726D02*
X5118892Y-20400107D01*
X5118892Y-20400107D02*
X5128415Y-20362012D01*
X5128415Y-20362012D02*
X5137939Y-20342964D01*
X5137939Y-20342964D02*
X5147463Y-20333441D01*
X5147463Y-20333441D02*
X5166511Y-20323917D01*
X5356987Y-20323917D02*
X5376035Y-20323917D01*
X5376035Y-20323917D02*
X5395082Y-20333441D01*
X5395082Y-20333441D02*
X5404606Y-20342964D01*
X5404606Y-20342964D02*
X5414130Y-20362012D01*
X5414130Y-20362012D02*
X5423654Y-20400107D01*
X5423654Y-20400107D02*
X5423654Y-20447726D01*
X5423654Y-20447726D02*
X5414130Y-20485821D01*
X5414130Y-20485821D02*
X5404606Y-20504869D01*
X5404606Y-20504869D02*
X5395082Y-20514393D01*
X5395082Y-20514393D02*
X5376035Y-20523917D01*
X5376035Y-20523917D02*
X5356987Y-20523917D01*
X5356987Y-20523917D02*
X5337939Y-20514393D01*
X5337939Y-20514393D02*
X5328415Y-20504869D01*
X5328415Y-20504869D02*
X5318892Y-20485821D01*
X5318892Y-20485821D02*
X5309368Y-20447726D01*
X5309368Y-20447726D02*
X5309368Y-20400107D01*
X5309368Y-20400107D02*
X5318892Y-20362012D01*
X5318892Y-20362012D02*
X5328415Y-20342964D01*
X5328415Y-20342964D02*
X5337939Y-20333441D01*
X5337939Y-20333441D02*
X5356987Y-20323917D01*
X5547463Y-20323917D02*
X5566511Y-20323917D01*
X5566511Y-20323917D02*
X5585558Y-20333441D01*
X5585558Y-20333441D02*
X5595082Y-20342964D01*
X5595082Y-20342964D02*
X5604606Y-20362012D01*
X5604606Y-20362012D02*
X5614130Y-20400107D01*
X5614130Y-20400107D02*
X5614130Y-20447726D01*
X5614130Y-20447726D02*
X5604606Y-20485821D01*
X5604606Y-20485821D02*
X5595082Y-20504869D01*
X5595082Y-20504869D02*
X5585558Y-20514393D01*
X5585558Y-20514393D02*
X5566511Y-20523917D01*
X5566511Y-20523917D02*
X5547463Y-20523917D01*
X5547463Y-20523917D02*
X5528415Y-20514393D01*
X5528415Y-20514393D02*
X5518892Y-20504869D01*
X5518892Y-20504869D02*
X5509368Y-20485821D01*
X5509368Y-20485821D02*
X5499844Y-20447726D01*
X5499844Y-20447726D02*
X5499844Y-20400107D01*
X5499844Y-20400107D02*
X5509368Y-20362012D01*
X5509368Y-20362012D02*
X5518892Y-20342964D01*
X5518892Y-20342964D02*
X5528415Y-20333441D01*
X5528415Y-20333441D02*
X5547463Y-20323917D01*
X5699844Y-20523917D02*
X5699844Y-20390583D01*
X5699844Y-20409631D02*
X5709368Y-20400107D01*
X5709368Y-20400107D02*
X5728415Y-20390583D01*
X5728415Y-20390583D02*
X5756987Y-20390583D01*
X5756987Y-20390583D02*
X5776034Y-20400107D01*
X5776034Y-20400107D02*
X5785558Y-20419155D01*
X5785558Y-20419155D02*
X5785558Y-20523917D01*
X5785558Y-20419155D02*
X5795082Y-20400107D01*
X5795082Y-20400107D02*
X5814130Y-20390583D01*
X5814130Y-20390583D02*
X5842701Y-20390583D01*
X5842701Y-20390583D02*
X5861749Y-20400107D01*
X5861749Y-20400107D02*
X5871273Y-20419155D01*
X5871273Y-20419155D02*
X5871273Y-20523917D01*
X5966511Y-20523917D02*
X5966511Y-20390583D01*
X5966511Y-20409631D02*
X5976034Y-20400107D01*
X5976034Y-20400107D02*
X5995082Y-20390583D01*
X5995082Y-20390583D02*
X6023654Y-20390583D01*
X6023654Y-20390583D02*
X6042701Y-20400107D01*
X6042701Y-20400107D02*
X6052225Y-20419155D01*
X6052225Y-20419155D02*
X6052225Y-20523917D01*
X6052225Y-20419155D02*
X6061749Y-20400107D01*
X6061749Y-20400107D02*
X6080796Y-20390583D01*
X6080796Y-20390583D02*
X6109368Y-20390583D01*
X6109368Y-20390583D02*
X6128415Y-20400107D01*
X6128415Y-20400107D02*
X6137939Y-20419155D01*
X6137939Y-20419155D02*
X6137939Y-20523917D01*
X6528415Y-20314393D02*
X6356987Y-20571536D01*
X6785558Y-20323917D02*
X6804606Y-20323917D01*
X6804606Y-20323917D02*
X6823654Y-20333441D01*
X6823654Y-20333441D02*
X6833177Y-20342964D01*
X6833177Y-20342964D02*
X6842701Y-20362012D01*
X6842701Y-20362012D02*
X6852225Y-20400107D01*
X6852225Y-20400107D02*
X6852225Y-20447726D01*
X6852225Y-20447726D02*
X6842701Y-20485821D01*
X6842701Y-20485821D02*
X6833177Y-20504869D01*
X6833177Y-20504869D02*
X6823654Y-20514393D01*
X6823654Y-20514393D02*
X6804606Y-20523917D01*
X6804606Y-20523917D02*
X6785558Y-20523917D01*
X6785558Y-20523917D02*
X6766511Y-20514393D01*
X6766511Y-20514393D02*
X6756987Y-20504869D01*
X6756987Y-20504869D02*
X6747463Y-20485821D01*
X6747463Y-20485821D02*
X6737939Y-20447726D01*
X6737939Y-20447726D02*
X6737939Y-20400107D01*
X6737939Y-20400107D02*
X6747463Y-20362012D01*
X6747463Y-20362012D02*
X6756987Y-20342964D01*
X6756987Y-20342964D02*
X6766511Y-20333441D01*
X6766511Y-20333441D02*
X6785558Y-20323917D01*
X6937939Y-20504869D02*
X6947463Y-20514393D01*
X6947463Y-20514393D02*
X6937939Y-20523917D01*
X6937939Y-20523917D02*
X6928416Y-20514393D01*
X6928416Y-20514393D02*
X6937939Y-20504869D01*
X6937939Y-20504869D02*
X6937939Y-20523917D01*
X7137939Y-20523917D02*
X7023654Y-20523917D01*
X7080796Y-20523917D02*
X7080796Y-20323917D01*
X7080796Y-20323917D02*
X7061749Y-20352488D01*
X7061749Y-20352488D02*
X7042701Y-20371536D01*
X7042701Y-20371536D02*
X7023654Y-20381060D01*
X7318892Y-20323917D02*
X7223654Y-20323917D01*
X7223654Y-20323917D02*
X7214130Y-20419155D01*
X7214130Y-20419155D02*
X7223654Y-20409631D01*
X7223654Y-20409631D02*
X7242701Y-20400107D01*
X7242701Y-20400107D02*
X7290320Y-20400107D01*
X7290320Y-20400107D02*
X7309368Y-20409631D01*
X7309368Y-20409631D02*
X7318892Y-20419155D01*
X7318892Y-20419155D02*
X7328416Y-20438202D01*
X7328416Y-20438202D02*
X7328416Y-20485821D01*
X7328416Y-20485821D02*
X7318892Y-20504869D01*
X7318892Y-20504869D02*
X7309368Y-20514393D01*
X7309368Y-20514393D02*
X7290320Y-20523917D01*
X7290320Y-20523917D02*
X7242701Y-20523917D01*
X7242701Y-20523917D02*
X7223654Y-20514393D01*
X7223654Y-20514393D02*
X7214130Y-20504869D01*
X7395082Y-20323917D02*
X7528416Y-20323917D01*
X7528416Y-20323917D02*
X7442701Y-20523917D01*
X7699844Y-20323917D02*
X7604606Y-20323917D01*
X7604606Y-20323917D02*
X7595082Y-20419155D01*
X7595082Y-20419155D02*
X7604606Y-20409631D01*
X7604606Y-20409631D02*
X7623654Y-20400107D01*
X7623654Y-20400107D02*
X7671273Y-20400107D01*
X7671273Y-20400107D02*
X7690320Y-20409631D01*
X7690320Y-20409631D02*
X7699844Y-20419155D01*
X7699844Y-20419155D02*
X7709368Y-20438202D01*
X7709368Y-20438202D02*
X7709368Y-20485821D01*
X7709368Y-20485821D02*
X7699844Y-20504869D01*
X7699844Y-20504869D02*
X7690320Y-20514393D01*
X7690320Y-20514393D02*
X7671273Y-20523917D01*
X7671273Y-20523917D02*
X7623654Y-20523917D01*
X7623654Y-20523917D02*
X7604606Y-20514393D01*
X7604606Y-20514393D02*
X7595082Y-20504869D01*
X7785558Y-20323917D02*
X7785558Y-20362012D01*
X7861749Y-20323917D02*
X7861749Y-20362012D01*
X8156987Y-20600107D02*
X8147463Y-20590583D01*
X8147463Y-20590583D02*
X8128416Y-20562012D01*
X8128416Y-20562012D02*
X8118892Y-20542964D01*
X8118892Y-20542964D02*
X8109368Y-20514393D01*
X8109368Y-20514393D02*
X8099844Y-20466774D01*
X8099844Y-20466774D02*
X8099844Y-20428679D01*
X8099844Y-20428679D02*
X8109368Y-20381060D01*
X8109368Y-20381060D02*
X8118892Y-20352488D01*
X8118892Y-20352488D02*
X8128416Y-20333441D01*
X8128416Y-20333441D02*
X8147463Y-20304869D01*
X8147463Y-20304869D02*
X8156987Y-20295345D01*
X8214130Y-20323917D02*
X8347463Y-20323917D01*
X8347463Y-20323917D02*
X8261749Y-20523917D01*
X8461749Y-20323917D02*
X8480797Y-20323917D01*
X8480797Y-20323917D02*
X8499844Y-20333441D01*
X8499844Y-20333441D02*
X8509368Y-20342964D01*
X8509368Y-20342964D02*
X8518892Y-20362012D01*
X8518892Y-20362012D02*
X8528416Y-20400107D01*
X8528416Y-20400107D02*
X8528416Y-20447726D01*
X8528416Y-20447726D02*
X8518892Y-20485821D01*
X8518892Y-20485821D02*
X8509368Y-20504869D01*
X8509368Y-20504869D02*
X8499844Y-20514393D01*
X8499844Y-20514393D02*
X8480797Y-20523917D01*
X8480797Y-20523917D02*
X8461749Y-20523917D01*
X8461749Y-20523917D02*
X8442701Y-20514393D01*
X8442701Y-20514393D02*
X8433178Y-20504869D01*
X8433178Y-20504869D02*
X8423654Y-20485821D01*
X8423654Y-20485821D02*
X8414130Y-20447726D01*
X8414130Y-20447726D02*
X8414130Y-20400107D01*
X8414130Y-20400107D02*
X8423654Y-20362012D01*
X8423654Y-20362012D02*
X8433178Y-20342964D01*
X8433178Y-20342964D02*
X8442701Y-20333441D01*
X8442701Y-20333441D02*
X8461749Y-20323917D01*
X8766511Y-20523917D02*
X8766511Y-20323917D01*
X8852225Y-20523917D02*
X8852225Y-20419155D01*
X8852225Y-20419155D02*
X8842702Y-20400107D01*
X8842702Y-20400107D02*
X8823654Y-20390583D01*
X8823654Y-20390583D02*
X8795082Y-20390583D01*
X8795082Y-20390583D02*
X8776035Y-20400107D01*
X8776035Y-20400107D02*
X8766511Y-20409631D01*
X8976035Y-20523917D02*
X8956987Y-20514393D01*
X8956987Y-20514393D02*
X8947463Y-20504869D01*
X8947463Y-20504869D02*
X8937940Y-20485821D01*
X8937940Y-20485821D02*
X8937940Y-20428679D01*
X8937940Y-20428679D02*
X8947463Y-20409631D01*
X8947463Y-20409631D02*
X8956987Y-20400107D01*
X8956987Y-20400107D02*
X8976035Y-20390583D01*
X8976035Y-20390583D02*
X9004606Y-20390583D01*
X9004606Y-20390583D02*
X9023654Y-20400107D01*
X9023654Y-20400107D02*
X9033178Y-20409631D01*
X9033178Y-20409631D02*
X9042702Y-20428679D01*
X9042702Y-20428679D02*
X9042702Y-20485821D01*
X9042702Y-20485821D02*
X9033178Y-20504869D01*
X9033178Y-20504869D02*
X9023654Y-20514393D01*
X9023654Y-20514393D02*
X9004606Y-20523917D01*
X9004606Y-20523917D02*
X8976035Y-20523917D01*
X9156987Y-20523917D02*
X9137940Y-20514393D01*
X9137940Y-20514393D02*
X9128416Y-20495345D01*
X9128416Y-20495345D02*
X9128416Y-20323917D01*
X9309368Y-20514393D02*
X9290321Y-20523917D01*
X9290321Y-20523917D02*
X9252225Y-20523917D01*
X9252225Y-20523917D02*
X9233178Y-20514393D01*
X9233178Y-20514393D02*
X9223654Y-20495345D01*
X9223654Y-20495345D02*
X9223654Y-20419155D01*
X9223654Y-20419155D02*
X9233178Y-20400107D01*
X9233178Y-20400107D02*
X9252225Y-20390583D01*
X9252225Y-20390583D02*
X9290321Y-20390583D01*
X9290321Y-20390583D02*
X9309368Y-20400107D01*
X9309368Y-20400107D02*
X9318892Y-20419155D01*
X9318892Y-20419155D02*
X9318892Y-20438202D01*
X9318892Y-20438202D02*
X9223654Y-20457250D01*
X9395083Y-20514393D02*
X9414130Y-20523917D01*
X9414130Y-20523917D02*
X9452225Y-20523917D01*
X9452225Y-20523917D02*
X9471273Y-20514393D01*
X9471273Y-20514393D02*
X9480797Y-20495345D01*
X9480797Y-20495345D02*
X9480797Y-20485821D01*
X9480797Y-20485821D02*
X9471273Y-20466774D01*
X9471273Y-20466774D02*
X9452225Y-20457250D01*
X9452225Y-20457250D02*
X9423654Y-20457250D01*
X9423654Y-20457250D02*
X9404606Y-20447726D01*
X9404606Y-20447726D02*
X9395083Y-20428679D01*
X9395083Y-20428679D02*
X9395083Y-20419155D01*
X9395083Y-20419155D02*
X9404606Y-20400107D01*
X9404606Y-20400107D02*
X9423654Y-20390583D01*
X9423654Y-20390583D02*
X9452225Y-20390583D01*
X9452225Y-20390583D02*
X9471273Y-20400107D01*
X9547464Y-20600107D02*
X9556987Y-20590583D01*
X9556987Y-20590583D02*
X9576035Y-20562012D01*
X9576035Y-20562012D02*
X9585559Y-20542964D01*
X9585559Y-20542964D02*
X9595083Y-20514393D01*
X9595083Y-20514393D02*
X9604606Y-20466774D01*
X9604606Y-20466774D02*
X9604606Y-20428679D01*
X9604606Y-20428679D02*
X9595083Y-20381060D01*
X9595083Y-20381060D02*
X9585559Y-20352488D01*
X9585559Y-20352488D02*
X9576035Y-20333441D01*
X9576035Y-20333441D02*
X9556987Y-20304869D01*
X9556987Y-20304869D02*
X9547464Y-20295345D01*
X9909368Y-20600107D02*
X9899844Y-20590583D01*
X9899844Y-20590583D02*
X9880797Y-20562012D01*
X9880797Y-20562012D02*
X9871273Y-20542964D01*
X9871273Y-20542964D02*
X9861749Y-20514393D01*
X9861749Y-20514393D02*
X9852225Y-20466774D01*
X9852225Y-20466774D02*
X9852225Y-20428679D01*
X9852225Y-20428679D02*
X9861749Y-20381060D01*
X9861749Y-20381060D02*
X9871273Y-20352488D01*
X9871273Y-20352488D02*
X9880797Y-20333441D01*
X9880797Y-20333441D02*
X9899844Y-20304869D01*
X9899844Y-20304869D02*
X9909368Y-20295345D01*
X9985559Y-20390583D02*
X9985559Y-20523917D01*
X9985559Y-20409631D02*
X9995083Y-20400107D01*
X9995083Y-20400107D02*
X10014130Y-20390583D01*
X10014130Y-20390583D02*
X10042702Y-20390583D01*
X10042702Y-20390583D02*
X10061749Y-20400107D01*
X10061749Y-20400107D02*
X10071273Y-20419155D01*
X10071273Y-20419155D02*
X10071273Y-20523917D01*
X10195083Y-20523917D02*
X10176035Y-20514393D01*
X10176035Y-20514393D02*
X10166511Y-20504869D01*
X10166511Y-20504869D02*
X10156987Y-20485821D01*
X10156987Y-20485821D02*
X10156987Y-20428679D01*
X10156987Y-20428679D02*
X10166511Y-20409631D01*
X10166511Y-20409631D02*
X10176035Y-20400107D01*
X10176035Y-20400107D02*
X10195083Y-20390583D01*
X10195083Y-20390583D02*
X10223654Y-20390583D01*
X10223654Y-20390583D02*
X10242702Y-20400107D01*
X10242702Y-20400107D02*
X10252225Y-20409631D01*
X10252225Y-20409631D02*
X10261749Y-20428679D01*
X10261749Y-20428679D02*
X10261749Y-20485821D01*
X10261749Y-20485821D02*
X10252225Y-20504869D01*
X10252225Y-20504869D02*
X10242702Y-20514393D01*
X10242702Y-20514393D02*
X10223654Y-20523917D01*
X10223654Y-20523917D02*
X10195083Y-20523917D01*
X10318892Y-20390583D02*
X10395083Y-20390583D01*
X10347464Y-20323917D02*
X10347464Y-20495345D01*
X10347464Y-20495345D02*
X10356987Y-20514393D01*
X10356987Y-20514393D02*
X10376035Y-20523917D01*
X10376035Y-20523917D02*
X10395083Y-20523917D01*
X10614130Y-20390583D02*
X10614130Y-20590583D01*
X10614130Y-20400107D02*
X10633178Y-20390583D01*
X10633178Y-20390583D02*
X10671273Y-20390583D01*
X10671273Y-20390583D02*
X10690321Y-20400107D01*
X10690321Y-20400107D02*
X10699845Y-20409631D01*
X10699845Y-20409631D02*
X10709368Y-20428679D01*
X10709368Y-20428679D02*
X10709368Y-20485821D01*
X10709368Y-20485821D02*
X10699845Y-20504869D01*
X10699845Y-20504869D02*
X10690321Y-20514393D01*
X10690321Y-20514393D02*
X10671273Y-20523917D01*
X10671273Y-20523917D02*
X10633178Y-20523917D01*
X10633178Y-20523917D02*
X10614130Y-20514393D01*
X10823654Y-20523917D02*
X10804606Y-20514393D01*
X10804606Y-20514393D02*
X10795083Y-20495345D01*
X10795083Y-20495345D02*
X10795083Y-20323917D01*
X10985559Y-20523917D02*
X10985559Y-20419155D01*
X10985559Y-20419155D02*
X10976035Y-20400107D01*
X10976035Y-20400107D02*
X10956987Y-20390583D01*
X10956987Y-20390583D02*
X10918892Y-20390583D01*
X10918892Y-20390583D02*
X10899845Y-20400107D01*
X10985559Y-20514393D02*
X10966511Y-20523917D01*
X10966511Y-20523917D02*
X10918892Y-20523917D01*
X10918892Y-20523917D02*
X10899845Y-20514393D01*
X10899845Y-20514393D02*
X10890321Y-20495345D01*
X10890321Y-20495345D02*
X10890321Y-20476298D01*
X10890321Y-20476298D02*
X10899845Y-20457250D01*
X10899845Y-20457250D02*
X10918892Y-20447726D01*
X10918892Y-20447726D02*
X10966511Y-20447726D01*
X10966511Y-20447726D02*
X10985559Y-20438202D01*
X11052226Y-20390583D02*
X11128416Y-20390583D01*
X11080797Y-20323917D02*
X11080797Y-20495345D01*
X11080797Y-20495345D02*
X11090321Y-20514393D01*
X11090321Y-20514393D02*
X11109368Y-20523917D01*
X11109368Y-20523917D02*
X11128416Y-20523917D01*
X11271273Y-20514393D02*
X11252225Y-20523917D01*
X11252225Y-20523917D02*
X11214130Y-20523917D01*
X11214130Y-20523917D02*
X11195083Y-20514393D01*
X11195083Y-20514393D02*
X11185559Y-20495345D01*
X11185559Y-20495345D02*
X11185559Y-20419155D01*
X11185559Y-20419155D02*
X11195083Y-20400107D01*
X11195083Y-20400107D02*
X11214130Y-20390583D01*
X11214130Y-20390583D02*
X11252225Y-20390583D01*
X11252225Y-20390583D02*
X11271273Y-20400107D01*
X11271273Y-20400107D02*
X11280797Y-20419155D01*
X11280797Y-20419155D02*
X11280797Y-20438202D01*
X11280797Y-20438202D02*
X11185559Y-20457250D01*
X11452225Y-20523917D02*
X11452225Y-20323917D01*
X11452225Y-20514393D02*
X11433178Y-20523917D01*
X11433178Y-20523917D02*
X11395083Y-20523917D01*
X11395083Y-20523917D02*
X11376035Y-20514393D01*
X11376035Y-20514393D02*
X11366511Y-20504869D01*
X11366511Y-20504869D02*
X11356987Y-20485821D01*
X11356987Y-20485821D02*
X11356987Y-20428679D01*
X11356987Y-20428679D02*
X11366511Y-20409631D01*
X11366511Y-20409631D02*
X11376035Y-20400107D01*
X11376035Y-20400107D02*
X11395083Y-20390583D01*
X11395083Y-20390583D02*
X11433178Y-20390583D01*
X11433178Y-20390583D02*
X11452225Y-20400107D01*
X11528416Y-20600107D02*
X11537940Y-20590583D01*
X11537940Y-20590583D02*
X11556987Y-20562012D01*
X11556987Y-20562012D02*
X11566511Y-20542964D01*
X11566511Y-20542964D02*
X11576035Y-20514393D01*
X11576035Y-20514393D02*
X11585559Y-20466774D01*
X11585559Y-20466774D02*
X11585559Y-20428679D01*
X11585559Y-20428679D02*
X11576035Y-20381060D01*
X11576035Y-20381060D02*
X11566511Y-20352488D01*
X11566511Y-20352488D02*
X11556987Y-20333441D01*
X11556987Y-20333441D02*
X11537940Y-20304869D01*
X11537940Y-20304869D02*
X11528416Y-20295345D01*
M02*
