M48
; DRILL file {KiCad 8.0.3} date 2024-07-15T09:38:52-0400
; FORMAT={-:-/ absolute / inch / decimal}
; #@! TF.CreationDate,2024-07-15T09:38:52-04:00
; #@! TF.GenerationSoftware,Kicad,Pcbnew,8.0.3
; #@! TF.FileFunction,NonPlated,1,2,NPTH
FMAT,2
INCH
; #@! TA.AperFunction,NonPlated,NPTH,ComponentDrill
T1C0.0748
; #@! TA.AperFunction,NonPlated,NPTH,ComponentDrill
T2C0.1181
; #@! TA.AperFunction,NonPlated,NPTH,ComponentDrill
T3C0.1575
%
G90
G05
T1
X2.1051Y-5.405
X2.1369Y-4.6491
X2.2671Y-3.9105
X2.3974Y-3.1719
X2.4991Y-5.4745
X2.5276Y-2.4332
X2.5308Y-4.7185
X2.6611Y-3.9799
X2.7913Y-3.2413
X2.8437Y-5.5353
X2.9215Y-2.5027
X2.974Y-4.7967
X3.1042Y-4.0581
X3.2345Y-3.3195
X3.2377Y-5.6047
X3.3647Y-2.5808
X3.3679Y-4.8661
X3.4981Y-4.1275
X3.6127Y-5.4932
X3.6284Y-3.3889
X3.743Y-4.7546
X3.7586Y-2.6503
X3.8732Y-4.016
X4.0034Y-3.2773
X4.0067Y-5.5626
X4.1337Y-2.5387
X4.1369Y-4.824
X4.2671Y-4.0854
X4.3687Y-5.5249
X4.3974Y-3.3468
X4.4989Y-4.7863
X4.5276Y-2.6082
X4.6292Y-4.0477
X4.7594Y-3.3091
X4.7626Y-5.5944
X4.8897Y-2.5705
X4.8929Y-4.8558
X5.0231Y-4.1172
X5.1533Y-3.3786
X5.2202Y-5.015
X5.2836Y-2.64
X5.3301Y-5.8704
X5.3504Y-4.2764
X5.4807Y-3.5378
X5.6109Y-2.7992
X5.6141Y-5.0845
X5.6927Y-6.0394
X5.7443Y-4.3459
X5.8746Y-3.6073
X5.9458Y-5.2191
X6.0048Y-2.8687
X6.076Y-4.4805
X6.2062Y-3.7419
X6.246Y-6.5395
X6.3365Y-3.0033
X6.3397Y-5.2886
X6.4699Y-4.55
X6.5032Y-6.2331
X6.6002Y-3.8114
X6.7304Y-3.0728
X6.821Y-7.0217
X6.8324Y-5.5278
X7.0072Y-4.6701
X7.0767Y-4.2762
X7.0782Y-6.7153
X7.1389Y-5.7849
X7.1722Y-3.7345
X7.2417Y-3.3406
X7.4074Y-6.01
X7.7139Y-6.2671
X8.5683Y-6.2683
X8.8747Y-6.0112
X9.0405Y-3.3419
X9.11Y-3.7358
X9.1433Y-5.7861
X9.204Y-6.7165
X9.2055Y-4.2774
X9.2749Y-4.6713
X9.4497Y-5.529
X9.4611Y-7.0229
X9.5517Y-3.074
X9.682Y-3.8126
X9.779Y-6.2344
X9.8122Y-4.5512
X9.9425Y-5.2898
X9.9457Y-3.0045
X10.0361Y-6.5408
X10.0759Y-3.7432
X10.2061Y-4.4818
X10.2773Y-2.8699
X10.3364Y-5.2204
X10.4076Y-3.6085
X10.5378Y-4.3471
X10.5895Y-6.0406
X10.668Y-5.0857
X10.6713Y-2.8005
X10.8015Y-3.5391
X10.9317Y-4.2777
X10.952Y-5.8716
X10.9986Y-2.6412
X11.062Y-5.0163
X11.1288Y-3.3798
X11.259Y-4.1184
X11.3893Y-4.857
X11.3925Y-2.5717
X11.5195Y-5.5956
X11.5227Y-3.3103
X11.653Y-4.0489
X11.7545Y-2.6094
X11.7832Y-4.7876
X11.8848Y-3.348
X11.9134Y-5.5262
X12.015Y-4.0866
X12.1453Y-4.8253
X12.1485Y-2.54
X12.2755Y-5.5639
X12.2787Y-3.2786
X12.4089Y-4.0172
X12.5235Y-2.6515
X12.5392Y-4.7558
X12.6538Y-3.3901
X12.6694Y-5.4944
X12.784Y-4.1288
X12.9142Y-4.8674
X12.9175Y-2.5821
X13.0445Y-5.606
X13.0477Y-3.3207
X13.1779Y-4.0593
X13.3082Y-4.7979
X13.3606Y-2.5039
X13.4384Y-5.5365
X13.4909Y-3.2425
X13.6211Y-3.9812
X13.7513Y-4.7198
X13.7545Y-2.4345
X13.7831Y-5.4757
X13.8848Y-3.1731
X14.015Y-3.9117
X14.1453Y-4.6503
X14.177Y-5.4063
T2
X2.1687Y-5.6195
X2.2005Y-4.8636
X2.3307Y-4.125
X2.4323Y-5.5645
X2.461Y-3.3864
X2.4641Y-4.8085
X2.5912Y-2.6478
X2.5943Y-4.0699
X2.7245Y-3.3313
X2.8548Y-2.5927
X2.9073Y-5.7498
X3.0376Y-5.0112
X3.1678Y-4.2726
X3.1709Y-5.6947
X3.2981Y-3.534
X3.3011Y-4.9561
X3.4283Y-2.7954
X3.4314Y-4.2175
X3.5616Y-3.4789
X3.6763Y-5.7077
X3.6919Y-2.7403
X3.8066Y-4.9691
X3.9368Y-4.2305
X3.9399Y-5.6526
X4.067Y-3.4919
X4.0701Y-4.914
X4.1973Y-2.7532
X4.2004Y-4.1754
X4.3306Y-3.4368
X4.4323Y-5.7394
X4.4609Y-2.6982
X4.5625Y-5.0008
X4.6928Y-4.2622
X4.6959Y-5.6844
X4.823Y-3.5236
X4.8261Y-4.9458
X4.9533Y-2.785
X4.9563Y-4.2071
X5.0866Y-3.4685
X5.2168Y-2.7299
X5.2838Y-5.2295
X5.3361Y-6.094
X5.414Y-4.4909
X5.5443Y-3.7523
X5.5474Y-5.1745
X5.6049Y-6.109
X5.6745Y-3.0137
X5.6776Y-4.4359
X5.8078Y-3.6973
X5.9381Y-2.9587
X6.0094Y-5.4336
X6.1396Y-4.695
X6.2015Y-6.4367
X6.2698Y-3.9564
X6.2729Y-5.3786
X6.2856Y-6.1809
X6.4001Y-3.2178
X6.4032Y-4.64
X6.5334Y-3.9014
X6.6636Y-3.1627
X6.7765Y-6.9189
X6.7803Y-5.7454
X6.8606Y-6.6631
X6.8622Y-4.3398
X6.9173Y-4.6034
X7.0361Y-5.8294
X7.3316Y-3.4074
X7.3553Y-6.2275
X7.3867Y-3.6709
X7.6111Y-6.3116
X8.7735Y-6.3575
X8.8607Y-3.475
X8.9007Y-6.1202
X9.0026Y-3.7038
X9.3128Y-4.3094
X9.313Y-6.6905
X9.3485Y-5.8753
X9.4547Y-4.5382
X9.4757Y-5.638
X9.5503Y-6.8177
X9.6849Y-3.2538
X9.8151Y-3.9924
X9.888Y-6.2083
X9.9137Y-3.1119
X9.9454Y-4.731
X10.044Y-3.8505
X10.0756Y-5.4696
X10.1253Y-6.3356
X10.1742Y-4.5891
X10.3044Y-5.3277
X10.4105Y-3.0497
X10.5407Y-3.7883
X10.6393Y-2.9078
X10.6709Y-4.5269
X10.7646Y-6.1799
X10.7695Y-3.6464
X10.8012Y-5.2655
X10.8998Y-4.385
X10.9489Y-5.9836
X11.03Y-5.1236
X11.1317Y-2.821
X11.2619Y-3.5596
X11.3605Y-2.6791
X11.3922Y-4.2982
X11.4908Y-3.4177
X11.5224Y-5.0368
X11.621Y-4.1563
X11.6526Y-5.7754
X11.7512Y-4.8949
X11.8815Y-5.6335
X11.8877Y-2.7893
X12.0179Y-3.5279
X12.1165Y-2.6474
X12.1481Y-4.2665
X12.2467Y-3.386
X12.2784Y-5.0051
X12.377Y-4.1246
X12.4086Y-5.7437
X12.5072Y-4.8632
X12.6375Y-5.6018
X12.6567Y-2.8314
X12.7869Y-3.57
X12.8855Y-2.6895
X12.9171Y-4.3086
X13.0157Y-3.4281
X13.0474Y-5.0472
X13.146Y-4.1667
X13.1776Y-5.7858
X13.2762Y-4.9053
X13.4065Y-5.6439
X13.4938Y-2.6838
X13.624Y-3.4224
X13.7226Y-2.5419
X13.7542Y-4.161
X13.8528Y-3.2805
X13.8845Y-4.8996
X13.9162Y-5.6555
X13.9831Y-4.0191
X14.1133Y-4.7577
X14.1451Y-5.5137
T3
X2.3021Y-5.4398
X2.3339Y-4.6838
X2.4641Y-3.9452
X2.5943Y-3.2066
X2.7246Y-2.468
X3.0407Y-5.57
X3.1709Y-4.8314
X3.3012Y-4.0928
X3.4314Y-3.3542
X3.5616Y-2.6156
X3.8097Y-5.5279
X3.9399Y-4.7893
X4.0702Y-4.0507
X4.2004Y-3.3121
X4.3306Y-2.5735
X4.5657Y-5.5597
X4.6959Y-4.821
X4.8261Y-4.0824
X4.9564Y-3.3438
X5.0866Y-2.6052
X5.4171Y-5.0498
X5.5114Y-5.9549
X5.5474Y-4.3112
X5.6776Y-3.5726
X5.8079Y-2.8339
X6.1427Y-5.2539
X6.273Y-4.5153
X6.3746Y-6.3863
X6.4032Y-3.7766
X6.5334Y-3.038
X6.9496Y-6.8685
X6.9856Y-5.6563
X7.042Y-4.4731
X7.2069Y-3.5376
X7.5606Y-6.1385
X8.7215Y-6.1398
X9.0752Y-3.5388
X9.2402Y-4.4744
X9.2965Y-5.6576
X9.3325Y-6.8697
X9.7487Y-3.0393
X9.8789Y-3.7779
X9.9075Y-6.3876
X10.0092Y-4.5165
X10.1394Y-5.2551
X10.4743Y-2.8352
X10.6045Y-3.5738
X10.7348Y-4.3124
X10.7707Y-5.9561
X10.865Y-5.051
X11.1955Y-2.6065
X11.3258Y-3.3451
X11.456Y-4.0837
X11.5862Y-4.8223
X11.7165Y-5.5609
X11.9515Y-2.5747
X12.0817Y-3.3133
X12.212Y-4.0519
X12.3422Y-4.7905
X12.4724Y-5.5291
X12.7205Y-2.6168
X12.8507Y-3.3554
X12.981Y-4.094
X13.1112Y-4.8326
X13.2414Y-5.5712
X13.5576Y-2.4692
X13.6878Y-3.2078
X13.8181Y-3.9464
X13.9483Y-4.685
X13.98Y-5.441
M30
