G04 #@! TF.GenerationSoftware,KiCad,Pcbnew,8.0.3*
G04 #@! TF.CreationDate,2024-07-15T09:39:08-04:00*
G04 #@! TF.ProjectId,reJESK,72654a45-534b-42e6-9b69-6361645f7063,1.0*
G04 #@! TF.SameCoordinates,Original*
G04 #@! TF.FileFunction,Legend,Top*
G04 #@! TF.FilePolarity,Positive*
%FSLAX46Y46*%
G04 Gerber Fmt 4.6, Leading zero omitted, Abs format (unit mm)*
G04 Created by KiCad (PCBNEW 8.0.3) date 2024-07-15 09:39:08*
%MOMM*%
%LPD*%
G01*
G04 APERTURE LIST*
G04 Aperture macros list*
%AMHorizOval*
0 Thick line with rounded ends*
0 $1 width*
0 $2 $3 position (X,Y) of the first rounded end (center of the circle)*
0 $4 $5 position (X,Y) of the second rounded end (center of the circle)*
0 Add line between two ends*
20,1,$1,$2,$3,$4,$5,0*
0 Add two circle primitives to create the rounded ends*
1,1,$1,$2,$3*
1,1,$1,$4,$5*%
G04 Aperture macros list end*
%ADD10C,0.300000*%
%ADD11C,0.125000*%
%ADD12C,0.120000*%
%ADD13C,0.150000*%
%ADD14HorizOval,2.000000X0.246202X-0.043412X-0.246202X0.043412X0*%
%ADD15HorizOval,2.000000X0.246202X0.043412X-0.246202X-0.043412X0*%
%ADD16HorizOval,2.000000X0.226577X-0.105655X-0.226577X0.105655X0*%
%ADD17HorizOval,2.000000X-0.043412X-0.246202X0.043412X0.246202X0*%
%ADD18HorizOval,2.000000X0.191511X-0.160697X-0.191511X0.160697X0*%
%ADD19HorizOval,2.000000X-0.160697X-0.191511X0.160697X0.191511X0*%
%ADD20HorizOval,2.000000X0.043412X-0.246202X-0.043412X0.246202X0*%
%ADD21HorizOval,2.000000X0.226577X0.105655X-0.226577X-0.105655X0*%
%ADD22HorizOval,2.000000X-0.160697X0.191511X0.160697X-0.191511X0*%
%ADD23HorizOval,2.000000X0.191511X0.160697X-0.191511X-0.160697X0*%
%ADD24HorizOval,2.000000X-0.043412X0.246202X0.043412X-0.246202X0*%
%ADD25HorizOval,2.000000X0.043412X0.246202X-0.043412X-0.246202X0*%
G04 APERTURE END LIST*
D10*
X81557415Y-76982540D02*
X80572607Y-76808892D01*
X80853981Y-76858506D02*
X80725697Y-76763356D01*
X80725697Y-76763356D02*
X80667757Y-76680609D01*
X80667757Y-76680609D02*
X80622221Y-76527519D01*
X80622221Y-76527519D02*
X80647028Y-76386832D01*
X81747544Y-75492926D02*
X81793080Y-75646016D01*
X81793080Y-75646016D02*
X81743466Y-75927390D01*
X81743466Y-75927390D02*
X81648316Y-76055673D01*
X81648316Y-76055673D02*
X81495226Y-76101210D01*
X81495226Y-76101210D02*
X80932478Y-76001982D01*
X80932478Y-76001982D02*
X80804195Y-75906832D01*
X80804195Y-75906832D02*
X80758659Y-75753741D01*
X80758659Y-75753741D02*
X80808272Y-75472368D01*
X80808272Y-75472368D02*
X80903423Y-75344084D01*
X80903423Y-75344084D02*
X81056513Y-75298548D01*
X81056513Y-75298548D02*
X81197200Y-75323355D01*
X81197200Y-75323355D02*
X81213852Y-76051596D01*
X80932307Y-74768934D02*
X81979132Y-74590865D01*
X81979132Y-74590865D02*
X81056341Y-74065500D01*
X82475269Y-71777129D02*
X82326428Y-72621250D01*
X82400849Y-72199189D02*
X80923637Y-71938717D01*
X80923637Y-71938717D02*
X81109860Y-72116614D01*
X81109860Y-72116614D02*
X81225740Y-72282108D01*
X81225740Y-72282108D02*
X81271277Y-72435198D01*
X82446213Y-71119232D02*
X82528960Y-71061292D01*
X82528960Y-71061292D02*
X82586900Y-71144039D01*
X82586900Y-71144039D02*
X82504153Y-71201979D01*
X82504153Y-71201979D02*
X82446213Y-71119232D01*
X82446213Y-71119232D02*
X82586900Y-71144039D01*
X81283337Y-69898758D02*
X81308144Y-69758072D01*
X81308144Y-69758072D02*
X81403294Y-69629788D01*
X81403294Y-69629788D02*
X81486041Y-69571848D01*
X81486041Y-69571848D02*
X81639131Y-69526312D01*
X81639131Y-69526312D02*
X81932908Y-69505582D01*
X81932908Y-69505582D02*
X82284625Y-69567599D01*
X82284625Y-69567599D02*
X82553595Y-69687556D01*
X82553595Y-69687556D02*
X82681879Y-69782707D01*
X82681879Y-69782707D02*
X82739819Y-69865454D01*
X82739819Y-69865454D02*
X82785355Y-70018544D01*
X82785355Y-70018544D02*
X82760548Y-70159231D01*
X82760548Y-70159231D02*
X82665398Y-70287514D01*
X82665398Y-70287514D02*
X82582651Y-70345454D01*
X82582651Y-70345454D02*
X82429561Y-70390991D01*
X82429561Y-70390991D02*
X82135784Y-70411720D01*
X82135784Y-70411720D02*
X81784067Y-70349703D01*
X81784067Y-70349703D02*
X81515097Y-70229746D01*
X81515097Y-70229746D02*
X81386813Y-70134596D01*
X81386813Y-70134596D02*
X81328873Y-70051849D01*
X81328873Y-70051849D02*
X81283337Y-69898758D01*
X335402647Y-50868131D02*
X336340559Y-50702752D01*
X335609657Y-49985441D02*
X335981760Y-52095743D01*
X335981760Y-52095743D02*
X336140344Y-52309549D01*
X336140344Y-52309549D02*
X336395495Y-52385443D01*
X336395495Y-52385443D02*
X336629973Y-52344098D01*
X337450645Y-52199392D02*
X337161232Y-50558045D01*
X337243921Y-51027002D02*
X337319816Y-50771851D01*
X337319816Y-50771851D02*
X337416382Y-50633940D01*
X337416382Y-50633940D02*
X337630188Y-50475356D01*
X337630188Y-50475356D02*
X337864666Y-50434011D01*
X338974753Y-51930651D02*
X338685339Y-50289304D01*
X338540632Y-49468631D02*
X338444066Y-49606543D01*
X338444066Y-49606543D02*
X338581977Y-49703109D01*
X338581977Y-49703109D02*
X338678544Y-49565198D01*
X338678544Y-49565198D02*
X338540632Y-49468631D01*
X338540632Y-49468631D02*
X338581977Y-49703109D01*
X340498860Y-51661909D02*
X340243709Y-51586015D01*
X340243709Y-51586015D02*
X340085125Y-51372209D01*
X340085125Y-51372209D02*
X339713022Y-49261907D01*
X341436772Y-51496530D02*
X341147358Y-49855184D01*
X341002652Y-49034511D02*
X340906085Y-49172422D01*
X340906085Y-49172422D02*
X341043996Y-49268989D01*
X341043996Y-49268989D02*
X341140563Y-49131077D01*
X341140563Y-49131077D02*
X341002652Y-49034511D01*
X341002652Y-49034511D02*
X341043996Y-49268989D01*
X343374899Y-49462408D02*
X343664313Y-51103754D01*
X342319748Y-49648460D02*
X342547145Y-50938089D01*
X342547145Y-50938089D02*
X342705729Y-51151895D01*
X342705729Y-51151895D02*
X342960879Y-51227789D01*
X342960879Y-51227789D02*
X343312596Y-51165772D01*
X343312596Y-51165772D02*
X343526402Y-51007188D01*
X343526402Y-51007188D02*
X343622968Y-50869276D01*
X66207731Y-50306835D02*
X66497145Y-48665489D01*
X66414455Y-49134445D02*
X66573039Y-48920639D01*
X66573039Y-48920639D02*
X66710951Y-48824073D01*
X66710951Y-48824073D02*
X66966101Y-48748179D01*
X66966101Y-48748179D02*
X67200579Y-48789523D01*
X68690423Y-50623717D02*
X68435273Y-50699611D01*
X68435273Y-50699611D02*
X67966316Y-50616921D01*
X67966316Y-50616921D02*
X67752511Y-50458337D01*
X67752511Y-50458337D02*
X67676617Y-50203187D01*
X67676617Y-50203187D02*
X67841996Y-49265275D01*
X67841996Y-49265275D02*
X68000580Y-49051469D01*
X68000580Y-49051469D02*
X68255730Y-48975575D01*
X68255730Y-48975575D02*
X68724686Y-49058265D01*
X68724686Y-49058265D02*
X68938492Y-49216848D01*
X68938492Y-49216848D02*
X69014386Y-49471999D01*
X69014386Y-49471999D02*
X68973041Y-49706477D01*
X68973041Y-49706477D02*
X67759306Y-49734231D01*
X70979695Y-48609695D02*
X70669609Y-50368280D01*
X70669609Y-50368280D02*
X70490353Y-50699325D01*
X70490353Y-50699325D02*
X70214530Y-50892458D01*
X70214530Y-50892458D02*
X69842141Y-50947680D01*
X69842141Y-50947680D02*
X69607663Y-50906335D01*
X71945361Y-49988809D02*
X72766035Y-50133516D01*
X72890355Y-51485162D02*
X71717965Y-51278438D01*
X71717965Y-51278438D02*
X72152085Y-48816419D01*
X72152085Y-48816419D02*
X73324476Y-49023143D01*
X73848940Y-51533302D02*
X74179985Y-51712559D01*
X74179985Y-51712559D02*
X74766180Y-51815921D01*
X74766180Y-51815921D02*
X75021330Y-51740026D01*
X75021330Y-51740026D02*
X75159242Y-51643460D01*
X75159242Y-51643460D02*
X75317825Y-51429654D01*
X75317825Y-51429654D02*
X75359170Y-51195176D01*
X75359170Y-51195176D02*
X75283276Y-50940026D01*
X75283276Y-50940026D02*
X75186709Y-50802114D01*
X75186709Y-50802114D02*
X74972904Y-50643530D01*
X74972904Y-50643530D02*
X74524620Y-50443602D01*
X74524620Y-50443602D02*
X74310814Y-50285018D01*
X74310814Y-50285018D02*
X74214248Y-50147106D01*
X74214248Y-50147106D02*
X74138354Y-49891956D01*
X74138354Y-49891956D02*
X74179698Y-49657478D01*
X74179698Y-49657478D02*
X74338282Y-49443672D01*
X74338282Y-49443672D02*
X74476194Y-49347106D01*
X74476194Y-49347106D02*
X74731344Y-49271212D01*
X74731344Y-49271212D02*
X75317539Y-49374574D01*
X75317539Y-49374574D02*
X75648584Y-49553830D01*
X76290287Y-52084662D02*
X76724407Y-49622642D01*
X77697155Y-52332731D02*
X76890072Y-50739811D01*
X78131275Y-49870711D02*
X76476338Y-51029511D01*
D11*
X210936058Y-110475855D02*
X211063677Y-110475855D01*
X211063677Y-110475855D02*
X211127487Y-110437760D01*
X211127487Y-110437760D02*
X211159391Y-110399664D01*
X211159391Y-110399664D02*
X211223201Y-110285379D01*
X211223201Y-110285379D02*
X211255106Y-110132998D01*
X211255106Y-110132998D02*
X211255106Y-109828236D01*
X211255106Y-109828236D02*
X211223201Y-109752045D01*
X211223201Y-109752045D02*
X211191296Y-109713950D01*
X211191296Y-109713950D02*
X211127487Y-109675855D01*
X211127487Y-109675855D02*
X210999868Y-109675855D01*
X210999868Y-109675855D02*
X210936058Y-109713950D01*
X210936058Y-109713950D02*
X210904153Y-109752045D01*
X210904153Y-109752045D02*
X210872249Y-109828236D01*
X210872249Y-109828236D02*
X210872249Y-110018712D01*
X210872249Y-110018712D02*
X210904153Y-110094902D01*
X210904153Y-110094902D02*
X210936058Y-110132998D01*
X210936058Y-110132998D02*
X210999868Y-110171093D01*
X210999868Y-110171093D02*
X211127487Y-110171093D01*
X211127487Y-110171093D02*
X211191296Y-110132998D01*
X211191296Y-110132998D02*
X211223201Y-110094902D01*
X211223201Y-110094902D02*
X211255106Y-110018712D01*
X211542248Y-110171093D02*
X212052725Y-110171093D01*
X212371772Y-110475855D02*
X212371772Y-109942521D01*
X212371772Y-110094902D02*
X212403677Y-110018712D01*
X212403677Y-110018712D02*
X212435582Y-109980617D01*
X212435582Y-109980617D02*
X212499391Y-109942521D01*
X212499391Y-109942521D02*
X212563201Y-109942521D01*
X212818439Y-110475855D02*
X212946058Y-110475855D01*
X212946058Y-110475855D02*
X213009868Y-110437760D01*
X213009868Y-110437760D02*
X213041772Y-110399664D01*
X213041772Y-110399664D02*
X213105582Y-110285379D01*
X213105582Y-110285379D02*
X213137487Y-110132998D01*
X213137487Y-110132998D02*
X213137487Y-109828236D01*
X213137487Y-109828236D02*
X213105582Y-109752045D01*
X213105582Y-109752045D02*
X213073677Y-109713950D01*
X213073677Y-109713950D02*
X213009868Y-109675855D01*
X213009868Y-109675855D02*
X212882249Y-109675855D01*
X212882249Y-109675855D02*
X212818439Y-109713950D01*
X212818439Y-109713950D02*
X212786534Y-109752045D01*
X212786534Y-109752045D02*
X212754630Y-109828236D01*
X212754630Y-109828236D02*
X212754630Y-110018712D01*
X212754630Y-110018712D02*
X212786534Y-110094902D01*
X212786534Y-110094902D02*
X212818439Y-110132998D01*
X212818439Y-110132998D02*
X212882249Y-110171093D01*
X212882249Y-110171093D02*
X213009868Y-110171093D01*
X213009868Y-110171093D02*
X213073677Y-110132998D01*
X213073677Y-110132998D02*
X213105582Y-110094902D01*
X213105582Y-110094902D02*
X213137487Y-110018712D01*
X198891272Y-119793451D02*
X198891272Y-119410594D01*
X198891272Y-119602022D02*
X199691272Y-119602022D01*
X199691272Y-119602022D02*
X199576987Y-119538213D01*
X199576987Y-119538213D02*
X199500796Y-119474403D01*
X199500796Y-119474403D02*
X199462701Y-119410594D01*
X199691272Y-120016784D02*
X199691272Y-120431546D01*
X199691272Y-120431546D02*
X199386510Y-120208212D01*
X199386510Y-120208212D02*
X199386510Y-120303927D01*
X199386510Y-120303927D02*
X199348415Y-120367736D01*
X199348415Y-120367736D02*
X199310320Y-120399641D01*
X199310320Y-120399641D02*
X199234129Y-120431546D01*
X199234129Y-120431546D02*
X199043653Y-120431546D01*
X199043653Y-120431546D02*
X198967463Y-120399641D01*
X198967463Y-120399641D02*
X198929368Y-120367736D01*
X198929368Y-120367736D02*
X198891272Y-120303927D01*
X198891272Y-120303927D02*
X198891272Y-120112498D01*
X198891272Y-120112498D02*
X198929368Y-120048689D01*
X198929368Y-120048689D02*
X198967463Y-120016784D01*
X199196034Y-120718688D02*
X199196034Y-121229165D01*
X198891272Y-121548212D02*
X199424606Y-121548212D01*
X199272225Y-121548212D02*
X199348415Y-121580117D01*
X199348415Y-121580117D02*
X199386510Y-121612022D01*
X199386510Y-121612022D02*
X199424606Y-121675831D01*
X199424606Y-121675831D02*
X199424606Y-121739641D01*
X199691272Y-121899165D02*
X199691272Y-122345831D01*
X199691272Y-122345831D02*
X198891272Y-122058689D01*
X200787249Y-110475855D02*
X200404392Y-110475855D01*
X200595820Y-110475855D02*
X200595820Y-109675855D01*
X200595820Y-109675855D02*
X200532011Y-109790140D01*
X200532011Y-109790140D02*
X200468201Y-109866331D01*
X200468201Y-109866331D02*
X200404392Y-109904426D01*
X201361534Y-109675855D02*
X201233915Y-109675855D01*
X201233915Y-109675855D02*
X201170106Y-109713950D01*
X201170106Y-109713950D02*
X201138201Y-109752045D01*
X201138201Y-109752045D02*
X201074391Y-109866331D01*
X201074391Y-109866331D02*
X201042487Y-110018712D01*
X201042487Y-110018712D02*
X201042487Y-110323474D01*
X201042487Y-110323474D02*
X201074391Y-110399664D01*
X201074391Y-110399664D02*
X201106296Y-110437760D01*
X201106296Y-110437760D02*
X201170106Y-110475855D01*
X201170106Y-110475855D02*
X201297725Y-110475855D01*
X201297725Y-110475855D02*
X201361534Y-110437760D01*
X201361534Y-110437760D02*
X201393439Y-110399664D01*
X201393439Y-110399664D02*
X201425344Y-110323474D01*
X201425344Y-110323474D02*
X201425344Y-110132998D01*
X201425344Y-110132998D02*
X201393439Y-110056807D01*
X201393439Y-110056807D02*
X201361534Y-110018712D01*
X201361534Y-110018712D02*
X201297725Y-109980617D01*
X201297725Y-109980617D02*
X201170106Y-109980617D01*
X201170106Y-109980617D02*
X201106296Y-110018712D01*
X201106296Y-110018712D02*
X201074391Y-110056807D01*
X201074391Y-110056807D02*
X201042487Y-110132998D01*
X201712486Y-110171093D02*
X202222963Y-110171093D01*
X202829153Y-110437760D02*
X202765344Y-110475855D01*
X202765344Y-110475855D02*
X202637725Y-110475855D01*
X202637725Y-110475855D02*
X202573915Y-110437760D01*
X202573915Y-110437760D02*
X202542010Y-110399664D01*
X202542010Y-110399664D02*
X202510106Y-110323474D01*
X202510106Y-110323474D02*
X202510106Y-110094902D01*
X202510106Y-110094902D02*
X202542010Y-110018712D01*
X202542010Y-110018712D02*
X202573915Y-109980617D01*
X202573915Y-109980617D02*
X202637725Y-109942521D01*
X202637725Y-109942521D02*
X202765344Y-109942521D01*
X202765344Y-109942521D02*
X202829153Y-109980617D01*
X203467249Y-110475855D02*
X203084392Y-110475855D01*
X203275820Y-110475855D02*
X203275820Y-109675855D01*
X203275820Y-109675855D02*
X203212011Y-109790140D01*
X203212011Y-109790140D02*
X203148201Y-109866331D01*
X203148201Y-109866331D02*
X203084392Y-109904426D01*
X204041534Y-109942521D02*
X204041534Y-110475855D01*
X203882010Y-109637760D02*
X203722487Y-110209188D01*
X203722487Y-110209188D02*
X204137248Y-110209188D01*
X211143439Y-99425855D02*
X210824391Y-99425855D01*
X210824391Y-99425855D02*
X210792487Y-99806807D01*
X210792487Y-99806807D02*
X210824391Y-99768712D01*
X210824391Y-99768712D02*
X210888201Y-99730617D01*
X210888201Y-99730617D02*
X211047725Y-99730617D01*
X211047725Y-99730617D02*
X211111534Y-99768712D01*
X211111534Y-99768712D02*
X211143439Y-99806807D01*
X211143439Y-99806807D02*
X211175344Y-99882998D01*
X211175344Y-99882998D02*
X211175344Y-100073474D01*
X211175344Y-100073474D02*
X211143439Y-100149664D01*
X211143439Y-100149664D02*
X211111534Y-100187760D01*
X211111534Y-100187760D02*
X211047725Y-100225855D01*
X211047725Y-100225855D02*
X210888201Y-100225855D01*
X210888201Y-100225855D02*
X210824391Y-100187760D01*
X210824391Y-100187760D02*
X210792487Y-100149664D01*
X211462486Y-99921093D02*
X211972963Y-99921093D01*
X212579153Y-100187760D02*
X212515344Y-100225855D01*
X212515344Y-100225855D02*
X212387725Y-100225855D01*
X212387725Y-100225855D02*
X212323915Y-100187760D01*
X212323915Y-100187760D02*
X212292010Y-100149664D01*
X212292010Y-100149664D02*
X212260106Y-100073474D01*
X212260106Y-100073474D02*
X212260106Y-99844902D01*
X212260106Y-99844902D02*
X212292010Y-99768712D01*
X212292010Y-99768712D02*
X212323915Y-99730617D01*
X212323915Y-99730617D02*
X212387725Y-99692521D01*
X212387725Y-99692521D02*
X212515344Y-99692521D01*
X212515344Y-99692521D02*
X212579153Y-99730617D01*
X213153439Y-99425855D02*
X213025820Y-99425855D01*
X213025820Y-99425855D02*
X212962011Y-99463950D01*
X212962011Y-99463950D02*
X212930106Y-99502045D01*
X212930106Y-99502045D02*
X212866296Y-99616331D01*
X212866296Y-99616331D02*
X212834392Y-99768712D01*
X212834392Y-99768712D02*
X212834392Y-100073474D01*
X212834392Y-100073474D02*
X212866296Y-100149664D01*
X212866296Y-100149664D02*
X212898201Y-100187760D01*
X212898201Y-100187760D02*
X212962011Y-100225855D01*
X212962011Y-100225855D02*
X213089630Y-100225855D01*
X213089630Y-100225855D02*
X213153439Y-100187760D01*
X213153439Y-100187760D02*
X213185344Y-100149664D01*
X213185344Y-100149664D02*
X213217249Y-100073474D01*
X213217249Y-100073474D02*
X213217249Y-99882998D01*
X213217249Y-99882998D02*
X213185344Y-99806807D01*
X213185344Y-99806807D02*
X213153439Y-99768712D01*
X213153439Y-99768712D02*
X213089630Y-99730617D01*
X213089630Y-99730617D02*
X212962011Y-99730617D01*
X212962011Y-99730617D02*
X212898201Y-99768712D01*
X212898201Y-99768712D02*
X212866296Y-99806807D01*
X212866296Y-99806807D02*
X212834392Y-99882998D01*
X200724205Y-101657123D02*
X200453484Y-101927844D01*
X200588845Y-101792484D02*
X200023159Y-101226798D01*
X200023159Y-101226798D02*
X200058851Y-101352731D01*
X200058851Y-101352731D02*
X200067606Y-101451726D01*
X200067606Y-101451726D02*
X200049423Y-101523783D01*
X200949806Y-101431523D02*
X201040046Y-101341283D01*
X201040046Y-101341283D02*
X201058229Y-101269225D01*
X201058229Y-101269225D02*
X201053851Y-101219727D01*
X201053851Y-101219727D02*
X201018159Y-101093795D01*
X201018159Y-101093795D02*
X200932970Y-100963485D01*
X200932970Y-100963485D02*
X200717470Y-100747986D01*
X200717470Y-100747986D02*
X200641036Y-100716672D01*
X200641036Y-100716672D02*
X200591538Y-100712294D01*
X200591538Y-100712294D02*
X200519481Y-100730477D01*
X200519481Y-100730477D02*
X200429240Y-100820717D01*
X200429240Y-100820717D02*
X200411057Y-100892775D01*
X200411057Y-100892775D02*
X200415435Y-100942272D01*
X200415435Y-100942272D02*
X200446750Y-101018707D01*
X200446750Y-101018707D02*
X200581437Y-101153394D01*
X200581437Y-101153394D02*
X200657871Y-101184709D01*
X200657871Y-101184709D02*
X200707369Y-101189086D01*
X200707369Y-101189086D02*
X200779426Y-101170903D01*
X200779426Y-101170903D02*
X200869667Y-101080663D01*
X200869667Y-101080663D02*
X200887849Y-101008606D01*
X200887849Y-101008606D02*
X200883472Y-100959108D01*
X200883472Y-100959108D02*
X200852157Y-100882673D01*
X201162948Y-100787382D02*
X201523909Y-100426421D01*
X202141112Y-100186341D02*
X202122929Y-100258399D01*
X202122929Y-100258399D02*
X202032689Y-100348639D01*
X202032689Y-100348639D02*
X201960631Y-100366822D01*
X201960631Y-100366822D02*
X201911134Y-100362445D01*
X201911134Y-100362445D02*
X201834699Y-100331130D01*
X201834699Y-100331130D02*
X201673075Y-100169506D01*
X201673075Y-100169506D02*
X201641760Y-100093071D01*
X201641760Y-100093071D02*
X201637383Y-100043573D01*
X201637383Y-100043573D02*
X201655565Y-99971516D01*
X201655565Y-99971516D02*
X201745806Y-99881275D01*
X201745806Y-99881275D02*
X201817863Y-99863093D01*
X202619251Y-99762077D02*
X202348530Y-100032798D01*
X202483891Y-99897438D02*
X201918205Y-99331752D01*
X201918205Y-99331752D02*
X201953897Y-99457685D01*
X201953897Y-99457685D02*
X201962652Y-99556680D01*
X201962652Y-99556680D02*
X201944469Y-99628737D01*
X203070452Y-99310876D02*
X202799732Y-99581597D01*
X202935092Y-99446236D02*
X202369407Y-98880551D01*
X202369407Y-98880551D02*
X202405099Y-99006483D01*
X202405099Y-99006483D02*
X202413853Y-99105478D01*
X202413853Y-99105478D02*
X202395671Y-99177536D01*
X200612259Y-92191573D02*
X200540202Y-92209756D01*
X200540202Y-92209756D02*
X200472521Y-92277436D01*
X200472521Y-92277436D02*
X200431779Y-92372054D01*
X200431779Y-92372054D02*
X200440533Y-92471049D01*
X200440533Y-92471049D02*
X200471848Y-92547483D01*
X200471848Y-92547483D02*
X200557038Y-92677793D01*
X200557038Y-92677793D02*
X200637850Y-92758605D01*
X200637850Y-92758605D02*
X200768159Y-92843795D01*
X200768159Y-92843795D02*
X200844594Y-92875110D01*
X200844594Y-92875110D02*
X200943589Y-92883864D01*
X200943589Y-92883864D02*
X201038207Y-92843121D01*
X201038207Y-92843121D02*
X201083327Y-92798001D01*
X201083327Y-92798001D02*
X201124070Y-92703384D01*
X201124070Y-92703384D02*
X201119693Y-92653886D01*
X201119693Y-92653886D02*
X200931131Y-92465324D01*
X200931131Y-92465324D02*
X200840890Y-92555565D01*
X201376608Y-92504720D02*
X200810923Y-91939035D01*
X200810923Y-91939035D02*
X201647329Y-92233999D01*
X201647329Y-92233999D02*
X201081643Y-91668314D01*
X201872930Y-92008399D02*
X201307244Y-91442713D01*
X201307244Y-91442713D02*
X201420045Y-91329913D01*
X201420045Y-91329913D02*
X201514662Y-91289170D01*
X201514662Y-91289170D02*
X201613657Y-91297925D01*
X201613657Y-91297925D02*
X201690092Y-91329239D01*
X201690092Y-91329239D02*
X201820402Y-91414429D01*
X201820402Y-91414429D02*
X201901214Y-91495241D01*
X201901214Y-91495241D02*
X201986404Y-91625551D01*
X201986404Y-91625551D02*
X202017718Y-91701986D01*
X202017718Y-91701986D02*
X202026473Y-91800981D01*
X202026473Y-91800981D02*
X201985730Y-91895598D01*
X201985730Y-91895598D02*
X201872930Y-92008399D01*
X201252528Y-94878800D02*
X200825233Y-94767347D01*
X200981807Y-95149521D02*
X200416122Y-94583836D01*
X200416122Y-94583836D02*
X200596602Y-94403355D01*
X200596602Y-94403355D02*
X200668660Y-94385173D01*
X200668660Y-94385173D02*
X200718157Y-94389550D01*
X200718157Y-94389550D02*
X200794592Y-94420865D01*
X200794592Y-94420865D02*
X200875404Y-94501677D01*
X200875404Y-94501677D02*
X200906719Y-94578112D01*
X200906719Y-94578112D02*
X200911096Y-94627609D01*
X200911096Y-94627609D02*
X200892914Y-94699667D01*
X200892914Y-94699667D02*
X200712433Y-94880147D01*
X201406071Y-94671383D02*
X201500689Y-94630640D01*
X201500689Y-94630640D02*
X201613489Y-94517839D01*
X201613489Y-94517839D02*
X201631672Y-94445782D01*
X201631672Y-94445782D02*
X201627294Y-94396284D01*
X201627294Y-94396284D02*
X201595980Y-94319849D01*
X201595980Y-94319849D02*
X201542105Y-94265975D01*
X201542105Y-94265975D02*
X201465670Y-94234660D01*
X201465670Y-94234660D02*
X201416173Y-94230283D01*
X201416173Y-94230283D02*
X201344115Y-94248465D01*
X201344115Y-94248465D02*
X201226937Y-94311768D01*
X201226937Y-94311768D02*
X201154880Y-94329951D01*
X201154880Y-94329951D02*
X201105382Y-94325574D01*
X201105382Y-94325574D02*
X201028947Y-94294259D01*
X201028947Y-94294259D02*
X200975073Y-94240384D01*
X200975073Y-94240384D02*
X200943758Y-94163949D01*
X200943758Y-94163949D02*
X200939381Y-94114452D01*
X200939381Y-94114452D02*
X200957563Y-94042394D01*
X200957563Y-94042394D02*
X201070364Y-93929594D01*
X201070364Y-93929594D02*
X201164981Y-93888851D01*
X201273404Y-93726553D02*
X201544125Y-93455832D01*
X201974450Y-94156878D02*
X201408765Y-93591193D01*
X210792487Y-92002045D02*
X210824391Y-91963950D01*
X210824391Y-91963950D02*
X210888201Y-91925855D01*
X210888201Y-91925855D02*
X211047725Y-91925855D01*
X211047725Y-91925855D02*
X211111534Y-91963950D01*
X211111534Y-91963950D02*
X211143439Y-92002045D01*
X211143439Y-92002045D02*
X211175344Y-92078236D01*
X211175344Y-92078236D02*
X211175344Y-92154426D01*
X211175344Y-92154426D02*
X211143439Y-92268712D01*
X211143439Y-92268712D02*
X210760582Y-92725855D01*
X210760582Y-92725855D02*
X211175344Y-92725855D01*
X211462486Y-92421093D02*
X211972963Y-92421093D01*
X212579153Y-92687760D02*
X212515344Y-92725855D01*
X212515344Y-92725855D02*
X212387725Y-92725855D01*
X212387725Y-92725855D02*
X212323915Y-92687760D01*
X212323915Y-92687760D02*
X212292010Y-92649664D01*
X212292010Y-92649664D02*
X212260106Y-92573474D01*
X212260106Y-92573474D02*
X212260106Y-92344902D01*
X212260106Y-92344902D02*
X212292010Y-92268712D01*
X212292010Y-92268712D02*
X212323915Y-92230617D01*
X212323915Y-92230617D02*
X212387725Y-92192521D01*
X212387725Y-92192521D02*
X212515344Y-92192521D01*
X212515344Y-92192521D02*
X212579153Y-92230617D01*
X213185344Y-91925855D02*
X212866296Y-91925855D01*
X212866296Y-91925855D02*
X212834392Y-92306807D01*
X212834392Y-92306807D02*
X212866296Y-92268712D01*
X212866296Y-92268712D02*
X212930106Y-92230617D01*
X212930106Y-92230617D02*
X213089630Y-92230617D01*
X213089630Y-92230617D02*
X213153439Y-92268712D01*
X213153439Y-92268712D02*
X213185344Y-92306807D01*
X213185344Y-92306807D02*
X213217249Y-92382998D01*
X213217249Y-92382998D02*
X213217249Y-92573474D01*
X213217249Y-92573474D02*
X213185344Y-92649664D01*
X213185344Y-92649664D02*
X213153439Y-92687760D01*
X213153439Y-92687760D02*
X213089630Y-92725855D01*
X213089630Y-92725855D02*
X212930106Y-92725855D01*
X212930106Y-92725855D02*
X212866296Y-92687760D01*
X212866296Y-92687760D02*
X212834392Y-92649664D01*
X200867011Y-115475855D02*
X200484154Y-115475855D01*
X200675582Y-115475855D02*
X200675582Y-114675855D01*
X200675582Y-114675855D02*
X200611773Y-114790140D01*
X200611773Y-114790140D02*
X200547963Y-114866331D01*
X200547963Y-114866331D02*
X200484154Y-114904426D01*
X201441296Y-114942521D02*
X201441296Y-115475855D01*
X201281772Y-114637760D02*
X201122249Y-115209188D01*
X201122249Y-115209188D02*
X201537010Y-115209188D01*
X201792248Y-115171093D02*
X202302725Y-115171093D01*
X202621772Y-115475855D02*
X202621772Y-114942521D01*
X202621772Y-115094902D02*
X202653677Y-115018712D01*
X202653677Y-115018712D02*
X202685582Y-114980617D01*
X202685582Y-114980617D02*
X202749391Y-114942521D01*
X202749391Y-114942521D02*
X202813201Y-114942521D01*
X203387487Y-115475855D02*
X203004630Y-115475855D01*
X203196058Y-115475855D02*
X203196058Y-114675855D01*
X203196058Y-114675855D02*
X203132249Y-114790140D01*
X203132249Y-114790140D02*
X203068439Y-114866331D01*
X203068439Y-114866331D02*
X203004630Y-114904426D01*
X204025582Y-115475855D02*
X203642725Y-115475855D01*
X203834153Y-115475855D02*
X203834153Y-114675855D01*
X203834153Y-114675855D02*
X203770344Y-114790140D01*
X203770344Y-114790140D02*
X203706534Y-114866331D01*
X203706534Y-114866331D02*
X203642725Y-114904426D01*
X211441296Y-101925855D02*
X211313677Y-101925855D01*
X211313677Y-101925855D02*
X211249868Y-101963950D01*
X211249868Y-101963950D02*
X211217963Y-102002045D01*
X211217963Y-102002045D02*
X211154153Y-102116331D01*
X211154153Y-102116331D02*
X211122249Y-102268712D01*
X211122249Y-102268712D02*
X211122249Y-102573474D01*
X211122249Y-102573474D02*
X211154153Y-102649664D01*
X211154153Y-102649664D02*
X211186058Y-102687760D01*
X211186058Y-102687760D02*
X211249868Y-102725855D01*
X211249868Y-102725855D02*
X211377487Y-102725855D01*
X211377487Y-102725855D02*
X211441296Y-102687760D01*
X211441296Y-102687760D02*
X211473201Y-102649664D01*
X211473201Y-102649664D02*
X211505106Y-102573474D01*
X211505106Y-102573474D02*
X211505106Y-102382998D01*
X211505106Y-102382998D02*
X211473201Y-102306807D01*
X211473201Y-102306807D02*
X211441296Y-102268712D01*
X211441296Y-102268712D02*
X211377487Y-102230617D01*
X211377487Y-102230617D02*
X211249868Y-102230617D01*
X211249868Y-102230617D02*
X211186058Y-102268712D01*
X211186058Y-102268712D02*
X211154153Y-102306807D01*
X211154153Y-102306807D02*
X211122249Y-102382998D01*
X211792248Y-102421093D02*
X212302725Y-102421093D01*
X212621772Y-102725855D02*
X212621772Y-102192521D01*
X212621772Y-102344902D02*
X212653677Y-102268712D01*
X212653677Y-102268712D02*
X212685582Y-102230617D01*
X212685582Y-102230617D02*
X212749391Y-102192521D01*
X212749391Y-102192521D02*
X212813201Y-102192521D01*
X213387487Y-102725855D02*
X213004630Y-102725855D01*
X213196058Y-102725855D02*
X213196058Y-101925855D01*
X213196058Y-101925855D02*
X213132249Y-102040140D01*
X213132249Y-102040140D02*
X213068439Y-102116331D01*
X213068439Y-102116331D02*
X213004630Y-102154426D01*
X201184847Y-89946481D02*
X200757553Y-89835028D01*
X200914126Y-90217202D02*
X200348441Y-89651517D01*
X200348441Y-89651517D02*
X200528921Y-89471036D01*
X200528921Y-89471036D02*
X200600979Y-89452853D01*
X200600979Y-89452853D02*
X200650476Y-89457231D01*
X200650476Y-89457231D02*
X200726911Y-89488545D01*
X200726911Y-89488545D02*
X200807723Y-89569358D01*
X200807723Y-89569358D02*
X200839038Y-89645792D01*
X200839038Y-89645792D02*
X200843416Y-89695290D01*
X200843416Y-89695290D02*
X200825233Y-89767348D01*
X200825233Y-89767348D02*
X200644752Y-89947828D01*
X201203703Y-89604376D02*
X201429304Y-89378775D01*
X201320208Y-89811121D02*
X200912443Y-89087515D01*
X200912443Y-89087515D02*
X201636049Y-89495280D01*
X201183164Y-88816794D02*
X201861649Y-89269679D01*
X201861649Y-89269679D02*
X201547829Y-88775378D01*
X201547829Y-88775378D02*
X202042130Y-89089198D01*
X202042130Y-89089198D02*
X201589245Y-88410712D01*
X211175344Y-89975855D02*
X210792487Y-89975855D01*
X210983915Y-89975855D02*
X210983915Y-89175855D01*
X210983915Y-89175855D02*
X210920106Y-89290140D01*
X210920106Y-89290140D02*
X210856296Y-89366331D01*
X210856296Y-89366331D02*
X210792487Y-89404426D01*
X211462486Y-89671093D02*
X211972963Y-89671093D01*
X212579153Y-89937760D02*
X212515344Y-89975855D01*
X212515344Y-89975855D02*
X212387725Y-89975855D01*
X212387725Y-89975855D02*
X212323915Y-89937760D01*
X212323915Y-89937760D02*
X212292010Y-89899664D01*
X212292010Y-89899664D02*
X212260106Y-89823474D01*
X212260106Y-89823474D02*
X212260106Y-89594902D01*
X212260106Y-89594902D02*
X212292010Y-89518712D01*
X212292010Y-89518712D02*
X212323915Y-89480617D01*
X212323915Y-89480617D02*
X212387725Y-89442521D01*
X212387725Y-89442521D02*
X212515344Y-89442521D01*
X212515344Y-89442521D02*
X212579153Y-89480617D01*
X213153439Y-89442521D02*
X213153439Y-89975855D01*
X212993915Y-89137760D02*
X212834392Y-89709188D01*
X212834392Y-89709188D02*
X213249153Y-89709188D01*
X200936059Y-112975855D02*
X200553202Y-112975855D01*
X200744630Y-112975855D02*
X200744630Y-112175855D01*
X200744630Y-112175855D02*
X200680821Y-112290140D01*
X200680821Y-112290140D02*
X200617011Y-112366331D01*
X200617011Y-112366331D02*
X200553202Y-112404426D01*
X201542249Y-112175855D02*
X201223201Y-112175855D01*
X201223201Y-112175855D02*
X201191297Y-112556807D01*
X201191297Y-112556807D02*
X201223201Y-112518712D01*
X201223201Y-112518712D02*
X201287011Y-112480617D01*
X201287011Y-112480617D02*
X201446535Y-112480617D01*
X201446535Y-112480617D02*
X201510344Y-112518712D01*
X201510344Y-112518712D02*
X201542249Y-112556807D01*
X201542249Y-112556807D02*
X201574154Y-112632998D01*
X201574154Y-112632998D02*
X201574154Y-112823474D01*
X201574154Y-112823474D02*
X201542249Y-112899664D01*
X201542249Y-112899664D02*
X201510344Y-112937760D01*
X201510344Y-112937760D02*
X201446535Y-112975855D01*
X201446535Y-112975855D02*
X201287011Y-112975855D01*
X201287011Y-112975855D02*
X201223201Y-112937760D01*
X201223201Y-112937760D02*
X201191297Y-112899664D01*
X201861296Y-112671093D02*
X202371773Y-112671093D01*
X202690820Y-112975855D02*
X202690820Y-112442521D01*
X202690820Y-112594902D02*
X202722725Y-112518712D01*
X202722725Y-112518712D02*
X202754630Y-112480617D01*
X202754630Y-112480617D02*
X202818439Y-112442521D01*
X202818439Y-112442521D02*
X202882249Y-112442521D01*
X203073678Y-112252045D02*
X203105582Y-112213950D01*
X203105582Y-112213950D02*
X203169392Y-112175855D01*
X203169392Y-112175855D02*
X203328916Y-112175855D01*
X203328916Y-112175855D02*
X203392725Y-112213950D01*
X203392725Y-112213950D02*
X203424630Y-112252045D01*
X203424630Y-112252045D02*
X203456535Y-112328236D01*
X203456535Y-112328236D02*
X203456535Y-112404426D01*
X203456535Y-112404426D02*
X203424630Y-112518712D01*
X203424630Y-112518712D02*
X203041773Y-112975855D01*
X203041773Y-112975855D02*
X203456535Y-112975855D01*
X210840344Y-104675855D02*
X211287010Y-104675855D01*
X211287010Y-104675855D02*
X210999868Y-105475855D01*
X211542248Y-105171093D02*
X212052725Y-105171093D01*
X212371772Y-105475855D02*
X212371772Y-104942521D01*
X212371772Y-105094902D02*
X212403677Y-105018712D01*
X212403677Y-105018712D02*
X212435582Y-104980617D01*
X212435582Y-104980617D02*
X212499391Y-104942521D01*
X212499391Y-104942521D02*
X212563201Y-104942521D01*
X212722725Y-104675855D02*
X213137487Y-104675855D01*
X213137487Y-104675855D02*
X212914153Y-104980617D01*
X212914153Y-104980617D02*
X213009868Y-104980617D01*
X213009868Y-104980617D02*
X213073677Y-105018712D01*
X213073677Y-105018712D02*
X213105582Y-105056807D01*
X213105582Y-105056807D02*
X213137487Y-105132998D01*
X213137487Y-105132998D02*
X213137487Y-105323474D01*
X213137487Y-105323474D02*
X213105582Y-105399664D01*
X213105582Y-105399664D02*
X213073677Y-105437760D01*
X213073677Y-105437760D02*
X213009868Y-105475855D01*
X213009868Y-105475855D02*
X212818439Y-105475855D01*
X212818439Y-105475855D02*
X212754630Y-105437760D01*
X212754630Y-105437760D02*
X212722725Y-105399664D01*
X200314601Y-96685357D02*
X201038207Y-97093122D01*
X201038207Y-97093122D02*
X200630442Y-96369516D01*
X201570894Y-96452685D02*
X201575271Y-96502182D01*
X201575271Y-96502182D02*
X201534528Y-96596800D01*
X201534528Y-96596800D02*
X201489408Y-96641920D01*
X201489408Y-96641920D02*
X201394791Y-96682663D01*
X201394791Y-96682663D02*
X201295796Y-96673908D01*
X201295796Y-96673908D02*
X201219361Y-96642594D01*
X201219361Y-96642594D02*
X201089051Y-96557404D01*
X201089051Y-96557404D02*
X201008239Y-96476592D01*
X201008239Y-96476592D02*
X200923049Y-96346282D01*
X200923049Y-96346282D02*
X200891735Y-96269847D01*
X200891735Y-96269847D02*
X200882980Y-96170852D01*
X200882980Y-96170852D02*
X200923723Y-96076235D01*
X200923723Y-96076235D02*
X200968843Y-96031115D01*
X200968843Y-96031115D02*
X201063461Y-95990372D01*
X201063461Y-95990372D02*
X201112958Y-95994749D01*
X202044655Y-95978923D02*
X202049033Y-96028421D01*
X202049033Y-96028421D02*
X202008290Y-96123038D01*
X202008290Y-96123038D02*
X201963170Y-96168159D01*
X201963170Y-96168159D02*
X201868552Y-96208901D01*
X201868552Y-96208901D02*
X201769557Y-96200147D01*
X201769557Y-96200147D02*
X201693122Y-96168832D01*
X201693122Y-96168832D02*
X201562813Y-96083642D01*
X201562813Y-96083642D02*
X201482000Y-96002830D01*
X201482000Y-96002830D02*
X201396811Y-95872521D01*
X201396811Y-95872521D02*
X201365496Y-95796086D01*
X201365496Y-95796086D02*
X201356741Y-95697091D01*
X201356741Y-95697091D02*
X201397484Y-95602473D01*
X201397484Y-95602473D02*
X201442604Y-95557353D01*
X201442604Y-95557353D02*
X201537222Y-95516610D01*
X201537222Y-95516610D02*
X201586720Y-95520988D01*
X200787249Y-107975855D02*
X200404392Y-107975855D01*
X200595820Y-107975855D02*
X200595820Y-107175855D01*
X200595820Y-107175855D02*
X200532011Y-107290140D01*
X200532011Y-107290140D02*
X200468201Y-107366331D01*
X200468201Y-107366331D02*
X200404392Y-107404426D01*
X201010582Y-107175855D02*
X201457248Y-107175855D01*
X201457248Y-107175855D02*
X201170106Y-107975855D01*
X201712486Y-107671093D02*
X202222963Y-107671093D01*
X202829153Y-107937760D02*
X202765344Y-107975855D01*
X202765344Y-107975855D02*
X202637725Y-107975855D01*
X202637725Y-107975855D02*
X202573915Y-107937760D01*
X202573915Y-107937760D02*
X202542010Y-107899664D01*
X202542010Y-107899664D02*
X202510106Y-107823474D01*
X202510106Y-107823474D02*
X202510106Y-107594902D01*
X202510106Y-107594902D02*
X202542010Y-107518712D01*
X202542010Y-107518712D02*
X202573915Y-107480617D01*
X202573915Y-107480617D02*
X202637725Y-107442521D01*
X202637725Y-107442521D02*
X202765344Y-107442521D01*
X202765344Y-107442521D02*
X202829153Y-107480617D01*
X203467249Y-107975855D02*
X203084392Y-107975855D01*
X203275820Y-107975855D02*
X203275820Y-107175855D01*
X203275820Y-107175855D02*
X203212011Y-107290140D01*
X203212011Y-107290140D02*
X203148201Y-107366331D01*
X203148201Y-107366331D02*
X203084392Y-107404426D01*
X203690582Y-107175855D02*
X204105344Y-107175855D01*
X204105344Y-107175855D02*
X203882010Y-107480617D01*
X203882010Y-107480617D02*
X203977725Y-107480617D01*
X203977725Y-107480617D02*
X204041534Y-107518712D01*
X204041534Y-107518712D02*
X204073439Y-107556807D01*
X204073439Y-107556807D02*
X204105344Y-107632998D01*
X204105344Y-107632998D02*
X204105344Y-107823474D01*
X204105344Y-107823474D02*
X204073439Y-107899664D01*
X204073439Y-107899664D02*
X204041534Y-107937760D01*
X204041534Y-107937760D02*
X203977725Y-107975855D01*
X203977725Y-107975855D02*
X203786296Y-107975855D01*
X203786296Y-107975855D02*
X203722487Y-107937760D01*
X203722487Y-107937760D02*
X203690582Y-107899664D01*
X200787249Y-105975855D02*
X200404392Y-105975855D01*
X200595820Y-105975855D02*
X200595820Y-105175855D01*
X200595820Y-105175855D02*
X200532011Y-105290140D01*
X200532011Y-105290140D02*
X200468201Y-105366331D01*
X200468201Y-105366331D02*
X200404392Y-105404426D01*
X201170106Y-105518712D02*
X201106296Y-105480617D01*
X201106296Y-105480617D02*
X201074391Y-105442521D01*
X201074391Y-105442521D02*
X201042487Y-105366331D01*
X201042487Y-105366331D02*
X201042487Y-105328236D01*
X201042487Y-105328236D02*
X201074391Y-105252045D01*
X201074391Y-105252045D02*
X201106296Y-105213950D01*
X201106296Y-105213950D02*
X201170106Y-105175855D01*
X201170106Y-105175855D02*
X201297725Y-105175855D01*
X201297725Y-105175855D02*
X201361534Y-105213950D01*
X201361534Y-105213950D02*
X201393439Y-105252045D01*
X201393439Y-105252045D02*
X201425344Y-105328236D01*
X201425344Y-105328236D02*
X201425344Y-105366331D01*
X201425344Y-105366331D02*
X201393439Y-105442521D01*
X201393439Y-105442521D02*
X201361534Y-105480617D01*
X201361534Y-105480617D02*
X201297725Y-105518712D01*
X201297725Y-105518712D02*
X201170106Y-105518712D01*
X201170106Y-105518712D02*
X201106296Y-105556807D01*
X201106296Y-105556807D02*
X201074391Y-105594902D01*
X201074391Y-105594902D02*
X201042487Y-105671093D01*
X201042487Y-105671093D02*
X201042487Y-105823474D01*
X201042487Y-105823474D02*
X201074391Y-105899664D01*
X201074391Y-105899664D02*
X201106296Y-105937760D01*
X201106296Y-105937760D02*
X201170106Y-105975855D01*
X201170106Y-105975855D02*
X201297725Y-105975855D01*
X201297725Y-105975855D02*
X201361534Y-105937760D01*
X201361534Y-105937760D02*
X201393439Y-105899664D01*
X201393439Y-105899664D02*
X201425344Y-105823474D01*
X201425344Y-105823474D02*
X201425344Y-105671093D01*
X201425344Y-105671093D02*
X201393439Y-105594902D01*
X201393439Y-105594902D02*
X201361534Y-105556807D01*
X201361534Y-105556807D02*
X201297725Y-105518712D01*
X201712486Y-105671093D02*
X202222963Y-105671093D01*
X202829153Y-105937760D02*
X202765344Y-105975855D01*
X202765344Y-105975855D02*
X202637725Y-105975855D01*
X202637725Y-105975855D02*
X202573915Y-105937760D01*
X202573915Y-105937760D02*
X202542010Y-105899664D01*
X202542010Y-105899664D02*
X202510106Y-105823474D01*
X202510106Y-105823474D02*
X202510106Y-105594902D01*
X202510106Y-105594902D02*
X202542010Y-105518712D01*
X202542010Y-105518712D02*
X202573915Y-105480617D01*
X202573915Y-105480617D02*
X202637725Y-105442521D01*
X202637725Y-105442521D02*
X202765344Y-105442521D01*
X202765344Y-105442521D02*
X202829153Y-105480617D01*
X203467249Y-105975855D02*
X203084392Y-105975855D01*
X203275820Y-105975855D02*
X203275820Y-105175855D01*
X203275820Y-105175855D02*
X203212011Y-105290140D01*
X203212011Y-105290140D02*
X203148201Y-105366331D01*
X203148201Y-105366331D02*
X203084392Y-105404426D01*
X203722487Y-105252045D02*
X203754391Y-105213950D01*
X203754391Y-105213950D02*
X203818201Y-105175855D01*
X203818201Y-105175855D02*
X203977725Y-105175855D01*
X203977725Y-105175855D02*
X204041534Y-105213950D01*
X204041534Y-105213950D02*
X204073439Y-105252045D01*
X204073439Y-105252045D02*
X204105344Y-105328236D01*
X204105344Y-105328236D02*
X204105344Y-105404426D01*
X204105344Y-105404426D02*
X204073439Y-105518712D01*
X204073439Y-105518712D02*
X203690582Y-105975855D01*
X203690582Y-105975855D02*
X204105344Y-105975855D01*
X210430821Y-107518712D02*
X210367011Y-107480617D01*
X210367011Y-107480617D02*
X210335106Y-107442521D01*
X210335106Y-107442521D02*
X210303202Y-107366331D01*
X210303202Y-107366331D02*
X210303202Y-107328236D01*
X210303202Y-107328236D02*
X210335106Y-107252045D01*
X210335106Y-107252045D02*
X210367011Y-107213950D01*
X210367011Y-107213950D02*
X210430821Y-107175855D01*
X210430821Y-107175855D02*
X210558440Y-107175855D01*
X210558440Y-107175855D02*
X210622249Y-107213950D01*
X210622249Y-107213950D02*
X210654154Y-107252045D01*
X210654154Y-107252045D02*
X210686059Y-107328236D01*
X210686059Y-107328236D02*
X210686059Y-107366331D01*
X210686059Y-107366331D02*
X210654154Y-107442521D01*
X210654154Y-107442521D02*
X210622249Y-107480617D01*
X210622249Y-107480617D02*
X210558440Y-107518712D01*
X210558440Y-107518712D02*
X210430821Y-107518712D01*
X210430821Y-107518712D02*
X210367011Y-107556807D01*
X210367011Y-107556807D02*
X210335106Y-107594902D01*
X210335106Y-107594902D02*
X210303202Y-107671093D01*
X210303202Y-107671093D02*
X210303202Y-107823474D01*
X210303202Y-107823474D02*
X210335106Y-107899664D01*
X210335106Y-107899664D02*
X210367011Y-107937760D01*
X210367011Y-107937760D02*
X210430821Y-107975855D01*
X210430821Y-107975855D02*
X210558440Y-107975855D01*
X210558440Y-107975855D02*
X210622249Y-107937760D01*
X210622249Y-107937760D02*
X210654154Y-107899664D01*
X210654154Y-107899664D02*
X210686059Y-107823474D01*
X210686059Y-107823474D02*
X210686059Y-107671093D01*
X210686059Y-107671093D02*
X210654154Y-107594902D01*
X210654154Y-107594902D02*
X210622249Y-107556807D01*
X210622249Y-107556807D02*
X210558440Y-107518712D01*
X210973201Y-107671093D02*
X211483678Y-107671093D01*
X211802725Y-107975855D02*
X211802725Y-107442521D01*
X211802725Y-107594902D02*
X211834630Y-107518712D01*
X211834630Y-107518712D02*
X211866535Y-107480617D01*
X211866535Y-107480617D02*
X211930344Y-107442521D01*
X211930344Y-107442521D02*
X211994154Y-107442521D01*
X212568440Y-107975855D02*
X212185583Y-107975855D01*
X212377011Y-107975855D02*
X212377011Y-107175855D01*
X212377011Y-107175855D02*
X212313202Y-107290140D01*
X212313202Y-107290140D02*
X212249392Y-107366331D01*
X212249392Y-107366331D02*
X212185583Y-107404426D01*
X212983201Y-107175855D02*
X213047011Y-107175855D01*
X213047011Y-107175855D02*
X213110820Y-107213950D01*
X213110820Y-107213950D02*
X213142725Y-107252045D01*
X213142725Y-107252045D02*
X213174630Y-107328236D01*
X213174630Y-107328236D02*
X213206535Y-107480617D01*
X213206535Y-107480617D02*
X213206535Y-107671093D01*
X213206535Y-107671093D02*
X213174630Y-107823474D01*
X213174630Y-107823474D02*
X213142725Y-107899664D01*
X213142725Y-107899664D02*
X213110820Y-107937760D01*
X213110820Y-107937760D02*
X213047011Y-107975855D01*
X213047011Y-107975855D02*
X212983201Y-107975855D01*
X212983201Y-107975855D02*
X212919392Y-107937760D01*
X212919392Y-107937760D02*
X212887487Y-107899664D01*
X212887487Y-107899664D02*
X212855582Y-107823474D01*
X212855582Y-107823474D02*
X212823678Y-107671093D01*
X212823678Y-107671093D02*
X212823678Y-107480617D01*
X212823678Y-107480617D02*
X212855582Y-107328236D01*
X212855582Y-107328236D02*
X212887487Y-107252045D01*
X212887487Y-107252045D02*
X212919392Y-107213950D01*
X212919392Y-107213950D02*
X212983201Y-107175855D01*
X211744392Y-96963950D02*
X211680582Y-96925855D01*
X211680582Y-96925855D02*
X211584868Y-96925855D01*
X211584868Y-96925855D02*
X211489154Y-96963950D01*
X211489154Y-96963950D02*
X211425344Y-97040140D01*
X211425344Y-97040140D02*
X211393439Y-97116331D01*
X211393439Y-97116331D02*
X211361535Y-97268712D01*
X211361535Y-97268712D02*
X211361535Y-97382998D01*
X211361535Y-97382998D02*
X211393439Y-97535379D01*
X211393439Y-97535379D02*
X211425344Y-97611569D01*
X211425344Y-97611569D02*
X211489154Y-97687760D01*
X211489154Y-97687760D02*
X211584868Y-97725855D01*
X211584868Y-97725855D02*
X211648677Y-97725855D01*
X211648677Y-97725855D02*
X211744392Y-97687760D01*
X211744392Y-97687760D02*
X211776296Y-97649664D01*
X211776296Y-97649664D02*
X211776296Y-97382998D01*
X211776296Y-97382998D02*
X211648677Y-97382998D01*
X212063439Y-97725855D02*
X212063439Y-96925855D01*
X212063439Y-96925855D02*
X212446296Y-97725855D01*
X212446296Y-97725855D02*
X212446296Y-96925855D01*
X212765344Y-97725855D02*
X212765344Y-96925855D01*
X212765344Y-96925855D02*
X212924868Y-96925855D01*
X212924868Y-96925855D02*
X213020582Y-96963950D01*
X213020582Y-96963950D02*
X213084392Y-97040140D01*
X213084392Y-97040140D02*
X213116297Y-97116331D01*
X213116297Y-97116331D02*
X213148201Y-97268712D01*
X213148201Y-97268712D02*
X213148201Y-97382998D01*
X213148201Y-97382998D02*
X213116297Y-97535379D01*
X213116297Y-97535379D02*
X213084392Y-97611569D01*
X213084392Y-97611569D02*
X213020582Y-97687760D01*
X213020582Y-97687760D02*
X212924868Y-97725855D01*
X212924868Y-97725855D02*
X212765344Y-97725855D01*
D12*
X204298439Y-85581115D02*
X204298439Y-84781115D01*
X204298439Y-84781115D02*
X204548439Y-85352543D01*
X204548439Y-85352543D02*
X204798439Y-84781115D01*
X204798439Y-84781115D02*
X204798439Y-85581115D01*
X205155582Y-85581115D02*
X205155582Y-85047781D01*
X205155582Y-84781115D02*
X205119868Y-84819210D01*
X205119868Y-84819210D02*
X205155582Y-84857305D01*
X205155582Y-84857305D02*
X205191296Y-84819210D01*
X205191296Y-84819210D02*
X205155582Y-84781115D01*
X205155582Y-84781115D02*
X205155582Y-84857305D01*
X205834154Y-85543020D02*
X205762725Y-85581115D01*
X205762725Y-85581115D02*
X205619868Y-85581115D01*
X205619868Y-85581115D02*
X205548439Y-85543020D01*
X205548439Y-85543020D02*
X205512725Y-85504924D01*
X205512725Y-85504924D02*
X205477011Y-85428734D01*
X205477011Y-85428734D02*
X205477011Y-85200162D01*
X205477011Y-85200162D02*
X205512725Y-85123972D01*
X205512725Y-85123972D02*
X205548439Y-85085877D01*
X205548439Y-85085877D02*
X205619868Y-85047781D01*
X205619868Y-85047781D02*
X205762725Y-85047781D01*
X205762725Y-85047781D02*
X205834154Y-85085877D01*
X206155582Y-85581115D02*
X206155582Y-85047781D01*
X206155582Y-85200162D02*
X206191296Y-85123972D01*
X206191296Y-85123972D02*
X206227011Y-85085877D01*
X206227011Y-85085877D02*
X206298439Y-85047781D01*
X206298439Y-85047781D02*
X206369868Y-85047781D01*
X206727011Y-85581115D02*
X206655582Y-85543020D01*
X206655582Y-85543020D02*
X206619868Y-85504924D01*
X206619868Y-85504924D02*
X206584154Y-85428734D01*
X206584154Y-85428734D02*
X206584154Y-85200162D01*
X206584154Y-85200162D02*
X206619868Y-85123972D01*
X206619868Y-85123972D02*
X206655582Y-85085877D01*
X206655582Y-85085877D02*
X206727011Y-85047781D01*
X206727011Y-85047781D02*
X206834154Y-85047781D01*
X206834154Y-85047781D02*
X206905582Y-85085877D01*
X206905582Y-85085877D02*
X206941297Y-85123972D01*
X206941297Y-85123972D02*
X206977011Y-85200162D01*
X206977011Y-85200162D02*
X206977011Y-85428734D01*
X206977011Y-85428734D02*
X206941297Y-85504924D01*
X206941297Y-85504924D02*
X206905582Y-85543020D01*
X206905582Y-85543020D02*
X206834154Y-85581115D01*
X206834154Y-85581115D02*
X206727011Y-85581115D01*
X207298439Y-84781115D02*
X207298439Y-85428734D01*
X207298439Y-85428734D02*
X207334153Y-85504924D01*
X207334153Y-85504924D02*
X207369868Y-85543020D01*
X207369868Y-85543020D02*
X207441296Y-85581115D01*
X207441296Y-85581115D02*
X207584153Y-85581115D01*
X207584153Y-85581115D02*
X207655582Y-85543020D01*
X207655582Y-85543020D02*
X207691296Y-85504924D01*
X207691296Y-85504924D02*
X207727010Y-85428734D01*
X207727010Y-85428734D02*
X207727010Y-84781115D01*
X208048439Y-85543020D02*
X208155582Y-85581115D01*
X208155582Y-85581115D02*
X208334153Y-85581115D01*
X208334153Y-85581115D02*
X208405582Y-85543020D01*
X208405582Y-85543020D02*
X208441296Y-85504924D01*
X208441296Y-85504924D02*
X208477010Y-85428734D01*
X208477010Y-85428734D02*
X208477010Y-85352543D01*
X208477010Y-85352543D02*
X208441296Y-85276353D01*
X208441296Y-85276353D02*
X208405582Y-85238258D01*
X208405582Y-85238258D02*
X208334153Y-85200162D01*
X208334153Y-85200162D02*
X208191296Y-85162067D01*
X208191296Y-85162067D02*
X208119867Y-85123972D01*
X208119867Y-85123972D02*
X208084153Y-85085877D01*
X208084153Y-85085877D02*
X208048439Y-85009686D01*
X208048439Y-85009686D02*
X208048439Y-84933496D01*
X208048439Y-84933496D02*
X208084153Y-84857305D01*
X208084153Y-84857305D02*
X208119867Y-84819210D01*
X208119867Y-84819210D02*
X208191296Y-84781115D01*
X208191296Y-84781115D02*
X208369867Y-84781115D01*
X208369867Y-84781115D02*
X208477010Y-84819210D01*
X209048439Y-85162067D02*
X209155582Y-85200162D01*
X209155582Y-85200162D02*
X209191296Y-85238258D01*
X209191296Y-85238258D02*
X209227010Y-85314448D01*
X209227010Y-85314448D02*
X209227010Y-85428734D01*
X209227010Y-85428734D02*
X209191296Y-85504924D01*
X209191296Y-85504924D02*
X209155582Y-85543020D01*
X209155582Y-85543020D02*
X209084153Y-85581115D01*
X209084153Y-85581115D02*
X208798439Y-85581115D01*
X208798439Y-85581115D02*
X208798439Y-84781115D01*
X208798439Y-84781115D02*
X209048439Y-84781115D01*
X209048439Y-84781115D02*
X209119868Y-84819210D01*
X209119868Y-84819210D02*
X209155582Y-84857305D01*
X209155582Y-84857305D02*
X209191296Y-84933496D01*
X209191296Y-84933496D02*
X209191296Y-85009686D01*
X209191296Y-85009686D02*
X209155582Y-85085877D01*
X209155582Y-85085877D02*
X209119868Y-85123972D01*
X209119868Y-85123972D02*
X209048439Y-85162067D01*
X209048439Y-85162067D02*
X208798439Y-85162067D01*
D11*
X199941673Y-98916034D02*
X199937296Y-98866536D01*
X199937296Y-98866536D02*
X199955479Y-98794479D01*
X199955479Y-98794479D02*
X200068279Y-98681678D01*
X200068279Y-98681678D02*
X200140337Y-98663495D01*
X200140337Y-98663495D02*
X200189834Y-98667873D01*
X200189834Y-98667873D02*
X200266269Y-98699188D01*
X200266269Y-98699188D02*
X200320144Y-98753062D01*
X200320144Y-98753062D02*
X200378396Y-98856435D01*
X200378396Y-98856435D02*
X200430924Y-99450404D01*
X200430924Y-99450404D02*
X200724205Y-99157123D01*
X200451800Y-98298157D02*
X200496920Y-98253037D01*
X200496920Y-98253037D02*
X200568978Y-98234854D01*
X200568978Y-98234854D02*
X200618475Y-98239232D01*
X200618475Y-98239232D02*
X200694910Y-98270546D01*
X200694910Y-98270546D02*
X200825220Y-98355736D01*
X200825220Y-98355736D02*
X200959907Y-98490423D01*
X200959907Y-98490423D02*
X201045097Y-98620733D01*
X201045097Y-98620733D02*
X201076411Y-98697167D01*
X201076411Y-98697167D02*
X201080789Y-98746665D01*
X201080789Y-98746665D02*
X201062606Y-98818722D01*
X201062606Y-98818722D02*
X201017486Y-98863843D01*
X201017486Y-98863843D02*
X200945428Y-98882025D01*
X200945428Y-98882025D02*
X200895931Y-98877648D01*
X200895931Y-98877648D02*
X200819496Y-98846333D01*
X200819496Y-98846333D02*
X200689186Y-98761144D01*
X200689186Y-98761144D02*
X200554499Y-98626457D01*
X200554499Y-98626457D02*
X200469310Y-98496147D01*
X200469310Y-98496147D02*
X200437995Y-98419712D01*
X200437995Y-98419712D02*
X200433618Y-98370215D01*
X200433618Y-98370215D02*
X200451800Y-98298157D01*
X201162948Y-98287382D02*
X201523909Y-97926421D01*
X202141112Y-97686341D02*
X202122929Y-97758399D01*
X202122929Y-97758399D02*
X202032689Y-97848639D01*
X202032689Y-97848639D02*
X201960631Y-97866822D01*
X201960631Y-97866822D02*
X201911134Y-97862445D01*
X201911134Y-97862445D02*
X201834699Y-97831130D01*
X201834699Y-97831130D02*
X201673075Y-97669506D01*
X201673075Y-97669506D02*
X201641760Y-97593071D01*
X201641760Y-97593071D02*
X201637383Y-97543573D01*
X201637383Y-97543573D02*
X201655565Y-97471516D01*
X201655565Y-97471516D02*
X201745806Y-97381275D01*
X201745806Y-97381275D02*
X201817863Y-97363093D01*
X202619251Y-97262077D02*
X202348530Y-97532798D01*
X202483891Y-97397438D02*
X201918205Y-96831752D01*
X201918205Y-96831752D02*
X201953897Y-96957685D01*
X201953897Y-96957685D02*
X201962652Y-97056680D01*
X201962652Y-97056680D02*
X201944469Y-97128737D01*
X202346846Y-96403111D02*
X202391967Y-96357991D01*
X202391967Y-96357991D02*
X202464024Y-96339808D01*
X202464024Y-96339808D02*
X202513522Y-96344185D01*
X202513522Y-96344185D02*
X202589957Y-96375500D01*
X202589957Y-96375500D02*
X202720266Y-96460690D01*
X202720266Y-96460690D02*
X202854953Y-96595377D01*
X202854953Y-96595377D02*
X202940143Y-96725686D01*
X202940143Y-96725686D02*
X202971457Y-96802121D01*
X202971457Y-96802121D02*
X202975835Y-96851619D01*
X202975835Y-96851619D02*
X202957652Y-96923676D01*
X202957652Y-96923676D02*
X202912532Y-96968796D01*
X202912532Y-96968796D02*
X202840474Y-96986979D01*
X202840474Y-96986979D02*
X202790977Y-96982602D01*
X202790977Y-96982602D02*
X202714542Y-96951287D01*
X202714542Y-96951287D02*
X202584232Y-96866098D01*
X202584232Y-96866098D02*
X202449545Y-96731411D01*
X202449545Y-96731411D02*
X202364356Y-96601101D01*
X202364356Y-96601101D02*
X202333041Y-96524666D01*
X202333041Y-96524666D02*
X202328664Y-96475169D01*
X202328664Y-96475169D02*
X202346846Y-96403111D01*
D13*
X81847845Y-51207891D02*
X81602265Y-50681053D01*
X81285098Y-51108664D02*
X81458746Y-50123856D01*
X81458746Y-50123856D02*
X81833911Y-50190008D01*
X81833911Y-50190008D02*
X81919433Y-50253441D01*
X81919433Y-50253441D02*
X81958060Y-50308606D01*
X81958060Y-50308606D02*
X81988417Y-50410666D01*
X81988417Y-50410666D02*
X81963610Y-50551353D01*
X81963610Y-50551353D02*
X81900177Y-50636875D01*
X81900177Y-50636875D02*
X81845012Y-50675502D01*
X81845012Y-50675502D02*
X81742952Y-50705859D01*
X81742952Y-50705859D02*
X81367787Y-50639708D01*
X82231279Y-51227147D02*
X82363697Y-51298850D01*
X82363697Y-51298850D02*
X82598175Y-51340195D01*
X82598175Y-51340195D02*
X82700235Y-51309837D01*
X82700235Y-51309837D02*
X82755399Y-51271210D01*
X82755399Y-51271210D02*
X82818833Y-51185688D01*
X82818833Y-51185688D02*
X82835371Y-51091897D01*
X82835371Y-51091897D02*
X82805013Y-50989837D01*
X82805013Y-50989837D02*
X82766387Y-50934672D01*
X82766387Y-50934672D02*
X82680864Y-50871239D01*
X82680864Y-50871239D02*
X82501551Y-50791267D01*
X82501551Y-50791267D02*
X82416029Y-50727834D01*
X82416029Y-50727834D02*
X82377402Y-50672669D01*
X82377402Y-50672669D02*
X82347044Y-50570609D01*
X82347044Y-50570609D02*
X82363582Y-50476818D01*
X82363582Y-50476818D02*
X82427016Y-50391295D01*
X82427016Y-50391295D02*
X82482180Y-50352669D01*
X82482180Y-50352669D02*
X82584240Y-50322311D01*
X82584240Y-50322311D02*
X82818718Y-50363656D01*
X82818718Y-50363656D02*
X82951136Y-50435358D01*
X83240779Y-50438077D02*
X83803526Y-50537304D01*
X83348504Y-51472498D02*
X83522153Y-50487690D01*
X83707132Y-51632441D02*
X84457461Y-51764744D01*
X84669851Y-51657133D02*
X84802269Y-51728836D01*
X84802269Y-51728836D02*
X85036747Y-51770181D01*
X85036747Y-51770181D02*
X85138807Y-51739823D01*
X85138807Y-51739823D02*
X85193972Y-51701196D01*
X85193972Y-51701196D02*
X85257405Y-51615674D01*
X85257405Y-51615674D02*
X85273943Y-51521883D01*
X85273943Y-51521883D02*
X85243585Y-51419823D01*
X85243585Y-51419823D02*
X85204959Y-51364658D01*
X85204959Y-51364658D02*
X85119436Y-51301225D01*
X85119436Y-51301225D02*
X84940123Y-51221253D01*
X84940123Y-51221253D02*
X84854601Y-51157820D01*
X84854601Y-51157820D02*
X84815974Y-51102655D01*
X84815974Y-51102655D02*
X84785616Y-51000595D01*
X84785616Y-51000595D02*
X84802154Y-50906804D01*
X84802154Y-50906804D02*
X84865588Y-50821281D01*
X84865588Y-50821281D02*
X84920752Y-50782655D01*
X84920752Y-50782655D02*
X85022813Y-50752297D01*
X85022813Y-50752297D02*
X85257291Y-50793642D01*
X85257291Y-50793642D02*
X85389708Y-50865344D01*
X85726247Y-50876332D02*
X85787077Y-51902484D01*
X85787077Y-51902484D02*
X86098693Y-51232126D01*
X86098693Y-51232126D02*
X86162241Y-51968636D01*
X86162241Y-51968636D02*
X86570368Y-51025173D01*
X87287736Y-52167091D02*
X86724989Y-52067863D01*
X87006362Y-52117477D02*
X87180010Y-51132669D01*
X87180010Y-51132669D02*
X87061412Y-51256818D01*
X87061412Y-51256818D02*
X86951083Y-51334072D01*
X86951083Y-51334072D02*
X86849023Y-51364429D01*
X198044868Y-88567260D02*
X198044868Y-89417260D01*
X198044868Y-88567260D02*
X198894868Y-88567260D01*
X198044868Y-117867260D02*
X198044868Y-118767260D01*
X198044868Y-118767260D02*
X198894868Y-118767260D01*
X203044868Y-82967260D02*
X203044868Y-84267260D01*
X203044868Y-84267260D02*
X210544868Y-84267260D01*
X206294868Y-83317260D02*
X207294868Y-83317260D01*
X206444868Y-83467260D02*
X207144868Y-83467260D01*
X206544868Y-83617260D02*
X207044868Y-83617260D01*
X206644868Y-83767260D02*
X206944868Y-83767260D01*
X206794868Y-83967260D02*
X206294868Y-83317260D01*
X207294868Y-83317260D02*
X206794868Y-83967260D01*
X210544868Y-82967260D02*
X203044868Y-82967260D01*
X210544868Y-84267260D02*
X210544868Y-82967260D01*
X215544868Y-88567260D02*
X214744868Y-88567260D01*
X215544868Y-88567260D02*
X215544868Y-89417260D01*
X215544868Y-117917260D02*
X215544868Y-118767260D01*
X215544868Y-118767260D02*
X214684868Y-118767260D01*
D12*
X81089681Y-49842887D02*
X80829209Y-51320098D01*
X81626098Y-53999178D02*
X86057733Y-54780595D01*
X87186446Y-48379344D02*
X82754811Y-47597927D01*
X87722863Y-52535635D02*
X87983335Y-51058424D01*
D14*
X72587415Y-58124855D03*
X65892820Y-59523601D03*
X69279416Y-76885443D03*
X62584821Y-78284189D03*
X65971419Y-95646029D03*
X59276824Y-97044775D03*
X62663421Y-114406615D03*
X55968826Y-115805361D03*
D15*
X345981946Y-57274096D03*
X340169483Y-60878174D03*
X349289943Y-76034685D03*
X343477480Y-79638763D03*
X355905940Y-113555856D03*
X350093477Y-117159934D03*
X352597942Y-94795272D03*
X346785479Y-98399350D03*
D16*
X144438626Y-147723382D03*
X137610121Y-147341778D03*
D14*
X93849413Y-61873920D03*
X87154818Y-63272666D03*
X113381867Y-60804447D03*
X106687272Y-62203193D03*
X132583521Y-61611032D03*
X125888926Y-63009778D03*
X150903042Y-67420443D03*
X144208447Y-68819189D03*
X169332830Y-72604498D03*
X162638235Y-74003244D03*
X90541415Y-80634507D03*
X83846820Y-82033253D03*
X110073868Y-79565035D03*
X103379273Y-80963781D03*
X129275523Y-80371621D03*
X122580928Y-81770367D03*
X147595044Y-86181029D03*
X140900449Y-87579775D03*
X166024833Y-91365087D03*
X159330238Y-92763833D03*
D17*
X183427502Y-117001499D03*
X182028756Y-110306904D03*
D14*
X87233418Y-99395093D03*
X80538823Y-100793839D03*
X106765872Y-98325621D03*
X100071277Y-99724367D03*
X125967526Y-99132206D03*
X119272931Y-100530952D03*
X144287047Y-104941614D03*
X137592452Y-106340360D03*
X162716834Y-110125672D03*
X156022239Y-111524418D03*
D18*
X182646446Y-141412315D03*
X176149383Y-139276366D03*
D14*
X83925421Y-118155678D03*
X77230826Y-119554424D03*
X103457875Y-117086205D03*
X96763280Y-118484951D03*
X122659528Y-117892793D03*
X115964933Y-119291539D03*
X140979049Y-123702202D03*
X134284454Y-125100948D03*
X159408837Y-128886257D03*
X152714242Y-130285003D03*
D18*
X197251623Y-153659539D03*
X190754560Y-151523590D03*
D14*
X61856835Y-133608268D03*
X55162240Y-135007014D03*
X80617423Y-136916266D03*
X73922828Y-138315012D03*
X100149877Y-135846792D03*
X93455282Y-137245538D03*
X119351530Y-136653378D03*
X112656935Y-138052124D03*
D19*
X164173653Y-167423834D03*
X166309602Y-160926771D03*
X178778831Y-179671059D03*
X180914780Y-173173996D03*
D15*
X277590312Y-122851445D03*
X271777849Y-126455523D03*
X308495491Y-78714276D03*
X302683028Y-82318354D03*
X334643940Y-117304921D03*
X328831477Y-120908999D03*
X267666318Y-66569683D03*
X261853855Y-70173761D03*
X305187492Y-59953690D03*
X299375029Y-63557768D03*
D20*
X235954552Y-91505201D03*
X232350474Y-85692738D03*
D15*
X292601835Y-98281449D03*
X286789372Y-101885527D03*
D21*
X273731955Y-145607854D03*
X269050351Y-150593502D03*
D15*
X285985838Y-60760274D03*
X280173375Y-64364352D03*
D22*
X231522346Y-175810927D03*
X237549800Y-179042629D03*
D15*
X259160524Y-128035499D03*
X253348061Y-131639577D03*
X252544528Y-90514328D03*
X246732065Y-94118406D03*
X315111486Y-116235450D03*
X309299023Y-119839528D03*
X295909833Y-117042035D03*
X290097370Y-120646113D03*
X331335942Y-98544335D03*
X325523479Y-102148413D03*
X328027944Y-79783750D03*
X322215481Y-83387828D03*
D23*
X234811598Y-138178328D03*
X231579896Y-144205782D03*
D15*
X274282314Y-104090857D03*
X268469851Y-107694935D03*
X270974316Y-85330272D03*
X265161853Y-88934350D03*
X324719947Y-61023161D03*
X318907484Y-64627239D03*
D22*
X246127522Y-163563703D03*
X252154976Y-166795405D03*
D15*
X255852527Y-109274913D03*
X250040064Y-112878991D03*
X337951938Y-136065506D03*
X332139475Y-139669584D03*
X299217829Y-135802620D03*
X293405366Y-139406698D03*
D24*
X229256903Y-112030052D03*
X232860981Y-117842515D03*
D15*
X289293836Y-79520862D03*
X283481373Y-83124940D03*
D23*
X220206420Y-150425554D03*
X216974718Y-156453008D03*
D15*
X318419483Y-134996035D03*
X312607020Y-138600113D03*
X249236531Y-71753742D03*
X243424068Y-75357820D03*
X311803488Y-97474862D03*
X305991025Y-101078940D03*
X356712525Y-132757508D03*
X350900062Y-136361586D03*
D25*
X178494117Y-86471002D03*
X179892863Y-93165598D03*
M02*
