G04 #@! TF.GenerationSoftware,KiCad,Pcbnew,8.0.3*
G04 #@! TF.CreationDate,2024-07-15T09:39:08-04:00*
G04 #@! TF.ProjectId,reJESK,72654a45-534b-42e6-9b69-6361645f7063,1.0*
G04 #@! TF.SameCoordinates,Original*
G04 #@! TF.FileFunction,Legend,Bot*
G04 #@! TF.FilePolarity,Positive*
%FSLAX46Y46*%
G04 Gerber Fmt 4.6, Leading zero omitted, Abs format (unit mm)*
G04 Created by KiCad (PCBNEW 8.0.3) date 2024-07-15 09:39:08*
%MOMM*%
%LPD*%
G01*
G04 APERTURE LIST*
%ADD10C,0.300000*%
%ADD11C,0.150000*%
G04 APERTURE END LIST*
D10*
X345540137Y-50772996D02*
X345250723Y-49131650D01*
X345333413Y-49600606D02*
X345174829Y-49386800D01*
X345174829Y-49386800D02*
X345036917Y-49290234D01*
X345036917Y-49290234D02*
X344781767Y-49214340D01*
X344781767Y-49214340D02*
X344547289Y-49255684D01*
X343057445Y-51089878D02*
X343312595Y-51165772D01*
X343312595Y-51165772D02*
X343781552Y-51083082D01*
X343781552Y-51083082D02*
X343995357Y-50924498D01*
X343995357Y-50924498D02*
X344071251Y-50669348D01*
X344071251Y-50669348D02*
X343905872Y-49731436D01*
X343905872Y-49731436D02*
X343747288Y-49517630D01*
X343747288Y-49517630D02*
X343492138Y-49441736D01*
X343492138Y-49441736D02*
X343023182Y-49524426D01*
X343023182Y-49524426D02*
X342809376Y-49683009D01*
X342809376Y-49683009D02*
X342733482Y-49938160D01*
X342733482Y-49938160D02*
X342774827Y-50172638D01*
X342774827Y-50172638D02*
X343988562Y-50200392D01*
X340768173Y-49075856D02*
X341078259Y-50834441D01*
X341078259Y-50834441D02*
X341257515Y-51165486D01*
X341257515Y-51165486D02*
X341533338Y-51358619D01*
X341533338Y-51358619D02*
X341905727Y-51413841D01*
X341905727Y-51413841D02*
X342140205Y-51372496D01*
X339802507Y-50454970D02*
X338981833Y-50599677D01*
X338857513Y-51951323D02*
X340029903Y-51744599D01*
X340029903Y-51744599D02*
X339595783Y-49282580D01*
X339595783Y-49282580D02*
X338423392Y-49489304D01*
X337898928Y-51999463D02*
X337567883Y-52178720D01*
X337567883Y-52178720D02*
X336981688Y-52282082D01*
X336981688Y-52282082D02*
X336726538Y-52206187D01*
X336726538Y-52206187D02*
X336588626Y-52109621D01*
X336588626Y-52109621D02*
X336430043Y-51895815D01*
X336430043Y-51895815D02*
X336388698Y-51661337D01*
X336388698Y-51661337D02*
X336464592Y-51406187D01*
X336464592Y-51406187D02*
X336561159Y-51268275D01*
X336561159Y-51268275D02*
X336774964Y-51109691D01*
X336774964Y-51109691D02*
X337223248Y-50909763D01*
X337223248Y-50909763D02*
X337437054Y-50751179D01*
X337437054Y-50751179D02*
X337533620Y-50613267D01*
X337533620Y-50613267D02*
X337609514Y-50358117D01*
X337609514Y-50358117D02*
X337568170Y-50123639D01*
X337568170Y-50123639D02*
X337409586Y-49909833D01*
X337409586Y-49909833D02*
X337271674Y-49813267D01*
X337271674Y-49813267D02*
X337016524Y-49737373D01*
X337016524Y-49737373D02*
X336430329Y-49840735D01*
X336430329Y-49840735D02*
X336099284Y-50019991D01*
X335457581Y-52550823D02*
X335023461Y-50088803D01*
X334050713Y-52798892D02*
X334857796Y-51205972D01*
X333616593Y-50336872D02*
X335271530Y-51495672D01*
X78163888Y-50836758D02*
X77225976Y-50671379D01*
X77956878Y-49954068D02*
X77584775Y-52064370D01*
X77584775Y-52064370D02*
X77426191Y-52278176D01*
X77426191Y-52278176D02*
X77171040Y-52354070D01*
X77171040Y-52354070D02*
X76936562Y-52312725D01*
X76115890Y-52168019D02*
X76405303Y-50526672D01*
X76322614Y-50995629D02*
X76246719Y-50740478D01*
X76246719Y-50740478D02*
X76150153Y-50602567D01*
X76150153Y-50602567D02*
X75936347Y-50443983D01*
X75936347Y-50443983D02*
X75701869Y-50402638D01*
X74591782Y-51899278D02*
X74881196Y-50257931D01*
X75025903Y-49437258D02*
X75122469Y-49575170D01*
X75122469Y-49575170D02*
X74984558Y-49671736D01*
X74984558Y-49671736D02*
X74887991Y-49533825D01*
X74887991Y-49533825D02*
X75025903Y-49437258D01*
X75025903Y-49437258D02*
X74984558Y-49671736D01*
X73067675Y-51630536D02*
X73322826Y-51554642D01*
X73322826Y-51554642D02*
X73481410Y-51340836D01*
X73481410Y-51340836D02*
X73853513Y-49230534D01*
X72129763Y-51465157D02*
X72419177Y-49823811D01*
X72563883Y-49003138D02*
X72660450Y-49141049D01*
X72660450Y-49141049D02*
X72522539Y-49237616D01*
X72522539Y-49237616D02*
X72425972Y-49099704D01*
X72425972Y-49099704D02*
X72563883Y-49003138D01*
X72563883Y-49003138D02*
X72522539Y-49237616D01*
X70191636Y-49431035D02*
X69902222Y-51072381D01*
X71246787Y-49617087D02*
X71019390Y-50906716D01*
X71019390Y-50906716D02*
X70860806Y-51120522D01*
X70860806Y-51120522D02*
X70605656Y-51196416D01*
X70605656Y-51196416D02*
X70253939Y-51134399D01*
X70253939Y-51134399D02*
X70040133Y-50975815D01*
X70040133Y-50975815D02*
X69943567Y-50837903D01*
X332009121Y-77013913D02*
X332993929Y-76840265D01*
X332712555Y-76889879D02*
X332840839Y-76794729D01*
X332840839Y-76794729D02*
X332898779Y-76711982D01*
X332898779Y-76711982D02*
X332944315Y-76558892D01*
X332944315Y-76558892D02*
X332919508Y-76418205D01*
X331818992Y-75524299D02*
X331773456Y-75677389D01*
X331773456Y-75677389D02*
X331823070Y-75958763D01*
X331823070Y-75958763D02*
X331918220Y-76087046D01*
X331918220Y-76087046D02*
X332071310Y-76132583D01*
X332071310Y-76132583D02*
X332634058Y-76033355D01*
X332634058Y-76033355D02*
X332762341Y-75938205D01*
X332762341Y-75938205D02*
X332807877Y-75785114D01*
X332807877Y-75785114D02*
X332758264Y-75503741D01*
X332758264Y-75503741D02*
X332663113Y-75375457D01*
X332663113Y-75375457D02*
X332510023Y-75329921D01*
X332510023Y-75329921D02*
X332369336Y-75354728D01*
X332369336Y-75354728D02*
X332352684Y-76082969D01*
X332634229Y-74800307D02*
X331587404Y-74622238D01*
X331587404Y-74622238D02*
X332510195Y-74096873D01*
X331091267Y-71808502D02*
X331240108Y-72652623D01*
X331165687Y-72230562D02*
X332642899Y-71970090D01*
X332642899Y-71970090D02*
X332456676Y-72147987D01*
X332456676Y-72147987D02*
X332340796Y-72313481D01*
X332340796Y-72313481D02*
X332295259Y-72466571D01*
X331120323Y-71150605D02*
X331037576Y-71092665D01*
X331037576Y-71092665D02*
X330979636Y-71175412D01*
X330979636Y-71175412D02*
X331062383Y-71233352D01*
X331062383Y-71233352D02*
X331120323Y-71150605D01*
X331120323Y-71150605D02*
X330979636Y-71175412D01*
X332283199Y-69930131D02*
X332258392Y-69789445D01*
X332258392Y-69789445D02*
X332163242Y-69661161D01*
X332163242Y-69661161D02*
X332080495Y-69603221D01*
X332080495Y-69603221D02*
X331927405Y-69557685D01*
X331927405Y-69557685D02*
X331633628Y-69536955D01*
X331633628Y-69536955D02*
X331281911Y-69598972D01*
X331281911Y-69598972D02*
X331012941Y-69718929D01*
X331012941Y-69718929D02*
X330884657Y-69814080D01*
X330884657Y-69814080D02*
X330826717Y-69896827D01*
X330826717Y-69896827D02*
X330781181Y-70049917D01*
X330781181Y-70049917D02*
X330805988Y-70190604D01*
X330805988Y-70190604D02*
X330901138Y-70318887D01*
X330901138Y-70318887D02*
X330983885Y-70376827D01*
X330983885Y-70376827D02*
X331136975Y-70422364D01*
X331136975Y-70422364D02*
X331430752Y-70443093D01*
X331430752Y-70443093D02*
X331782469Y-70381076D01*
X331782469Y-70381076D02*
X332051439Y-70261119D01*
X332051439Y-70261119D02*
X332179723Y-70165969D01*
X332179723Y-70165969D02*
X332237663Y-70083222D01*
X332237663Y-70083222D02*
X332283199Y-69930131D01*
D11*
X73174685Y-71844078D02*
X73643641Y-71926768D01*
X73643641Y-71926768D02*
X73817290Y-70941960D01*
X72832482Y-70768312D02*
X72738690Y-70751774D01*
X72738690Y-70751774D02*
X72636630Y-70782132D01*
X72636630Y-70782132D02*
X72581466Y-70820758D01*
X72581466Y-70820758D02*
X72518032Y-70906280D01*
X72518032Y-70906280D02*
X72438061Y-71085594D01*
X72438061Y-71085594D02*
X72396716Y-71320072D01*
X72396716Y-71320072D02*
X72410536Y-71515923D01*
X72410536Y-71515923D02*
X72440893Y-71617983D01*
X72440893Y-71617983D02*
X72479520Y-71673148D01*
X72479520Y-71673148D02*
X72565042Y-71736582D01*
X72565042Y-71736582D02*
X72658833Y-71753120D01*
X72658833Y-71753120D02*
X72760894Y-71722762D01*
X72760894Y-71722762D02*
X72816058Y-71684135D01*
X72816058Y-71684135D02*
X72879492Y-71598613D01*
X72879492Y-71598613D02*
X72959463Y-71419299D01*
X72959463Y-71419299D02*
X73000808Y-71184821D01*
X73000808Y-71184821D02*
X72986988Y-70988970D01*
X72986988Y-70988970D02*
X72956630Y-70886910D01*
X72956630Y-70886910D02*
X72918004Y-70831745D01*
X72918004Y-70831745D02*
X72832482Y-70768312D01*
X70335643Y-90687356D02*
X70804599Y-90770045D01*
X70804599Y-90770045D02*
X70978247Y-89785238D01*
X69491522Y-90538514D02*
X70054269Y-90637742D01*
X69772895Y-90588128D02*
X69946544Y-89603321D01*
X69946544Y-89603321D02*
X70015528Y-89760545D01*
X70015528Y-89760545D02*
X70092781Y-89870874D01*
X70092781Y-89870874D02*
X70178303Y-89934308D01*
X69055527Y-89446210D02*
X68961736Y-89429672D01*
X68961736Y-89429672D02*
X68859676Y-89460030D01*
X68859676Y-89460030D02*
X68804511Y-89498657D01*
X68804511Y-89498657D02*
X68741077Y-89584179D01*
X68741077Y-89584179D02*
X68661106Y-89763492D01*
X68661106Y-89763492D02*
X68619761Y-89997970D01*
X68619761Y-89997970D02*
X68633581Y-90193822D01*
X68633581Y-90193822D02*
X68663939Y-90295882D01*
X68663939Y-90295882D02*
X68702565Y-90351047D01*
X68702565Y-90351047D02*
X68788088Y-90414480D01*
X68788088Y-90414480D02*
X68881879Y-90431018D01*
X68881879Y-90431018D02*
X68983939Y-90400660D01*
X68983939Y-90400660D02*
X69039104Y-90362034D01*
X69039104Y-90362034D02*
X69102537Y-90276511D01*
X69102537Y-90276511D02*
X69182509Y-90097198D01*
X69182509Y-90097198D02*
X69223853Y-89862720D01*
X69223853Y-89862720D02*
X69210034Y-89666869D01*
X69210034Y-89666869D02*
X69179676Y-89564808D01*
X69179676Y-89564808D02*
X69141049Y-89509644D01*
X69141049Y-89509644D02*
X69055527Y-89446210D01*
X67027646Y-109447942D02*
X67496602Y-109530631D01*
X67496602Y-109530631D02*
X67670250Y-108545824D01*
X66903382Y-108507311D02*
X66864756Y-108452147D01*
X66864756Y-108452147D02*
X66779233Y-108388713D01*
X66779233Y-108388713D02*
X66544755Y-108347369D01*
X66544755Y-108347369D02*
X66442695Y-108377726D01*
X66442695Y-108377726D02*
X66387531Y-108416353D01*
X66387531Y-108416353D02*
X66324097Y-108501875D01*
X66324097Y-108501875D02*
X66307559Y-108595666D01*
X66307559Y-108595666D02*
X66329648Y-108744622D01*
X66329648Y-108744622D02*
X66793168Y-109406597D01*
X66793168Y-109406597D02*
X66183525Y-109299100D01*
X65747530Y-108206796D02*
X65653739Y-108190258D01*
X65653739Y-108190258D02*
X65551679Y-108220616D01*
X65551679Y-108220616D02*
X65496514Y-108259243D01*
X65496514Y-108259243D02*
X65433080Y-108344765D01*
X65433080Y-108344765D02*
X65353109Y-108524078D01*
X65353109Y-108524078D02*
X65311764Y-108758556D01*
X65311764Y-108758556D02*
X65325584Y-108954408D01*
X65325584Y-108954408D02*
X65355942Y-109056468D01*
X65355942Y-109056468D02*
X65394568Y-109111633D01*
X65394568Y-109111633D02*
X65480091Y-109175066D01*
X65480091Y-109175066D02*
X65573882Y-109191604D01*
X65573882Y-109191604D02*
X65675942Y-109161246D01*
X65675942Y-109161246D02*
X65731107Y-109122620D01*
X65731107Y-109122620D02*
X65794540Y-109037097D01*
X65794540Y-109037097D02*
X65874512Y-108857784D01*
X65874512Y-108857784D02*
X65915856Y-108623306D01*
X65915856Y-108623306D02*
X65902037Y-108427455D01*
X65902037Y-108427455D02*
X65871679Y-108325394D01*
X65871679Y-108325394D02*
X65833052Y-108270230D01*
X65833052Y-108270230D02*
X65747530Y-108206796D01*
X63719648Y-128208528D02*
X64188604Y-128291217D01*
X64188604Y-128291217D02*
X64362252Y-127306410D01*
X63658818Y-127182375D02*
X63049175Y-127074879D01*
X63049175Y-127074879D02*
X63311292Y-127507926D01*
X63311292Y-127507926D02*
X63170606Y-127483119D01*
X63170606Y-127483119D02*
X63068545Y-127513477D01*
X63068545Y-127513477D02*
X63013381Y-127552104D01*
X63013381Y-127552104D02*
X62949947Y-127637626D01*
X62949947Y-127637626D02*
X62908603Y-127872104D01*
X62908603Y-127872104D02*
X62938960Y-127974164D01*
X62938960Y-127974164D02*
X62977587Y-128029329D01*
X62977587Y-128029329D02*
X63063109Y-128092762D01*
X63063109Y-128092762D02*
X63344483Y-128142376D01*
X63344483Y-128142376D02*
X63446543Y-128112018D01*
X63446543Y-128112018D02*
X63501708Y-128073392D01*
X62439532Y-126967382D02*
X62345741Y-126950844D01*
X62345741Y-126950844D02*
X62243681Y-126981202D01*
X62243681Y-126981202D02*
X62188516Y-127019829D01*
X62188516Y-127019829D02*
X62125082Y-127105351D01*
X62125082Y-127105351D02*
X62045111Y-127284664D01*
X62045111Y-127284664D02*
X62003766Y-127519142D01*
X62003766Y-127519142D02*
X62017586Y-127714994D01*
X62017586Y-127714994D02*
X62047944Y-127817054D01*
X62047944Y-127817054D02*
X62086570Y-127872219D01*
X62086570Y-127872219D02*
X62172093Y-127935652D01*
X62172093Y-127935652D02*
X62265884Y-127952190D01*
X62265884Y-127952190D02*
X62367944Y-127921832D01*
X62367944Y-127921832D02*
X62423109Y-127883206D01*
X62423109Y-127883206D02*
X62486542Y-127797683D01*
X62486542Y-127797683D02*
X62566514Y-127618370D01*
X62566514Y-127618370D02*
X62607858Y-127383892D01*
X62607858Y-127383892D02*
X62594039Y-127188041D01*
X62594039Y-127188041D02*
X62563681Y-127085980D01*
X62563681Y-127085980D02*
X62525054Y-127030816D01*
X62525054Y-127030816D02*
X62439532Y-126967382D01*
X351226049Y-69965091D02*
X351471629Y-69438252D01*
X351788796Y-69865863D02*
X351615148Y-68881055D01*
X351615148Y-68881055D02*
X351239983Y-68947207D01*
X351239983Y-68947207D02*
X351154461Y-69010640D01*
X351154461Y-69010640D02*
X351115835Y-69065805D01*
X351115835Y-69065805D02*
X351085477Y-69167865D01*
X351085477Y-69167865D02*
X351110284Y-69308552D01*
X351110284Y-69308552D02*
X351173717Y-69394074D01*
X351173717Y-69394074D02*
X351228882Y-69432701D01*
X351228882Y-69432701D02*
X351330942Y-69463059D01*
X351330942Y-69463059D02*
X351706107Y-69396907D01*
X350442758Y-69087779D02*
X350348967Y-69104317D01*
X350348967Y-69104317D02*
X350263445Y-69167751D01*
X350263445Y-69167751D02*
X350224818Y-69222915D01*
X350224818Y-69222915D02*
X350194460Y-69324975D01*
X350194460Y-69324975D02*
X350180641Y-69520827D01*
X350180641Y-69520827D02*
X350221985Y-69755305D01*
X350221985Y-69755305D02*
X350301957Y-69934618D01*
X350301957Y-69934618D02*
X350365390Y-70020141D01*
X350365390Y-70020141D02*
X350420555Y-70058767D01*
X350420555Y-70058767D02*
X350522615Y-70089125D01*
X350522615Y-70089125D02*
X350616406Y-70072587D01*
X350616406Y-70072587D02*
X350701929Y-70009154D01*
X350701929Y-70009154D02*
X350740555Y-69953989D01*
X350740555Y-69953989D02*
X350770913Y-69851929D01*
X350770913Y-69851929D02*
X350784733Y-69656077D01*
X350784733Y-69656077D02*
X350743388Y-69421599D01*
X350743388Y-69421599D02*
X350663416Y-69242286D01*
X350663416Y-69242286D02*
X350599983Y-69156764D01*
X350599983Y-69156764D02*
X350544818Y-69118137D01*
X350544818Y-69118137D02*
X350442758Y-69087779D01*
X355003003Y-88642990D02*
X355248582Y-88116151D01*
X355565750Y-88543762D02*
X355392102Y-87558955D01*
X355392102Y-87558955D02*
X355016937Y-87625106D01*
X355016937Y-87625106D02*
X354931415Y-87688540D01*
X354931415Y-87688540D02*
X354892788Y-87743704D01*
X354892788Y-87743704D02*
X354862430Y-87845765D01*
X354862430Y-87845765D02*
X354887237Y-87986451D01*
X354887237Y-87986451D02*
X354950671Y-88071974D01*
X354950671Y-88071974D02*
X355005835Y-88110600D01*
X355005835Y-88110600D02*
X355107896Y-88140958D01*
X355107896Y-88140958D02*
X355483060Y-88074806D01*
X354065091Y-88808369D02*
X354627838Y-88709142D01*
X354346464Y-88758755D02*
X354172816Y-87773948D01*
X354172816Y-87773948D02*
X354291414Y-87898096D01*
X354291414Y-87898096D02*
X354401743Y-87975350D01*
X354401743Y-87975350D02*
X354503803Y-88005707D01*
X353281799Y-87931058D02*
X353188008Y-87947596D01*
X353188008Y-87947596D02*
X353102486Y-88011029D01*
X353102486Y-88011029D02*
X353063859Y-88066194D01*
X353063859Y-88066194D02*
X353033502Y-88168254D01*
X353033502Y-88168254D02*
X353019682Y-88364105D01*
X353019682Y-88364105D02*
X353061027Y-88598583D01*
X353061027Y-88598583D02*
X353140998Y-88777897D01*
X353140998Y-88777897D02*
X353204432Y-88863419D01*
X353204432Y-88863419D02*
X353259596Y-88902046D01*
X353259596Y-88902046D02*
X353361656Y-88932403D01*
X353361656Y-88932403D02*
X353455448Y-88915866D01*
X353455448Y-88915866D02*
X353540970Y-88852432D01*
X353540970Y-88852432D02*
X353579597Y-88797267D01*
X353579597Y-88797267D02*
X353609954Y-88695207D01*
X353609954Y-88695207D02*
X353623774Y-88499356D01*
X353623774Y-88499356D02*
X353582429Y-88264878D01*
X353582429Y-88264878D02*
X353502458Y-88085564D01*
X353502458Y-88085564D02*
X353439024Y-88000042D01*
X353439024Y-88000042D02*
X353383860Y-87961415D01*
X353383860Y-87961415D02*
X353281799Y-87931058D01*
X361619000Y-126164161D02*
X361864579Y-125637322D01*
X362181747Y-126064933D02*
X362008099Y-125080126D01*
X362008099Y-125080126D02*
X361632934Y-125146277D01*
X361632934Y-125146277D02*
X361547412Y-125209711D01*
X361547412Y-125209711D02*
X361508785Y-125264875D01*
X361508785Y-125264875D02*
X361478427Y-125366936D01*
X361478427Y-125366936D02*
X361503234Y-125507622D01*
X361503234Y-125507622D02*
X361566668Y-125593145D01*
X361566668Y-125593145D02*
X361621832Y-125631771D01*
X361621832Y-125631771D02*
X361723893Y-125662129D01*
X361723893Y-125662129D02*
X362099057Y-125595977D01*
X361117082Y-125237236D02*
X360507439Y-125344732D01*
X360507439Y-125344732D02*
X360901860Y-125662014D01*
X360901860Y-125662014D02*
X360761174Y-125686821D01*
X360761174Y-125686821D02*
X360675651Y-125750255D01*
X360675651Y-125750255D02*
X360637025Y-125805419D01*
X360637025Y-125805419D02*
X360606667Y-125907480D01*
X360606667Y-125907480D02*
X360648012Y-126141958D01*
X360648012Y-126141958D02*
X360711445Y-126227480D01*
X360711445Y-126227480D02*
X360766610Y-126266107D01*
X360766610Y-126266107D02*
X360868670Y-126296464D01*
X360868670Y-126296464D02*
X361150044Y-126246850D01*
X361150044Y-126246850D02*
X361235566Y-126183417D01*
X361235566Y-126183417D02*
X361274193Y-126128252D01*
X359897796Y-125452229D02*
X359804005Y-125468767D01*
X359804005Y-125468767D02*
X359718483Y-125532200D01*
X359718483Y-125532200D02*
X359679856Y-125587365D01*
X359679856Y-125587365D02*
X359649499Y-125689425D01*
X359649499Y-125689425D02*
X359635679Y-125885276D01*
X359635679Y-125885276D02*
X359677024Y-126119754D01*
X359677024Y-126119754D02*
X359756995Y-126299068D01*
X359756995Y-126299068D02*
X359820429Y-126384590D01*
X359820429Y-126384590D02*
X359875593Y-126423217D01*
X359875593Y-126423217D02*
X359977653Y-126453574D01*
X359977653Y-126453574D02*
X360071445Y-126437037D01*
X360071445Y-126437037D02*
X360156967Y-126373603D01*
X360156967Y-126373603D02*
X360195594Y-126318438D01*
X360195594Y-126318438D02*
X360225951Y-126216378D01*
X360225951Y-126216378D02*
X360239771Y-126020527D01*
X360239771Y-126020527D02*
X360198426Y-125786049D01*
X360198426Y-125786049D02*
X360118455Y-125606735D01*
X360118455Y-125606735D02*
X360055021Y-125521213D01*
X360055021Y-125521213D02*
X359999857Y-125482586D01*
X359999857Y-125482586D02*
X359897796Y-125452229D01*
X358311002Y-107403577D02*
X358556581Y-106876738D01*
X358873749Y-107304349D02*
X358700101Y-106319542D01*
X358700101Y-106319542D02*
X358324936Y-106385693D01*
X358324936Y-106385693D02*
X358239414Y-106449127D01*
X358239414Y-106449127D02*
X358200787Y-106504291D01*
X358200787Y-106504291D02*
X358170429Y-106606352D01*
X358170429Y-106606352D02*
X358195236Y-106747038D01*
X358195236Y-106747038D02*
X358258670Y-106832561D01*
X358258670Y-106832561D02*
X358313834Y-106871187D01*
X358313834Y-106871187D02*
X358415895Y-106901545D01*
X358415895Y-106901545D02*
X358791059Y-106835393D01*
X357778727Y-106578712D02*
X357723562Y-106540085D01*
X357723562Y-106540085D02*
X357621502Y-106509728D01*
X357621502Y-106509728D02*
X357387024Y-106551072D01*
X357387024Y-106551072D02*
X357301502Y-106614506D01*
X357301502Y-106614506D02*
X357262875Y-106669671D01*
X357262875Y-106669671D02*
X357232517Y-106771731D01*
X357232517Y-106771731D02*
X357249055Y-106865522D01*
X357249055Y-106865522D02*
X357320758Y-106997940D01*
X357320758Y-106997940D02*
X357982732Y-107461460D01*
X357982732Y-107461460D02*
X357373090Y-107568956D01*
X356589798Y-106691645D02*
X356496007Y-106708183D01*
X356496007Y-106708183D02*
X356410485Y-106771616D01*
X356410485Y-106771616D02*
X356371858Y-106826781D01*
X356371858Y-106826781D02*
X356341501Y-106928841D01*
X356341501Y-106928841D02*
X356327681Y-107124692D01*
X356327681Y-107124692D02*
X356369026Y-107359170D01*
X356369026Y-107359170D02*
X356448997Y-107538484D01*
X356448997Y-107538484D02*
X356512431Y-107624006D01*
X356512431Y-107624006D02*
X356567595Y-107662633D01*
X356567595Y-107662633D02*
X356669655Y-107692990D01*
X356669655Y-107692990D02*
X356763447Y-107676453D01*
X356763447Y-107676453D02*
X356848969Y-107613019D01*
X356848969Y-107613019D02*
X356887596Y-107557854D01*
X356887596Y-107557854D02*
X356917953Y-107455794D01*
X356917953Y-107455794D02*
X356931773Y-107259943D01*
X356931773Y-107259943D02*
X356890428Y-107025465D01*
X356890428Y-107025465D02*
X356810457Y-106846151D01*
X356810457Y-106846151D02*
X356747023Y-106760629D01*
X356747023Y-106760629D02*
X356691859Y-106722002D01*
X356691859Y-106722002D02*
X356589798Y-106691645D01*
X141886664Y-161328377D02*
X142318239Y-161529624D01*
X142318239Y-161529624D02*
X142740858Y-160623316D01*
X141477889Y-160402177D02*
X141196144Y-161006382D01*
X141854674Y-160157540D02*
X141768592Y-160905526D01*
X141768592Y-160905526D02*
X141207544Y-160643905D01*
X140614739Y-159999683D02*
X140332994Y-160603888D01*
X140991524Y-159755046D02*
X140905441Y-160503032D01*
X140905441Y-160503032D02*
X140344394Y-160241412D01*
X94436683Y-75593143D02*
X94905639Y-75675833D01*
X94905639Y-75675833D02*
X95079288Y-74691025D01*
X93592562Y-75444302D02*
X94155309Y-75543529D01*
X93873936Y-75493916D02*
X94047584Y-74509108D01*
X94047584Y-74509108D02*
X94116568Y-74666333D01*
X94116568Y-74666333D02*
X94193822Y-74776662D01*
X94193822Y-74776662D02*
X94279344Y-74840095D01*
X113969137Y-74523670D02*
X114438093Y-74606360D01*
X114438093Y-74606360D02*
X114611742Y-73621552D01*
X113844874Y-73583040D02*
X113806247Y-73527875D01*
X113806247Y-73527875D02*
X113720725Y-73464442D01*
X113720725Y-73464442D02*
X113486247Y-73423097D01*
X113486247Y-73423097D02*
X113384187Y-73453455D01*
X113384187Y-73453455D02*
X113329022Y-73492081D01*
X113329022Y-73492081D02*
X113265588Y-73577603D01*
X113265588Y-73577603D02*
X113249051Y-73671395D01*
X113249051Y-73671395D02*
X113271139Y-73820350D01*
X113271139Y-73820350D02*
X113734659Y-74482325D01*
X113734659Y-74482325D02*
X113125016Y-74374829D01*
X133170791Y-75330255D02*
X133639747Y-75412945D01*
X133639747Y-75412945D02*
X133813396Y-74428137D01*
X133109961Y-74304103D02*
X132500318Y-74196606D01*
X132500318Y-74196606D02*
X132762436Y-74629654D01*
X132762436Y-74629654D02*
X132621749Y-74604847D01*
X132621749Y-74604847D02*
X132519689Y-74635204D01*
X132519689Y-74635204D02*
X132464524Y-74673831D01*
X132464524Y-74673831D02*
X132401091Y-74759353D01*
X132401091Y-74759353D02*
X132359746Y-74993831D01*
X132359746Y-74993831D02*
X132390104Y-75095892D01*
X132390104Y-75095892D02*
X132428730Y-75151056D01*
X132428730Y-75151056D02*
X132514253Y-75214490D01*
X132514253Y-75214490D02*
X132795626Y-75264103D01*
X132795626Y-75264103D02*
X132897686Y-75233746D01*
X132897686Y-75233746D02*
X132952851Y-75195119D01*
X151490312Y-81139666D02*
X151959268Y-81222356D01*
X151959268Y-81222356D02*
X152132917Y-80237548D01*
X150855748Y-80350824D02*
X150739982Y-81007363D01*
X151156378Y-80017004D02*
X151266821Y-80761783D01*
X151266821Y-80761783D02*
X150657178Y-80654287D01*
X169920100Y-86323721D02*
X170389056Y-86406411D01*
X170389056Y-86406411D02*
X170562705Y-85421603D01*
X169296523Y-85198341D02*
X169765479Y-85281031D01*
X169765479Y-85281031D02*
X169729685Y-85758256D01*
X169729685Y-85758256D02*
X169691058Y-85703091D01*
X169691058Y-85703091D02*
X169605536Y-85639658D01*
X169605536Y-85639658D02*
X169371058Y-85598313D01*
X169371058Y-85598313D02*
X169268998Y-85628670D01*
X169268998Y-85628670D02*
X169213833Y-85667297D01*
X169213833Y-85667297D02*
X169150400Y-85752819D01*
X169150400Y-85752819D02*
X169109055Y-85987297D01*
X169109055Y-85987297D02*
X169139413Y-86089358D01*
X169139413Y-86089358D02*
X169178039Y-86144522D01*
X169178039Y-86144522D02*
X169263562Y-86207956D01*
X169263562Y-86207956D02*
X169498040Y-86249300D01*
X169498040Y-86249300D02*
X169600100Y-86218943D01*
X169600100Y-86218943D02*
X169655264Y-86180316D01*
X91597642Y-94436420D02*
X92066598Y-94519109D01*
X92066598Y-94519109D02*
X92240246Y-93534302D01*
X90753521Y-94287578D02*
X91316268Y-94386806D01*
X91034894Y-94337192D02*
X91208543Y-93352385D01*
X91208543Y-93352385D02*
X91277527Y-93509609D01*
X91277527Y-93509609D02*
X91354780Y-93619938D01*
X91354780Y-93619938D02*
X91440302Y-93683372D01*
X89815609Y-94122199D02*
X90378356Y-94221427D01*
X90096982Y-94171813D02*
X90270630Y-93187005D01*
X90270630Y-93187005D02*
X90339615Y-93344230D01*
X90339615Y-93344230D02*
X90416868Y-93454559D01*
X90416868Y-93454559D02*
X90502390Y-93517993D01*
X111130095Y-93366948D02*
X111599051Y-93449637D01*
X111599051Y-93449637D02*
X111772699Y-92464830D01*
X110285974Y-93218106D02*
X110848721Y-93317334D01*
X110567347Y-93267720D02*
X110740996Y-92282913D01*
X110740996Y-92282913D02*
X110809980Y-92440137D01*
X110809980Y-92440137D02*
X110887233Y-92550466D01*
X110887233Y-92550466D02*
X110972755Y-92613900D01*
X110067919Y-92260938D02*
X110029292Y-92205774D01*
X110029292Y-92205774D02*
X109943770Y-92142340D01*
X109943770Y-92142340D02*
X109709292Y-92100995D01*
X109709292Y-92100995D02*
X109607232Y-92131353D01*
X109607232Y-92131353D02*
X109552067Y-92169980D01*
X109552067Y-92169980D02*
X109488634Y-92255502D01*
X109488634Y-92255502D02*
X109472096Y-92349293D01*
X109472096Y-92349293D02*
X109494185Y-92498249D01*
X109494185Y-92498249D02*
X109957704Y-93160224D01*
X109957704Y-93160224D02*
X109348062Y-93052727D01*
X130331750Y-94173534D02*
X130800706Y-94256223D01*
X130800706Y-94256223D02*
X130974354Y-93271416D01*
X129487629Y-94024692D02*
X130050376Y-94123920D01*
X129769002Y-94074306D02*
X129942651Y-93089499D01*
X129942651Y-93089499D02*
X130011635Y-93246723D01*
X130011635Y-93246723D02*
X130088888Y-93357052D01*
X130088888Y-93357052D02*
X130174410Y-93420486D01*
X129333008Y-92982002D02*
X128723365Y-92874506D01*
X128723365Y-92874506D02*
X128985482Y-93307553D01*
X128985482Y-93307553D02*
X128844795Y-93282746D01*
X128844795Y-93282746D02*
X128742735Y-93313104D01*
X128742735Y-93313104D02*
X128687571Y-93351731D01*
X128687571Y-93351731D02*
X128624137Y-93437253D01*
X128624137Y-93437253D02*
X128582792Y-93671731D01*
X128582792Y-93671731D02*
X128613150Y-93773791D01*
X128613150Y-93773791D02*
X128651777Y-93828956D01*
X128651777Y-93828956D02*
X128737299Y-93892389D01*
X128737299Y-93892389D02*
X129018673Y-93942003D01*
X129018673Y-93942003D02*
X129120733Y-93911645D01*
X129120733Y-93911645D02*
X129175897Y-93873019D01*
X148651271Y-99982942D02*
X149120227Y-100065631D01*
X149120227Y-100065631D02*
X149293875Y-99080824D01*
X147807150Y-99834100D02*
X148369897Y-99933328D01*
X148088523Y-99883714D02*
X148262172Y-98898907D01*
X148262172Y-98898907D02*
X148331156Y-99056131D01*
X148331156Y-99056131D02*
X148408409Y-99166460D01*
X148408409Y-99166460D02*
X148493931Y-99229894D01*
X147078794Y-99028721D02*
X146963029Y-99685259D01*
X147379424Y-98694901D02*
X147489868Y-99439680D01*
X147489868Y-99439680D02*
X146880225Y-99332183D01*
X167081060Y-105167000D02*
X167550016Y-105249689D01*
X167550016Y-105249689D02*
X167723664Y-104264882D01*
X166236939Y-105018158D02*
X166799686Y-105117386D01*
X166518312Y-105067772D02*
X166691961Y-104082965D01*
X166691961Y-104082965D02*
X166760945Y-104240189D01*
X166760945Y-104240189D02*
X166838198Y-104350518D01*
X166838198Y-104350518D02*
X166923720Y-104413952D01*
X165519570Y-103876240D02*
X165988526Y-103958930D01*
X165988526Y-103958930D02*
X165952732Y-104436155D01*
X165952732Y-104436155D02*
X165914106Y-104380991D01*
X165914106Y-104380991D02*
X165828583Y-104317557D01*
X165828583Y-104317557D02*
X165594105Y-104276212D01*
X165594105Y-104276212D02*
X165492045Y-104306570D01*
X165492045Y-104306570D02*
X165436881Y-104345197D01*
X165436881Y-104345197D02*
X165373447Y-104430719D01*
X165373447Y-104430719D02*
X165332102Y-104665197D01*
X165332102Y-104665197D02*
X165362460Y-104767257D01*
X165362460Y-104767257D02*
X165401087Y-104822422D01*
X165401087Y-104822422D02*
X165486609Y-104885855D01*
X165486609Y-104885855D02*
X165721087Y-104927200D01*
X165721087Y-104927200D02*
X165823147Y-104896842D01*
X165823147Y-104896842D02*
X165878312Y-104858216D01*
X170744669Y-116949501D02*
X170827358Y-116480545D01*
X170827358Y-116480545D02*
X169842551Y-116306897D01*
X170595827Y-117793622D02*
X170695055Y-117230875D01*
X170645441Y-117512249D02*
X169660634Y-117338600D01*
X169660634Y-117338600D02*
X169817858Y-117269616D01*
X169817858Y-117269616D02*
X169928187Y-117192363D01*
X169928187Y-117192363D02*
X169991621Y-117106841D01*
X169462178Y-118464095D02*
X169495254Y-118276513D01*
X169495254Y-118276513D02*
X169558688Y-118190990D01*
X169558688Y-118190990D02*
X169613852Y-118152364D01*
X169613852Y-118152364D02*
X169771077Y-118083379D01*
X169771077Y-118083379D02*
X169966929Y-118069560D01*
X169966929Y-118069560D02*
X170342093Y-118135711D01*
X170342093Y-118135711D02*
X170427616Y-118199145D01*
X170427616Y-118199145D02*
X170466242Y-118254309D01*
X170466242Y-118254309D02*
X170496600Y-118356370D01*
X170496600Y-118356370D02*
X170463524Y-118543952D01*
X170463524Y-118543952D02*
X170400091Y-118629474D01*
X170400091Y-118629474D02*
X170344926Y-118668101D01*
X170344926Y-118668101D02*
X170242866Y-118698459D01*
X170242866Y-118698459D02*
X170008388Y-118657114D01*
X170008388Y-118657114D02*
X169922866Y-118593680D01*
X169922866Y-118593680D02*
X169884239Y-118538516D01*
X169884239Y-118538516D02*
X169853881Y-118436456D01*
X169853881Y-118436456D02*
X169886957Y-118248873D01*
X169886957Y-118248873D02*
X169950391Y-118163351D01*
X169950391Y-118163351D02*
X170005555Y-118124724D01*
X170005555Y-118124724D02*
X170107615Y-118094367D01*
X88289645Y-113197006D02*
X88758601Y-113279695D01*
X88758601Y-113279695D02*
X88932249Y-112294888D01*
X88165381Y-112256375D02*
X88126755Y-112201211D01*
X88126755Y-112201211D02*
X88041232Y-112137777D01*
X88041232Y-112137777D02*
X87806754Y-112096433D01*
X87806754Y-112096433D02*
X87704694Y-112126790D01*
X87704694Y-112126790D02*
X87649530Y-112165417D01*
X87649530Y-112165417D02*
X87586096Y-112250939D01*
X87586096Y-112250939D02*
X87569558Y-112344730D01*
X87569558Y-112344730D02*
X87591647Y-112493686D01*
X87591647Y-112493686D02*
X88055167Y-113155661D01*
X88055167Y-113155661D02*
X87445524Y-113048164D01*
X86507612Y-112882785D02*
X87070359Y-112982013D01*
X86788985Y-112932399D02*
X86962633Y-111947591D01*
X86962633Y-111947591D02*
X87031618Y-112104816D01*
X87031618Y-112104816D02*
X87108871Y-112215145D01*
X87108871Y-112215145D02*
X87194393Y-112278579D01*
X107822099Y-112127534D02*
X108291055Y-112210223D01*
X108291055Y-112210223D02*
X108464703Y-111225416D01*
X107697835Y-111186903D02*
X107659209Y-111131739D01*
X107659209Y-111131739D02*
X107573686Y-111068305D01*
X107573686Y-111068305D02*
X107339208Y-111026961D01*
X107339208Y-111026961D02*
X107237148Y-111057318D01*
X107237148Y-111057318D02*
X107181984Y-111095945D01*
X107181984Y-111095945D02*
X107118550Y-111181467D01*
X107118550Y-111181467D02*
X107102012Y-111275258D01*
X107102012Y-111275258D02*
X107124101Y-111424214D01*
X107124101Y-111424214D02*
X107587621Y-112086189D01*
X107587621Y-112086189D02*
X106977978Y-111978692D01*
X106759923Y-111021524D02*
X106721296Y-110966360D01*
X106721296Y-110966360D02*
X106635774Y-110902926D01*
X106635774Y-110902926D02*
X106401296Y-110861581D01*
X106401296Y-110861581D02*
X106299236Y-110891939D01*
X106299236Y-110891939D02*
X106244071Y-110930566D01*
X106244071Y-110930566D02*
X106180638Y-111016088D01*
X106180638Y-111016088D02*
X106164100Y-111109879D01*
X106164100Y-111109879D02*
X106186189Y-111258835D01*
X106186189Y-111258835D02*
X106649708Y-111920810D01*
X106649708Y-111920810D02*
X106040066Y-111813313D01*
X127023753Y-112934119D02*
X127492709Y-113016808D01*
X127492709Y-113016808D02*
X127666357Y-112032001D01*
X126899489Y-111993488D02*
X126860863Y-111938324D01*
X126860863Y-111938324D02*
X126775340Y-111874890D01*
X126775340Y-111874890D02*
X126540862Y-111833546D01*
X126540862Y-111833546D02*
X126438802Y-111863903D01*
X126438802Y-111863903D02*
X126383638Y-111902530D01*
X126383638Y-111902530D02*
X126320204Y-111988052D01*
X126320204Y-111988052D02*
X126303666Y-112081843D01*
X126303666Y-112081843D02*
X126325755Y-112230799D01*
X126325755Y-112230799D02*
X126789275Y-112892774D01*
X126789275Y-112892774D02*
X126179632Y-112785277D01*
X126025011Y-111742587D02*
X125415368Y-111635091D01*
X125415368Y-111635091D02*
X125677485Y-112068138D01*
X125677485Y-112068138D02*
X125536798Y-112043331D01*
X125536798Y-112043331D02*
X125434738Y-112073689D01*
X125434738Y-112073689D02*
X125379574Y-112112316D01*
X125379574Y-112112316D02*
X125316140Y-112197838D01*
X125316140Y-112197838D02*
X125274795Y-112432316D01*
X125274795Y-112432316D02*
X125305153Y-112534376D01*
X125305153Y-112534376D02*
X125343780Y-112589541D01*
X125343780Y-112589541D02*
X125429302Y-112652974D01*
X125429302Y-112652974D02*
X125710676Y-112702588D01*
X125710676Y-112702588D02*
X125812736Y-112672230D01*
X125812736Y-112672230D02*
X125867900Y-112633604D01*
X145343274Y-118743527D02*
X145812230Y-118826216D01*
X145812230Y-118826216D02*
X145985878Y-117841409D01*
X145219010Y-117802896D02*
X145180384Y-117747732D01*
X145180384Y-117747732D02*
X145094861Y-117684298D01*
X145094861Y-117684298D02*
X144860383Y-117642954D01*
X144860383Y-117642954D02*
X144758323Y-117673311D01*
X144758323Y-117673311D02*
X144703159Y-117711938D01*
X144703159Y-117711938D02*
X144639725Y-117797460D01*
X144639725Y-117797460D02*
X144623187Y-117891251D01*
X144623187Y-117891251D02*
X144645276Y-118040207D01*
X144645276Y-118040207D02*
X145108796Y-118702182D01*
X145108796Y-118702182D02*
X144499153Y-118594685D01*
X143770797Y-117789306D02*
X143655032Y-118445844D01*
X144071427Y-117455486D02*
X144181871Y-118200265D01*
X144181871Y-118200265D02*
X143572228Y-118092768D01*
X163773061Y-123927585D02*
X164242017Y-124010274D01*
X164242017Y-124010274D02*
X164415665Y-123025467D01*
X163648797Y-122986954D02*
X163610171Y-122931790D01*
X163610171Y-122931790D02*
X163524648Y-122868356D01*
X163524648Y-122868356D02*
X163290170Y-122827012D01*
X163290170Y-122827012D02*
X163188110Y-122857369D01*
X163188110Y-122857369D02*
X163132946Y-122895996D01*
X163132946Y-122895996D02*
X163069512Y-122981518D01*
X163069512Y-122981518D02*
X163052974Y-123075309D01*
X163052974Y-123075309D02*
X163075063Y-123224265D01*
X163075063Y-123224265D02*
X163538583Y-123886240D01*
X163538583Y-123886240D02*
X162928940Y-123778743D01*
X162211571Y-122636825D02*
X162680527Y-122719515D01*
X162680527Y-122719515D02*
X162644733Y-123196740D01*
X162644733Y-123196740D02*
X162606107Y-123141576D01*
X162606107Y-123141576D02*
X162520584Y-123078142D01*
X162520584Y-123078142D02*
X162286106Y-123036797D01*
X162286106Y-123036797D02*
X162184046Y-123067155D01*
X162184046Y-123067155D02*
X162128882Y-123105782D01*
X162128882Y-123105782D02*
X162065448Y-123191304D01*
X162065448Y-123191304D02*
X162024103Y-123425782D01*
X162024103Y-123425782D02*
X162054461Y-123527842D01*
X162054461Y-123527842D02*
X162093088Y-123583007D01*
X162093088Y-123583007D02*
X162178610Y-123646440D01*
X162178610Y-123646440D02*
X162413088Y-123687785D01*
X162413088Y-123687785D02*
X162515148Y-123657427D01*
X162515148Y-123657427D02*
X162570313Y-123618801D01*
X176660208Y-153893235D02*
X177024991Y-154199324D01*
X177024991Y-154199324D02*
X177667778Y-153433280D01*
X177022907Y-153016493D02*
X177017038Y-152949406D01*
X177017038Y-152949406D02*
X176974690Y-152851710D01*
X176974690Y-152851710D02*
X176792299Y-152698665D01*
X176792299Y-152698665D02*
X176688733Y-152673926D01*
X176688733Y-152673926D02*
X176621646Y-152679795D01*
X176621646Y-152679795D02*
X176523950Y-152722143D01*
X176523950Y-152722143D02*
X176462732Y-152795099D01*
X176462732Y-152795099D02*
X176407384Y-152935143D01*
X176407384Y-152935143D02*
X176477816Y-153740190D01*
X176477816Y-153740190D02*
X176003598Y-153342274D01*
X175989776Y-152025269D02*
X176135689Y-152147704D01*
X176135689Y-152147704D02*
X176178037Y-152245400D01*
X176178037Y-152245400D02*
X176183906Y-152312488D01*
X176183906Y-152312488D02*
X176165036Y-152483141D01*
X176165036Y-152483141D02*
X176079079Y-152659663D01*
X176079079Y-152659663D02*
X175834207Y-152951489D01*
X175834207Y-152951489D02*
X175736511Y-152993837D01*
X175736511Y-152993837D02*
X175669424Y-152999706D01*
X175669424Y-152999706D02*
X175565858Y-152974967D01*
X175565858Y-152974967D02*
X175419945Y-152852531D01*
X175419945Y-152852531D02*
X175377597Y-152754835D01*
X175377597Y-152754835D02*
X175371728Y-152687747D01*
X175371728Y-152687747D02*
X175396468Y-152584182D01*
X175396468Y-152584182D02*
X175549512Y-152401790D01*
X175549512Y-152401790D02*
X175647208Y-152359443D01*
X175647208Y-152359443D02*
X175714296Y-152353573D01*
X175714296Y-152353573D02*
X175817861Y-152378313D01*
X175817861Y-152378313D02*
X175963774Y-152500749D01*
X175963774Y-152500749D02*
X176006122Y-152598445D01*
X176006122Y-152598445D02*
X176011992Y-152665532D01*
X176011992Y-152665532D02*
X175987252Y-152769098D01*
X84981648Y-131957591D02*
X85450604Y-132040280D01*
X85450604Y-132040280D02*
X85624252Y-131055473D01*
X84920818Y-130931438D02*
X84311175Y-130823942D01*
X84311175Y-130823942D02*
X84573292Y-131256989D01*
X84573292Y-131256989D02*
X84432606Y-131232182D01*
X84432606Y-131232182D02*
X84330545Y-131262540D01*
X84330545Y-131262540D02*
X84275381Y-131301167D01*
X84275381Y-131301167D02*
X84211947Y-131386689D01*
X84211947Y-131386689D02*
X84170603Y-131621167D01*
X84170603Y-131621167D02*
X84200960Y-131723227D01*
X84200960Y-131723227D02*
X84239587Y-131778392D01*
X84239587Y-131778392D02*
X84325109Y-131841825D01*
X84325109Y-131841825D02*
X84606483Y-131891439D01*
X84606483Y-131891439D02*
X84708543Y-131861081D01*
X84708543Y-131861081D02*
X84763708Y-131822455D01*
X83199615Y-131643370D02*
X83762362Y-131742598D01*
X83480988Y-131692984D02*
X83654636Y-130708176D01*
X83654636Y-130708176D02*
X83723621Y-130865401D01*
X83723621Y-130865401D02*
X83800874Y-130975730D01*
X83800874Y-130975730D02*
X83886396Y-131039164D01*
X104514102Y-130888118D02*
X104983058Y-130970807D01*
X104983058Y-130970807D02*
X105156706Y-129986000D01*
X104453272Y-129861965D02*
X103843629Y-129754469D01*
X103843629Y-129754469D02*
X104105746Y-130187516D01*
X104105746Y-130187516D02*
X103965060Y-130162709D01*
X103965060Y-130162709D02*
X103862999Y-130193067D01*
X103862999Y-130193067D02*
X103807835Y-130231694D01*
X103807835Y-130231694D02*
X103744401Y-130317216D01*
X103744401Y-130317216D02*
X103703057Y-130551694D01*
X103703057Y-130551694D02*
X103733414Y-130653754D01*
X103733414Y-130653754D02*
X103772041Y-130708919D01*
X103772041Y-130708919D02*
X103857563Y-130772352D01*
X103857563Y-130772352D02*
X104138937Y-130821966D01*
X104138937Y-130821966D02*
X104240997Y-130791608D01*
X104240997Y-130791608D02*
X104296162Y-130752982D01*
X103451926Y-129782108D02*
X103413299Y-129726944D01*
X103413299Y-129726944D02*
X103327777Y-129663510D01*
X103327777Y-129663510D02*
X103093299Y-129622165D01*
X103093299Y-129622165D02*
X102991239Y-129652523D01*
X102991239Y-129652523D02*
X102936074Y-129691150D01*
X102936074Y-129691150D02*
X102872641Y-129776672D01*
X102872641Y-129776672D02*
X102856103Y-129870463D01*
X102856103Y-129870463D02*
X102878192Y-130019419D01*
X102878192Y-130019419D02*
X103341711Y-130681394D01*
X103341711Y-130681394D02*
X102732069Y-130573897D01*
X123715755Y-131694706D02*
X124184711Y-131777395D01*
X124184711Y-131777395D02*
X124358359Y-130792588D01*
X123654925Y-130668553D02*
X123045282Y-130561057D01*
X123045282Y-130561057D02*
X123307399Y-130994104D01*
X123307399Y-130994104D02*
X123166713Y-130969297D01*
X123166713Y-130969297D02*
X123064652Y-130999655D01*
X123064652Y-130999655D02*
X123009488Y-131038282D01*
X123009488Y-131038282D02*
X122946054Y-131123804D01*
X122946054Y-131123804D02*
X122904710Y-131358282D01*
X122904710Y-131358282D02*
X122935067Y-131460342D01*
X122935067Y-131460342D02*
X122973694Y-131515507D01*
X122973694Y-131515507D02*
X123059216Y-131578940D01*
X123059216Y-131578940D02*
X123340590Y-131628554D01*
X123340590Y-131628554D02*
X123442650Y-131598196D01*
X123442650Y-131598196D02*
X123497815Y-131559570D01*
X122717013Y-130503174D02*
X122107370Y-130395678D01*
X122107370Y-130395678D02*
X122369487Y-130828725D01*
X122369487Y-130828725D02*
X122228800Y-130803918D01*
X122228800Y-130803918D02*
X122126740Y-130834276D01*
X122126740Y-130834276D02*
X122071576Y-130872903D01*
X122071576Y-130872903D02*
X122008142Y-130958425D01*
X122008142Y-130958425D02*
X121966797Y-131192903D01*
X121966797Y-131192903D02*
X121997155Y-131294963D01*
X121997155Y-131294963D02*
X122035782Y-131350128D01*
X122035782Y-131350128D02*
X122121304Y-131413561D01*
X122121304Y-131413561D02*
X122402678Y-131463175D01*
X122402678Y-131463175D02*
X122504738Y-131432817D01*
X122504738Y-131432817D02*
X122559902Y-131394191D01*
X142035276Y-137504115D02*
X142504232Y-137586804D01*
X142504232Y-137586804D02*
X142677880Y-136601997D01*
X141974446Y-136477962D02*
X141364803Y-136370466D01*
X141364803Y-136370466D02*
X141626920Y-136803513D01*
X141626920Y-136803513D02*
X141486234Y-136778706D01*
X141486234Y-136778706D02*
X141384173Y-136809064D01*
X141384173Y-136809064D02*
X141329009Y-136847691D01*
X141329009Y-136847691D02*
X141265575Y-136933213D01*
X141265575Y-136933213D02*
X141224231Y-137167691D01*
X141224231Y-137167691D02*
X141254588Y-137269751D01*
X141254588Y-137269751D02*
X141293215Y-137324916D01*
X141293215Y-137324916D02*
X141378737Y-137388349D01*
X141378737Y-137388349D02*
X141660111Y-137437963D01*
X141660111Y-137437963D02*
X141762171Y-137407605D01*
X141762171Y-137407605D02*
X141817336Y-137368979D01*
X140462799Y-136549894D02*
X140347034Y-137206432D01*
X140763429Y-136216074D02*
X140873873Y-136960853D01*
X140873873Y-136960853D02*
X140264230Y-136853356D01*
X160465064Y-142688170D02*
X160934020Y-142770859D01*
X160934020Y-142770859D02*
X161107668Y-141786052D01*
X160404234Y-141662017D02*
X159794591Y-141554521D01*
X159794591Y-141554521D02*
X160056708Y-141987568D01*
X160056708Y-141987568D02*
X159916022Y-141962761D01*
X159916022Y-141962761D02*
X159813961Y-141993119D01*
X159813961Y-141993119D02*
X159758797Y-142031746D01*
X159758797Y-142031746D02*
X159695363Y-142117268D01*
X159695363Y-142117268D02*
X159654019Y-142351746D01*
X159654019Y-142351746D02*
X159684376Y-142453806D01*
X159684376Y-142453806D02*
X159723003Y-142508971D01*
X159723003Y-142508971D02*
X159808525Y-142572404D01*
X159808525Y-142572404D02*
X160089899Y-142622018D01*
X160089899Y-142622018D02*
X160191959Y-142591660D01*
X160191959Y-142591660D02*
X160247124Y-142553034D01*
X158903574Y-141397410D02*
X159372530Y-141480100D01*
X159372530Y-141480100D02*
X159336736Y-141957325D01*
X159336736Y-141957325D02*
X159298110Y-141902161D01*
X159298110Y-141902161D02*
X159212587Y-141838727D01*
X159212587Y-141838727D02*
X158978109Y-141797382D01*
X158978109Y-141797382D02*
X158876049Y-141827740D01*
X158876049Y-141827740D02*
X158820885Y-141866367D01*
X158820885Y-141866367D02*
X158757451Y-141951889D01*
X158757451Y-141951889D02*
X158716106Y-142186367D01*
X158716106Y-142186367D02*
X158746464Y-142288427D01*
X158746464Y-142288427D02*
X158785091Y-142343592D01*
X158785091Y-142343592D02*
X158870613Y-142407025D01*
X158870613Y-142407025D02*
X159105091Y-142448370D01*
X159105091Y-142448370D02*
X159207151Y-142418012D01*
X159207151Y-142418012D02*
X159262316Y-142379386D01*
X191265385Y-166140459D02*
X191630168Y-166446548D01*
X191630168Y-166446548D02*
X192272955Y-165680504D01*
X191725781Y-165221370D02*
X191251563Y-164823453D01*
X191251563Y-164823453D02*
X191262039Y-165329542D01*
X191262039Y-165329542D02*
X191152604Y-165237716D01*
X191152604Y-165237716D02*
X191049039Y-165212976D01*
X191049039Y-165212976D02*
X190981952Y-165218845D01*
X190981952Y-165218845D02*
X190884255Y-165261193D01*
X190884255Y-165261193D02*
X190731211Y-165443585D01*
X190731211Y-165443585D02*
X190706471Y-165547150D01*
X190706471Y-165547150D02*
X190712341Y-165614237D01*
X190712341Y-165614237D02*
X190754688Y-165711934D01*
X190754688Y-165711934D02*
X190973558Y-165895587D01*
X190973558Y-165895587D02*
X191077124Y-165920327D01*
X191077124Y-165920327D02*
X191144211Y-165914457D01*
X190594953Y-164272493D02*
X190740866Y-164394928D01*
X190740866Y-164394928D02*
X190783214Y-164492624D01*
X190783214Y-164492624D02*
X190789083Y-164559712D01*
X190789083Y-164559712D02*
X190770213Y-164730365D01*
X190770213Y-164730365D02*
X190684256Y-164906887D01*
X190684256Y-164906887D02*
X190439384Y-165198713D01*
X190439384Y-165198713D02*
X190341688Y-165241061D01*
X190341688Y-165241061D02*
X190274601Y-165246930D01*
X190274601Y-165246930D02*
X190171035Y-165222191D01*
X190171035Y-165222191D02*
X190025122Y-165099755D01*
X190025122Y-165099755D02*
X189982774Y-165002059D01*
X189982774Y-165002059D02*
X189976905Y-164934971D01*
X189976905Y-164934971D02*
X190001645Y-164831406D01*
X190001645Y-164831406D02*
X190154689Y-164649014D01*
X190154689Y-164649014D02*
X190252385Y-164606667D01*
X190252385Y-164606667D02*
X190319473Y-164600797D01*
X190319473Y-164600797D02*
X190423038Y-164625537D01*
X190423038Y-164625537D02*
X190568951Y-164747973D01*
X190568951Y-164747973D02*
X190611299Y-164845669D01*
X190611299Y-164845669D02*
X190617169Y-164912756D01*
X190617169Y-164912756D02*
X190592429Y-165016322D01*
X62913062Y-147410181D02*
X63382018Y-147492870D01*
X63382018Y-147492870D02*
X63555666Y-146508063D01*
X62278497Y-146621339D02*
X62162732Y-147277877D01*
X62579127Y-146287519D02*
X62689571Y-147032298D01*
X62689571Y-147032298D02*
X62079928Y-146924801D01*
X61632946Y-146169035D02*
X61539155Y-146152497D01*
X61539155Y-146152497D02*
X61437095Y-146182855D01*
X61437095Y-146182855D02*
X61381930Y-146221482D01*
X61381930Y-146221482D02*
X61318496Y-146307004D01*
X61318496Y-146307004D02*
X61238525Y-146486317D01*
X61238525Y-146486317D02*
X61197180Y-146720795D01*
X61197180Y-146720795D02*
X61211000Y-146916647D01*
X61211000Y-146916647D02*
X61241358Y-147018707D01*
X61241358Y-147018707D02*
X61279984Y-147073872D01*
X61279984Y-147073872D02*
X61365507Y-147137305D01*
X61365507Y-147137305D02*
X61459298Y-147153843D01*
X61459298Y-147153843D02*
X61561358Y-147123485D01*
X61561358Y-147123485D02*
X61616523Y-147084859D01*
X61616523Y-147084859D02*
X61679956Y-146999336D01*
X61679956Y-146999336D02*
X61759928Y-146820023D01*
X61759928Y-146820023D02*
X61801272Y-146585545D01*
X61801272Y-146585545D02*
X61787453Y-146389694D01*
X61787453Y-146389694D02*
X61757095Y-146287633D01*
X61757095Y-146287633D02*
X61718468Y-146232469D01*
X61718468Y-146232469D02*
X61632946Y-146169035D01*
X81673650Y-150718179D02*
X82142606Y-150800868D01*
X82142606Y-150800868D02*
X82316254Y-149816061D01*
X81039085Y-149929337D02*
X80923320Y-150585875D01*
X81339715Y-149595517D02*
X81450159Y-150340296D01*
X81450159Y-150340296D02*
X80840516Y-150232799D01*
X79891617Y-150403958D02*
X80454364Y-150503186D01*
X80172990Y-150453572D02*
X80346638Y-149468764D01*
X80346638Y-149468764D02*
X80415623Y-149625989D01*
X80415623Y-149625989D02*
X80492876Y-149736318D01*
X80492876Y-149736318D02*
X80578398Y-149799752D01*
X101206104Y-149648705D02*
X101675060Y-149731394D01*
X101675060Y-149731394D02*
X101848708Y-148746587D01*
X100571539Y-148859863D02*
X100455774Y-149516401D01*
X100872169Y-148526043D02*
X100982613Y-149270822D01*
X100982613Y-149270822D02*
X100372970Y-149163325D01*
X100143928Y-148542695D02*
X100105301Y-148487531D01*
X100105301Y-148487531D02*
X100019779Y-148424097D01*
X100019779Y-148424097D02*
X99785301Y-148382752D01*
X99785301Y-148382752D02*
X99683241Y-148413110D01*
X99683241Y-148413110D02*
X99628076Y-148451737D01*
X99628076Y-148451737D02*
X99564643Y-148537259D01*
X99564643Y-148537259D02*
X99548105Y-148631050D01*
X99548105Y-148631050D02*
X99570194Y-148780006D01*
X99570194Y-148780006D02*
X100033713Y-149441981D01*
X100033713Y-149441981D02*
X99424071Y-149334484D01*
X120407757Y-150455291D02*
X120876713Y-150537980D01*
X120876713Y-150537980D02*
X121050361Y-149553173D01*
X119773192Y-149666449D02*
X119657427Y-150322987D01*
X120073822Y-149332629D02*
X120184266Y-150077408D01*
X120184266Y-150077408D02*
X119574623Y-149969911D01*
X119409015Y-149263759D02*
X118799372Y-149156263D01*
X118799372Y-149156263D02*
X119061489Y-149589310D01*
X119061489Y-149589310D02*
X118920802Y-149564503D01*
X118920802Y-149564503D02*
X118818742Y-149594861D01*
X118818742Y-149594861D02*
X118763578Y-149633488D01*
X118763578Y-149633488D02*
X118700144Y-149719010D01*
X118700144Y-149719010D02*
X118658799Y-149953488D01*
X118658799Y-149953488D02*
X118689157Y-150055548D01*
X118689157Y-150055548D02*
X118727784Y-150110713D01*
X118727784Y-150110713D02*
X118813306Y-150174146D01*
X118813306Y-150174146D02*
X119094680Y-150223760D01*
X119094680Y-150223760D02*
X119196740Y-150193402D01*
X119196740Y-150193402D02*
X119251904Y-150154776D01*
X153215997Y-161037385D02*
X153522086Y-160672602D01*
X153522086Y-160672602D02*
X152756042Y-160029815D01*
X152215557Y-161192513D02*
X152726254Y-161621038D01*
X152076776Y-160765250D02*
X152776995Y-161041993D01*
X152776995Y-161041993D02*
X152379079Y-161516211D01*
X151317422Y-161744295D02*
X151623511Y-161379512D01*
X151623511Y-161379512D02*
X152018903Y-161649123D01*
X152018903Y-161649123D02*
X151951816Y-161654993D01*
X151951816Y-161654993D02*
X151854120Y-161697340D01*
X151854120Y-161697340D02*
X151701075Y-161879732D01*
X151701075Y-161879732D02*
X151676335Y-161983297D01*
X151676335Y-161983297D02*
X151682205Y-162050385D01*
X151682205Y-162050385D02*
X151724552Y-162148081D01*
X151724552Y-162148081D02*
X151906944Y-162301125D01*
X151906944Y-162301125D02*
X152010509Y-162325865D01*
X152010509Y-162325865D02*
X152077597Y-162319996D01*
X152077597Y-162319996D02*
X152175293Y-162277648D01*
X152175293Y-162277648D02*
X152328338Y-162095256D01*
X152328338Y-162095256D02*
X152353077Y-161991691D01*
X152353077Y-161991691D02*
X152347208Y-161924604D01*
X167821175Y-173284610D02*
X168127264Y-172919827D01*
X168127264Y-172919827D02*
X167361220Y-172277040D01*
X166820735Y-173439738D02*
X167331432Y-173868263D01*
X166681954Y-173012475D02*
X167382173Y-173289218D01*
X167382173Y-173289218D02*
X166984257Y-173763436D01*
X165953209Y-173955042D02*
X166075644Y-173809129D01*
X166075644Y-173809129D02*
X166173340Y-173766781D01*
X166173340Y-173766781D02*
X166240428Y-173760912D01*
X166240428Y-173760912D02*
X166411081Y-173779782D01*
X166411081Y-173779782D02*
X166587603Y-173865739D01*
X166587603Y-173865739D02*
X166879429Y-174110611D01*
X166879429Y-174110611D02*
X166921777Y-174208307D01*
X166921777Y-174208307D02*
X166927646Y-174275394D01*
X166927646Y-174275394D02*
X166902907Y-174378960D01*
X166902907Y-174378960D02*
X166780471Y-174524873D01*
X166780471Y-174524873D02*
X166682775Y-174567221D01*
X166682775Y-174567221D02*
X166615687Y-174573090D01*
X166615687Y-174573090D02*
X166512122Y-174548350D01*
X166512122Y-174548350D02*
X166329730Y-174395306D01*
X166329730Y-174395306D02*
X166287383Y-174297610D01*
X166287383Y-174297610D02*
X166281513Y-174230522D01*
X166281513Y-174230522D02*
X166306253Y-174126957D01*
X166306253Y-174126957D02*
X166428689Y-173981044D01*
X166428689Y-173981044D02*
X166526385Y-173938696D01*
X166526385Y-173938696D02*
X166593472Y-173932826D01*
X166593472Y-173932826D02*
X166697038Y-173957566D01*
X283303372Y-135459750D02*
X283548951Y-134932911D01*
X283866119Y-135360522D02*
X283692471Y-134375715D01*
X283692471Y-134375715D02*
X283317306Y-134441866D01*
X283317306Y-134441866D02*
X283231784Y-134505300D01*
X283231784Y-134505300D02*
X283193157Y-134560464D01*
X283193157Y-134560464D02*
X283162799Y-134662525D01*
X283162799Y-134662525D02*
X283187606Y-134803211D01*
X283187606Y-134803211D02*
X283251040Y-134888734D01*
X283251040Y-134888734D02*
X283306204Y-134927360D01*
X283306204Y-134927360D02*
X283408265Y-134957718D01*
X283408265Y-134957718D02*
X283783429Y-134891566D01*
X282801454Y-134532825D02*
X282191811Y-134640321D01*
X282191811Y-134640321D02*
X282586232Y-134957603D01*
X282586232Y-134957603D02*
X282445546Y-134982410D01*
X282445546Y-134982410D02*
X282360023Y-135045844D01*
X282360023Y-135045844D02*
X282321397Y-135101008D01*
X282321397Y-135101008D02*
X282291039Y-135203069D01*
X282291039Y-135203069D02*
X282332384Y-135437547D01*
X282332384Y-135437547D02*
X282395817Y-135523069D01*
X282395817Y-135523069D02*
X282450982Y-135561696D01*
X282450982Y-135561696D02*
X282553042Y-135592053D01*
X282553042Y-135592053D02*
X282834416Y-135542439D01*
X282834416Y-135542439D02*
X282919938Y-135479006D01*
X282919938Y-135479006D02*
X282958565Y-135423841D01*
X281405573Y-135117432D02*
X281521339Y-135773970D01*
X281573900Y-134700922D02*
X281932412Y-135363012D01*
X281932412Y-135363012D02*
X281322769Y-135470508D01*
X314208551Y-91322581D02*
X314454130Y-90795742D01*
X314771298Y-91223353D02*
X314597650Y-90238546D01*
X314597650Y-90238546D02*
X314222485Y-90304697D01*
X314222485Y-90304697D02*
X314136963Y-90368131D01*
X314136963Y-90368131D02*
X314098336Y-90423295D01*
X314098336Y-90423295D02*
X314067978Y-90525356D01*
X314067978Y-90525356D02*
X314092785Y-90666042D01*
X314092785Y-90666042D02*
X314156219Y-90751565D01*
X314156219Y-90751565D02*
X314211383Y-90790191D01*
X314211383Y-90790191D02*
X314313444Y-90820549D01*
X314313444Y-90820549D02*
X314688608Y-90754397D01*
X313270639Y-91487960D02*
X313833386Y-91388733D01*
X313552012Y-91438346D02*
X313378364Y-90453539D01*
X313378364Y-90453539D02*
X313496962Y-90577687D01*
X313496962Y-90577687D02*
X313607291Y-90654941D01*
X313607291Y-90654941D02*
X313709351Y-90685298D01*
X312738363Y-90663095D02*
X312683199Y-90624469D01*
X312683199Y-90624469D02*
X312581139Y-90594111D01*
X312581139Y-90594111D02*
X312346661Y-90635456D01*
X312346661Y-90635456D02*
X312261138Y-90698889D01*
X312261138Y-90698889D02*
X312222512Y-90754054D01*
X312222512Y-90754054D02*
X312192154Y-90856114D01*
X312192154Y-90856114D02*
X312208692Y-90949905D01*
X312208692Y-90949905D02*
X312280394Y-91082323D01*
X312280394Y-91082323D02*
X312942369Y-91545843D01*
X312942369Y-91545843D02*
X312332726Y-91653339D01*
X340357000Y-129913226D02*
X340602579Y-129386387D01*
X340919747Y-129813998D02*
X340746099Y-128829191D01*
X340746099Y-128829191D02*
X340370934Y-128895342D01*
X340370934Y-128895342D02*
X340285412Y-128958776D01*
X340285412Y-128958776D02*
X340246785Y-129013940D01*
X340246785Y-129013940D02*
X340216427Y-129116001D01*
X340216427Y-129116001D02*
X340241234Y-129256687D01*
X340241234Y-129256687D02*
X340304668Y-129342210D01*
X340304668Y-129342210D02*
X340359832Y-129380836D01*
X340359832Y-129380836D02*
X340461893Y-129411194D01*
X340461893Y-129411194D02*
X340837057Y-129345042D01*
X339855082Y-128986301D02*
X339245439Y-129093797D01*
X339245439Y-129093797D02*
X339639860Y-129411079D01*
X339639860Y-129411079D02*
X339499174Y-129435886D01*
X339499174Y-129435886D02*
X339413651Y-129499320D01*
X339413651Y-129499320D02*
X339375025Y-129554484D01*
X339375025Y-129554484D02*
X339344667Y-129656545D01*
X339344667Y-129656545D02*
X339386012Y-129891023D01*
X339386012Y-129891023D02*
X339449445Y-129976545D01*
X339449445Y-129976545D02*
X339504610Y-130015172D01*
X339504610Y-130015172D02*
X339606670Y-130045529D01*
X339606670Y-130045529D02*
X339888044Y-129995915D01*
X339888044Y-129995915D02*
X339973566Y-129932482D01*
X339973566Y-129932482D02*
X340012193Y-129877317D01*
X338481175Y-130243984D02*
X339043923Y-130144757D01*
X338762549Y-130194371D02*
X338588901Y-129209563D01*
X338588901Y-129209563D02*
X338707499Y-129333712D01*
X338707499Y-129333712D02*
X338817828Y-129410965D01*
X338817828Y-129410965D02*
X338919888Y-129441323D01*
X272910421Y-79260678D02*
X273156001Y-78733839D01*
X273473168Y-79161450D02*
X273299520Y-78176642D01*
X273299520Y-78176642D02*
X272924355Y-78242794D01*
X272924355Y-78242794D02*
X272838833Y-78306227D01*
X272838833Y-78306227D02*
X272800207Y-78361392D01*
X272800207Y-78361392D02*
X272769849Y-78463452D01*
X272769849Y-78463452D02*
X272794656Y-78604139D01*
X272794656Y-78604139D02*
X272858089Y-78689661D01*
X272858089Y-78689661D02*
X272913254Y-78728288D01*
X272913254Y-78728288D02*
X273015314Y-78758646D01*
X273015314Y-78758646D02*
X273390479Y-78692494D01*
X271950535Y-78752980D02*
X272066300Y-79409519D01*
X272118861Y-78336471D02*
X272477374Y-78998560D01*
X272477374Y-78998560D02*
X271867731Y-79106056D01*
X310431595Y-72644685D02*
X310677175Y-72117846D01*
X310994342Y-72545457D02*
X310820694Y-71560649D01*
X310820694Y-71560649D02*
X310445529Y-71626801D01*
X310445529Y-71626801D02*
X310360007Y-71690234D01*
X310360007Y-71690234D02*
X310321381Y-71745399D01*
X310321381Y-71745399D02*
X310291023Y-71847459D01*
X310291023Y-71847459D02*
X310315830Y-71988146D01*
X310315830Y-71988146D02*
X310379263Y-72073668D01*
X310379263Y-72073668D02*
X310434428Y-72112295D01*
X310434428Y-72112295D02*
X310536488Y-72142653D01*
X310536488Y-72142653D02*
X310911653Y-72076501D01*
X309899320Y-71819820D02*
X309844155Y-71781193D01*
X309844155Y-71781193D02*
X309742095Y-71750835D01*
X309742095Y-71750835D02*
X309507617Y-71792180D01*
X309507617Y-71792180D02*
X309422095Y-71855614D01*
X309422095Y-71855614D02*
X309383468Y-71910778D01*
X309383468Y-71910778D02*
X309353111Y-72012838D01*
X309353111Y-72012838D02*
X309369649Y-72106630D01*
X309369649Y-72106630D02*
X309441351Y-72239048D01*
X309441351Y-72239048D02*
X310103326Y-72702567D01*
X310103326Y-72702567D02*
X309493683Y-72810064D01*
X223263556Y-96749304D02*
X223790395Y-96994884D01*
X223362784Y-97312051D02*
X224347592Y-97138403D01*
X224347592Y-97138403D02*
X224281440Y-96763238D01*
X224281440Y-96763238D02*
X224218007Y-96677716D01*
X224218007Y-96677716D02*
X224162842Y-96639090D01*
X224162842Y-96639090D02*
X224060782Y-96608732D01*
X224060782Y-96608732D02*
X223920095Y-96633539D01*
X223920095Y-96633539D02*
X223834573Y-96696972D01*
X223834573Y-96696972D02*
X223795946Y-96752137D01*
X223795946Y-96752137D02*
X223765588Y-96854197D01*
X223765588Y-96854197D02*
X223831740Y-97229362D01*
X224099523Y-95731535D02*
X224132599Y-95919117D01*
X224132599Y-95919117D02*
X224102241Y-96021178D01*
X224102241Y-96021178D02*
X224063614Y-96076342D01*
X224063614Y-96076342D02*
X223939466Y-96194940D01*
X223939466Y-96194940D02*
X223760152Y-96274912D01*
X223760152Y-96274912D02*
X223384987Y-96341063D01*
X223384987Y-96341063D02*
X223282927Y-96310706D01*
X223282927Y-96310706D02*
X223227762Y-96272079D01*
X223227762Y-96272079D02*
X223164329Y-96186557D01*
X223164329Y-96186557D02*
X223131253Y-95998974D01*
X223131253Y-95998974D02*
X223161611Y-95896914D01*
X223161611Y-95896914D02*
X223200237Y-95841750D01*
X223200237Y-95841750D02*
X223285760Y-95778316D01*
X223285760Y-95778316D02*
X223520238Y-95736971D01*
X223520238Y-95736971D02*
X223622298Y-95767329D01*
X223622298Y-95767329D02*
X223677462Y-95805956D01*
X223677462Y-95805956D02*
X223740896Y-95891478D01*
X223740896Y-95891478D02*
X223773972Y-96079060D01*
X223773972Y-96079060D02*
X223743614Y-96181121D01*
X223743614Y-96181121D02*
X223704987Y-96236285D01*
X223704987Y-96236285D02*
X223619465Y-96299719D01*
X298314895Y-110889754D02*
X298560474Y-110362915D01*
X298877642Y-110790526D02*
X298703994Y-109805719D01*
X298703994Y-109805719D02*
X298328829Y-109871870D01*
X298328829Y-109871870D02*
X298243307Y-109935304D01*
X298243307Y-109935304D02*
X298204680Y-109990468D01*
X298204680Y-109990468D02*
X298174322Y-110092529D01*
X298174322Y-110092529D02*
X298199129Y-110233215D01*
X298199129Y-110233215D02*
X298262563Y-110318738D01*
X298262563Y-110318738D02*
X298317727Y-110357364D01*
X298317727Y-110357364D02*
X298419788Y-110387722D01*
X298419788Y-110387722D02*
X298794952Y-110321570D01*
X297782620Y-110064889D02*
X297727455Y-110026262D01*
X297727455Y-110026262D02*
X297625395Y-109995905D01*
X297625395Y-109995905D02*
X297390917Y-110037249D01*
X297390917Y-110037249D02*
X297305395Y-110100683D01*
X297305395Y-110100683D02*
X297266768Y-110155848D01*
X297266768Y-110155848D02*
X297236410Y-110257908D01*
X297236410Y-110257908D02*
X297252948Y-110351699D01*
X297252948Y-110351699D02*
X297324651Y-110484117D01*
X297324651Y-110484117D02*
X297986625Y-110947637D01*
X297986625Y-110947637D02*
X297376983Y-111055133D01*
X296875065Y-110128208D02*
X296265422Y-110235705D01*
X296265422Y-110235705D02*
X296659843Y-110552987D01*
X296659843Y-110552987D02*
X296519156Y-110577794D01*
X296519156Y-110577794D02*
X296433634Y-110641227D01*
X296433634Y-110641227D02*
X296395007Y-110696392D01*
X296395007Y-110696392D02*
X296364650Y-110798452D01*
X296364650Y-110798452D02*
X296405995Y-111032930D01*
X296405995Y-111032930D02*
X296469428Y-111118452D01*
X296469428Y-111118452D02*
X296524593Y-111157079D01*
X296524593Y-111157079D02*
X296626653Y-111187436D01*
X296626653Y-111187436D02*
X296908026Y-111137823D01*
X296908026Y-111137823D02*
X296993549Y-111074389D01*
X296993549Y-111074389D02*
X297032175Y-111019225D01*
X282513617Y-156307892D02*
X282614473Y-155735444D01*
X283031507Y-156066396D02*
X282608889Y-155160088D01*
X282608889Y-155160088D02*
X282263629Y-155321086D01*
X282263629Y-155321086D02*
X282197438Y-155404493D01*
X282197438Y-155404493D02*
X282174405Y-155467775D01*
X282174405Y-155467775D02*
X282171497Y-155574215D01*
X282171497Y-155574215D02*
X282231871Y-155703687D01*
X282231871Y-155703687D02*
X282315278Y-155769878D01*
X282315278Y-155769878D02*
X282378560Y-155792910D01*
X282378560Y-155792910D02*
X282485000Y-155795819D01*
X282485000Y-155795819D02*
X282830260Y-155634821D01*
X281455036Y-156065931D02*
X281736782Y-156670137D01*
X281509826Y-155620048D02*
X282027484Y-156166787D01*
X282027484Y-156166787D02*
X281466436Y-156428408D01*
X280591886Y-156468425D02*
X280873631Y-157072630D01*
X280646676Y-156022541D02*
X281164334Y-156569281D01*
X281164334Y-156569281D02*
X280603286Y-156830902D01*
X291229941Y-73451269D02*
X291475521Y-72924430D01*
X291792688Y-73352041D02*
X291619040Y-72367233D01*
X291619040Y-72367233D02*
X291243875Y-72433385D01*
X291243875Y-72433385D02*
X291158353Y-72496818D01*
X291158353Y-72496818D02*
X291119727Y-72551983D01*
X291119727Y-72551983D02*
X291089369Y-72654043D01*
X291089369Y-72654043D02*
X291114176Y-72794730D01*
X291114176Y-72794730D02*
X291177609Y-72880252D01*
X291177609Y-72880252D02*
X291232774Y-72918879D01*
X291232774Y-72918879D02*
X291334834Y-72949237D01*
X291334834Y-72949237D02*
X291709999Y-72883085D01*
X290728024Y-72524344D02*
X290118381Y-72631840D01*
X290118381Y-72631840D02*
X290512802Y-72949122D01*
X290512802Y-72949122D02*
X290372115Y-72973929D01*
X290372115Y-72973929D02*
X290286593Y-73037363D01*
X290286593Y-73037363D02*
X290247966Y-73092527D01*
X290247966Y-73092527D02*
X290217608Y-73194587D01*
X290217608Y-73194587D02*
X290258953Y-73429065D01*
X290258953Y-73429065D02*
X290322387Y-73514588D01*
X290322387Y-73514588D02*
X290377551Y-73553214D01*
X290377551Y-73553214D02*
X290479611Y-73583572D01*
X290479611Y-73583572D02*
X290760985Y-73533958D01*
X290760985Y-73533958D02*
X290846507Y-73470525D01*
X290846507Y-73470525D02*
X290885134Y-73415360D01*
X239714546Y-166128737D02*
X240293591Y-166077996D01*
X240081853Y-166566476D02*
X240847897Y-165923689D01*
X240847897Y-165923689D02*
X240603026Y-165631862D01*
X240603026Y-165631862D02*
X240505330Y-165589515D01*
X240505330Y-165589515D02*
X240438242Y-165583645D01*
X240438242Y-165583645D02*
X240334677Y-165608385D01*
X240334677Y-165608385D02*
X240225242Y-165700212D01*
X240225242Y-165700212D02*
X240182894Y-165797908D01*
X240182894Y-165797908D02*
X240177025Y-165864995D01*
X240177025Y-165864995D02*
X240201764Y-165968561D01*
X240201764Y-165968561D02*
X240446636Y-166260387D01*
X239674281Y-165043602D02*
X239163585Y-165472127D01*
X240119152Y-164981122D02*
X239725022Y-165622648D01*
X239725022Y-165622648D02*
X239327106Y-165148430D01*
X239317450Y-164099773D02*
X239439886Y-164245687D01*
X239439886Y-164245687D02*
X239464626Y-164349252D01*
X239464626Y-164349252D02*
X239458756Y-164416339D01*
X239458756Y-164416339D02*
X239410539Y-164581123D01*
X239410539Y-164581123D02*
X239295235Y-164740037D01*
X239295235Y-164740037D02*
X239003409Y-164984908D01*
X239003409Y-164984908D02*
X238899843Y-165009648D01*
X238899843Y-165009648D02*
X238832756Y-165003779D01*
X238832756Y-165003779D02*
X238735060Y-164961431D01*
X238735060Y-164961431D02*
X238612624Y-164815518D01*
X238612624Y-164815518D02*
X238587884Y-164711952D01*
X238587884Y-164711952D02*
X238593754Y-164644865D01*
X238593754Y-164644865D02*
X238636101Y-164547169D01*
X238636101Y-164547169D02*
X238818493Y-164394124D01*
X238818493Y-164394124D02*
X238922058Y-164369384D01*
X238922058Y-164369384D02*
X238989146Y-164375254D01*
X238989146Y-164375254D02*
X239086842Y-164417602D01*
X239086842Y-164417602D02*
X239209278Y-164563515D01*
X239209278Y-164563515D02*
X239234017Y-164667080D01*
X239234017Y-164667080D02*
X239228148Y-164734168D01*
X239228148Y-164734168D02*
X239185800Y-164831864D01*
X264873584Y-140643804D02*
X265119163Y-140116965D01*
X265436331Y-140544576D02*
X265262683Y-139559769D01*
X265262683Y-139559769D02*
X264887518Y-139625920D01*
X264887518Y-139625920D02*
X264801996Y-139689354D01*
X264801996Y-139689354D02*
X264763369Y-139744518D01*
X264763369Y-139744518D02*
X264733011Y-139846579D01*
X264733011Y-139846579D02*
X264757818Y-139987265D01*
X264757818Y-139987265D02*
X264821252Y-140072788D01*
X264821252Y-140072788D02*
X264876416Y-140111414D01*
X264876416Y-140111414D02*
X264978477Y-140141772D01*
X264978477Y-140141772D02*
X265353641Y-140075620D01*
X264371666Y-139716879D02*
X263762023Y-139824375D01*
X263762023Y-139824375D02*
X264156444Y-140141657D01*
X264156444Y-140141657D02*
X264015758Y-140166464D01*
X264015758Y-140166464D02*
X263930235Y-140229898D01*
X263930235Y-140229898D02*
X263891609Y-140285062D01*
X263891609Y-140285062D02*
X263861251Y-140387123D01*
X263861251Y-140387123D02*
X263902596Y-140621601D01*
X263902596Y-140621601D02*
X263966029Y-140707123D01*
X263966029Y-140707123D02*
X264021194Y-140745750D01*
X264021194Y-140745750D02*
X264123254Y-140776107D01*
X264123254Y-140776107D02*
X264404628Y-140726493D01*
X264404628Y-140726493D02*
X264490150Y-140663060D01*
X264490150Y-140663060D02*
X264528777Y-140607895D01*
X262871007Y-139981486D02*
X263339963Y-139898796D01*
X263339963Y-139898796D02*
X263469548Y-140359483D01*
X263469548Y-140359483D02*
X263414384Y-140320856D01*
X263414384Y-140320856D02*
X263312323Y-140290499D01*
X263312323Y-140290499D02*
X263077845Y-140331844D01*
X263077845Y-140331844D02*
X262992323Y-140395277D01*
X262992323Y-140395277D02*
X262953696Y-140450442D01*
X262953696Y-140450442D02*
X262923339Y-140552502D01*
X262923339Y-140552502D02*
X262964684Y-140786980D01*
X262964684Y-140786980D02*
X263028117Y-140872502D01*
X263028117Y-140872502D02*
X263083282Y-140911129D01*
X263083282Y-140911129D02*
X263185342Y-140941486D01*
X263185342Y-140941486D02*
X263419820Y-140900142D01*
X263419820Y-140900142D02*
X263505342Y-140836708D01*
X263505342Y-140836708D02*
X263543969Y-140781544D01*
X258257588Y-103122633D02*
X258503167Y-102595794D01*
X258820335Y-103023405D02*
X258646687Y-102038598D01*
X258646687Y-102038598D02*
X258271522Y-102104749D01*
X258271522Y-102104749D02*
X258186000Y-102168183D01*
X258186000Y-102168183D02*
X258147373Y-102223347D01*
X258147373Y-102223347D02*
X258117015Y-102325408D01*
X258117015Y-102325408D02*
X258141822Y-102466094D01*
X258141822Y-102466094D02*
X258205256Y-102551617D01*
X258205256Y-102551617D02*
X258260420Y-102590243D01*
X258260420Y-102590243D02*
X258362481Y-102620601D01*
X258362481Y-102620601D02*
X258737645Y-102554449D01*
X257319676Y-103288012D02*
X257882423Y-103188785D01*
X257601049Y-103238398D02*
X257427401Y-102253591D01*
X257427401Y-102253591D02*
X257545999Y-102377739D01*
X257545999Y-102377739D02*
X257656328Y-102454993D01*
X257656328Y-102454993D02*
X257758388Y-102485350D01*
X256255011Y-102460315D02*
X256723967Y-102377625D01*
X256723967Y-102377625D02*
X256853552Y-102838312D01*
X256853552Y-102838312D02*
X256798388Y-102799685D01*
X256798388Y-102799685D02*
X256696327Y-102769328D01*
X256696327Y-102769328D02*
X256461849Y-102810673D01*
X256461849Y-102810673D02*
X256376327Y-102874106D01*
X256376327Y-102874106D02*
X256337700Y-102929271D01*
X256337700Y-102929271D02*
X256307343Y-103031331D01*
X256307343Y-103031331D02*
X256348688Y-103265809D01*
X256348688Y-103265809D02*
X256412121Y-103351331D01*
X256412121Y-103351331D02*
X256467286Y-103389958D01*
X256467286Y-103389958D02*
X256569346Y-103420315D01*
X256569346Y-103420315D02*
X256803824Y-103378971D01*
X256803824Y-103378971D02*
X256889346Y-103315537D01*
X256889346Y-103315537D02*
X256927973Y-103260373D01*
X320824546Y-128843755D02*
X321070125Y-128316916D01*
X321387293Y-128744527D02*
X321213645Y-127759720D01*
X321213645Y-127759720D02*
X320838480Y-127825871D01*
X320838480Y-127825871D02*
X320752958Y-127889305D01*
X320752958Y-127889305D02*
X320714331Y-127944469D01*
X320714331Y-127944469D02*
X320683973Y-128046530D01*
X320683973Y-128046530D02*
X320708780Y-128187216D01*
X320708780Y-128187216D02*
X320772214Y-128272739D01*
X320772214Y-128272739D02*
X320827378Y-128311365D01*
X320827378Y-128311365D02*
X320929439Y-128341723D01*
X320929439Y-128341723D02*
X321304603Y-128275571D01*
X320322628Y-127916830D02*
X319712985Y-128024326D01*
X319712985Y-128024326D02*
X320107406Y-128341608D01*
X320107406Y-128341608D02*
X319966720Y-128366415D01*
X319966720Y-128366415D02*
X319881197Y-128429849D01*
X319881197Y-128429849D02*
X319842571Y-128485013D01*
X319842571Y-128485013D02*
X319812213Y-128587074D01*
X319812213Y-128587074D02*
X319853558Y-128821552D01*
X319853558Y-128821552D02*
X319916991Y-128907074D01*
X319916991Y-128907074D02*
X319972156Y-128945701D01*
X319972156Y-128945701D02*
X320074216Y-128976058D01*
X320074216Y-128976058D02*
X320355590Y-128926444D01*
X320355590Y-128926444D02*
X320441112Y-128863011D01*
X320441112Y-128863011D02*
X320479739Y-128807846D01*
X319354358Y-128184269D02*
X319299194Y-128145643D01*
X319299194Y-128145643D02*
X319197134Y-128115285D01*
X319197134Y-128115285D02*
X318962656Y-128156630D01*
X318962656Y-128156630D02*
X318877133Y-128220063D01*
X318877133Y-128220063D02*
X318838507Y-128275228D01*
X318838507Y-128275228D02*
X318808149Y-128377288D01*
X318808149Y-128377288D02*
X318824687Y-128471079D01*
X318824687Y-128471079D02*
X318896389Y-128603497D01*
X318896389Y-128603497D02*
X319558364Y-129067017D01*
X319558364Y-129067017D02*
X318948721Y-129174513D01*
X301622893Y-129650340D02*
X301868472Y-129123501D01*
X302185640Y-129551112D02*
X302011992Y-128566305D01*
X302011992Y-128566305D02*
X301636827Y-128632456D01*
X301636827Y-128632456D02*
X301551305Y-128695890D01*
X301551305Y-128695890D02*
X301512678Y-128751054D01*
X301512678Y-128751054D02*
X301482320Y-128853115D01*
X301482320Y-128853115D02*
X301507127Y-128993801D01*
X301507127Y-128993801D02*
X301570561Y-129079324D01*
X301570561Y-129079324D02*
X301625725Y-129117950D01*
X301625725Y-129117950D02*
X301727786Y-129148308D01*
X301727786Y-129148308D02*
X302102950Y-129082156D01*
X301120975Y-128723415D02*
X300511332Y-128830911D01*
X300511332Y-128830911D02*
X300905753Y-129148193D01*
X300905753Y-129148193D02*
X300765067Y-129173000D01*
X300765067Y-129173000D02*
X300679544Y-129236434D01*
X300679544Y-129236434D02*
X300640918Y-129291598D01*
X300640918Y-129291598D02*
X300610560Y-129393659D01*
X300610560Y-129393659D02*
X300651905Y-129628137D01*
X300651905Y-129628137D02*
X300715338Y-129713659D01*
X300715338Y-129713659D02*
X300770503Y-129752286D01*
X300770503Y-129752286D02*
X300872563Y-129782643D01*
X300872563Y-129782643D02*
X301153937Y-129733029D01*
X301153937Y-129733029D02*
X301239459Y-129669596D01*
X301239459Y-129669596D02*
X301278086Y-129614431D01*
X300183063Y-128888794D02*
X299573420Y-128996291D01*
X299573420Y-128996291D02*
X299967841Y-129313573D01*
X299967841Y-129313573D02*
X299827154Y-129338380D01*
X299827154Y-129338380D02*
X299741632Y-129401813D01*
X299741632Y-129401813D02*
X299703005Y-129456978D01*
X299703005Y-129456978D02*
X299672648Y-129559038D01*
X299672648Y-129559038D02*
X299713993Y-129793516D01*
X299713993Y-129793516D02*
X299777426Y-129879038D01*
X299777426Y-129879038D02*
X299832591Y-129917665D01*
X299832591Y-129917665D02*
X299934651Y-129948022D01*
X299934651Y-129948022D02*
X300216024Y-129898409D01*
X300216024Y-129898409D02*
X300301547Y-129834975D01*
X300301547Y-129834975D02*
X300340173Y-129779811D01*
X337049002Y-111152640D02*
X337294581Y-110625801D01*
X337611749Y-111053412D02*
X337438101Y-110068605D01*
X337438101Y-110068605D02*
X337062936Y-110134756D01*
X337062936Y-110134756D02*
X336977414Y-110198190D01*
X336977414Y-110198190D02*
X336938787Y-110253354D01*
X336938787Y-110253354D02*
X336908429Y-110355415D01*
X336908429Y-110355415D02*
X336933236Y-110496101D01*
X336933236Y-110496101D02*
X336996670Y-110581624D01*
X336996670Y-110581624D02*
X337051834Y-110620250D01*
X337051834Y-110620250D02*
X337153895Y-110650608D01*
X337153895Y-110650608D02*
X337529059Y-110584456D01*
X336516727Y-110327775D02*
X336461562Y-110289148D01*
X336461562Y-110289148D02*
X336359502Y-110258791D01*
X336359502Y-110258791D02*
X336125024Y-110300135D01*
X336125024Y-110300135D02*
X336039502Y-110363569D01*
X336039502Y-110363569D02*
X336000875Y-110418734D01*
X336000875Y-110418734D02*
X335970517Y-110520794D01*
X335970517Y-110520794D02*
X335987055Y-110614585D01*
X335987055Y-110614585D02*
X336058758Y-110747003D01*
X336058758Y-110747003D02*
X336720732Y-111210523D01*
X336720732Y-111210523D02*
X336111090Y-111318019D01*
X335173177Y-111483398D02*
X335735925Y-111384171D01*
X335454551Y-111433785D02*
X335280903Y-110448977D01*
X335280903Y-110448977D02*
X335399501Y-110573126D01*
X335399501Y-110573126D02*
X335509830Y-110650379D01*
X335509830Y-110650379D02*
X335611890Y-110680737D01*
X333741004Y-92392055D02*
X333986583Y-91865216D01*
X334303751Y-92292827D02*
X334130103Y-91308020D01*
X334130103Y-91308020D02*
X333754938Y-91374171D01*
X333754938Y-91374171D02*
X333669416Y-91437605D01*
X333669416Y-91437605D02*
X333630789Y-91492769D01*
X333630789Y-91492769D02*
X333600431Y-91594830D01*
X333600431Y-91594830D02*
X333625238Y-91735516D01*
X333625238Y-91735516D02*
X333688672Y-91821039D01*
X333688672Y-91821039D02*
X333743836Y-91859665D01*
X333743836Y-91859665D02*
X333845897Y-91890023D01*
X333845897Y-91890023D02*
X334221061Y-91823871D01*
X332803092Y-92557434D02*
X333365839Y-92458207D01*
X333084465Y-92507820D02*
X332910817Y-91523013D01*
X332910817Y-91523013D02*
X333029415Y-91647161D01*
X333029415Y-91647161D02*
X333139744Y-91724415D01*
X333139744Y-91724415D02*
X333241804Y-91754772D01*
X331865179Y-92722813D02*
X332427927Y-92623586D01*
X332146553Y-92673200D02*
X331972905Y-91688392D01*
X331972905Y-91688392D02*
X332091503Y-91812541D01*
X332091503Y-91812541D02*
X332201832Y-91889794D01*
X332201832Y-91889794D02*
X332303892Y-91920152D01*
X246063406Y-146240909D02*
X246012665Y-145661864D01*
X246501145Y-145873602D02*
X245858358Y-145107558D01*
X245858358Y-145107558D02*
X245566531Y-145352429D01*
X245566531Y-145352429D02*
X245524184Y-145450125D01*
X245524184Y-145450125D02*
X245518314Y-145517213D01*
X245518314Y-145517213D02*
X245543054Y-145620778D01*
X245543054Y-145620778D02*
X245634881Y-145730213D01*
X245634881Y-145730213D02*
X245732577Y-145772561D01*
X245732577Y-145772561D02*
X245799664Y-145778430D01*
X245799664Y-145778430D02*
X245903230Y-145753691D01*
X245903230Y-145753691D02*
X246195056Y-145508819D01*
X245190010Y-145792693D02*
X245122922Y-145786824D01*
X245122922Y-145786824D02*
X245019357Y-145811563D01*
X245019357Y-145811563D02*
X244836965Y-145964608D01*
X244836965Y-145964608D02*
X244794618Y-146062304D01*
X244794618Y-146062304D02*
X244788748Y-146129391D01*
X244788748Y-146129391D02*
X244813488Y-146232957D01*
X244813488Y-146232957D02*
X244874706Y-146305914D01*
X244874706Y-146305914D02*
X245003011Y-146384740D01*
X245003011Y-146384740D02*
X245808058Y-146455172D01*
X245808058Y-146455172D02*
X245333840Y-146853088D01*
X244034442Y-146638005D02*
X244180356Y-146515569D01*
X244180356Y-146515569D02*
X244283921Y-146490829D01*
X244283921Y-146490829D02*
X244351008Y-146496699D01*
X244351008Y-146496699D02*
X244515792Y-146544916D01*
X244515792Y-146544916D02*
X244674706Y-146660220D01*
X244674706Y-146660220D02*
X244919577Y-146952046D01*
X244919577Y-146952046D02*
X244944317Y-147055612D01*
X244944317Y-147055612D02*
X244938448Y-147122699D01*
X244938448Y-147122699D02*
X244896100Y-147220395D01*
X244896100Y-147220395D02*
X244750187Y-147342831D01*
X244750187Y-147342831D02*
X244646621Y-147367571D01*
X244646621Y-147367571D02*
X244579534Y-147361701D01*
X244579534Y-147361701D02*
X244481838Y-147319354D01*
X244481838Y-147319354D02*
X244328793Y-147136962D01*
X244328793Y-147136962D02*
X244304053Y-147033397D01*
X244304053Y-147033397D02*
X244309923Y-146966309D01*
X244309923Y-146966309D02*
X244352271Y-146868613D01*
X244352271Y-146868613D02*
X244498184Y-146746177D01*
X244498184Y-146746177D02*
X244601749Y-146721438D01*
X244601749Y-146721438D02*
X244668837Y-146727307D01*
X244668837Y-146727307D02*
X244766533Y-146769655D01*
X279995374Y-116699162D02*
X280240953Y-116172323D01*
X280558121Y-116599934D02*
X280384473Y-115615127D01*
X280384473Y-115615127D02*
X280009308Y-115681278D01*
X280009308Y-115681278D02*
X279923786Y-115744712D01*
X279923786Y-115744712D02*
X279885159Y-115799876D01*
X279885159Y-115799876D02*
X279854801Y-115901937D01*
X279854801Y-115901937D02*
X279879608Y-116042623D01*
X279879608Y-116042623D02*
X279943042Y-116128146D01*
X279943042Y-116128146D02*
X279998206Y-116166772D01*
X279998206Y-116166772D02*
X280100267Y-116197130D01*
X280100267Y-116197130D02*
X280475431Y-116130978D01*
X279463099Y-115874297D02*
X279407934Y-115835670D01*
X279407934Y-115835670D02*
X279305874Y-115805313D01*
X279305874Y-115805313D02*
X279071396Y-115846657D01*
X279071396Y-115846657D02*
X278985874Y-115910091D01*
X278985874Y-115910091D02*
X278947247Y-115965256D01*
X278947247Y-115965256D02*
X278916889Y-116067316D01*
X278916889Y-116067316D02*
X278933427Y-116161107D01*
X278933427Y-116161107D02*
X279005130Y-116293525D01*
X279005130Y-116293525D02*
X279667104Y-116757045D01*
X279667104Y-116757045D02*
X279057462Y-116864541D01*
X278097575Y-116356844D02*
X278213341Y-117013382D01*
X278265902Y-115940334D02*
X278624414Y-116602424D01*
X278624414Y-116602424D02*
X278014771Y-116709920D01*
X276687376Y-97938577D02*
X276932955Y-97411738D01*
X277250123Y-97839349D02*
X277076475Y-96854542D01*
X277076475Y-96854542D02*
X276701310Y-96920693D01*
X276701310Y-96920693D02*
X276615788Y-96984127D01*
X276615788Y-96984127D02*
X276577161Y-97039291D01*
X276577161Y-97039291D02*
X276546803Y-97141352D01*
X276546803Y-97141352D02*
X276571610Y-97282038D01*
X276571610Y-97282038D02*
X276635044Y-97367561D01*
X276635044Y-97367561D02*
X276690208Y-97406187D01*
X276690208Y-97406187D02*
X276792269Y-97436545D01*
X276792269Y-97436545D02*
X277167433Y-97370393D01*
X275749464Y-98103956D02*
X276312211Y-98004729D01*
X276030837Y-98054342D02*
X275857189Y-97069535D01*
X275857189Y-97069535D02*
X275975787Y-97193683D01*
X275975787Y-97193683D02*
X276086116Y-97270937D01*
X276086116Y-97270937D02*
X276188176Y-97301294D01*
X274789577Y-97596259D02*
X274905343Y-98252797D01*
X274957904Y-97179749D02*
X275316416Y-97841839D01*
X275316416Y-97841839D02*
X274706773Y-97949335D01*
X329964050Y-73714156D02*
X330209630Y-73187317D01*
X330526797Y-73614928D02*
X330353149Y-72630120D01*
X330353149Y-72630120D02*
X329977984Y-72696272D01*
X329977984Y-72696272D02*
X329892462Y-72759705D01*
X329892462Y-72759705D02*
X329853836Y-72814870D01*
X329853836Y-72814870D02*
X329823478Y-72916930D01*
X329823478Y-72916930D02*
X329848285Y-73057617D01*
X329848285Y-73057617D02*
X329911718Y-73143139D01*
X329911718Y-73143139D02*
X329966883Y-73181766D01*
X329966883Y-73181766D02*
X330068943Y-73212124D01*
X330068943Y-73212124D02*
X330444108Y-73145972D01*
X329026138Y-73879535D02*
X329588885Y-73780307D01*
X329307512Y-73829921D02*
X329133863Y-72845113D01*
X329133863Y-72845113D02*
X329252462Y-72969262D01*
X329252462Y-72969262D02*
X329362791Y-73046515D01*
X329362791Y-73046515D02*
X329464851Y-73076873D01*
X254319722Y-153881513D02*
X254898767Y-153830772D01*
X254687029Y-154319252D02*
X255453073Y-153676465D01*
X255453073Y-153676465D02*
X255208202Y-153384638D01*
X255208202Y-153384638D02*
X255110506Y-153342291D01*
X255110506Y-153342291D02*
X255043418Y-153336421D01*
X255043418Y-153336421D02*
X254939853Y-153361161D01*
X254939853Y-153361161D02*
X254830418Y-153452988D01*
X254830418Y-153452988D02*
X254788070Y-153550684D01*
X254788070Y-153550684D02*
X254782201Y-153617771D01*
X254782201Y-153617771D02*
X254806940Y-153721337D01*
X254806940Y-153721337D02*
X255051812Y-154013163D01*
X254279457Y-152796378D02*
X253768761Y-153224903D01*
X254724328Y-152733898D02*
X254330198Y-153375424D01*
X254330198Y-153375424D02*
X253932282Y-152901206D01*
X253892018Y-151816071D02*
X254198107Y-152180854D01*
X254198107Y-152180854D02*
X253863933Y-152523422D01*
X253863933Y-152523422D02*
X253869802Y-152456335D01*
X253869802Y-152456335D02*
X253845063Y-152352769D01*
X253845063Y-152352769D02*
X253692018Y-152170378D01*
X253692018Y-152170378D02*
X253594322Y-152128030D01*
X253594322Y-152128030D02*
X253527234Y-152122160D01*
X253527234Y-152122160D02*
X253423669Y-152146900D01*
X253423669Y-152146900D02*
X253241277Y-152299945D01*
X253241277Y-152299945D02*
X253198930Y-152397641D01*
X253198930Y-152397641D02*
X253193060Y-152464728D01*
X253193060Y-152464728D02*
X253217800Y-152568294D01*
X253217800Y-152568294D02*
X253370845Y-152750685D01*
X253370845Y-152750685D02*
X253468541Y-152793033D01*
X253468541Y-152793033D02*
X253535628Y-152798902D01*
X261565587Y-121883218D02*
X261811166Y-121356379D01*
X262128334Y-121783990D02*
X261954686Y-120799183D01*
X261954686Y-120799183D02*
X261579521Y-120865334D01*
X261579521Y-120865334D02*
X261493999Y-120928768D01*
X261493999Y-120928768D02*
X261455372Y-120983932D01*
X261455372Y-120983932D02*
X261425014Y-121085993D01*
X261425014Y-121085993D02*
X261449821Y-121226679D01*
X261449821Y-121226679D02*
X261513255Y-121312202D01*
X261513255Y-121312202D02*
X261568419Y-121350828D01*
X261568419Y-121350828D02*
X261670480Y-121381186D01*
X261670480Y-121381186D02*
X262045644Y-121315034D01*
X261033312Y-121058353D02*
X260978147Y-121019726D01*
X260978147Y-121019726D02*
X260876087Y-120989369D01*
X260876087Y-120989369D02*
X260641609Y-121030713D01*
X260641609Y-121030713D02*
X260556087Y-121094147D01*
X260556087Y-121094147D02*
X260517460Y-121149312D01*
X260517460Y-121149312D02*
X260487102Y-121251372D01*
X260487102Y-121251372D02*
X260503640Y-121345163D01*
X260503640Y-121345163D02*
X260575343Y-121477581D01*
X260575343Y-121477581D02*
X261237317Y-121941101D01*
X261237317Y-121941101D02*
X260627675Y-122048597D01*
X259563010Y-121220900D02*
X260031966Y-121138210D01*
X260031966Y-121138210D02*
X260161551Y-121598897D01*
X260161551Y-121598897D02*
X260106387Y-121560270D01*
X260106387Y-121560270D02*
X260004326Y-121529913D01*
X260004326Y-121529913D02*
X259769848Y-121571258D01*
X259769848Y-121571258D02*
X259684326Y-121634691D01*
X259684326Y-121634691D02*
X259645699Y-121689856D01*
X259645699Y-121689856D02*
X259615342Y-121791916D01*
X259615342Y-121791916D02*
X259656687Y-122026394D01*
X259656687Y-122026394D02*
X259720120Y-122111916D01*
X259720120Y-122111916D02*
X259775285Y-122150543D01*
X259775285Y-122150543D02*
X259877345Y-122180900D01*
X259877345Y-122180900D02*
X260111823Y-122139556D01*
X260111823Y-122139556D02*
X260197345Y-122076122D01*
X260197345Y-122076122D02*
X260235972Y-122020958D01*
X343664998Y-148673811D02*
X343910577Y-148146972D01*
X344227745Y-148574583D02*
X344054097Y-147589776D01*
X344054097Y-147589776D02*
X343678932Y-147655927D01*
X343678932Y-147655927D02*
X343593410Y-147719361D01*
X343593410Y-147719361D02*
X343554783Y-147774525D01*
X343554783Y-147774525D02*
X343524425Y-147876586D01*
X343524425Y-147876586D02*
X343549232Y-148017272D01*
X343549232Y-148017272D02*
X343612666Y-148102795D01*
X343612666Y-148102795D02*
X343667830Y-148141421D01*
X343667830Y-148141421D02*
X343769891Y-148171779D01*
X343769891Y-148171779D02*
X344145055Y-148105627D01*
X342705111Y-148166114D02*
X342820877Y-148822652D01*
X342873438Y-147749604D02*
X343231950Y-148411693D01*
X343231950Y-148411693D02*
X342622307Y-148519190D01*
X341789173Y-149004569D02*
X342351921Y-148905342D01*
X342070547Y-148954956D02*
X341896899Y-147970148D01*
X341896899Y-147970148D02*
X342015497Y-148094297D01*
X342015497Y-148094297D02*
X342125826Y-148171550D01*
X342125826Y-148171550D02*
X342227886Y-148201908D01*
X304930889Y-148410925D02*
X305176468Y-147884086D01*
X305493636Y-148311697D02*
X305319988Y-147326890D01*
X305319988Y-147326890D02*
X304944823Y-147393041D01*
X304944823Y-147393041D02*
X304859301Y-147456475D01*
X304859301Y-147456475D02*
X304820674Y-147511639D01*
X304820674Y-147511639D02*
X304790316Y-147613700D01*
X304790316Y-147613700D02*
X304815123Y-147754386D01*
X304815123Y-147754386D02*
X304878557Y-147839909D01*
X304878557Y-147839909D02*
X304933721Y-147878535D01*
X304933721Y-147878535D02*
X305035782Y-147908893D01*
X305035782Y-147908893D02*
X305410946Y-147842741D01*
X303971002Y-147903228D02*
X304086768Y-148559766D01*
X304139329Y-147486718D02*
X304497841Y-148148807D01*
X304497841Y-148148807D02*
X303888198Y-148256304D01*
X303491059Y-147649379D02*
X302881416Y-147756876D01*
X302881416Y-147756876D02*
X303275837Y-148074158D01*
X303275837Y-148074158D02*
X303135150Y-148098965D01*
X303135150Y-148098965D02*
X303049628Y-148162398D01*
X303049628Y-148162398D02*
X303011001Y-148217563D01*
X303011001Y-148217563D02*
X302980644Y-148319623D01*
X302980644Y-148319623D02*
X303021989Y-148554101D01*
X303021989Y-148554101D02*
X303085422Y-148639623D01*
X303085422Y-148639623D02*
X303140587Y-148678250D01*
X303140587Y-148678250D02*
X303242647Y-148708607D01*
X303242647Y-148708607D02*
X303524020Y-148658994D01*
X303524020Y-148658994D02*
X303609543Y-148595560D01*
X303609543Y-148595560D02*
X303648169Y-148540396D01*
X241192651Y-107741130D02*
X241719490Y-107986709D01*
X241291879Y-108303877D02*
X242276686Y-108130229D01*
X242276686Y-108130229D02*
X242210535Y-107755064D01*
X242210535Y-107755064D02*
X242147101Y-107669542D01*
X242147101Y-107669542D02*
X242091937Y-107630915D01*
X242091937Y-107630915D02*
X241989876Y-107600557D01*
X241989876Y-107600557D02*
X241849190Y-107625364D01*
X241849190Y-107625364D02*
X241763667Y-107688798D01*
X241763667Y-107688798D02*
X241725041Y-107743962D01*
X241725041Y-107743962D02*
X241694683Y-107846023D01*
X241694683Y-107846023D02*
X241760835Y-108221187D01*
X241027272Y-106803218D02*
X241126499Y-107365965D01*
X241076886Y-107084591D02*
X242061693Y-106910943D01*
X242061693Y-106910943D02*
X241937545Y-107029541D01*
X241937545Y-107029541D02*
X241860291Y-107139870D01*
X241860291Y-107139870D02*
X241829934Y-107241930D01*
X241863238Y-105785448D02*
X241896314Y-105973031D01*
X241896314Y-105973031D02*
X241865957Y-106075091D01*
X241865957Y-106075091D02*
X241827330Y-106130256D01*
X241827330Y-106130256D02*
X241703181Y-106248854D01*
X241703181Y-106248854D02*
X241523868Y-106328825D01*
X241523868Y-106328825D02*
X241148703Y-106394977D01*
X241148703Y-106394977D02*
X241046642Y-106364619D01*
X241046642Y-106364619D02*
X240991478Y-106325993D01*
X240991478Y-106325993D02*
X240928044Y-106240470D01*
X240928044Y-106240470D02*
X240894969Y-106052888D01*
X240894969Y-106052888D02*
X240925326Y-105950828D01*
X240925326Y-105950828D02*
X240963953Y-105895663D01*
X240963953Y-105895663D02*
X241049475Y-105832230D01*
X241049475Y-105832230D02*
X241283953Y-105790885D01*
X241283953Y-105790885D02*
X241386013Y-105821242D01*
X241386013Y-105821242D02*
X241441178Y-105859869D01*
X241441178Y-105859869D02*
X241504611Y-105945391D01*
X241504611Y-105945391D02*
X241537687Y-106132974D01*
X241537687Y-106132974D02*
X241507330Y-106235034D01*
X241507330Y-106235034D02*
X241468703Y-106290199D01*
X241468703Y-106290199D02*
X241383181Y-106353632D01*
X295006896Y-92129167D02*
X295252475Y-91602328D01*
X295569643Y-92029939D02*
X295395995Y-91045132D01*
X295395995Y-91045132D02*
X295020830Y-91111283D01*
X295020830Y-91111283D02*
X294935308Y-91174717D01*
X294935308Y-91174717D02*
X294896681Y-91229881D01*
X294896681Y-91229881D02*
X294866323Y-91331942D01*
X294866323Y-91331942D02*
X294891130Y-91472628D01*
X294891130Y-91472628D02*
X294954564Y-91558151D01*
X294954564Y-91558151D02*
X295009728Y-91596777D01*
X295009728Y-91596777D02*
X295111789Y-91627135D01*
X295111789Y-91627135D02*
X295486953Y-91560983D01*
X294068984Y-92294546D02*
X294631731Y-92195319D01*
X294350357Y-92244932D02*
X294176709Y-91260125D01*
X294176709Y-91260125D02*
X294295307Y-91384273D01*
X294295307Y-91384273D02*
X294405636Y-91461527D01*
X294405636Y-91461527D02*
X294507696Y-91491884D01*
X293567066Y-91367621D02*
X292957423Y-91475118D01*
X292957423Y-91475118D02*
X293351844Y-91792400D01*
X293351844Y-91792400D02*
X293211157Y-91817207D01*
X293211157Y-91817207D02*
X293125635Y-91880640D01*
X293125635Y-91880640D02*
X293087008Y-91935805D01*
X293087008Y-91935805D02*
X293056651Y-92037865D01*
X293056651Y-92037865D02*
X293097996Y-92272343D01*
X293097996Y-92272343D02*
X293161429Y-92357865D01*
X293161429Y-92357865D02*
X293216594Y-92396492D01*
X293216594Y-92396492D02*
X293318654Y-92426849D01*
X293318654Y-92426849D02*
X293600027Y-92377236D01*
X293600027Y-92377236D02*
X293685550Y-92313802D01*
X293685550Y-92313802D02*
X293724176Y-92258638D01*
X231458228Y-158488135D02*
X231407487Y-157909090D01*
X231895967Y-158120828D02*
X231253180Y-157354784D01*
X231253180Y-157354784D02*
X230961353Y-157599655D01*
X230961353Y-157599655D02*
X230919006Y-157697351D01*
X230919006Y-157697351D02*
X230913136Y-157764439D01*
X230913136Y-157764439D02*
X230937876Y-157868004D01*
X230937876Y-157868004D02*
X231029703Y-157977439D01*
X231029703Y-157977439D02*
X231127399Y-158019787D01*
X231127399Y-158019787D02*
X231194486Y-158025656D01*
X231194486Y-158025656D02*
X231298052Y-158000917D01*
X231298052Y-158000917D02*
X231589878Y-157756045D01*
X230560092Y-157936354D02*
X230085874Y-158334270D01*
X230085874Y-158334270D02*
X230586094Y-158411834D01*
X230586094Y-158411834D02*
X230476659Y-158503660D01*
X230476659Y-158503660D02*
X230434311Y-158601357D01*
X230434311Y-158601357D02*
X230428442Y-158668444D01*
X230428442Y-158668444D02*
X230453181Y-158772009D01*
X230453181Y-158772009D02*
X230606226Y-158954401D01*
X230606226Y-158954401D02*
X230703922Y-158996749D01*
X230703922Y-158996749D02*
X230771009Y-159002618D01*
X230771009Y-159002618D02*
X230874575Y-158977878D01*
X230874575Y-158977878D02*
X231093445Y-158794225D01*
X231093445Y-158794225D02*
X231135792Y-158696529D01*
X231135792Y-158696529D02*
X231141662Y-158629441D01*
X229429264Y-158885231D02*
X229575178Y-158762795D01*
X229575178Y-158762795D02*
X229678743Y-158738055D01*
X229678743Y-158738055D02*
X229745830Y-158743925D01*
X229745830Y-158743925D02*
X229910614Y-158792142D01*
X229910614Y-158792142D02*
X230069528Y-158907446D01*
X230069528Y-158907446D02*
X230314399Y-159199272D01*
X230314399Y-159199272D02*
X230339139Y-159302838D01*
X230339139Y-159302838D02*
X230333270Y-159369925D01*
X230333270Y-159369925D02*
X230290922Y-159467621D01*
X230290922Y-159467621D02*
X230145009Y-159590057D01*
X230145009Y-159590057D02*
X230041443Y-159614797D01*
X230041443Y-159614797D02*
X229974356Y-159608927D01*
X229974356Y-159608927D02*
X229876660Y-159566580D01*
X229876660Y-159566580D02*
X229723615Y-159384188D01*
X229723615Y-159384188D02*
X229698875Y-159280623D01*
X229698875Y-159280623D02*
X229704745Y-159213535D01*
X229704745Y-159213535D02*
X229747093Y-159115839D01*
X229747093Y-159115839D02*
X229893006Y-158993403D01*
X229893006Y-158993403D02*
X229996571Y-158968664D01*
X229996571Y-158968664D02*
X230063659Y-158974533D01*
X230063659Y-158974533D02*
X230161355Y-159016881D01*
X324132543Y-147604340D02*
X324378122Y-147077501D01*
X324695290Y-147505112D02*
X324521642Y-146520305D01*
X324521642Y-146520305D02*
X324146477Y-146586456D01*
X324146477Y-146586456D02*
X324060955Y-146649890D01*
X324060955Y-146649890D02*
X324022328Y-146705054D01*
X324022328Y-146705054D02*
X323991970Y-146807115D01*
X323991970Y-146807115D02*
X324016777Y-146947801D01*
X324016777Y-146947801D02*
X324080211Y-147033324D01*
X324080211Y-147033324D02*
X324135375Y-147071950D01*
X324135375Y-147071950D02*
X324237436Y-147102308D01*
X324237436Y-147102308D02*
X324612600Y-147036156D01*
X323172656Y-147096643D02*
X323288422Y-147753181D01*
X323340983Y-146680133D02*
X323699495Y-147342222D01*
X323699495Y-147342222D02*
X323089852Y-147449719D01*
X322662355Y-146944854D02*
X322607191Y-146906228D01*
X322607191Y-146906228D02*
X322505131Y-146875870D01*
X322505131Y-146875870D02*
X322270653Y-146917215D01*
X322270653Y-146917215D02*
X322185130Y-146980648D01*
X322185130Y-146980648D02*
X322146504Y-147035813D01*
X322146504Y-147035813D02*
X322116146Y-147137873D01*
X322116146Y-147137873D02*
X322132684Y-147231664D01*
X322132684Y-147231664D02*
X322204386Y-147364082D01*
X322204386Y-147364082D02*
X322866361Y-147827602D01*
X322866361Y-147827602D02*
X322256718Y-147935098D01*
X254480634Y-84444737D02*
X254726214Y-83917898D01*
X255043381Y-84345509D02*
X254869733Y-83360701D01*
X254869733Y-83360701D02*
X254494568Y-83426853D01*
X254494568Y-83426853D02*
X254409046Y-83490286D01*
X254409046Y-83490286D02*
X254370420Y-83545451D01*
X254370420Y-83545451D02*
X254340062Y-83647511D01*
X254340062Y-83647511D02*
X254364869Y-83788198D01*
X254364869Y-83788198D02*
X254428302Y-83873720D01*
X254428302Y-83873720D02*
X254483467Y-83912347D01*
X254483467Y-83912347D02*
X254585527Y-83942705D01*
X254585527Y-83942705D02*
X254960692Y-83876553D01*
X253415969Y-83617039D02*
X253884926Y-83534349D01*
X253884926Y-83534349D02*
X254014511Y-83995037D01*
X254014511Y-83995037D02*
X253959346Y-83956410D01*
X253959346Y-83956410D02*
X253857286Y-83926052D01*
X253857286Y-83926052D02*
X253622808Y-83967397D01*
X253622808Y-83967397D02*
X253537286Y-84030831D01*
X253537286Y-84030831D02*
X253498659Y-84085995D01*
X253498659Y-84085995D02*
X253468301Y-84188055D01*
X253468301Y-84188055D02*
X253509646Y-84422533D01*
X253509646Y-84422533D02*
X253573080Y-84508056D01*
X253573080Y-84508056D02*
X253628244Y-84546682D01*
X253628244Y-84546682D02*
X253730304Y-84577040D01*
X253730304Y-84577040D02*
X253964782Y-84535695D01*
X253964782Y-84535695D02*
X254050305Y-84472262D01*
X254050305Y-84472262D02*
X254088931Y-84417097D01*
X317516548Y-110083167D02*
X317762127Y-109556328D01*
X318079295Y-109983939D02*
X317905647Y-108999132D01*
X317905647Y-108999132D02*
X317530482Y-109065283D01*
X317530482Y-109065283D02*
X317444960Y-109128717D01*
X317444960Y-109128717D02*
X317406333Y-109183881D01*
X317406333Y-109183881D02*
X317375975Y-109285942D01*
X317375975Y-109285942D02*
X317400782Y-109426628D01*
X317400782Y-109426628D02*
X317464216Y-109512151D01*
X317464216Y-109512151D02*
X317519380Y-109550777D01*
X317519380Y-109550777D02*
X317621441Y-109581135D01*
X317621441Y-109581135D02*
X317996605Y-109514983D01*
X316984273Y-109258302D02*
X316929108Y-109219675D01*
X316929108Y-109219675D02*
X316827048Y-109189318D01*
X316827048Y-109189318D02*
X316592570Y-109230662D01*
X316592570Y-109230662D02*
X316507048Y-109294096D01*
X316507048Y-109294096D02*
X316468421Y-109349261D01*
X316468421Y-109349261D02*
X316438063Y-109451321D01*
X316438063Y-109451321D02*
X316454601Y-109545112D01*
X316454601Y-109545112D02*
X316526304Y-109677530D01*
X316526304Y-109677530D02*
X317188278Y-110141050D01*
X317188278Y-110141050D02*
X316578636Y-110248546D01*
X316046360Y-109423681D02*
X315991196Y-109385055D01*
X315991196Y-109385055D02*
X315889136Y-109354697D01*
X315889136Y-109354697D02*
X315654658Y-109396042D01*
X315654658Y-109396042D02*
X315569135Y-109459475D01*
X315569135Y-109459475D02*
X315530509Y-109514640D01*
X315530509Y-109514640D02*
X315500151Y-109616700D01*
X315500151Y-109616700D02*
X315516689Y-109710491D01*
X315516689Y-109710491D02*
X315588391Y-109842909D01*
X315588391Y-109842909D02*
X316250366Y-110306429D01*
X316250366Y-110306429D02*
X315640723Y-110413925D01*
X362425585Y-145365813D02*
X362671164Y-144838974D01*
X362988332Y-145266585D02*
X362814684Y-144281778D01*
X362814684Y-144281778D02*
X362439519Y-144347929D01*
X362439519Y-144347929D02*
X362353997Y-144411363D01*
X362353997Y-144411363D02*
X362315370Y-144466527D01*
X362315370Y-144466527D02*
X362285012Y-144568588D01*
X362285012Y-144568588D02*
X362309819Y-144709274D01*
X362309819Y-144709274D02*
X362373253Y-144794797D01*
X362373253Y-144794797D02*
X362428417Y-144833423D01*
X362428417Y-144833423D02*
X362530478Y-144863781D01*
X362530478Y-144863781D02*
X362905642Y-144797629D01*
X361465698Y-144858116D02*
X361581464Y-145514654D01*
X361634025Y-144441606D02*
X361992537Y-145103695D01*
X361992537Y-145103695D02*
X361382894Y-145211192D01*
X360704381Y-144653881D02*
X360610590Y-144670419D01*
X360610590Y-144670419D02*
X360525068Y-144733852D01*
X360525068Y-144733852D02*
X360486441Y-144789017D01*
X360486441Y-144789017D02*
X360456084Y-144891077D01*
X360456084Y-144891077D02*
X360442264Y-145086928D01*
X360442264Y-145086928D02*
X360483609Y-145321406D01*
X360483609Y-145321406D02*
X360563580Y-145500720D01*
X360563580Y-145500720D02*
X360627014Y-145586242D01*
X360627014Y-145586242D02*
X360682178Y-145624869D01*
X360682178Y-145624869D02*
X360784238Y-145655226D01*
X360784238Y-145655226D02*
X360878030Y-145638689D01*
X360878030Y-145638689D02*
X360963552Y-145575255D01*
X360963552Y-145575255D02*
X361002179Y-145520090D01*
X361002179Y-145520090D02*
X361032536Y-145418030D01*
X361032536Y-145418030D02*
X361046356Y-145222179D01*
X361046356Y-145222179D02*
X361005011Y-144987701D01*
X361005011Y-144987701D02*
X360925040Y-144808387D01*
X360925040Y-144808387D02*
X360861606Y-144722865D01*
X360861606Y-144722865D02*
X360806442Y-144684238D01*
X360806442Y-144684238D02*
X360704381Y-144653881D01*
X192213340Y-85883732D02*
X192296030Y-85414776D01*
X192296030Y-85414776D02*
X191311222Y-85241127D01*
X191096229Y-86460413D02*
X191129305Y-86272831D01*
X191129305Y-86272831D02*
X191192738Y-86187309D01*
X191192738Y-86187309D02*
X191247903Y-86148682D01*
X191247903Y-86148682D02*
X191405128Y-86079698D01*
X191405128Y-86079698D02*
X191600979Y-86065878D01*
X191600979Y-86065878D02*
X191976144Y-86132030D01*
X191976144Y-86132030D02*
X192061666Y-86195463D01*
X192061666Y-86195463D02*
X192100293Y-86250628D01*
X192100293Y-86250628D02*
X192130650Y-86352688D01*
X192130650Y-86352688D02*
X192097575Y-86540270D01*
X192097575Y-86540270D02*
X192034141Y-86625793D01*
X192034141Y-86625793D02*
X191978977Y-86664419D01*
X191978977Y-86664419D02*
X191876916Y-86694777D01*
X191876916Y-86694777D02*
X191642438Y-86653432D01*
X191642438Y-86653432D02*
X191556916Y-86589999D01*
X191556916Y-86589999D02*
X191518289Y-86534834D01*
X191518289Y-86534834D02*
X191487932Y-86432774D01*
X191487932Y-86432774D02*
X191521008Y-86245192D01*
X191521008Y-86245192D02*
X191584441Y-86159669D01*
X191584441Y-86159669D02*
X191639606Y-86121043D01*
X191639606Y-86121043D02*
X191741666Y-86090685D01*
X64346017Y-64881483D02*
X69073094Y-65714994D01*
X63720884Y-68426789D02*
X64346017Y-64881483D01*
X64805263Y-68616896D02*
X63720884Y-68426789D01*
X72068412Y-64336806D02*
X71581945Y-64249862D01*
X71796308Y-69850706D02*
X66305922Y-68882602D01*
X74573266Y-64755512D02*
X73444657Y-64557613D01*
X74573266Y-64755512D02*
X74080932Y-67563218D01*
X74080932Y-67563218D02*
X74324571Y-67605626D01*
X74324571Y-67605626D02*
X74194335Y-68344232D01*
X71581945Y-64249862D02*
G75*
G02*
X69073094Y-65714993I-2068021J660613D01*
G01*
X74194335Y-68344231D02*
G75*
G02*
X71796308Y-69850705I-1952253J445780D01*
G01*
X61038018Y-83642071D02*
X65765095Y-84475582D01*
X60412885Y-87187377D02*
X61038018Y-83642071D01*
X61497264Y-87377484D02*
X60412885Y-87187377D01*
X68760413Y-83097394D02*
X68273946Y-83010450D01*
X68488309Y-88611294D02*
X62997923Y-87643190D01*
X71265267Y-83516100D02*
X70136658Y-83318201D01*
X71265267Y-83516100D02*
X70772933Y-86323806D01*
X70772933Y-86323806D02*
X71016572Y-86366214D01*
X71016572Y-86366214D02*
X70886336Y-87104820D01*
X68273946Y-83010450D02*
G75*
G02*
X65765095Y-84475581I-2068021J660613D01*
G01*
X70886336Y-87104819D02*
G75*
G02*
X68488309Y-88611293I-1952253J445780D01*
G01*
X57730021Y-102402657D02*
X62457098Y-103236168D01*
X57104888Y-105947963D02*
X57730021Y-102402657D01*
X58189267Y-106138070D02*
X57104888Y-105947963D01*
X65452416Y-101857980D02*
X64965949Y-101771036D01*
X65180312Y-107371880D02*
X59689926Y-106403776D01*
X67957270Y-102276686D02*
X66828661Y-102078787D01*
X67957270Y-102276686D02*
X67464936Y-105084392D01*
X67464936Y-105084392D02*
X67708575Y-105126800D01*
X67708575Y-105126800D02*
X67578339Y-105865406D01*
X64965949Y-101771036D02*
G75*
G02*
X62457098Y-103236167I-2068021J660613D01*
G01*
X67578339Y-105865405D02*
G75*
G02*
X65180312Y-107371879I-1952253J445780D01*
G01*
X54422023Y-121163243D02*
X59149100Y-121996754D01*
X53796890Y-124708549D02*
X54422023Y-121163243D01*
X54881269Y-124898656D02*
X53796890Y-124708549D01*
X62144418Y-120618566D02*
X61657951Y-120531622D01*
X61872314Y-126132466D02*
X56381928Y-125164362D01*
X64649272Y-121037272D02*
X63520663Y-120839373D01*
X64649272Y-121037272D02*
X64156938Y-123844978D01*
X64156938Y-123844978D02*
X64400577Y-123887386D01*
X64400577Y-123887386D02*
X64270341Y-124625992D01*
X61657951Y-120531622D02*
G75*
G02*
X59149100Y-121996753I-2068021J660613D01*
G01*
X64270341Y-124625991D02*
G75*
G02*
X61872314Y-126132465I-1952253J445780D01*
G01*
X340548467Y-66441974D02*
X345275545Y-65608462D01*
X341173601Y-69987280D02*
X340548467Y-66441974D01*
X342257604Y-69795043D02*
X341173601Y-69987280D01*
X347618854Y-63288931D02*
X347131988Y-63373612D01*
X349249025Y-68563366D02*
X343758639Y-69531469D01*
X350115854Y-62825675D02*
X348987623Y-63025718D01*
X350115854Y-62825675D02*
X350613503Y-65632444D01*
X350613503Y-65632444D02*
X350856953Y-65588965D01*
X350856953Y-65588965D02*
X350987189Y-66327571D01*
X347131988Y-63373612D02*
G75*
G02*
X345275545Y-65608461I-2169246J-86531D01*
G01*
X350987189Y-66327570D02*
G75*
G02*
X349249025Y-68563367I-1986984J-248814D01*
G01*
X343856464Y-85202563D02*
X348583542Y-84369051D01*
X344481598Y-88747869D02*
X343856464Y-85202563D01*
X345565601Y-88555632D02*
X344481598Y-88747869D01*
X350926851Y-82049520D02*
X350439985Y-82134201D01*
X352557022Y-87323955D02*
X347066636Y-88292058D01*
X353423851Y-81586264D02*
X352295620Y-81786307D01*
X353423851Y-81586264D02*
X353921500Y-84393033D01*
X353921500Y-84393033D02*
X354164950Y-84349554D01*
X354164950Y-84349554D02*
X354295186Y-85088160D01*
X350439985Y-82134201D02*
G75*
G02*
X348583542Y-84369050I-2169246J-86531D01*
G01*
X354295186Y-85088159D02*
G75*
G02*
X352557022Y-87323956I-1986984J-248814D01*
G01*
X350472461Y-122723734D02*
X355199539Y-121890222D01*
X351097595Y-126269040D02*
X350472461Y-122723734D01*
X352181598Y-126076803D02*
X351097595Y-126269040D01*
X357542848Y-119570691D02*
X357055982Y-119655372D01*
X359173019Y-124845126D02*
X353682633Y-125813229D01*
X360039848Y-119107435D02*
X358911617Y-119307478D01*
X360039848Y-119107435D02*
X360537497Y-121914204D01*
X360537497Y-121914204D02*
X360780947Y-121870725D01*
X360780947Y-121870725D02*
X360911183Y-122609331D01*
X357055982Y-119655372D02*
G75*
G02*
X355199539Y-121890221I-2169246J-86531D01*
G01*
X360911183Y-122609330D02*
G75*
G02*
X359173019Y-124845127I-1986984J-248814D01*
G01*
X347164463Y-103963150D02*
X351891541Y-103129638D01*
X347789597Y-107508456D02*
X347164463Y-103963150D01*
X348873600Y-107316219D02*
X347789597Y-107508456D01*
X354234850Y-100810107D02*
X353747984Y-100894788D01*
X355865021Y-106084542D02*
X350374635Y-107052645D01*
X356731850Y-100346851D02*
X355603619Y-100546894D01*
X356731850Y-100346851D02*
X357229499Y-103153620D01*
X357229499Y-103153620D02*
X357472949Y-103110141D01*
X357472949Y-103110141D02*
X357603185Y-103848747D01*
X353747984Y-100894788D02*
G75*
G02*
X351891541Y-103129637I-2169246J-86531D01*
G01*
X357603185Y-103848746D02*
G75*
G02*
X355865021Y-106084543I-1986984J-248814D01*
G01*
X134729302Y-152116752D02*
X139079579Y-154145320D01*
X133207877Y-155379459D02*
X134729302Y-152116752D01*
X134206104Y-155843746D02*
X133207877Y-155379459D01*
X142329535Y-153589338D02*
X141882147Y-153379450D01*
X140639601Y-158844930D02*
X135586859Y-156488798D01*
X144640670Y-154642081D02*
X143601737Y-154158820D01*
X144640670Y-154642081D02*
X143438423Y-157226691D01*
X143438423Y-157226691D02*
X143662785Y-157330712D01*
X143662785Y-157330712D02*
X143345821Y-158010443D01*
X141882147Y-153379450D02*
G75*
G02*
X139079580Y-154145319I-1826575J1173347D01*
G01*
X143345822Y-158010442D02*
G75*
G02*
X140639601Y-158844931I-1770356J935870D01*
G01*
X85608015Y-68630548D02*
X90335092Y-69464059D01*
X84982882Y-72175854D02*
X85608015Y-68630548D01*
X86067261Y-72365961D02*
X84982882Y-72175854D01*
X93330410Y-68085871D02*
X92843943Y-67998927D01*
X93058306Y-73599771D02*
X87567920Y-72631667D01*
X95835264Y-68504577D02*
X94706655Y-68306678D01*
X95835264Y-68504577D02*
X95342930Y-71312283D01*
X95342930Y-71312283D02*
X95586569Y-71354691D01*
X95586569Y-71354691D02*
X95456333Y-72093297D01*
X92843943Y-67998927D02*
G75*
G02*
X90335092Y-69464058I-2068021J660613D01*
G01*
X95456333Y-72093296D02*
G75*
G02*
X93058306Y-73599770I-1952253J445780D01*
G01*
X105140469Y-67561075D02*
X109867546Y-68394586D01*
X104515336Y-71106381D02*
X105140469Y-67561075D01*
X105599715Y-71296488D02*
X104515336Y-71106381D01*
X112862864Y-67016398D02*
X112376397Y-66929454D01*
X112590760Y-72530298D02*
X107100374Y-71562194D01*
X115367718Y-67435104D02*
X114239109Y-67237205D01*
X115367718Y-67435104D02*
X114875384Y-70242810D01*
X114875384Y-70242810D02*
X115119023Y-70285218D01*
X115119023Y-70285218D02*
X114988787Y-71023824D01*
X112376397Y-66929454D02*
G75*
G02*
X109867546Y-68394585I-2068021J660613D01*
G01*
X114988787Y-71023823D02*
G75*
G02*
X112590760Y-72530297I-1952253J445780D01*
G01*
X124342123Y-68367660D02*
X129069200Y-69201171D01*
X123716990Y-71912966D02*
X124342123Y-68367660D01*
X124801369Y-72103073D02*
X123716990Y-71912966D01*
X132064518Y-67822983D02*
X131578051Y-67736039D01*
X131792414Y-73336883D02*
X126302028Y-72368779D01*
X134569372Y-68241689D02*
X133440763Y-68043790D01*
X134569372Y-68241689D02*
X134077038Y-71049395D01*
X134077038Y-71049395D02*
X134320677Y-71091803D01*
X134320677Y-71091803D02*
X134190441Y-71830409D01*
X131578051Y-67736039D02*
G75*
G02*
X129069200Y-69201170I-2068021J660613D01*
G01*
X134190441Y-71830408D02*
G75*
G02*
X131792414Y-73336882I-1952253J445780D01*
G01*
X142661644Y-74177071D02*
X147388721Y-75010582D01*
X142036511Y-77722377D02*
X142661644Y-74177071D01*
X143120890Y-77912484D02*
X142036511Y-77722377D01*
X150384039Y-73632394D02*
X149897572Y-73545450D01*
X150111935Y-79146294D02*
X144621549Y-78178190D01*
X152888893Y-74051100D02*
X151760284Y-73853201D01*
X152888893Y-74051100D02*
X152396559Y-76858806D01*
X152396559Y-76858806D02*
X152640198Y-76901214D01*
X152640198Y-76901214D02*
X152509962Y-77639820D01*
X149897572Y-73545450D02*
G75*
G02*
X147388721Y-75010581I-2068021J660613D01*
G01*
X152509962Y-77639819D02*
G75*
G02*
X150111935Y-79146293I-1952253J445780D01*
G01*
X161091432Y-79361126D02*
X165818509Y-80194637D01*
X160466299Y-82906432D02*
X161091432Y-79361126D01*
X161550678Y-83096539D02*
X160466299Y-82906432D01*
X168813827Y-78816449D02*
X168327360Y-78729505D01*
X168541723Y-84330349D02*
X163051337Y-83362245D01*
X171318681Y-79235155D02*
X170190072Y-79037256D01*
X171318681Y-79235155D02*
X170826347Y-82042861D01*
X170826347Y-82042861D02*
X171069986Y-82085269D01*
X171069986Y-82085269D02*
X170939750Y-82823875D01*
X168327360Y-78729505D02*
G75*
G02*
X165818509Y-80194636I-2068021J660613D01*
G01*
X170939750Y-82823874D02*
G75*
G02*
X168541723Y-84330348I-1952253J445780D01*
G01*
X82300017Y-87391135D02*
X87027094Y-88224646D01*
X81674884Y-90936441D02*
X82300017Y-87391135D01*
X82759263Y-91126548D02*
X81674884Y-90936441D01*
X90022412Y-86846458D02*
X89535945Y-86759514D01*
X89750308Y-92360358D02*
X84259922Y-91392254D01*
X92527266Y-87265164D02*
X91398657Y-87067265D01*
X92527266Y-87265164D02*
X92034932Y-90072870D01*
X92034932Y-90072870D02*
X92278571Y-90115278D01*
X92278571Y-90115278D02*
X92148335Y-90853884D01*
X89535945Y-86759514D02*
G75*
G02*
X87027094Y-88224645I-2068021J660613D01*
G01*
X92148335Y-90853883D02*
G75*
G02*
X89750308Y-92360357I-1952253J445780D01*
G01*
X101832470Y-86321663D02*
X106559547Y-87155174D01*
X101207337Y-89866969D02*
X101832470Y-86321663D01*
X102291716Y-90057076D02*
X101207337Y-89866969D01*
X109554865Y-85776986D02*
X109068398Y-85690042D01*
X109282761Y-91290886D02*
X103792375Y-90322782D01*
X112059719Y-86195692D02*
X110931110Y-85997793D01*
X112059719Y-86195692D02*
X111567385Y-89003398D01*
X111567385Y-89003398D02*
X111811024Y-89045806D01*
X111811024Y-89045806D02*
X111680788Y-89784412D01*
X109068398Y-85690042D02*
G75*
G02*
X106559547Y-87155173I-2068021J660613D01*
G01*
X111680788Y-89784411D02*
G75*
G02*
X109282761Y-91290885I-1952253J445780D01*
G01*
X121034125Y-87128249D02*
X125761202Y-87961760D01*
X120408992Y-90673555D02*
X121034125Y-87128249D01*
X121493371Y-90863662D02*
X120408992Y-90673555D01*
X128756520Y-86583572D02*
X128270053Y-86496628D01*
X128484416Y-92097472D02*
X122994030Y-91129368D01*
X131261374Y-87002278D02*
X130132765Y-86804379D01*
X131261374Y-87002278D02*
X130769040Y-89809984D01*
X130769040Y-89809984D02*
X131012679Y-89852392D01*
X131012679Y-89852392D02*
X130882443Y-90590998D01*
X128270053Y-86496628D02*
G75*
G02*
X125761202Y-87961759I-2068021J660613D01*
G01*
X130882443Y-90590997D02*
G75*
G02*
X128484416Y-92097471I-1952253J445780D01*
G01*
X139353646Y-92937657D02*
X144080723Y-93771168D01*
X138728513Y-96482963D02*
X139353646Y-92937657D01*
X139812892Y-96673070D02*
X138728513Y-96482963D01*
X147076041Y-92392980D02*
X146589574Y-92306036D01*
X146803937Y-97906880D02*
X141313551Y-96938776D01*
X149580895Y-92811686D02*
X148452286Y-92613787D01*
X149580895Y-92811686D02*
X149088561Y-95619392D01*
X149088561Y-95619392D02*
X149332200Y-95661800D01*
X149332200Y-95661800D02*
X149201964Y-96400406D01*
X146589574Y-92306036D02*
G75*
G02*
X144080723Y-93771167I-2068021J660613D01*
G01*
X149201964Y-96400405D02*
G75*
G02*
X146803937Y-97906879I-1952253J445780D01*
G01*
X157783435Y-98121715D02*
X162510512Y-98955226D01*
X157158302Y-101667021D02*
X157783435Y-98121715D01*
X158242681Y-101857128D02*
X157158302Y-101667021D01*
X165505830Y-97577038D02*
X165019363Y-97490094D01*
X165233726Y-103090938D02*
X159743340Y-102122834D01*
X168010684Y-97995744D02*
X166882075Y-97797845D01*
X168010684Y-97995744D02*
X167518350Y-100803450D01*
X167518350Y-100803450D02*
X167761989Y-100845858D01*
X167761989Y-100845858D02*
X167631753Y-101584464D01*
X165019363Y-97490094D02*
G75*
G02*
X162510512Y-98955225I-2068021J660613D01*
G01*
X167631753Y-101584463D02*
G75*
G02*
X165233726Y-103090937I-1952253J445780D01*
G01*
X176670874Y-108760101D02*
X175837363Y-113487178D01*
X173125568Y-108134968D02*
X176670874Y-108760101D01*
X172935461Y-109219347D02*
X173125568Y-108134968D01*
X177215551Y-116482496D02*
X177302495Y-115996029D01*
X171701651Y-116210392D02*
X172669755Y-110720006D01*
X176796845Y-118987350D02*
X176994744Y-117858741D01*
X176796845Y-118987350D02*
X173989139Y-118495016D01*
X173989139Y-118495016D02*
X173946731Y-118738655D01*
X173946731Y-118738655D02*
X173208125Y-118608419D01*
X177302495Y-115996029D02*
G75*
G02*
X175837364Y-113487178I660613J2068021D01*
G01*
X173208126Y-118608419D02*
G75*
G02*
X171701652Y-116210392I445780J1952253D01*
G01*
X78992020Y-106151721D02*
X83719097Y-106985232D01*
X78366887Y-109697027D02*
X78992020Y-106151721D01*
X79451266Y-109887134D02*
X78366887Y-109697027D01*
X86714415Y-105607044D02*
X86227948Y-105520100D01*
X86442311Y-111120944D02*
X80951925Y-110152840D01*
X89219269Y-106025750D02*
X88090660Y-105827851D01*
X89219269Y-106025750D02*
X88726935Y-108833456D01*
X88726935Y-108833456D02*
X88970574Y-108875864D01*
X88970574Y-108875864D02*
X88840338Y-109614470D01*
X86227948Y-105520100D02*
G75*
G02*
X83719097Y-106985231I-2068021J660613D01*
G01*
X88840338Y-109614469D02*
G75*
G02*
X86442311Y-111120943I-1952253J445780D01*
G01*
X98524474Y-105082249D02*
X103251551Y-105915760D01*
X97899341Y-108627555D02*
X98524474Y-105082249D01*
X98983720Y-108817662D02*
X97899341Y-108627555D01*
X106246869Y-104537572D02*
X105760402Y-104450628D01*
X105974765Y-110051472D02*
X100484379Y-109083368D01*
X108751723Y-104956278D02*
X107623114Y-104758379D01*
X108751723Y-104956278D02*
X108259389Y-107763984D01*
X108259389Y-107763984D02*
X108503028Y-107806392D01*
X108503028Y-107806392D02*
X108372792Y-108544998D01*
X105760402Y-104450628D02*
G75*
G02*
X103251551Y-105915759I-2068021J660613D01*
G01*
X108372792Y-108544997D02*
G75*
G02*
X105974765Y-110051471I-1952253J445780D01*
G01*
X117726128Y-105888834D02*
X122453205Y-106722345D01*
X117100995Y-109434140D02*
X117726128Y-105888834D01*
X118185374Y-109624247D02*
X117100995Y-109434140D01*
X125448523Y-105344157D02*
X124962056Y-105257213D01*
X125176419Y-110858057D02*
X119686033Y-109889953D01*
X127953377Y-105762863D02*
X126824768Y-105564964D01*
X127953377Y-105762863D02*
X127461043Y-108570569D01*
X127461043Y-108570569D02*
X127704682Y-108612977D01*
X127704682Y-108612977D02*
X127574446Y-109351583D01*
X124962056Y-105257213D02*
G75*
G02*
X122453205Y-106722344I-2068021J660613D01*
G01*
X127574446Y-109351582D02*
G75*
G02*
X125176419Y-110858056I-1952253J445780D01*
G01*
X136045649Y-111698242D02*
X140772726Y-112531753D01*
X135420516Y-115243548D02*
X136045649Y-111698242D01*
X136504895Y-115433655D02*
X135420516Y-115243548D01*
X143768044Y-111153565D02*
X143281577Y-111066621D01*
X143495940Y-116667465D02*
X138005554Y-115699361D01*
X146272898Y-111572271D02*
X145144289Y-111374372D01*
X146272898Y-111572271D02*
X145780564Y-114379977D01*
X145780564Y-114379977D02*
X146024203Y-114422385D01*
X146024203Y-114422385D02*
X145893967Y-115160991D01*
X143281577Y-111066621D02*
G75*
G02*
X140772726Y-112531752I-2068021J660613D01*
G01*
X145893967Y-115160990D02*
G75*
G02*
X143495940Y-116667464I-1952253J445780D01*
G01*
X154475436Y-116882300D02*
X159202513Y-117715811D01*
X153850303Y-120427606D02*
X154475436Y-116882300D01*
X154934682Y-120617713D02*
X153850303Y-120427606D01*
X162197831Y-116337623D02*
X161711364Y-116250679D01*
X161925727Y-121851523D02*
X156435341Y-120883419D01*
X164702685Y-116756329D02*
X163574076Y-116558430D01*
X164702685Y-116756329D02*
X164210351Y-119564035D01*
X164210351Y-119564035D02*
X164453990Y-119606443D01*
X164453990Y-119606443D02*
X164323754Y-120345049D01*
X161711364Y-116250679D02*
G75*
G02*
X159202513Y-117715810I-2068021J660613D01*
G01*
X164323754Y-120345048D02*
G75*
G02*
X161925727Y-121851522I-1952253J445780D01*
G01*
X172130872Y-143143027D02*
X175807885Y-146228407D01*
X169816837Y-145900786D02*
X172130872Y-143143027D01*
X170660884Y-146607613D02*
X169816837Y-145900786D01*
X179091000Y-146532521D02*
X178713179Y-146213991D01*
X176098402Y-151171646D02*
X171827639Y-147588051D01*
X181050915Y-148147558D02*
X180172460Y-147411868D01*
X181050915Y-148147558D02*
X179220687Y-150332935D01*
X179220687Y-150332935D02*
X179410481Y-150491481D01*
X179410481Y-150491481D02*
X178928391Y-151066015D01*
X178713179Y-146213991D02*
G75*
G02*
X175807885Y-146228407I-1460652J1606118D01*
G01*
X178928391Y-151066014D02*
G75*
G02*
X176098402Y-151171646I-1467811J1362183D01*
G01*
X75684023Y-124912306D02*
X80411100Y-125745817D01*
X75058890Y-128457612D02*
X75684023Y-124912306D01*
X76143269Y-128647719D02*
X75058890Y-128457612D01*
X83406418Y-124367629D02*
X82919951Y-124280685D01*
X83134314Y-129881529D02*
X77643928Y-128913425D01*
X85911272Y-124786335D02*
X84782663Y-124588436D01*
X85911272Y-124786335D02*
X85418938Y-127594041D01*
X85418938Y-127594041D02*
X85662577Y-127636449D01*
X85662577Y-127636449D02*
X85532341Y-128375055D01*
X82919951Y-124280685D02*
G75*
G02*
X80411100Y-125745816I-2068021J660613D01*
G01*
X85532341Y-128375054D02*
G75*
G02*
X83134314Y-129881528I-1952253J445780D01*
G01*
X95216477Y-123842833D02*
X99943554Y-124676344D01*
X94591344Y-127388139D02*
X95216477Y-123842833D01*
X95675723Y-127578246D02*
X94591344Y-127388139D01*
X102938872Y-123298156D02*
X102452405Y-123211212D01*
X102666768Y-128812056D02*
X97176382Y-127843952D01*
X105443726Y-123716862D02*
X104315117Y-123518963D01*
X105443726Y-123716862D02*
X104951392Y-126524568D01*
X104951392Y-126524568D02*
X105195031Y-126566976D01*
X105195031Y-126566976D02*
X105064795Y-127305582D01*
X102452405Y-123211212D02*
G75*
G02*
X99943554Y-124676343I-2068021J660613D01*
G01*
X105064795Y-127305581D02*
G75*
G02*
X102666768Y-128812055I-1952253J445780D01*
G01*
X114418130Y-124649421D02*
X119145207Y-125482932D01*
X113792997Y-128194727D02*
X114418130Y-124649421D01*
X114877376Y-128384834D02*
X113792997Y-128194727D01*
X122140525Y-124104744D02*
X121654058Y-124017800D01*
X121868421Y-129618644D02*
X116378035Y-128650540D01*
X124645379Y-124523450D02*
X123516770Y-124325551D01*
X124645379Y-124523450D02*
X124153045Y-127331156D01*
X124153045Y-127331156D02*
X124396684Y-127373564D01*
X124396684Y-127373564D02*
X124266448Y-128112170D01*
X121654058Y-124017800D02*
G75*
G02*
X119145207Y-125482931I-2068021J660613D01*
G01*
X124266448Y-128112169D02*
G75*
G02*
X121868421Y-129618643I-1952253J445780D01*
G01*
X132737651Y-130458830D02*
X137464728Y-131292341D01*
X132112518Y-134004136D02*
X132737651Y-130458830D01*
X133196897Y-134194243D02*
X132112518Y-134004136D01*
X140460046Y-129914153D02*
X139973579Y-129827209D01*
X140187942Y-135428053D02*
X134697556Y-134459949D01*
X142964900Y-130332859D02*
X141836291Y-130134960D01*
X142964900Y-130332859D02*
X142472566Y-133140565D01*
X142472566Y-133140565D02*
X142716205Y-133182973D01*
X142716205Y-133182973D02*
X142585969Y-133921579D01*
X139973579Y-129827209D02*
G75*
G02*
X137464728Y-131292340I-2068021J660613D01*
G01*
X142585969Y-133921578D02*
G75*
G02*
X140187942Y-135428052I-1952253J445780D01*
G01*
X151167439Y-135642885D02*
X155894516Y-136476396D01*
X150542306Y-139188191D02*
X151167439Y-135642885D01*
X151626685Y-139378298D02*
X150542306Y-139188191D01*
X158889834Y-135098208D02*
X158403367Y-135011264D01*
X158617730Y-140612108D02*
X153127344Y-139644004D01*
X161394688Y-135516914D02*
X160266079Y-135319015D01*
X161394688Y-135516914D02*
X160902354Y-138324620D01*
X160902354Y-138324620D02*
X161145993Y-138367028D01*
X161145993Y-138367028D02*
X161015757Y-139105634D01*
X158403367Y-135011264D02*
G75*
G02*
X155894516Y-136476395I-2068021J660613D01*
G01*
X161015757Y-139105633D02*
G75*
G02*
X158617730Y-140612107I-1952253J445780D01*
G01*
X186736049Y-155390251D02*
X190413062Y-158475631D01*
X184422014Y-158148010D02*
X186736049Y-155390251D01*
X185266061Y-158854837D02*
X184422014Y-158148010D01*
X193696177Y-158779745D02*
X193318356Y-158461215D01*
X190703579Y-163418870D02*
X186432816Y-159835275D01*
X195656092Y-160394782D02*
X194777637Y-159659092D01*
X195656092Y-160394782D02*
X193825864Y-162580159D01*
X193825864Y-162580159D02*
X194015658Y-162738705D01*
X194015658Y-162738705D02*
X193533568Y-163313239D01*
X193318356Y-158461215D02*
G75*
G02*
X190413062Y-158475631I-1460652J1606118D01*
G01*
X193533568Y-163313238D02*
G75*
G02*
X190703579Y-163418870I-1467811J1362183D01*
G01*
X53615437Y-140364896D02*
X58342514Y-141198407D01*
X52990304Y-143910202D02*
X53615437Y-140364896D01*
X54074683Y-144100309D02*
X52990304Y-143910202D01*
X61337832Y-139820219D02*
X60851365Y-139733275D01*
X61065728Y-145334119D02*
X55575342Y-144366015D01*
X63842686Y-140238925D02*
X62714077Y-140041026D01*
X63842686Y-140238925D02*
X63350352Y-143046631D01*
X63350352Y-143046631D02*
X63593991Y-143089039D01*
X63593991Y-143089039D02*
X63463755Y-143827645D01*
X60851365Y-139733275D02*
G75*
G02*
X58342514Y-141198406I-2068021J660613D01*
G01*
X63463755Y-143827644D02*
G75*
G02*
X61065728Y-145334118I-1952253J445780D01*
G01*
X72376025Y-143672894D02*
X77103102Y-144506405D01*
X71750892Y-147218200D02*
X72376025Y-143672894D01*
X72835271Y-147408307D02*
X71750892Y-147218200D01*
X80098420Y-143128217D02*
X79611953Y-143041273D01*
X79826316Y-148642117D02*
X74335930Y-147674013D01*
X82603274Y-143546923D02*
X81474665Y-143349024D01*
X82603274Y-143546923D02*
X82110940Y-146354629D01*
X82110940Y-146354629D02*
X82354579Y-146397037D01*
X82354579Y-146397037D02*
X82224343Y-147135643D01*
X79611953Y-143041273D02*
G75*
G02*
X77103102Y-144506404I-2068021J660613D01*
G01*
X82224343Y-147135642D02*
G75*
G02*
X79826316Y-148642116I-1952253J445780D01*
G01*
X91908479Y-142603420D02*
X96635556Y-143436931D01*
X91283346Y-146148726D02*
X91908479Y-142603420D01*
X92367725Y-146338833D02*
X91283346Y-146148726D01*
X99630874Y-142058743D02*
X99144407Y-141971799D01*
X99358770Y-147572643D02*
X93868384Y-146604539D01*
X102135728Y-142477449D02*
X101007119Y-142279550D01*
X102135728Y-142477449D02*
X101643394Y-145285155D01*
X101643394Y-145285155D02*
X101887033Y-145327563D01*
X101887033Y-145327563D02*
X101756797Y-146066169D01*
X99144407Y-141971799D02*
G75*
G02*
X96635556Y-143436930I-2068021J660613D01*
G01*
X101756797Y-146066168D02*
G75*
G02*
X99358770Y-147572642I-1952253J445780D01*
G01*
X111110132Y-143410006D02*
X115837209Y-144243517D01*
X110484999Y-146955312D02*
X111110132Y-143410006D01*
X111569378Y-147145419D02*
X110484999Y-146955312D01*
X118832527Y-142865329D02*
X118346060Y-142778385D01*
X118560423Y-148379229D02*
X113070037Y-147411125D01*
X121337381Y-143284035D02*
X120208772Y-143086136D01*
X121337381Y-143284035D02*
X120845047Y-146091741D01*
X120845047Y-146091741D02*
X121088686Y-146134149D01*
X121088686Y-146134149D02*
X120958450Y-146872755D01*
X118346060Y-142778385D02*
G75*
G02*
X115837209Y-144243516I-2068021J660613D01*
G01*
X120958450Y-146872754D02*
G75*
G02*
X118560423Y-148379228I-1952253J445780D01*
G01*
X162442941Y-156908260D02*
X159357561Y-160585273D01*
X159685182Y-154594225D02*
X162442941Y-156908260D01*
X158978355Y-155438272D02*
X159685182Y-154594225D01*
X159053447Y-163868388D02*
X159371977Y-163490567D01*
X154414322Y-160875790D02*
X157997917Y-156605027D01*
X157438410Y-165828303D02*
X158174100Y-164949848D01*
X157438410Y-165828303D02*
X155253033Y-163998075D01*
X155253033Y-163998075D02*
X155094487Y-164187869D01*
X155094487Y-164187869D02*
X154519953Y-163705779D01*
X159371977Y-163490567D02*
G75*
G02*
X159357561Y-160585273I1606118J1460652D01*
G01*
X154519954Y-163705779D02*
G75*
G02*
X154414322Y-160875790I1362183J1467811D01*
G01*
X177048119Y-169155485D02*
X173962739Y-172832498D01*
X174290360Y-166841450D02*
X177048119Y-169155485D01*
X173583533Y-167685497D02*
X174290360Y-166841450D01*
X173658625Y-176115613D02*
X173977155Y-175737792D01*
X169019500Y-173123015D02*
X172603095Y-168852252D01*
X172043588Y-178075528D02*
X172779278Y-177197073D01*
X172043588Y-178075528D02*
X169858211Y-176245300D01*
X169858211Y-176245300D02*
X169699665Y-176435094D01*
X169699665Y-176435094D02*
X169125131Y-175953004D01*
X173977155Y-175737792D02*
G75*
G02*
X173962739Y-172832498I1606118J1460652D01*
G01*
X169125132Y-175953004D02*
G75*
G02*
X169019500Y-173123015I1362183J1467811D01*
G01*
X272156833Y-132019323D02*
X276883911Y-131185811D01*
X272781967Y-135564629D02*
X272156833Y-132019323D01*
X273865970Y-135372392D02*
X272781967Y-135564629D01*
X279227220Y-128866280D02*
X278740354Y-128950961D01*
X280857391Y-134140715D02*
X275367005Y-135108818D01*
X281724220Y-128403024D02*
X280595989Y-128603067D01*
X281724220Y-128403024D02*
X282221869Y-131209793D01*
X282221869Y-131209793D02*
X282465319Y-131166314D01*
X282465319Y-131166314D02*
X282595555Y-131904920D01*
X278740354Y-128950961D02*
G75*
G02*
X276883911Y-131185810I-2169246J-86531D01*
G01*
X282595555Y-131904919D02*
G75*
G02*
X280857391Y-134140716I-1986984J-248814D01*
G01*
X303062012Y-87882154D02*
X307789090Y-87048642D01*
X303687146Y-91427460D02*
X303062012Y-87882154D01*
X304771149Y-91235223D02*
X303687146Y-91427460D01*
X310132399Y-84729111D02*
X309645533Y-84813792D01*
X311762570Y-90003546D02*
X306272184Y-90971649D01*
X312629399Y-84265855D02*
X311501168Y-84465898D01*
X312629399Y-84265855D02*
X313127048Y-87072624D01*
X313127048Y-87072624D02*
X313370498Y-87029145D01*
X313370498Y-87029145D02*
X313500734Y-87767751D01*
X309645533Y-84813792D02*
G75*
G02*
X307789090Y-87048641I-2169246J-86531D01*
G01*
X313500734Y-87767750D02*
G75*
G02*
X311762570Y-90003547I-1986984J-248814D01*
G01*
X329210461Y-126472799D02*
X333937539Y-125639287D01*
X329835595Y-130018105D02*
X329210461Y-126472799D01*
X330919598Y-129825868D02*
X329835595Y-130018105D01*
X336280848Y-123319756D02*
X335793982Y-123404437D01*
X337911019Y-128594191D02*
X332420633Y-129562294D01*
X338777848Y-122856500D02*
X337649617Y-123056543D01*
X338777848Y-122856500D02*
X339275497Y-125663269D01*
X339275497Y-125663269D02*
X339518947Y-125619790D01*
X339518947Y-125619790D02*
X339649183Y-126358396D01*
X335793982Y-123404437D02*
G75*
G02*
X333937539Y-125639286I-2169246J-86531D01*
G01*
X339649183Y-126358395D02*
G75*
G02*
X337911019Y-128594192I-1986984J-248814D01*
G01*
X262232839Y-75737561D02*
X266959917Y-74904049D01*
X262857973Y-79282867D02*
X262232839Y-75737561D01*
X263941976Y-79090630D02*
X262857973Y-79282867D01*
X269303226Y-72584518D02*
X268816360Y-72669199D01*
X270933397Y-77858953D02*
X265443011Y-78827056D01*
X271800226Y-72121262D02*
X270671995Y-72321305D01*
X271800226Y-72121262D02*
X272297875Y-74928031D01*
X272297875Y-74928031D02*
X272541325Y-74884552D01*
X272541325Y-74884552D02*
X272671561Y-75623158D01*
X268816360Y-72669199D02*
G75*
G02*
X266959917Y-74904048I-2169246J-86531D01*
G01*
X272671561Y-75623157D02*
G75*
G02*
X270933397Y-77858954I-1986984J-248814D01*
G01*
X299754013Y-69121568D02*
X304481091Y-68288056D01*
X300379147Y-72666874D02*
X299754013Y-69121568D01*
X301463150Y-72474637D02*
X300379147Y-72666874D01*
X306824400Y-65968525D02*
X306337534Y-66053206D01*
X308454571Y-71242960D02*
X302964185Y-72211063D01*
X309321400Y-65505269D02*
X308193169Y-65705312D01*
X309321400Y-65505269D02*
X309819049Y-68312038D01*
X309819049Y-68312038D02*
X310062499Y-68268559D01*
X310062499Y-68268559D02*
X310192735Y-69007165D01*
X306337534Y-66053206D02*
G75*
G02*
X304481091Y-68288055I-2169246J-86531D01*
G01*
X310192735Y-69007164D02*
G75*
G02*
X308454571Y-71242961I-1986984J-248814D01*
G01*
X226786674Y-86071722D02*
X227620186Y-90798800D01*
X223241368Y-86696856D02*
X226786674Y-86071722D01*
X223433605Y-87780859D02*
X223241368Y-86696856D01*
X229939717Y-93142109D02*
X229855036Y-92655243D01*
X224665282Y-94772280D02*
X223697179Y-89281894D01*
X230402973Y-95639109D02*
X230202930Y-94510878D01*
X230402973Y-95639109D02*
X227596204Y-96136758D01*
X227596204Y-96136758D02*
X227639683Y-96380208D01*
X227639683Y-96380208D02*
X226901077Y-96510444D01*
X229855036Y-92655243D02*
G75*
G02*
X227620187Y-90798800I-86531J2169246D01*
G01*
X226901078Y-96510444D02*
G75*
G02*
X224665281Y-94772280I-248814J1986984D01*
G01*
X287168356Y-107449327D02*
X291895434Y-106615815D01*
X287793490Y-110994633D02*
X287168356Y-107449327D01*
X288877493Y-110802396D02*
X287793490Y-110994633D01*
X294238743Y-104296284D02*
X293751877Y-104380965D01*
X295868914Y-109570719D02*
X290378528Y-110538822D01*
X296735743Y-103833028D02*
X295607512Y-104033071D01*
X296735743Y-103833028D02*
X297233392Y-106639797D01*
X297233392Y-106639797D02*
X297476842Y-106596318D01*
X297476842Y-106596318D02*
X297607078Y-107334924D01*
X293751877Y-104380965D02*
G75*
G02*
X291895434Y-106615814I-2169246J-86531D01*
G01*
X297607078Y-107334923D02*
G75*
G02*
X295868914Y-109570720I-1986984J-248814D01*
G01*
X270856439Y-155869631D02*
X275206716Y-153841064D01*
X272377864Y-159132338D02*
X270856439Y-155869631D01*
X273375177Y-158666090D02*
X272377864Y-159132338D01*
X276869841Y-150994075D02*
X276421482Y-151201881D01*
X279809589Y-155666869D02*
X274756847Y-158023001D01*
X279161858Y-149900333D02*
X278123845Y-150385568D01*
X279161858Y-149900333D02*
X280368995Y-152482663D01*
X280368995Y-152482663D02*
X280592897Y-152377656D01*
X280592897Y-152377656D02*
X280909860Y-153057386D01*
X276421482Y-151201881D02*
G75*
G02*
X275206716Y-153841064I-2072936J-645025D01*
G01*
X280909860Y-153057385D02*
G75*
G02*
X279809589Y-155666870I-1854881J-754606D01*
G01*
X280552359Y-69928152D02*
X285279437Y-69094640D01*
X281177493Y-73473458D02*
X280552359Y-69928152D01*
X282261496Y-73281221D02*
X281177493Y-73473458D01*
X287622746Y-66775109D02*
X287135880Y-66859790D01*
X289252917Y-72049544D02*
X283762531Y-73017647D01*
X290119746Y-66311853D02*
X288991515Y-66511896D01*
X290119746Y-66311853D02*
X290617395Y-69118622D01*
X290617395Y-69118622D02*
X290860845Y-69075143D01*
X290860845Y-69075143D02*
X290991081Y-69813749D01*
X287135880Y-66859790D02*
G75*
G02*
X285279437Y-69094639I-2169246J-86531D01*
G01*
X290991081Y-69813748D02*
G75*
G02*
X289252917Y-72049545I-1986984J-248814D01*
G01*
X242178700Y-175932519D02*
X239093319Y-172255506D01*
X244936459Y-173618484D02*
X242178700Y-175932519D01*
X244227974Y-172775828D02*
X244936459Y-173618484D01*
X235912891Y-171385906D02*
X236229660Y-171765203D01*
X239665601Y-167336918D02*
X243249195Y-171607681D01*
X234263200Y-169455069D02*
X235000558Y-170332124D01*
X234263200Y-169455069D02*
X236445109Y-167620708D01*
X236445109Y-167620708D02*
X236285729Y-167431613D01*
X236285729Y-167431613D02*
X236860263Y-166949522D01*
X236229660Y-171765203D02*
G75*
G02*
X239093319Y-172255506I1159562J-1835357D01*
G01*
X236860262Y-166949523D02*
G75*
G02*
X239665601Y-167336918I1208971J-1596371D01*
G01*
X253727045Y-137203377D02*
X258454123Y-136369865D01*
X254352179Y-140748683D02*
X253727045Y-137203377D01*
X255436182Y-140556446D02*
X254352179Y-140748683D01*
X260797432Y-134050334D02*
X260310566Y-134135015D01*
X262427603Y-139324769D02*
X256937217Y-140292872D01*
X263294432Y-133587078D02*
X262166201Y-133787121D01*
X263294432Y-133587078D02*
X263792081Y-136393847D01*
X263792081Y-136393847D02*
X264035531Y-136350368D01*
X264035531Y-136350368D02*
X264165767Y-137088974D01*
X260310566Y-134135015D02*
G75*
G02*
X258454123Y-136369864I-2169246J-86531D01*
G01*
X264165767Y-137088973D02*
G75*
G02*
X262427603Y-139324770I-1986984J-248814D01*
G01*
X247111049Y-99682206D02*
X251838127Y-98848694D01*
X247736183Y-103227512D02*
X247111049Y-99682206D01*
X248820186Y-103035275D02*
X247736183Y-103227512D01*
X254181436Y-96529163D02*
X253694570Y-96613844D01*
X255811607Y-101803598D02*
X250321221Y-102771701D01*
X256678436Y-96065907D02*
X255550205Y-96265950D01*
X256678436Y-96065907D02*
X257176085Y-98872676D01*
X257176085Y-98872676D02*
X257419535Y-98829197D01*
X257419535Y-98829197D02*
X257549771Y-99567803D01*
X253694570Y-96613844D02*
G75*
G02*
X251838127Y-98848693I-2169246J-86531D01*
G01*
X257549771Y-99567802D02*
G75*
G02*
X255811607Y-101803599I-1986984J-248814D01*
G01*
X309678007Y-125403328D02*
X314405085Y-124569816D01*
X310303141Y-128948634D02*
X309678007Y-125403328D01*
X311387144Y-128756397D02*
X310303141Y-128948634D01*
X316748394Y-122250285D02*
X316261528Y-122334966D01*
X318378565Y-127524720D02*
X312888179Y-128492823D01*
X319245394Y-121787029D02*
X318117163Y-121987072D01*
X319245394Y-121787029D02*
X319743043Y-124593798D01*
X319743043Y-124593798D02*
X319986493Y-124550319D01*
X319986493Y-124550319D02*
X320116729Y-125288925D01*
X316261528Y-122334966D02*
G75*
G02*
X314405085Y-124569815I-2169246J-86531D01*
G01*
X320116729Y-125288924D02*
G75*
G02*
X318378565Y-127524721I-1986984J-248814D01*
G01*
X290476354Y-126209913D02*
X295203432Y-125376401D01*
X291101488Y-129755219D02*
X290476354Y-126209913D01*
X292185491Y-129562982D02*
X291101488Y-129755219D01*
X297546741Y-123056870D02*
X297059875Y-123141551D01*
X299176912Y-128331305D02*
X293686526Y-129299408D01*
X300043741Y-122593614D02*
X298915510Y-122793657D01*
X300043741Y-122593614D02*
X300541390Y-125400383D01*
X300541390Y-125400383D02*
X300784840Y-125356904D01*
X300784840Y-125356904D02*
X300915076Y-126095510D01*
X297059875Y-123141551D02*
G75*
G02*
X295203432Y-125376400I-2169246J-86531D01*
G01*
X300915076Y-126095509D02*
G75*
G02*
X299176912Y-128331306I-1986984J-248814D01*
G01*
X325902463Y-107712213D02*
X330629541Y-106878701D01*
X326527597Y-111257519D02*
X325902463Y-107712213D01*
X327611600Y-111065282D02*
X326527597Y-111257519D01*
X332972850Y-104559170D02*
X332485984Y-104643851D01*
X334603021Y-109833605D02*
X329112635Y-110801708D01*
X335469850Y-104095914D02*
X334341619Y-104295957D01*
X335469850Y-104095914D02*
X335967499Y-106902683D01*
X335967499Y-106902683D02*
X336210949Y-106859204D01*
X336210949Y-106859204D02*
X336341185Y-107597810D01*
X332485984Y-104643851D02*
G75*
G02*
X330629541Y-106878700I-2169246J-86531D01*
G01*
X336341185Y-107597809D02*
G75*
G02*
X334603021Y-109833606I-1986984J-248814D01*
G01*
X322594465Y-88951628D02*
X327321543Y-88118116D01*
X323219599Y-92496934D02*
X322594465Y-88951628D01*
X324303602Y-92304697D02*
X323219599Y-92496934D01*
X329664852Y-85798585D02*
X329177986Y-85883266D01*
X331295023Y-91073020D02*
X325804637Y-92041123D01*
X332161852Y-85335329D02*
X331033621Y-85535372D01*
X332161852Y-85335329D02*
X332659501Y-88142098D01*
X332659501Y-88142098D02*
X332902951Y-88098619D01*
X332902951Y-88098619D02*
X333033187Y-88837225D01*
X329177986Y-85883266D02*
G75*
G02*
X327321543Y-88118115I-2169246J-86531D01*
G01*
X333033187Y-88837224D02*
G75*
G02*
X331295023Y-91073021I-1986984J-248814D01*
G01*
X234690006Y-148834682D02*
X238367019Y-145749301D01*
X237004041Y-151592441D02*
X234690006Y-148834682D01*
X237846697Y-150883956D02*
X237004041Y-151592441D01*
X239236619Y-142568873D02*
X238857322Y-142885642D01*
X243285607Y-146321583D02*
X239014844Y-149905177D01*
X241167456Y-140919182D02*
X240290401Y-141656540D01*
X241167456Y-140919182D02*
X243001817Y-143101091D01*
X243001817Y-143101091D02*
X243190912Y-142941711D01*
X243190912Y-142941711D02*
X243673003Y-143516245D01*
X238857322Y-142885642D02*
G75*
G02*
X238367019Y-145749301I-1835357J-1159562D01*
G01*
X243673002Y-143516244D02*
G75*
G02*
X243285607Y-146321583I-1596371J-1208971D01*
G01*
X268848835Y-113258735D02*
X273575913Y-112425223D01*
X269473969Y-116804041D02*
X268848835Y-113258735D01*
X270557972Y-116611804D02*
X269473969Y-116804041D01*
X275919222Y-110105692D02*
X275432356Y-110190373D01*
X277549393Y-115380127D02*
X272059007Y-116348230D01*
X278416222Y-109642436D02*
X277287991Y-109842479D01*
X278416222Y-109642436D02*
X278913871Y-112449205D01*
X278913871Y-112449205D02*
X279157321Y-112405726D01*
X279157321Y-112405726D02*
X279287557Y-113144332D01*
X275432356Y-110190373D02*
G75*
G02*
X273575913Y-112425222I-2169246J-86531D01*
G01*
X279287557Y-113144331D02*
G75*
G02*
X277549393Y-115380128I-1986984J-248814D01*
G01*
X265540837Y-94498150D02*
X270267915Y-93664638D01*
X266165971Y-98043456D02*
X265540837Y-94498150D01*
X267249974Y-97851219D02*
X266165971Y-98043456D01*
X272611224Y-91345107D02*
X272124358Y-91429788D01*
X274241395Y-96619542D02*
X268751009Y-97587645D01*
X275108224Y-90881851D02*
X273979993Y-91081894D01*
X275108224Y-90881851D02*
X275605873Y-93688620D01*
X275605873Y-93688620D02*
X275849323Y-93645141D01*
X275849323Y-93645141D02*
X275979559Y-94383747D01*
X272124358Y-91429788D02*
G75*
G02*
X270267915Y-93664637I-2169246J-86531D01*
G01*
X275979559Y-94383746D02*
G75*
G02*
X274241395Y-96619543I-1986984J-248814D01*
G01*
X319286468Y-70191039D02*
X324013546Y-69357527D01*
X319911602Y-73736345D02*
X319286468Y-70191039D01*
X320995605Y-73544108D02*
X319911602Y-73736345D01*
X326356855Y-67037996D02*
X325869989Y-67122677D01*
X327987026Y-72312431D02*
X322496640Y-73280534D01*
X328853855Y-66574740D02*
X327725624Y-66774783D01*
X328853855Y-66574740D02*
X329351504Y-69381509D01*
X329351504Y-69381509D02*
X329594954Y-69338030D01*
X329594954Y-69338030D02*
X329725190Y-70076636D01*
X325869989Y-67122677D02*
G75*
G02*
X324013546Y-69357526I-2169246J-86531D01*
G01*
X329725190Y-70076635D02*
G75*
G02*
X327987026Y-72312432I-1986984J-248814D01*
G01*
X256783876Y-163685295D02*
X253698495Y-160008282D01*
X259541635Y-161371260D02*
X256783876Y-163685295D01*
X258833150Y-160528604D02*
X259541635Y-161371260D01*
X250518067Y-159138682D02*
X250834836Y-159517979D01*
X254270777Y-155089694D02*
X257854371Y-159360457D01*
X248868376Y-157207845D02*
X249605734Y-158084900D01*
X248868376Y-157207845D02*
X251050285Y-155373484D01*
X251050285Y-155373484D02*
X250890905Y-155184389D01*
X250890905Y-155184389D02*
X251465439Y-154702298D01*
X250834836Y-159517979D02*
G75*
G02*
X253698495Y-160008282I1159562J-1835357D01*
G01*
X251465438Y-154702299D02*
G75*
G02*
X254270777Y-155089694I1208971J-1596371D01*
G01*
X250419048Y-118442791D02*
X255146126Y-117609279D01*
X251044182Y-121988097D02*
X250419048Y-118442791D01*
X252128185Y-121795860D02*
X251044182Y-121988097D01*
X257489435Y-115289748D02*
X257002569Y-115374429D01*
X259119606Y-120564183D02*
X253629220Y-121532286D01*
X259986435Y-114826492D02*
X258858204Y-115026535D01*
X259986435Y-114826492D02*
X260484084Y-117633261D01*
X260484084Y-117633261D02*
X260727534Y-117589782D01*
X260727534Y-117589782D02*
X260857770Y-118328388D01*
X257002569Y-115374429D02*
G75*
G02*
X255146126Y-117609278I-2169246J-86531D01*
G01*
X260857770Y-118328387D02*
G75*
G02*
X259119606Y-120564184I-1986984J-248814D01*
G01*
X332518459Y-145233384D02*
X337245537Y-144399872D01*
X333143593Y-148778690D02*
X332518459Y-145233384D01*
X334227596Y-148586453D02*
X333143593Y-148778690D01*
X339588846Y-142080341D02*
X339101980Y-142165022D01*
X341219017Y-147354776D02*
X335728631Y-148322879D01*
X342085846Y-141617085D02*
X340957615Y-141817128D01*
X342085846Y-141617085D02*
X342583495Y-144423854D01*
X342583495Y-144423854D02*
X342826945Y-144380375D01*
X342826945Y-144380375D02*
X342957181Y-145118981D01*
X339101980Y-142165022D02*
G75*
G02*
X337245537Y-144399871I-2169246J-86531D01*
G01*
X342957181Y-145118980D02*
G75*
G02*
X341219017Y-147354777I-1986984J-248814D01*
G01*
X293784350Y-144970498D02*
X298511428Y-144136986D01*
X294409484Y-148515804D02*
X293784350Y-144970498D01*
X295493487Y-148323567D02*
X294409484Y-148515804D01*
X300854737Y-141817455D02*
X300367871Y-141902136D01*
X302484908Y-147091890D02*
X296994522Y-148059993D01*
X303351737Y-141354199D02*
X302223506Y-141554242D01*
X303351737Y-141354199D02*
X303849386Y-144160968D01*
X303849386Y-144160968D02*
X304092836Y-144117489D01*
X304092836Y-144117489D02*
X304223072Y-144856095D01*
X300367871Y-141902136D02*
G75*
G02*
X298511428Y-144136985I-2169246J-86531D01*
G01*
X304223072Y-144856094D02*
G75*
G02*
X302484908Y-147091891I-1986984J-248814D01*
G01*
X238424781Y-117463531D02*
X237591269Y-112736453D01*
X241970087Y-116838397D02*
X238424781Y-117463531D01*
X241777850Y-115754394D02*
X241970087Y-116838397D01*
X235271738Y-110393144D02*
X235356419Y-110880010D01*
X240546173Y-108762973D02*
X241514276Y-114253359D01*
X234808482Y-107896144D02*
X235008525Y-109024375D01*
X234808482Y-107896144D02*
X237615251Y-107398495D01*
X237615251Y-107398495D02*
X237571772Y-107155045D01*
X237571772Y-107155045D02*
X238310378Y-107024809D01*
X235356419Y-110880010D02*
G75*
G02*
X237591268Y-112736453I86531J-2169246D01*
G01*
X238310377Y-107024809D02*
G75*
G02*
X240546174Y-108762973I248814J-1986984D01*
G01*
X283860357Y-88688740D02*
X288587435Y-87855228D01*
X284485491Y-92234046D02*
X283860357Y-88688740D01*
X285569494Y-92041809D02*
X284485491Y-92234046D01*
X290930744Y-85535697D02*
X290443878Y-85620378D01*
X292560915Y-90810132D02*
X287070529Y-91778235D01*
X293427744Y-85072441D02*
X292299513Y-85272484D01*
X293427744Y-85072441D02*
X293925393Y-87879210D01*
X293925393Y-87879210D02*
X294168843Y-87835731D01*
X294168843Y-87835731D02*
X294299079Y-88574337D01*
X290443878Y-85620378D02*
G75*
G02*
X288587435Y-87855227I-2169246J-86531D01*
G01*
X294299079Y-88574336D02*
G75*
G02*
X292560915Y-90810133I-1986984J-248814D01*
G01*
X220084828Y-161081908D02*
X223761841Y-157996527D01*
X222398863Y-163839667D02*
X220084828Y-161081908D01*
X223241519Y-163131182D02*
X222398863Y-163839667D01*
X224631441Y-154816099D02*
X224252144Y-155132868D01*
X228680429Y-158568809D02*
X224409666Y-162152403D01*
X226562278Y-153166408D02*
X225685223Y-153903766D01*
X226562278Y-153166408D02*
X228396639Y-155348317D01*
X228396639Y-155348317D02*
X228585734Y-155188937D01*
X228585734Y-155188937D02*
X229067825Y-155763471D01*
X224252144Y-155132868D02*
G75*
G02*
X223761841Y-157996527I-1835357J-1159562D01*
G01*
X229067824Y-155763470D02*
G75*
G02*
X228680429Y-158568809I-1596371J-1208971D01*
G01*
X312986004Y-144163913D02*
X317713082Y-143330401D01*
X313611138Y-147709219D02*
X312986004Y-144163913D01*
X314695141Y-147516982D02*
X313611138Y-147709219D01*
X320056391Y-141010870D02*
X319569525Y-141095551D01*
X321686562Y-146285305D02*
X316196176Y-147253408D01*
X322553391Y-140547614D02*
X321425160Y-140747657D01*
X322553391Y-140547614D02*
X323051040Y-143354383D01*
X323051040Y-143354383D02*
X323294490Y-143310904D01*
X323294490Y-143310904D02*
X323424726Y-144049510D01*
X319569525Y-141095551D02*
G75*
G02*
X317713082Y-143330400I-2169246J-86531D01*
G01*
X323424726Y-144049509D02*
G75*
G02*
X321686562Y-146285306I-1986984J-248814D01*
G01*
X243803052Y-80921620D02*
X248530130Y-80088108D01*
X244428186Y-84466926D02*
X243803052Y-80921620D01*
X245512189Y-84274689D02*
X244428186Y-84466926D01*
X250873439Y-77768577D02*
X250386573Y-77853258D01*
X252503610Y-83043012D02*
X247013224Y-84011115D01*
X253370439Y-77305321D02*
X252242208Y-77505364D01*
X253370439Y-77305321D02*
X253868088Y-80112090D01*
X253868088Y-80112090D02*
X254111538Y-80068611D01*
X254111538Y-80068611D02*
X254241774Y-80807217D01*
X250386573Y-77853258D02*
G75*
G02*
X248530130Y-80088107I-2169246J-86531D01*
G01*
X254241774Y-80807216D02*
G75*
G02*
X252503610Y-83043013I-1986984J-248814D01*
G01*
X306370009Y-106642740D02*
X311097087Y-105809228D01*
X306995143Y-110188046D02*
X306370009Y-106642740D01*
X308079146Y-109995809D02*
X306995143Y-110188046D01*
X313440396Y-103489697D02*
X312953530Y-103574378D01*
X315070567Y-108764132D02*
X309580181Y-109732235D01*
X315937396Y-103026441D02*
X314809165Y-103226484D01*
X315937396Y-103026441D02*
X316435045Y-105833210D01*
X316435045Y-105833210D02*
X316678495Y-105789731D01*
X316678495Y-105789731D02*
X316808731Y-106528337D01*
X312953530Y-103574378D02*
G75*
G02*
X311097087Y-105809227I-2169246J-86531D01*
G01*
X316808731Y-106528336D02*
G75*
G02*
X315070567Y-108764133I-1986984J-248814D01*
G01*
X351279046Y-141925386D02*
X356006124Y-141091874D01*
X351904180Y-145470692D02*
X351279046Y-141925386D01*
X352988183Y-145278455D02*
X351904180Y-145470692D01*
X358349433Y-138772343D02*
X357862567Y-138857024D01*
X359979604Y-144046778D02*
X354489218Y-145014881D01*
X360846433Y-138309087D02*
X359718202Y-138509130D01*
X360846433Y-138309087D02*
X361344082Y-141115856D01*
X361344082Y-141115856D02*
X361587532Y-141072377D01*
X361587532Y-141072377D02*
X361717768Y-141810983D01*
X357862567Y-138857024D02*
G75*
G02*
X356006124Y-141091873I-2169246J-86531D01*
G01*
X361717768Y-141810982D02*
G75*
G02*
X359979604Y-144046779I-1986984J-248814D01*
G01*
X184706068Y-86990007D02*
X184619124Y-87476473D01*
X185124773Y-84485151D02*
X184926875Y-85613761D01*
X185124773Y-84485151D02*
X187932480Y-84977487D01*
X185250745Y-94712401D02*
X186084256Y-89985324D01*
X187932480Y-84977487D02*
X187974888Y-84733847D01*
X187974888Y-84733847D02*
X188713494Y-84864083D01*
X188796051Y-95337534D02*
X185250745Y-94712401D01*
X188986158Y-94253155D02*
X188796051Y-95337534D01*
X190219968Y-87262110D02*
X189251864Y-92752496D01*
X184619124Y-87476473D02*
G75*
G02*
X186084255Y-89985324I-660613J-2068021D01*
G01*
X188713493Y-84864083D02*
G75*
G02*
X190219967Y-87262110I-445780J-1952253D01*
G01*
M02*
